<svg width="581" height="514" viewBox="0 0 581 514" fill="none" xmlns="http://www.w3.org/2000/svg">
<path d="M447.034 136.592L445.241 138.611L438.486 141.723L435.479 144.046L431.978 144.936L430.781 145.94L429.859 147.59L430.792 147.947L431.25 148.428L431.443 149.173L431.636 149.358L432.889 151.976L432.716 153.089L431.932 155.382L428.29 158.924L427.649 159.234L425.298 159.383L424.294 160.289L423.595 162.384L424.766 163.308L425.343 163.568L427.601 163.717L428.086 164.446L428.3 166.224L427.9 166.511L426.74 167.563L427.53 168.169L431.824 168.318L434.303 169.484L436.031 169.335L439.163 166.461L441.107 166.224L441.957 166.682L442.707 167.552L443.242 168.962L443.447 171.083L443.69 172.183L444.225 172.556L444.759 172.681L445.005 173.024L445.094 174.096L445.47 176.183L445.523 177.2L445.408 177.584L444.922 178.085L444.745 178.472L444.722 178.901L444.745 180.319L443.729 183.245L443.289 183.639L440.823 186.735L438.016 188.844L437.161 189.966L437.231 191.585L436.483 192.91L434.562 195.033L435.698 194.957L436.709 194.135L438.486 191.804L437.899 193.702L436.805 195.779L436.357 197.443L437.705 198.132L439.071 197.737L442.056 195.997L450.228 193.766L453.17 192.14L454.727 191.736L455.947 193.072L454.296 196.961L453.354 197.918L453.449 198.708L453.887 199.799L454.064 200.032L454.928 200.709L457.338 202.34L458.047 203.234L455.978 203.873L454.869 204.751L453.94 207.13L451.972 209.476L451.2 211.441L448.308 214.931L447.728 216.086L447.285 217.464L447.082 218.998L447.567 218.277L448.379 216.276L448.785 215.861L449.221 215.615L450.498 214.303L450.891 213.697L451.585 212.205L456.3 205.089L457.127 204.496L458.147 204.762L461.167 207.013L460.569 206.136L459.488 204.946L459.064 203.925L467.428 208.959L468.494 209.127L472.676 208.059L473.385 208.164L473.831 208.614L474.113 209.715L474.164 210.655L473.952 211.295L473.453 211.468V212.044L474.649 211.999L475.176 212.182L475.532 212.732L475.572 213.372L475.294 215.297L475.554 215.97L475.884 216.478L476.573 217.116L478.345 214.482L479.322 213.753L480.47 214.041L480.669 214.426L480.754 215.861L480.991 215.932L481.539 215.761L481.768 215.861L483.351 217.8L483.413 219.826L482.871 221.097L482.171 221.973L481.768 222.804L481.864 223.337L482.301 225.079L482.315 225.871L482.063 226.229L480.754 227.177L481.143 227.735L481.135 228.43L481 229.273L481.016 230.298L479.73 231.238L476.263 230.71L474.751 231.542L475.69 232.358L478.652 233.412L478.774 234.906L477.905 235.929L476.692 236.481L474.796 236.495L473.992 236.751L472.391 237.762L469.212 238.361L468.233 239.005L468.828 239.856L474.866 237.591L476.703 237.762L480.38 236.792L481.533 237.14L483.419 238.406L484.392 239.471L484.936 240.921L484.03 241.638L482.482 244.106L481.654 244.645L476.832 245.877H471.74L469.531 246.442H467.193L468.364 247.382L472.794 246.442L478.652 247.117L481.274 246.442H482.704L483.085 246.748L482.905 247.412L482.315 248.41L482.248 249.394V249.748L482.055 250.153L480.613 250.823L479.33 250.952L478.133 251.442V252.119L481.079 251.493L481.768 252.119V252.674L481.404 252.774L481.07 253.028L480.47 253.965H481.654L482.027 254.153L482.704 255.145L483.085 254.87L483.695 253.634L484.014 253.355L484.092 253.002L485.198 250.823L486.756 248.974L486.861 250.3L486.722 254.065L486.497 255.145V255.818L487.205 256.336L487.413 257.192L487.159 258.286L486.497 259.518L485.726 260.23L484.113 260.707L483.351 261.359L484.377 263.433L484.276 263.821L483.683 264.114L482.493 265.421L481.914 265.717L479.169 265.048L476.804 265.476L476.028 265.048L475.665 264.209L475.349 262.964L474.95 261.85L474.35 261.359L473.732 261.158L472.471 260.278L470.475 259.606L468.364 257.522L467.193 257.052L467.434 258.043L467.831 258.77L468.295 259.254L468.728 259.518L467.357 261.059L459.606 261.359V262.034L471.61 263.202L471.999 263.554L472.527 264.239L472.993 265.11L473.193 265.995L473.518 266.475L475.294 268.116L479.219 269.943L479.975 271.236L478.392 272.491L476.525 272.207L473.193 270.571L469.401 271.236L467.064 270.225L466.412 270.571L468.661 272.196L474.113 273.469L476.573 275.521L477.239 276.866L477.363 277.63L476.953 277.965L476.331 278.253L475.383 279.516L474.882 279.799L470.904 278.235L469.768 279.239L473.895 280.938L474.587 281.61L474.611 282.569L473.523 282.911L469.178 282.729L467.97 282.235L467.733 282.66L467.419 282.969L466.646 283.456V284.12L467.817 285.58L468.435 286.563L469.011 287.774L468.391 288.006L466.646 289.601L458.188 291.418L456.827 290.984L456.071 290.499L455.568 289.905L454.479 286.429L453.506 285.427L452.481 283.369L451.917 282.9L448.927 282.235L449.304 282.748L449.713 282.926L450.616 282.9L451.139 283.314L451.088 284.24L450.746 285.895L451.334 286.646L453.258 287.702L453.887 287.774L453.825 289.499L454.35 290.912L455.066 292.124L455.568 292.634L457.501 293.3L458.205 294.067L457.787 295.065L458.047 295.672L451.666 293.513L449.705 295.065L450.326 295.824L451.852 296.618L452.589 297.485L452.956 298.481L452.911 299.326L452.508 300.015L451.785 300.513H446.709L446.244 301.093L446.712 302.275L447.468 303.27L447.865 303.259L448.253 304.167L449.076 304.75L449.819 304.804L449.968 304.145L451.536 303.717L453.887 300.17L455.07 299.304L455.312 299.737L454.727 300.725L451.237 304.988L450.746 306.013L450.614 306.833L450.501 308.656L450.344 309.357L449.101 311.562L448.927 312.366L449.057 314.171L448.481 314.859L448.32 315.787L447.747 317.449L443.794 317.89L440.066 319.307L441.715 317.997L445.12 317.012L446.849 316.303L445.876 315.644L441.644 314.966L441.343 315.106L441.294 315.479L441.367 316.654L441.223 316.905L440.944 317.095L440.131 317.922L439.666 318.105L439.491 318.341L438.72 319.855L438.28 320.312L436.173 321.668L435.309 322.579L434.531 323.64L434.043 324.711L434.378 323.279L434.562 322.911V322.311H434.303L434.043 323.186L433.456 323.951L432.812 324.497L432.363 324.711L432.222 324.993L432.333 325.632L432.623 326.271L433.013 326.557L433.837 326.464L434.201 326.275L434.562 325.907L434.748 327.142L435.083 328.304L434.231 328.29L433.109 329.762L432.363 330.146L430.595 329.958L429.819 329.594L429.08 328.949L427.877 327.484L427.147 326.831L426.362 326.557L426.021 326.806L425.307 327.955L424.943 328.304L424.48 328.204L424.045 327.862L423.599 327.741L423.103 328.304L423.595 328.949L423.188 329.38L422.75 329.53L421.802 329.494L422.558 327.099V326.557L421.331 326.899L420.735 326.853L420.479 326.232L420.305 324.879L419.884 323.972L419.373 323.665L418.921 324.108V324.711L419.452 325.579L419.721 327.099L419.206 326.746L418.121 326.339L417.621 325.907V325.365L417.991 324.137L417.431 322.29L416.473 320.595L415.659 319.855L414.875 318.985L412.398 318.105L413.047 318.642L415.14 319.586L415.547 320.563L416.58 323.451L416.256 323.929L415.931 324.069L415.604 323.897L415.279 323.451V324.108L416.05 324.815L416.185 326.164L415.869 327.698L415.279 328.949L414.348 329.441L412.226 328.86L411.356 329.494L411.891 329.965L412.472 330.146H413.722L412.759 330.948L410.321 331.834L408.134 332.044L405.835 332.913L404.838 333.734L404.32 332.478L403.258 333.98L399.878 336.71L403.048 335.633L403.797 336.17L402.519 337.243L392.658 340.277L391.278 341.533H393.072V342.068L390.651 344.169L389.463 344.679L388.155 346.229L387.254 346.898L386.888 347.323L386.597 348.065L386.199 347.227L385.819 347.079L385.435 347.429L385.014 348.065V348.659H385.531V349.2L383.245 350.8L382.415 351.034L382.653 349.794L380.596 351.358L379.611 352.559L379.013 353.991L379.637 354.026L380.516 353.077L379.531 355.088L379.013 355.825L376.278 358.199L374.456 361.085L373.271 361.724L373.745 361.464L374.224 361.046L374.617 360.381L374.831 359.368L369.089 364.142L363.982 365.631L363.22 365.406L362.566 364.676L363.174 365.568L363.514 365.789L363.889 365.852L363.183 366.284L362.566 366.442L362.693 367.35L362.672 368.546L362.47 369.566L362.046 369.976L361.86 369.703L361.789 369.114L361.691 367.663L361.008 367.031L359.187 364.676L358.576 364.462L358.266 364.711L358.161 365.463L358.15 366.737L358.254 369.454L358.02 369.976L357.511 369.678L357.43 368.914L357.63 366.737L357.504 365.957L357.229 364.95L356.951 364.399L356.826 364.967L356.775 368.346L356.589 369.335L357.1 370.12L356.919 370.709L356.312 371.08L355.548 371.199L355.977 369.251L356.005 368.399L355.785 367.673L356.045 366.586L356.524 366.2L356.544 365.705L356.305 365.262L356.561 361.689L356.318 360.789L355.906 360.128L355.469 359.741L355.265 360.223L355.227 363.376L355.548 364.142L354.927 364.704L354.214 364.651L353.582 364.778L353.187 365.852L353.652 366.737L354.107 368.651L354.747 369.335L354.052 370.309L352.641 370.639L349.916 370.561L349.335 370.365L347.964 369.335L347.448 369.703L346.933 370.292L346.544 370.271L346.405 368.799L341.705 371.738L336.482 373.502L332.935 374.356L333.354 373.737L333.596 372.981L333.579 372.06L333.364 371.199L333.08 372.424L332.625 373.257L332.081 373.502L331.522 372.914L331.804 374.723L326.841 378.246L327.216 376.37L328.201 375.311L329.422 374.831L330.503 374.723V374.083L327.984 372.767L327.08 371.738L326.884 372.9L327.08 374.083L326.101 374.769L325.167 374.576L324.214 374.132L323.179 374.083L323.958 374.723V375.258L323 375.237L322.566 375.412L322.165 375.898L321.541 375.541L320.85 376.055L320.292 377.006L320.06 377.952L319.855 379.471L319.339 380.518L318.661 380.797L317.956 380.001L317.464 380.734L317.284 381.491L317.479 382.098L318.099 382.345L318.582 382.161L319.339 381.355L319.92 381.174L322.925 381.512L323.958 381.174L322.321 384.366L321.328 385.244L320.32 384.68L320.51 384.478L320.58 384.147H319.022L319.078 384.945L318.006 384.837L317.416 385.317L317.907 385.258L318.243 385.505L318.368 386.093L318.241 387.071L321.076 386.908L321.618 386.435L320.673 389.325L319.302 391.969L317.555 393.899L313.656 395.688L311.161 397.581L308.783 398.135L307.536 396.395L308.018 395.771L309.088 395.376L309.499 394.912L310.009 393.992L310.487 393.576L311.695 393.482V392.899L310.614 392.878L308.573 393.513L307.536 393.482L304.939 391.858L304.161 391.681L304.395 392.323L303.994 392.608L303.875 392.899L304.242 393.42L305.317 395.179L305.685 395.719L306.107 398.668L309.229 398.897L301.082 400.143L296.365 402.412L288.354 404.603L286.413 404.523L279.115 402.253L276.035 403.103L274.932 402.782L275.524 402.599L275.713 402.253L274.353 401.949L273.675 401.568L273.112 401.039L272.342 402.139L267.218 401.039L266.735 400.821L264.748 399.298L261.627 398.668L257.181 395.647L251.066 393.982L249.861 392.899L250.375 392.802L250.668 392.472L250.629 392.052L250.146 391.681L249.681 391.649L249.041 392.17L248.572 392.323L244.924 391.681L245.036 392.108L248.846 392.899L238.8 392.205L238.144 391.149L237.88 391.358L237.647 391.681L237.35 391.226L237.104 391.149L237.364 392.323L234.441 392.378L233.017 392.031L227.23 387.137L226.66 386.435L227.196 386.925L227.81 387.134L228.439 386.988L229.023 386.435L228.535 386.341L227.667 385.944L227.178 385.85L227.438 384.147L226.741 385.174L226.112 385.589L225.431 385.411L224.58 384.68V384.147L225.881 384.68L225.372 383.373L224.678 382.61L223.928 382.004L223.256 381.174L221.865 378.172L220.918 378.246V378.78L222.246 380.678L223.014 382.087L223.541 383.509L221.011 381.195L219.85 379.67L219.123 377.659L219.641 377.02L219.359 376.614L218.837 375.258L219.904 374.02L221.109 373.306L223.669 372.914L224.873 373.474L226.986 375.734L228.242 375.898L227.608 375.069L226.679 373.467L226.162 372.914L223.256 371.199L224.402 369.041L224.58 368.21L224.436 367L224.012 366.684L223.674 366.989L223.8 368.21L223.346 369.041L220.63 372.431L219.904 373.191L218.978 373.502L218.677 373.838L218.576 376.485L218.287 377.324L218.102 377.502L216.391 376.506L214.712 375.034L213.428 374.45L210.759 372.326H213.24L213.688 372.55L214.603 373.439L215.176 373.502L215.254 373.002L215.756 372.844L217.02 372.914V372.326H215.957V371.738H216.499V371.199L213.795 371.892L212.838 371.738V371.199L214.132 369.493L214.513 366.88L213.987 364.655L212.554 364.142V364.676L213.624 365.126L213.504 366.315L212.785 367.708L211.364 369.636L210.455 370.344L209.431 370.575L208.395 369.976L208.939 371.738L207.401 370.085L203.967 367.778L199.098 365.947L197.447 364.736L196.527 364.304L195.612 363.608L194.832 362.266L195.052 361.594L194.997 360.74L194.598 358.724L197.565 358.914L199.197 358.533L200.314 357.54H197.453L195.639 356.505L194.975 356.357L193.019 356.882L192.614 357.245L192.27 357.776L190.649 359.368V359.906L192.586 360.771L193.567 361.594L194.052 362.906L193.259 362.47L191.536 362.206L189.773 362.417L188.705 362.863L188.093 363.763L188.595 365.262L188.413 365.287L188.051 365.852L176.898 367.379L175.551 366.442L174.271 365.076L173.088 364.227L171.824 364.04L165.495 366.354L163.404 366.4L161.448 367.031L151.145 364.676L150.343 365.241L149.643 366.319L148.938 367.028L148.12 366.442L148.664 365.852L147.767 365.856L146.336 366.789L145.117 367.179L143.961 368.21L143.552 368.297L139.867 367.873L139.023 368.21L138.102 369.335L137.639 369.072L137.059 367.936L136.638 367.673L136.876 366.789L137.403 365.652L137.462 364.676L137.298 363.728L136.982 363.306L136.573 362.962L136.141 362.266L136.731 361.387L137.496 358.234L137.841 357.54L139.519 357.53L139.779 357.245L139.618 356.346H139.231L138.351 356.949L137.62 356.758L136.814 356.135L136.164 355.035L135.904 353.406L136.638 351.034L136.678 350.037L136.591 346.718L136.819 345.985L137.223 345.376L137.7 345.044L138.25 345.249L139.407 346.566L140.732 347.492L141.762 349.052L142.693 351.154L143.209 353.406H142.663L143.289 354.337L144.215 354.622L147.93 354.813L148.845 354.591L149.442 353.991L149.017 353.353L149.243 352.657L150.221 351.62L150.778 351.341L152.586 351.034L153.975 349.946L154.401 349.794L154.877 349.984L155.864 350.836L156.369 351.034L157.375 350.663L159.225 349.03L162.403 348.405L163.435 347.694L164.329 346.229L164.649 346.728L164.897 346.824L165.119 346.633L165.346 346.229V345.695L164.69 345.001L163.771 344.35L162.862 344.063L162.227 344.449L162.623 343.043L163.567 342.359L164.618 342.267L165.346 342.663L165.046 342.756L164.329 343.319L165.018 343.684L165.788 343.783L166.541 343.638L167.187 343.319V342.663H166.409L167.187 342.068L164.821 339.869L163.539 339.181L162.227 339.096L163.376 338.201L169.096 339.245L169.789 340.288L170.972 340.962L171.578 340.905L172.149 340.288L171.716 340.366L171.308 340.32L170.926 340.104L170.566 339.692L171.304 338.734L171.632 338.5L170.851 337.903L171.838 337.53L173.184 337.956L174.467 337.924L175.267 336.17L173.948 336.93L173.237 337.022L172.93 336.443L173.193 335.402L173.804 334.883L175.007 334.279L174.24 333.788L173.088 333.649L171.917 333.823L171.084 334.279L171.319 332.792L170.885 332.112L170.13 331.93L169.064 331.973L168.706 332.101L168.37 332.357L168.097 332.777L166.669 332.478L167.786 331.503L168.156 330.787L167.967 329.494L170.3 327.837L171.443 326.528L172.28 325.033L172.935 323.233L173.297 322.715L173.948 322.311L174.775 322.115L177.177 322.365L176.42 322.036L176.09 321.711H175.788L177.331 320.405L178.159 320.005L179.061 319.855L184.303 321.257L185.193 321.056L186.254 319.307L184.543 320.284L183.632 319.855V319.307L183.996 319.325L184.306 319.189L184.91 318.71L184.877 318.201L184.671 318.105H184.91L177.992 317.664L174.742 318.438L171.866 321.056L171.084 322.911L170.76 323.165L169.059 323.683L167.335 324.951L166.796 325.632L165.374 326.917L163.571 326.671L160.146 325.365V324.711L161.745 323.758L163.265 322.311L164.532 320.513L165.346 319.998L166.17 320.509L166.874 319.754L168.557 319.211L169.292 318.71L165.898 318.341L164.849 318.71L164.115 319.218L163.52 319.415L162.939 318.942L162.227 317.449L162.738 316.626L163.134 312.965L163.388 312.858L163.697 313.116L163.957 313.148L164.154 311.62L164.361 310.909L164.849 309.688L164.9 308.753L165.862 307.855L170.147 305.635L172.41 305.409L172.228 304.62L171.867 304.177L171.39 304.037L170.851 304.145V303.594L171.545 302.931L173.001 300.935L174.278 300.361L175.267 299.304L175.777 299.189L177.372 299.304L177.221 300.898L177.989 301.158L178.966 301.18L179.45 302.081L179.944 302.73L183.113 302.935L182.487 302.434L181.158 302.571L180.491 302.384L179.942 301.778L179.104 300.408L178.41 299.968L179.97 299.304V298.759H176.048V298.092L178.228 296.748L178.931 296.004L179.561 295.834L182.571 296.333V295.672L179.608 295.032L178.671 295.065L176.236 297.351L175.267 297.485V296.878L176.263 295.925L176.629 295.271L176.852 294.403L175.332 296.073L174.891 296.333L174.541 296.792L174.29 298.842L171.866 301.118L169.886 301.875L169.292 302.384L169.529 303.594L168.399 303.194L167.332 303.493L165.109 305.409L164.208 306.499L163.608 306.866L163.004 306.61L162.595 305.754L162.651 304.88L163.265 302.935L162.475 303.194L162.1 304.185L161.843 307.337L160.927 309.026L160.768 309.824L160.715 310.966L160.408 311.49L159.039 311.476L158.364 312.384L157.679 312.642L157.061 312.352L156.375 311.566L155.783 310.413L155.444 309.026L154.821 309.889L154.144 310.23L154.686 309.109L155.154 307.732L155.309 306.402L154.923 305.409L155.086 305.272L155.444 304.804L154.844 304.235L154.51 304.127L154.144 304.145L154.686 302.935V302.384L152.936 303.702L151.856 304.221L151.028 304.145L150.342 303.068L150.064 301.616L150.202 300.213L150.743 299.304V298.759L150.083 298.629L149.6 297.969L149.067 296.878L148.577 296.626L148.027 295.986L147.106 294.403L148.055 294.826L149.048 295.834L150.053 296.452L151.028 295.672H150.221L150.453 294.663L150.817 293.994L151.272 293.557L151.784 293.242L151.262 292.634V292.027L155.672 289.803L156.768 288.383V287.774L154.408 289.832L153.15 290.506L151.926 290.756L150.888 291.426L149.719 292.689L148.645 293.459L147.883 292.634L148.381 292.276L149.442 290.756L150.216 289.948L150.658 289.3L151.028 288.383L150.743 287.774L151.085 287.615L151.297 287.361L151.784 286.559L150.932 285.554L149.785 285.231L147.34 285.34L147.883 284.12H147.106L147.372 283.216L148.404 280.41L148.01 280.519L147.663 280.872L147.363 281.457L147.106 282.235L146.866 281.407L146.554 281.072L146.197 281.174L145.805 281.625V282.235L143.704 281.625L143.111 281.923L141.986 283.194L141.362 283.456V284.12L141.661 284.208L142.403 284.73L138.896 285.416L137.985 284.73L138.882 284.857L139.339 284.785L139.663 284.425L139.553 283.924L138.687 282.53L138.351 282.235H134.321L134.915 282.889L136.921 284.12V284.73L135.901 284.69L134.11 283.093L133.02 282.9H133.28L128.506 282.46H123.967L118.724 282.072L116.511 279.719L114.401 279.563L110.718 280.41L110.694 280.665L109.77 282.235L108.942 282.896L108.482 283.009L104.054 281.625L104.463 281.247L104.912 281.021L105.388 280.941L104.748 280.672L103.292 281.461L102.149 282.955L101.975 284.73L101.27 286.824L100.23 287.694L97.4151 287.774L96.591 288.006L94.9243 288.941L94.153 289.05L91.4005 287.44L90.8134 286.581L90.2682 286.363L89.8685 285.932L89.7105 284.425L89.4968 283.63L87.8688 281.021L87.1718 279.607L86.5816 278.104L85.5314 274.297L85.7886 273.629L86.5569 274.424L87.274 274.089L88.6727 272.404L89.4007 271.944L93.5365 270.754L94.345 270.849L97.4058 272.874L101.597 273.629L101.958 273.396L103.013 271.849L104.588 271.937L104.974 271.543L106.362 269.337L107.926 268.796L111.377 269.403V268.73L111.047 268.211L110.835 267.502L112.431 267.393L112.951 267.875L112.679 269.403L113.18 269.783L113.809 268.701L114.235 268.73L114.373 269.593L114.379 270.849L114.578 271.499L115.276 270.571L115.869 271.141L116.557 270.794L117.121 269.951L117.356 269.063L116.726 265.695L116.837 264.433L117.883 262.994L119.468 262.708L122.579 263.202L122.293 264.231L121.819 264.927L120.733 265.717L121.02 266.946L120.574 267.045L120.253 267.385L119.695 268.73L121.8 271.849L121.573 270.487L121.545 269.359L121.715 268.394L122.084 267.502L122.329 267.305L123.05 267.166L123.357 266.946L123.603 266.442L124.02 264.74L125.07 263.345L126.159 263.235L127.192 264.129L128.06 265.717L128.664 264.784L129.46 264.202L131.796 263.624L134.06 262.034L133.455 261.641L130.685 262.034V261.359L132.285 260.993L135.132 258.036L136.638 257.669L136.141 258.286L136.819 258.469L137.462 258.902V260.076L136.929 260.861L135.78 261.506L135.36 262.034L135.863 262.173L136.498 262.125L137.152 261.861L137.7 261.359L137.954 263.103L138.278 263.836L139.544 264.433L141.245 266.014L141.883 266.277V265.717L141.409 265.432L140.981 264.868L140.039 263.202L141.071 261.817L141.638 261.378L142.403 261.359L142.477 260.164L143.19 259.816L146.368 259.97L149.487 259.221L154.635 260.259L158.045 262.034L158.432 261.795L159.014 260.985L159.367 260.743H162.227L162.998 261.103L163.816 261.74L164.69 261.968L165.346 261.359L166.344 262.037L170.566 261.359L171.578 260.498L171.617 259.379L170.938 258.484L169.789 258.286L170.173 257.089L170.625 256.692L171.178 256.472L171.866 255.818L172.354 254.774L173.948 250.153L174.073 247.017L172.856 245.733L171.205 245.899L170.024 247.117V247.736H170.306V248.41L164.566 253.355L162.664 254.153L151.81 252.031L149.078 249.781L148.664 249.593L148.478 249.648L147.936 250.057L144.466 250.602L143.444 250.153L142.722 249.269L143.306 248.886L144.42 248.532L145.286 247.736L145.575 248.208L145.86 248.399L146.561 248.41V247.736L145.718 247.109L144.754 247.013L142.92 247.736L143.311 246.394L144.003 245.095L145.286 243.404L147.056 242.555L147.728 241.786L147.626 240.304L148.185 240.06L149.561 240.304L149.9 239.949L151.028 237.762L152.042 236.977L156.29 235.762L159.879 232.97L161.254 231.234L163.692 229.968L164.566 228.994L164.318 228.838L164.329 228.426L164.9 228.493L165.834 229.544L166.409 229.619L165.89 227.746L168.251 226.362L173.193 224.792L175.551 223.378L171.895 224.588L170.566 224.621L167.851 224.003L165.593 224.681L164.849 224.621L165.597 223.202L166.409 222.126L165.035 220.765L164.519 219.77L164.329 218.371L163.831 218.748L163.306 218.975L162.766 219.065L162.227 218.998L162.442 220.284L162.103 220.698L161.561 220.568L161.164 220.251L160.814 219.427L160.1 217.228L159.603 216.489L159.801 218.038L159.711 219.337L159.374 220.471L158.822 221.5L157.763 222.677L157.419 222.804L156.734 224.911L156.369 225.302L154.933 225.44L154.29 225.179L153.268 223.564L151.028 221.5L149.426 220.676L149.212 219.867L149.962 218.371L150.788 217.755L155.002 216.829L156.768 215.581L157.679 215.297L158.1 214.894L158.213 213.952L158.305 212.044L158.633 211.397L159.054 210.902L159.886 210.217L158.76 210.532L155.964 214.61L154.668 215.701L153.429 216.287L150.743 216.489V215.861L152.354 214.696L152.846 214.041V213.353L152.056 213.413L151.489 213.955L150.504 215.297L149.717 215.604L149.236 215.23L148.794 214.718L148.12 214.61V215.297L148.583 216L148.388 216.825L147.834 217.516L145.732 218.371L145.17 218.08L144.765 216.489L144.727 214.983L144.872 213.854L144.863 212.71L144.364 211.153L143.627 207.913L143.171 206.785L142.696 207.639L142.75 210.112L143.357 212.07L143.362 212.822L143.147 213.529L142.416 215.148L142 215.775L141.523 215.839L140.96 214.953L140.238 213.215L139.914 213.062L139.674 215.454L139.386 216.179L138.974 216.53L138.481 216.489L138.187 216.097L137.883 215.357L137.014 212.474L136.849 210.974L137.124 209.431L137.985 207.699L137.639 207.193L137.446 207.324L137.257 207.639L136.921 207.699L135.904 207.013H135.262L135.044 207.171L134.867 207.699L134.891 208.228L135.231 210.217L135.597 211.355L136.638 218.371L136.105 218.942L135.454 218.8L134.751 218.442L134.06 218.371V217.8L134.277 217.038L134.091 216.418L133.661 216.015L133.15 215.861L131.889 216.276L131.471 216.164L131.438 215.297L131.127 215.368L130.163 215.297V214.61L131.085 213.682L132.786 211.34L133.803 210.839L133.422 209.828L132.781 209.127L131.438 208.269L131.229 210.322L130.454 212.081L129.491 212.964L128.71 212.384L128.064 209.333L127.657 208.959L127.558 209.581L127.256 213.353L126.447 214.404L124.159 214.968L123.088 215.581L120.987 214.539L119.866 213.394L119.979 211.468L118.918 212.093L118.27 213.91L118.221 215.917L118.939 217.116V217.8L118.447 218.315L117.583 219.736L117.074 220.251L116.466 220.441L113.93 220.139L112.888 219.669L112.276 219.568L111.684 219.27L110.6 217.8L110.16 217.971L109.77 218.371L110.053 218.617L110.315 218.998L109.221 219.456L107.218 221.127L102.077 222.178L100.91 221.5L100.875 222.599L100.711 222.953L100.454 223.046L100.132 223.378L98.7007 225.871L91.718 227.835L89.9553 227.623L88.4125 226.552V225.871L88.6263 225.146L88.4652 224.48L87.6318 223.378L88.3258 223.426L88.6201 223.616L88.933 224.003L89.0445 222.32L88.3428 221.47L87.4738 221.593L87.0882 222.804L86.1774 221.436L80.33 218.998L69.478 220.161L68.087 219.897L67.2645 218.371L68.9359 217.363L69.7816 216.515L70.1471 215.581L70.6273 214.953L72.8516 213.529L73.527 212.732L73.6819 211.303L73.6757 209.644L73.8925 208.269L75.0636 207.489L75.7296 206.59L76.2686 206.383L77.2367 206.563L80.9403 208.779L82.0091 208.959L82.6628 209.352L84.7508 212.044L86.2502 213.002L88.9097 213.72L89.5417 214.595L90.0947 215.626L90.7499 216.489L91.8977 217.072L93.0083 216.993L95.1722 215.861L93.4342 215.929L92.5343 215.682L91.814 215.297L91.1913 214.471L90.0714 212.448L89.3094 212.044L87.4367 209.97L86.3958 208.149L85.1814 206.507L84.5138 205.186L90.2558 206.383L93.9841 208.588L95.1722 208.959L94.4442 207.531L93.4265 206.327L92.3391 205.487L90.6848 204.875L88.7099 203.546L86.9472 202.896L86.1077 202.081L84.7508 200.141L83.1894 196.924L83.0639 195.749L83.0655 193.54L82.6721 192.446L84.283 190.997L85.9187 191.11L101.975 200.141L102.338 200.596L103.013 201.972L104.049 202.78L104.314 203.234L104.704 204.879L104.534 205.922L104.131 206.878L103.817 208.269L104.5 208.659L105.374 207.958L106.935 205.753L107.087 206.214L107.692 207.013L108.106 206.147L110.175 206.672L111.094 206.383V205.753L110.603 205.359L110.315 204.496L110.978 204.447L112.679 203.234L113.295 203.159L113.905 203.249L114.486 203.174L115.017 202.603L110.501 202.986L108.441 202.318L106.935 201.341L106.408 200.724L105.731 199.633L105.36 198.595L105.741 198.132L108.111 197.025L108.626 197.24L109.218 197.771L112.325 197.345L113.315 196.442L114.096 196.234L115.761 196.879L116.576 196.961L117.356 196.234L116.638 195.59L116.317 195.602V195.033L118.111 193.77L118.658 193.072L116.57 193.374L115.368 193.928L113.732 195.421L103.472 195.168L101.456 194.339L100.132 193.072L98.1276 193.815L97.6738 193.419L97.1456 192.457L94.9321 189.966L93.71 187.449L92.8952 184.419L93.0269 181.601L94.6486 179.747L95.3983 179.701L97.5576 181.017L100.392 181.658L101.105 182.124L102.313 183.631L103.013 184.199L103.733 184.29L106.133 183.563L110.835 185.464H112.395L115.107 187.476L116.576 188.084L117.899 187.427L114.751 186.402L113.747 185.134L110.6 184.835L109.616 184.249L107.83 182.624L103.887 181.677L103.013 181.017L100.947 178.176L99.9027 177.58L99.3931 176.707L98.5706 176.357L96.828 174.689L95.2713 172.51L94.9321 171.749L94.9274 168.863L95.1458 167.346L95.7128 166.224L97.2819 165.645L99.2537 166.099L106.154 170.318L108.176 170.851L109.537 170.059L109.714 171.528L110.182 172.784L110.843 173.651L111.614 173.955V173.37L110.968 172.373L109.801 169.457L109.017 168.844L108.146 168.642L106.396 167.765L105.485 167.563L105.061 167.243L103.901 165.641L101.672 163.614L100.392 161.803L101.624 160.771L104.941 160.442L107.455 160.855L110.835 163.667L109.931 162.823L108.434 160.343L107.573 159.819L103.918 159.907L103.013 159.234V158.533L103.942 156.971L104.584 156.259L105.225 155.96L106.802 155.88L107.4 155.339L107.455 154.094L108.32 153.649L114.299 155.382L118.176 158.269L119.319 158.533L120.072 159.142L121.034 160.576L121.689 162.269L121.539 163.667L121.8 165.706L123.678 162.732L124.421 162.384L124.83 162.628L125.191 163.201L125.721 164.362L126.415 165.366L126.492 165.874L126.503 167.243L126.765 169.663L126.512 170.352L123.641 175.924H123.878L124.695 174.594L126.777 172.023L127.539 170.763L128.167 168.466L128.58 168.203L129.036 168.497L129.324 169.198L129.878 171.403L129.621 172.099L130.169 171.559L130.774 170.66L131.384 170.146L131.958 170.763L131.309 172.936L130.416 175.122L129.319 176.889L128.06 177.777L129.589 177.679L130.284 177.314L130.919 176.502L131.647 174.108L132.2 172.681L132.618 172.385L133.15 174.906L132.906 177.504L132.558 179.697L132.762 181.017L134.06 176.502L133.989 174.416L134.147 172.008L134.466 169.769L134.867 168.203L135.174 167.494L135.383 167.346L137.962 167.586L138.221 167.883L138.311 169.152L138.552 169.922L138.884 170.394L140.34 171.951L141.938 174.906L141.973 175.328L141.638 178.381L141.406 179.288L141.104 179.747L141.362 180.319L139.403 185.812L139.002 187.521L139.277 188.311L139.773 188.164L140.667 184.578L143.193 177.766L143.444 175.225L144.259 175.077L144.776 175.962L145.216 177.288L145.805 178.472L146.08 178.54L146.3 178.313L146.536 178.316L146.846 179.109L146.824 179.861L146.619 180.585L146.587 181.214L147.106 181.658L147.35 180.247L147.605 179.538L147.883 179.747L147.886 180.384L147.626 183.563L147.31 184.608L146.43 186.394L146.065 187.427V188.005L147.521 187.177L149.005 181.987L150.221 181.017V180.319L149.439 179.462L149.005 177.664L148.404 173.955L147.849 172.624L147.124 171.369L146.319 170.432L145.52 170.059L145.913 168.844L146.299 166.648L146.846 165.706L147.572 165.332L148.333 165.286L148.999 164.942L149.442 163.667L148.659 163.698L146.78 164.652L146.065 165.355L145.36 165.629L142.171 164.038L140.039 161.803L130.987 157.856L128.326 155.006L126.737 150.817L128.515 149.665L134.166 148.12L135.36 148.178L139.403 149.469H140.453L140.862 149.63L141.362 150.817L142.386 151.888L142.925 152.026L143.444 151.462L143.187 151.14L143.001 150.714L142.663 149.469L144.544 149.481L145.509 149.216L147.182 147.867L149.082 147.671L149.962 146.944L144.789 147.774L143.209 146.944L142.46 146.148L142.618 146.021L143.232 145.952L143.845 145.297L144.249 144.589L144.807 144.023L145.439 143.7L146.065 143.719V143.01L145.219 142.521L144.714 142.702L143.209 144.304L141.275 145.382L139.023 145.598L137.242 145.224L136.921 145.013L136.87 143.989L137.2 143.303L137.985 142.363L138.125 141.689L138.481 139.19L139.002 138.615L140.82 137.835L139.166 138.183L137.916 139.078L134.905 142.359L134.197 142.752L132.618 143.01L132.152 142.456L132.409 141.215L132.998 139.911L133.518 139.19V138.484L132.214 139.028L131.568 139.587L130.919 140.428L129.401 143.168L129.098 143.365L128.181 144.462L122.152 142.868L120.581 141.97L119.547 140.598L118.924 139.981L118.664 139.364L119.175 138.484L120.637 138.38L122.477 139.097L124.105 138.854L124.94 135.897L123.865 135.734L122.663 134.811L121.549 133.461L120.733 132.003L121.898 131.051L123.094 131.608L124.29 132.688L125.439 133.299L124.965 131.771L124.655 131.294L128.826 130.59L129.098 130.702L129.33 131.085L129.649 132.247L129.878 132.649L130.699 132.862L131.043 132.138L130.904 131.186L130.281 130.702L129.658 130.458L127.776 128.75H131.582L132.256 129.052L133.602 130.396L135.318 131.062L136.691 132.757L137.462 133.299L138.438 133.129L139.925 131.356L140.82 130.702L140.583 129.401L142.081 128.854L143.311 129.854L144.51 131.279L147.137 132.587L147.711 132.467L147.883 131.294L147.608 130.354L146.61 129.656L146.322 128.75L147.544 128.963L148.72 130.156L149.612 132.026L149.962 134.273L150.628 135.673L153.726 137.407L154.686 139.19L154.144 140.135L154.635 140.706L156.251 141.076V141.723L155.554 141.492L155.263 141.897L155.21 143.719L155.733 144.866L155.802 145.574L155.21 146.244V146.944L155.704 147.59L156.223 147.013L156.829 146.54L157.459 146.252L158.045 146.244L158.395 146.667L158.701 147.313L159.068 147.598L159.931 145.751L160.541 145.559L160.892 146.221L160.667 147.59L163.379 147.302L164.068 147.59L164.401 146.998L164.739 146.967L165.346 147.59L166.929 150.172L166.568 150.84L164.329 152.744L164.835 153.089L165.323 152.828L165.834 152.337L166.409 152.045L166.97 152.187L168.748 153.683L169.529 154.673L169.905 154.696L170.676 154.201L171.084 154.094L173.474 155.382L173.361 155.719L173.19 156.608L173.847 157.036L174.227 158.162L174.217 159.302L173.711 159.819L174.228 161.803L174.24 161.769L174.302 163.308L174.496 165.114L174.749 165.744L175.267 166.224L175.808 166.141L176.476 165.721L177.125 165.549L177.609 166.224L177.684 167.521L177.349 168.695L176.592 170.763L177.078 170.626L177.682 170.192L178.193 169.647L178.41 169.164L178.39 166.873L177.609 165L178.082 164.477L179.436 163.786L181.127 163.667L181.412 163.988L181.933 165.706L182.636 166.041L182.177 166.774L181.366 167.437L181.011 167.563L180.76 168.459L180.929 169.141L181.662 170.409L182.628 171.216L186.753 170.059L187.847 170.352L188.745 170.878L189.433 171.97L189.894 173.955L184.535 174.465L183.516 175.316L179.498 176.513L178.931 176.502L179.631 177.823L180.697 177.675L182.842 176.502L186.411 175.852L187.531 176.502L187.071 177.291L185.43 178.472V179.109L189.529 177.925L190.532 178.791L191.087 180.668L191.206 182.272L190.756 183.488L189.612 184.199L191.429 185.464V186.156L189.541 190.6L188.855 191.804L187.732 192.838L183.869 194.339V195.033L184.693 195.093L186.112 194.822L186.753 195.033L188.776 196.336L189.375 196.924L186.254 200.709L185.136 201.574L179.97 201.341L179.603 200.912L178.801 199.453L178.066 198.904L177.382 197.68L176.92 196.389L176.852 195.602L175.907 194.271L174.736 193.623L173.511 193.657L172.41 194.339L173.148 194.46L174.941 195.643L175.551 196.234L175.63 196.487L176.592 198.132L176.689 199.25L176.57 199.987L175.788 201.341L176.717 202.438L176.852 202.919L177.052 204.143L177.489 204.841L178.801 206.091L185.156 205.922L186.248 206.496L186.753 207.699L186.366 208.749L184.399 211.894L183.632 212.732V213.353L185.477 212.328L187.806 210.202L189.803 209.745L190.649 213.697L189.845 217.053L187.94 220.284L185.695 222.633L183.869 223.378V224.003L187.71 222.506L189.185 221.179L190.012 220.874L190.867 221.052L191.42 221.552L192.493 223.378L193.943 224.766L194.334 225.659L194.052 227.177L194.589 227.515L194.671 228.203L194.58 229.151L194.598 230.298L194.826 232.314L194.832 233.723L194.677 236.451L196.158 241.232L196.676 242.163L196.476 242.466L196.392 242.721L197.153 243.537L197.921 245.047L198.324 246.818L197.977 248.41V248.974L198.596 249.52L199.228 248.985L199.529 247.743L198.974 245.534L198.757 243.404L198.423 242.477L197.453 240.304L198.234 239.005L198.098 238.217L198.342 237.64L199.013 236.573L199.219 235.173L199.199 233.909L198.409 226.998L198.256 224.1L198.743 222.804L199.916 223.471L200.732 225.105L201.896 228.994L203.008 231.223L203.429 232.514L204.729 232.937L205.251 233.412L205.536 232.726L204.543 230.629L203.646 227.824L202.971 224.822L202.655 222.126L202.503 218.483L202.655 217.116L202.823 216.612L203.457 215.297L203.976 212.044L205.138 209.79L209.433 206.383L211.775 203.234L212.48 202.844L213.209 202.633L213.745 202.25L213.875 201.341L214.377 201.258L214.743 201.54L215.458 202.603L215.623 202.633L216.242 202.603L216.354 203.399L216.242 203.655L216.056 203.707L215.957 203.925L215.658 209.476L215.957 210.839L215.5 212.396L215.477 213.996L215.886 214.961L216.736 214.61L216.346 212.927L216.413 211.441L216.905 210.749L217.797 211.468L218.13 212.066L218.296 214.041L218.056 215.357L218.058 215.861L218.191 215.828L219.123 216.489L219.72 218.427L220.139 218.998L220.564 219.345L221.019 219.568L221.496 219.65L222.107 219.479L222.825 218.971L223.158 217.994L223.353 216.575L223.8 214.61L223.363 214.225L222.779 212.991L222.348 212.732L221.038 212.845L220.406 212.665L219.878 212.044L221.146 211.55L222.348 211.468L222.853 211.273L223.902 210.408L224.452 210.217L224.935 211.082L224.783 215.17L225.335 216.489L225.195 215.009L225.79 212.852L225.335 211.468L225.768 210.247L226.992 208.453L227.581 207.354L227.723 206.68L227.768 205.179L227.958 204.496L228.316 204.143L229.018 204.154L229.803 203.925L228.958 203.749L228.437 202.611L228.367 201.326L228.883 200.709L229.377 200.348L229.748 199.4L229.98 198.083L230.064 196.577L229.761 194.203L229.021 192.027L228.079 190.309L227.178 189.331V188.64L228.191 187.687L227.807 184.987L226.822 181.965L225.11 177.808L224.864 174.594L224.625 173.047L224.213 171.841L223.66 170.878L222.999 170.059L223.581 169.145L224.117 167.723L224.294 166.202L223.8 165L224.566 164.313L225.48 164.152L227.062 164.362L227.443 164.198L228.501 163.079L228.999 162.919L230.344 163.079L231.077 162.659L232.447 160.909L233.051 160.519L235.332 161.253L235.768 161.299L236.583 160.519L236.778 162.525L237.283 163.694L238.017 164.404L238.922 165L238.662 165.706L239.058 166.08L239.339 166.785L239.701 168.203L240.203 169.594L241.806 172.678L242.368 174.83L242.822 175.225L242.324 176.502L243.064 177.747L244.041 178.768L244.746 179.948L244.662 181.658L245.35 182.317L247.401 182.658L248.925 183.681L249.802 183.745L250.496 184.771L250.984 184.68L251.187 184.835L251.425 185.509L251.704 187.427L252.768 189.966L252.934 191.117L253.145 193.623L253.396 194.686L254.218 195.816L256.16 196.404L256.927 197.556L257.164 195.583L257.434 194.882L258.605 195.033L258.752 195.195L259.551 196.234L259.98 196.359L261.058 196.302L260.722 196.506L260.443 196.822L260.329 197.24L260.465 197.993L260.789 198.019L261.486 197.556L261.89 197.003L262.24 195.715L262.668 193.072L262.934 190.37L262.956 188.039L262.705 185.849L262.15 183.563L260.965 179.747L258.724 177.2L258.707 176.536L258.874 175.658L259.199 174.913L259.669 174.594L260.361 174.435L261.119 173.955L261.839 173.172L262.407 172.099L261.989 171.563L261.621 170.809L261.32 169.884L260.951 167.574L262.172 165.713L264.347 164.538L269.424 163.667L271.207 165.045L272.155 165.217L272.073 163.667L272.674 163.064L273.005 162.984L273.372 163.079L273.266 163.442L273.112 164.362L273.876 164.668L275.168 166.026L275.948 166.224L275.468 165.767L275.121 165.229L274.87 164.545L274.672 163.667H274.932V163.079L274.152 162.384V161.803L274.508 161.149L275.168 157.948L275.539 157.373L276.858 156.19L280.259 154.922L281.469 155.512L281.193 158.533L281.921 158.235L282.429 157.408L283.297 155.382L283.01 154.094L283.707 153.534L284.739 153.718L286.649 154.673L286.351 156.079L285.71 158.124L285.589 159.524L286.012 159.494L288.754 156.608L289.869 156.868L290.787 158.001L291.57 159.234L292.274 159.819L292.634 160.488L292.192 161.979L291.114 164.362L291.596 164.404L292.141 164.255L292.659 163.912L293.043 163.373L293.489 163.018L293.986 163.415L294.471 164.038L294.897 164.362L295.492 165.065L295.862 166.705L296.165 168.604L296.574 170.059L295.571 174.503L295.664 175.225L298.393 175.924L300.148 177.048L302.973 177.466L303.354 177.777L303.763 178.506L304.403 180.031L305.283 180.737L305.577 181.692L306.184 184.408L306.311 184.714L306.616 184.835L307.313 184.729L307.657 184.805L307.916 185.146L308.297 186.303L308.399 187.067L308.317 189.649L308.467 190.702L309.381 193.072L309.375 196.958L309.499 197.556L309.827 197.816L310.939 199.453L312.736 201.341L312.532 202.577L312.721 204.222L313.179 205.532L313.8 205.753L314.279 204.605L314.246 202.915L313.923 201.243L313.54 200.141L313.233 199.791L312.444 199.182L312.219 198.821L312.053 197.775L312.165 197.18L312.499 196.234V193.072L312.699 192.71L313.54 191.804L313.763 190.083L313.647 188.602L312.471 183.908L312.402 182.26L311.695 182.294L310.946 180.638L310.617 180.225L310.453 179.834L310.255 179.747L310.066 179.948L309.618 181.017L309.102 180.668L307.925 179.155L307.536 178.472L307.894 177.151L307.75 175.898L307.267 174.963L306.169 174.229L305.4 172.297L304.916 171.403V170.763H305.199V170.059L304.164 167.445L303.689 163.075L303.893 158.675L304.916 155.96L305.422 155.734L308.838 155.96L309.356 156.271L310.273 157.082L310.799 157.247L312.425 157.082L313.018 157.247L312.916 157.779L312.736 157.948L314.163 158.79L317.918 157.795L319.542 158.533L319.855 159.256L320.25 161.107L320.58 161.803L321.002 162.017L322.541 161.803L323.207 162.201L324.428 163.965L325.139 164.362L325.648 164.816L327.142 167.17L327.622 168.203L328.235 170.9L328.67 172.153L329.893 173.073L330.543 174.009L331.522 175.924L332.815 179.804L333.364 181.017L333.517 179.242L333.198 177.853L332.699 176.6L332.3 175.225L333.04 175.271L333.912 175.031L334.763 174.571L335.441 173.955L331.947 174.142L331.023 173.37L337.081 173.263L337.526 173.712L337.78 174.777L338.325 176.502H338.559L338.763 175.841L338.808 175.149L338.666 174.507L338.325 173.955V173.37L338.815 172.944L339.247 172.244L339.481 171.285L339.366 170.059L339.972 169.369L340.215 168.908L340.407 168.203L340.432 167.666L340.343 166.213L340.407 165L340.882 163.717L341.849 162.476L342.974 161.528L343.923 161.161L344.335 160.656L344.553 159.555L344.589 158.453L344.433 157.948L344.014 157.664L344.202 156.994L344.976 155.673L346.014 154.584L348.345 153.695L348.745 152.045L349.749 152.993L353.578 153.388L354.611 154.159L355.353 155.788L356.826 159.819V161.161H356.305V161.803L356.752 162.204L357.229 162.411L357.704 162.319L358.15 161.803L357.898 161.727L357.343 161.161L358.7 160.129L363.496 158.786L364.907 159.234L364.293 159.211L363.689 159.417L363.112 159.842L362.566 160.519L363.053 160.851L363.736 162.208L364.007 162.09L364.778 160.213L365.232 159.455L365.688 159.234L366.761 160.282L367.548 161.948L368.39 163.369L369.633 163.667V163.079L368.415 162.193L367.808 161.52L367.398 160.84L367.1 159.608L367.089 158.683L366.938 157.948L366.231 157.247L367.965 155.987L370.562 155.121L372.128 154.121L373.011 154.094L369.642 156.087L368.592 157.247L371.931 155.914L372.724 155.96L373.651 156.811L375.132 159.084L376.129 159.234V158.533L374.786 157.132L374.108 156.075L373.815 155.029L373.964 153.591L374.359 152.375L374.933 151.439L375.609 150.817L375.702 149.803L376.036 149.066L376.292 148.155L376.389 147.267L376.293 145.821L376.039 145.028L375.671 144.381L374.879 142.637L374.664 142.433L374.428 142.363L374.229 142.013L374.052 139.838L372.997 138.982L372.737 138.221L373.011 136.538L372.886 136.503L372.491 136.538L373.011 135.186L372.742 134.915L372.556 134.509L372.207 133.299H373.011V132.649L372.351 131.724L371.622 128.692L370.544 127.412L370.887 126.098L371.673 124.937L372.491 124.79L372.714 125.353L372.842 126.668L373.271 126.796L373.815 124.549L374.312 124.138L375.381 123.676L375.999 123.711L376.011 124.464L375.818 125.516L375.948 126.404L376.275 127.063L376.673 127.389L376.389 125.496L376.99 125.26L378.113 124.293L378.471 124.138L379.032 124.631L379.907 125.97L380.571 126.086L379.791 126.796L380.446 127.389L381.154 127.25L382.13 126.796V126.086L382.551 125.411L382.941 124.495L383.388 123.897L383.722 125.232L384.164 125.395L384.572 124.844L384.884 123.042L385.212 122.603L386.055 122.18H387.11L389.28 123.128L389.714 122.887L391.482 122.11L394.689 125.349L396.496 126.086L395.984 126.959L395.389 127.35L394.893 127.94L394.655 129.401H395.175V129.993L394.396 130.702L394.6 130.969L395.175 132.003L394.729 132.858L395.246 132.997L396.616 132.649L398.143 133.001L398.812 132.649L398.578 134.598H402.214L402.901 134.853L403.521 135.51L403.874 136.368L403.797 137.835L404.554 140.428L402.965 143.426L402.068 144.643L400.916 145.598L401.436 146.944L401.891 146.429L402.356 146.721L402.883 147.282L404.136 147.836L404.271 148.505L403.797 150.817L404.388 151.332L407.176 151.462L408.518 150.84L408.969 150.967L409.54 152.045L409.704 152.038L410.296 151.462L410.381 152.487L410.623 153.315L411.004 153.887L412.077 154.385L413.216 155.673L414.447 156.65L415.191 157.948L415.944 158.751L416.842 157.948L416.535 157.798L416.297 157.247L416.966 156.753L417.463 155.719L417.771 154.236L417.881 152.395L417.561 149.158L417.812 148.243L418.921 147.59H423.608L426.283 146.644L426.492 145.913L426.529 145.04L426.74 144.304L429.435 142.533L429.859 141.4L430.126 139.95L430.761 138.793L432.245 137.245L433.261 136.515L436.523 135.897L437.422 136.155L438.885 137.418L439.782 137.835L447.034 136.592Z" fill="#C4C4C4"/>
<path d="M325.689 377.187L325.14 377.076L324.858 377.166L324.209 377.586L323.046 378.748L322.947 379.457L324.608 378.871L325.016 378.811L325.334 379.063L325.394 379.562L325.202 380.015L324.934 380.371L325.168 380.267L325.766 379.408L325.998 378.445L325.975 377.722L325.689 377.187Z" fill="#C4C4C4"/>
<path d="M315.881 119.478L315.478 119.746L315.566 121.309L316.228 122.417L316.965 121.877L317.123 120.994L316.83 120.773L315.881 119.478Z" fill="#C4C4C4"/>
<path d="M230.118 400.53L230.305 400.105L230.232 399.959L229.328 400.025L228.567 400.42L228.454 401.371L228.739 402.363L228.985 403.02L229.17 403.774L229.445 404.092L229.822 403.549L230.183 402.74L230.472 401.817L230.268 400.842L230.118 400.53Z" fill="#C4C4C4"/>
<path d="M301.746 171.681L301.401 171.079L300.668 170.249L300.445 170.6L300.819 171.928L301.04 173.069L301.124 173.796L301.356 174.358L301.686 174.712L302.138 174.868L302.64 174.53V173.446L302.086 172.202L301.746 171.681Z" fill="#C4C4C4"/>
</svg>
