<svg width="581" height="514" viewBox="0 0 581 514" fill="none" xmlns="http://www.w3.org/2000/svg">
<path d="M163.184 346.285C163.847 346.285 164.483 346.022 164.952 345.553C165.421 345.084 165.684 344.448 165.684 343.785C165.684 343.122 165.421 342.486 164.952 342.018C164.483 341.549 163.847 341.285 163.184 341.285C162.521 341.285 161.885 341.549 161.416 342.018C160.947 342.486 160.684 343.122 160.684 343.785C160.684 344.448 160.947 345.084 161.416 345.553C161.885 346.022 162.521 346.285 163.184 346.285Z" stroke="#FF0000"/>
<path d="M171.762 345.589C172.425 345.589 173.061 345.326 173.53 344.857C173.999 344.388 174.262 343.752 174.262 343.089C174.262 342.426 173.999 341.79 173.53 341.321C173.061 340.853 172.425 340.589 171.762 340.589C171.099 340.589 170.463 340.853 169.994 341.321C169.525 341.79 169.262 342.426 169.262 343.089C169.262 343.752 169.525 344.388 169.994 344.857C170.463 345.326 171.099 345.589 171.762 345.589Z" stroke="#FF0000"/>
<path d="M166.638 347.663C167.301 347.663 167.937 347.4 168.405 346.931C168.874 346.462 169.138 345.826 169.138 345.163C169.138 344.5 168.874 343.864 168.405 343.396C167.937 342.927 167.301 342.663 166.638 342.663C165.975 342.663 165.339 342.927 164.87 343.396C164.401 343.864 164.138 344.5 164.138 345.163C164.138 345.826 164.401 346.462 164.87 346.931C165.339 347.4 165.975 347.663 166.638 347.663Z" stroke="#FF0000"/>
<path d="M164.895 350.814C165.558 350.814 166.194 350.55 166.663 350.082C167.132 349.613 167.395 348.977 167.395 348.314C167.395 347.651 167.132 347.015 166.663 346.546C166.194 346.077 165.558 345.814 164.895 345.814C164.232 345.814 163.596 346.077 163.127 346.546C162.659 347.015 162.395 347.651 162.395 348.314C162.395 348.977 162.659 349.613 163.127 350.082C163.596 350.55 164.232 350.814 164.895 350.814Z" stroke="#FF0000"/>
<path d="M170.83 346.267C171.493 346.267 172.129 346.004 172.598 345.535C173.067 345.066 173.33 344.43 173.33 343.767C173.33 343.104 173.067 342.469 172.598 342C172.129 341.531 171.493 341.267 170.83 341.267C170.167 341.267 169.531 341.531 169.063 342C168.594 342.469 168.33 343.104 168.33 343.767C168.33 344.43 168.594 345.066 169.063 345.535C169.531 346.004 170.167 346.267 170.83 346.267Z" stroke="#FF0000"/>
<path d="M172.081 343.335C172.744 343.335 173.38 343.071 173.849 342.602C174.317 342.134 174.581 341.498 174.581 340.835C174.581 340.172 174.317 339.536 173.849 339.067C173.38 338.598 172.744 338.335 172.081 338.335C171.418 338.335 170.782 338.598 170.313 339.067C169.844 339.536 169.581 340.172 169.581 340.835C169.581 341.498 169.844 342.134 170.313 342.602C170.782 343.071 171.418 343.335 172.081 343.335Z" stroke="#FF0000"/>
<path d="M170.526 334.642C171.189 334.642 171.825 334.379 172.293 333.91C172.762 333.441 173.026 332.805 173.026 332.142C173.026 331.479 172.762 330.843 172.293 330.375C171.825 329.906 171.189 329.642 170.526 329.642C169.863 329.642 169.227 329.906 168.758 330.375C168.289 330.843 168.026 331.479 168.026 332.142C168.026 332.805 168.289 333.441 168.758 333.91C169.227 334.379 169.863 334.642 170.526 334.642Z" stroke="#FF0000"/>
<path d="M174.406 340.986C175.069 340.986 175.705 340.723 176.174 340.254C176.643 339.785 176.906 339.149 176.906 338.486C176.906 337.823 176.643 337.188 176.174 336.719C175.705 336.25 175.069 335.986 174.406 335.986C173.743 335.986 173.107 336.25 172.638 336.719C172.169 337.188 171.906 337.823 171.906 338.486C171.906 339.149 172.169 339.785 172.638 340.254C173.107 340.723 173.743 340.986 174.406 340.986Z" stroke="#FF0000"/>
<path d="M168.517 342.634C169.18 342.634 169.816 342.37 170.284 341.901C170.753 341.432 171.017 340.797 171.017 340.134C171.017 339.471 170.753 338.835 170.284 338.366C169.816 337.897 169.18 337.634 168.517 337.634C167.854 337.634 167.218 337.897 166.749 338.366C166.28 338.835 166.017 339.471 166.017 340.134C166.017 340.797 166.28 341.432 166.749 341.901C167.218 342.37 167.854 342.634 168.517 342.634Z" stroke="#FF0000"/>
<path d="M169.46 347.372C170.123 347.372 170.759 347.108 171.228 346.64C171.697 346.171 171.96 345.535 171.96 344.872C171.96 344.209 171.697 343.573 171.228 343.104C170.759 342.635 170.123 342.372 169.46 342.372C168.797 342.372 168.161 342.635 167.693 343.104C167.224 343.573 166.96 344.209 166.96 344.872C166.96 345.535 167.224 346.171 167.693 346.64C168.161 347.108 168.797 347.372 169.46 347.372Z" stroke="#FF0000"/>
<path d="M164.258 342.263C164.921 342.263 165.557 342 166.026 341.531C166.495 341.062 166.758 340.426 166.758 339.763C166.758 339.1 166.495 338.464 166.026 337.995C165.557 337.527 164.921 337.263 164.258 337.263C163.595 337.263 162.96 337.527 162.491 337.995C162.022 338.464 161.758 339.1 161.758 339.763C161.758 340.426 162.022 341.062 162.491 341.531C162.96 342 163.595 342.263 164.258 342.263Z" stroke="#FF0000"/>
<path d="M165.39 350.129C166.053 350.129 166.689 349.866 167.158 349.397C167.626 348.928 167.89 348.292 167.89 347.629C167.89 346.966 167.626 346.33 167.158 345.861C166.689 345.392 166.053 345.129 165.39 345.129C164.727 345.129 164.091 345.392 163.622 345.861C163.153 346.33 162.89 346.966 162.89 347.629C162.89 348.292 163.153 348.928 163.622 349.397C164.091 349.866 164.727 350.129 165.39 350.129Z" stroke="#FF0000"/>
<path d="M165.157 349.041C165.82 349.041 166.456 348.778 166.925 348.309C167.394 347.84 167.657 347.204 167.657 346.541C167.657 345.878 167.394 345.242 166.925 344.773C166.456 344.305 165.82 344.041 165.157 344.041C164.494 344.041 163.858 344.305 163.39 344.773C162.921 345.242 162.657 345.878 162.657 346.541C162.657 347.204 162.921 347.84 163.39 348.309C163.858 348.778 164.494 349.041 165.157 349.041Z" stroke="#FF0000"/>
<path d="M166.972 343.008C167.635 343.008 168.271 342.745 168.74 342.276C169.209 341.807 169.472 341.171 169.472 340.508C169.472 339.845 169.209 339.209 168.74 338.74C168.271 338.271 167.635 338.008 166.972 338.008C166.309 338.008 165.673 338.271 165.205 338.74C164.736 339.209 164.472 339.845 164.472 340.508C164.472 341.171 164.736 341.807 165.205 342.276C165.673 342.745 166.309 343.008 166.972 343.008Z" stroke="#FF0000"/>
<path d="M167.11 345.725C167.773 345.725 168.409 345.462 168.878 344.993C169.346 344.524 169.61 343.888 169.61 343.225C169.61 342.562 169.346 341.926 168.878 341.457C168.409 340.989 167.773 340.725 167.11 340.725C166.447 340.725 165.811 340.989 165.342 341.457C164.873 341.926 164.61 342.562 164.61 343.225C164.61 343.888 164.873 344.524 165.342 344.993C165.811 345.462 166.447 345.725 167.11 345.725Z" stroke="#FF0000"/>
<path d="M175.764 340.53C176.427 340.53 177.063 340.267 177.531 339.798C178 339.329 178.264 338.693 178.264 338.03C178.264 337.367 178 336.731 177.531 336.263C177.063 335.794 176.427 335.53 175.764 335.53C175.101 335.53 174.465 335.794 173.996 336.263C173.527 336.731 173.264 337.367 173.264 338.03C173.264 338.693 173.527 339.329 173.996 339.798C174.465 340.267 175.101 340.53 175.764 340.53Z" stroke="#FF0000"/>
<path d="M165.365 342.774C166.028 342.774 166.664 342.51 167.133 342.042C167.602 341.573 167.865 340.937 167.865 340.274C167.865 339.611 167.602 338.975 167.133 338.506C166.664 338.037 166.028 337.774 165.365 337.774C164.702 337.774 164.066 338.037 163.598 338.506C163.129 338.975 162.865 339.611 162.865 340.274C162.865 340.937 163.129 341.573 163.598 342.042C164.066 342.51 164.702 342.774 165.365 342.774Z" stroke="#FF0000"/>
<path d="M166.893 308.013C167.556 308.013 168.192 307.75 168.661 307.281C169.129 306.812 169.393 306.176 169.393 305.513C169.393 304.85 169.129 304.214 168.661 303.745C168.192 303.277 167.556 303.013 166.893 303.013C166.23 303.013 165.594 303.277 165.125 303.745C164.656 304.214 164.393 304.85 164.393 305.513C164.393 306.176 164.656 306.812 165.125 307.281C165.594 307.75 166.23 308.013 166.893 308.013Z" stroke="#FF0000"/>
<path d="M186.716 297.771C187.379 297.771 188.015 297.508 188.483 297.039C188.952 296.57 189.216 295.934 189.216 295.271C189.216 294.608 188.952 293.972 188.483 293.504C188.015 293.035 187.379 292.771 186.716 292.771C186.053 292.771 185.417 293.035 184.948 293.504C184.479 293.972 184.216 294.608 184.216 295.271C184.216 295.934 184.479 296.57 184.948 297.039C185.417 297.508 186.053 297.771 186.716 297.771Z" stroke="#FF0000"/>
<path d="M179.457 294.663C180.12 294.663 180.756 294.399 181.225 293.93C181.693 293.462 181.957 292.826 181.957 292.163C181.957 291.5 181.693 290.864 181.225 290.395C180.756 289.926 180.12 289.663 179.457 289.663C178.794 289.663 178.158 289.926 177.689 290.395C177.22 290.864 176.957 291.5 176.957 292.163C176.957 292.826 177.22 293.462 177.689 293.93C178.158 294.399 178.794 294.663 179.457 294.663Z" stroke="#FF0000"/>
<path d="M161.705 327.554C162.368 327.554 163.004 327.29 163.473 326.821C163.942 326.352 164.205 325.717 164.205 325.054C164.205 324.391 163.942 323.755 163.473 323.286C163.004 322.817 162.368 322.554 161.705 322.554C161.042 322.554 160.406 322.817 159.937 323.286C159.468 323.755 159.205 324.391 159.205 325.054C159.205 325.717 159.468 326.352 159.937 326.821C160.406 327.29 161.042 327.554 161.705 327.554Z" stroke="#FF0000"/>
<path d="M117.637 280.473C118.3 280.473 118.936 280.209 119.404 279.741C119.873 279.272 120.137 278.636 120.137 277.973C120.137 277.31 119.873 276.674 119.404 276.205C118.936 275.736 118.3 275.473 117.637 275.473C116.974 275.473 116.338 275.736 115.869 276.205C115.4 276.674 115.137 277.31 115.137 277.973C115.137 278.636 115.4 279.272 115.869 279.741C116.338 280.209 116.974 280.473 117.637 280.473Z" stroke="#FF0000"/>
<path d="M98.7319 276.27C99.3949 276.27 100.031 276.006 100.5 275.537C100.969 275.069 101.232 274.433 101.232 273.77C101.232 273.107 100.969 272.471 100.5 272.002C100.031 271.533 99.3949 271.27 98.7319 271.27C98.0689 271.27 97.433 271.533 96.9642 272.002C96.4953 272.471 96.2319 273.107 96.2319 273.77C96.2319 274.433 96.4953 275.069 96.9642 275.537C97.433 276.006 98.0689 276.27 98.7319 276.27Z" stroke="#FF0000"/>
<path d="M136.208 260.431C136.871 260.431 137.507 260.168 137.976 259.699C138.445 259.23 138.708 258.594 138.708 257.931C138.708 257.268 138.445 256.632 137.976 256.163C137.507 255.694 136.871 255.431 136.208 255.431C135.545 255.431 134.909 255.694 134.441 256.163C133.972 256.632 133.708 257.268 133.708 257.931C133.708 258.594 133.972 259.23 134.441 259.699C134.909 260.168 135.545 260.431 136.208 260.431Z" stroke="#FF0000"/>
<path d="M178.787 319.421C179.45 319.421 180.086 319.158 180.554 318.689C181.023 318.22 181.287 317.584 181.287 316.921C181.287 316.258 181.023 315.622 180.554 315.153C180.086 314.685 179.45 314.421 178.787 314.421C178.124 314.421 177.488 314.685 177.019 315.153C176.55 315.622 176.287 316.258 176.287 316.921C176.287 317.584 176.55 318.22 177.019 318.689C177.488 319.158 178.124 319.421 178.787 319.421Z" stroke="#FF0000"/>
<path d="M206.929 293.921C207.592 293.921 208.228 293.658 208.697 293.189C209.166 292.72 209.429 292.084 209.429 291.421C209.429 290.758 209.166 290.123 208.697 289.654C208.228 289.185 207.592 288.921 206.929 288.921C206.266 288.921 205.63 289.185 205.161 289.654C204.693 290.123 204.429 290.758 204.429 291.421C204.429 292.084 204.693 292.72 205.161 293.189C205.63 293.658 206.266 293.921 206.929 293.921Z" stroke="#FF0000"/>
<path d="M116.268 160.706C116.931 160.706 117.567 160.443 118.036 159.974C118.505 159.505 118.768 158.869 118.768 158.206C118.768 157.543 118.505 156.907 118.036 156.438C117.567 155.97 116.931 155.706 116.268 155.706C115.605 155.706 114.969 155.97 114.5 156.438C114.032 156.907 113.768 157.543 113.768 158.206C113.768 158.869 114.032 159.505 114.5 159.974C114.969 160.443 115.605 160.706 116.268 160.706Z" stroke="#FF0000"/>
<path d="M106.197 170.477C106.86 170.477 107.496 170.214 107.965 169.745C108.434 169.276 108.697 168.64 108.697 167.977C108.697 167.314 108.434 166.678 107.965 166.209C107.496 165.74 106.86 165.477 106.197 165.477C105.534 165.477 104.898 165.74 104.429 166.209C103.96 166.678 103.697 167.314 103.697 167.977C103.697 168.64 103.96 169.276 104.429 169.745C104.898 170.214 105.534 170.477 106.197 170.477Z" stroke="#FF0000"/>
<path d="M88.2764 212.754C88.9394 212.754 89.5754 212.491 90.0442 212.022C90.513 211.553 90.7764 210.917 90.7764 210.254C90.7764 209.591 90.513 208.955 90.0442 208.487C89.5754 208.018 88.9394 207.754 88.2764 207.754C87.6134 207.754 86.9775 208.018 86.5087 208.487C86.0398 208.955 85.7764 209.591 85.7764 210.254C85.7764 210.917 86.0398 211.553 86.5087 212.022C86.9775 212.491 87.6134 212.754 88.2764 212.754Z" stroke="#FF0000"/>
<path d="M105.959 163.277C106.622 163.277 107.258 163.013 107.727 162.545C108.195 162.076 108.459 161.44 108.459 160.777C108.459 160.114 108.195 159.478 107.727 159.009C107.258 158.54 106.622 158.277 105.959 158.277C105.296 158.277 104.66 158.54 104.191 159.009C103.722 159.478 103.459 160.114 103.459 160.777C103.459 161.44 103.722 162.076 104.191 162.545C104.66 163.013 105.296 163.277 105.959 163.277Z" stroke="#FF0000"/>
<path d="M121.382 168.417C122.045 168.417 122.681 168.154 123.15 167.685C123.619 167.216 123.882 166.58 123.882 165.917C123.882 165.254 123.619 164.618 123.15 164.15C122.681 163.681 122.045 163.417 121.382 163.417C120.719 163.417 120.083 163.681 119.615 164.15C119.146 164.618 118.882 165.254 118.882 165.917C118.882 166.58 119.146 167.216 119.615 167.685C120.083 168.154 120.719 168.417 121.382 168.417Z" stroke="#FF0000"/>
<path d="M107.072 186.425C107.735 186.425 108.371 186.161 108.84 185.692C109.309 185.224 109.572 184.588 109.572 183.925C109.572 183.262 109.309 182.626 108.84 182.157C108.371 181.688 107.735 181.425 107.072 181.425C106.409 181.425 105.773 181.688 105.304 182.157C104.835 182.626 104.572 183.262 104.572 183.925C104.572 184.588 104.835 185.224 105.304 185.692C105.773 186.161 106.409 186.425 107.072 186.425Z" stroke="#FF0000"/>
<path d="M93.7017 209.718C94.3647 209.718 95.0006 209.455 95.4695 208.986C95.9383 208.517 96.2017 207.881 96.2017 207.218C96.2017 206.555 95.9383 205.919 95.4695 205.451C95.0006 204.982 94.3647 204.718 93.7017 204.718C93.0387 204.718 92.4027 204.982 91.9339 205.451C91.4651 205.919 91.2017 206.555 91.2017 207.218C91.2017 207.881 91.4651 208.517 91.9339 208.986C92.4027 209.455 93.0387 209.718 93.7017 209.718Z" stroke="#FF0000"/>
<path d="M263.029 185.434C263.692 185.434 264.328 185.171 264.797 184.702C265.266 184.233 265.529 183.597 265.529 182.934C265.529 182.271 265.266 181.635 264.797 181.166C264.328 180.698 263.692 180.434 263.029 180.434C262.366 180.434 261.73 180.698 261.262 181.166C260.793 181.635 260.529 182.271 260.529 182.934C260.529 183.597 260.793 184.233 261.262 184.702C261.73 185.171 262.366 185.434 263.029 185.434Z" stroke="#FF0000"/>
<path d="M253.541 198.914C254.204 198.914 254.84 198.65 255.308 198.182C255.777 197.713 256.041 197.077 256.041 196.414C256.041 195.751 255.777 195.115 255.308 194.646C254.84 194.177 254.204 193.914 253.541 193.914C252.878 193.914 252.242 194.177 251.773 194.646C251.304 195.115 251.041 195.751 251.041 196.414C251.041 197.077 251.304 197.713 251.773 198.182C252.242 198.65 252.878 198.914 253.541 198.914Z" stroke="#FF0000"/>
<path d="M227.886 191.447C228.549 191.447 229.185 191.184 229.654 190.715C230.123 190.246 230.386 189.61 230.386 188.947C230.386 188.284 230.123 187.648 229.654 187.179C229.185 186.71 228.549 186.447 227.886 186.447C227.223 186.447 226.587 186.71 226.118 187.179C225.65 187.648 225.386 188.284 225.386 188.947C225.386 189.61 225.65 190.246 226.118 190.715C226.587 191.184 227.223 191.447 227.886 191.447Z" stroke="#FF0000"/>
<path d="M273.553 170.436C274.216 170.436 274.852 170.173 275.321 169.704C275.79 169.235 276.053 168.599 276.053 167.936C276.053 167.273 275.79 166.637 275.321 166.168C274.852 165.7 274.216 165.436 273.553 165.436C272.89 165.436 272.255 165.7 271.786 166.168C271.317 166.637 271.053 167.273 271.053 167.936C271.053 168.599 271.317 169.235 271.786 169.704C272.255 170.173 272.89 170.436 273.553 170.436Z" stroke="#FF0000"/>
<path d="M229.297 206.934C229.96 206.934 230.596 206.671 231.065 206.202C231.533 205.733 231.797 205.097 231.797 204.434C231.797 203.771 231.533 203.135 231.065 202.666C230.596 202.198 229.96 201.934 229.297 201.934C228.634 201.934 227.998 202.198 227.529 202.666C227.06 203.135 226.797 203.771 226.797 204.434C226.797 205.097 227.06 205.733 227.529 206.202C227.998 206.671 228.634 206.934 229.297 206.934Z" stroke="#FF0000"/>
<path d="M204.172 230.789C204.835 230.789 205.471 230.525 205.94 230.057C206.409 229.588 206.672 228.952 206.672 228.289C206.672 227.626 206.409 226.99 205.94 226.521C205.471 226.052 204.835 225.789 204.172 225.789C203.509 225.789 202.873 226.052 202.405 226.521C201.936 226.99 201.672 227.626 201.672 228.289C201.672 228.952 201.936 229.588 202.405 230.057C202.873 230.525 203.509 230.789 204.172 230.789Z" stroke="#FF0000"/>
<path d="M260.976 216.69C261.639 216.69 262.275 216.426 262.744 215.957C263.213 215.489 263.476 214.853 263.476 214.19C263.476 213.527 263.213 212.891 262.744 212.422C262.275 211.953 261.639 211.69 260.976 211.69C260.313 211.69 259.677 211.953 259.208 212.422C258.739 212.891 258.476 213.527 258.476 214.19C258.476 214.853 258.739 215.489 259.208 215.957C259.677 216.426 260.313 216.69 260.976 216.69Z" stroke="#FF0000"/>
<path d="M295.74 178.374C296.403 178.374 297.039 178.11 297.508 177.641C297.977 177.173 298.24 176.537 298.24 175.874C298.24 175.211 297.977 174.575 297.508 174.106C297.039 173.637 296.403 173.374 295.74 173.374C295.077 173.374 294.441 173.637 293.973 174.106C293.504 174.575 293.24 175.211 293.24 175.874C293.24 176.537 293.504 177.173 293.973 177.641C294.441 178.11 295.077 178.374 295.74 178.374Z" stroke="#FF0000"/>
<path d="M311.725 204.221C312.388 204.221 313.024 203.957 313.493 203.488C313.962 203.02 314.225 202.384 314.225 201.721C314.225 201.058 313.962 200.422 313.493 199.953C313.024 199.484 312.388 199.221 311.725 199.221C311.062 199.221 310.426 199.484 309.958 199.953C309.489 200.422 309.225 201.058 309.225 201.721C309.225 202.384 309.489 203.02 309.958 203.488C310.426 203.957 311.062 204.221 311.725 204.221Z" stroke="#FF0000"/>
<path d="M309.671 180.101C310.334 180.101 310.97 179.837 311.438 179.369C311.907 178.9 312.171 178.264 312.171 177.601C312.171 176.938 311.907 176.302 311.438 175.833C310.97 175.364 310.334 175.101 309.671 175.101C309.008 175.101 308.372 175.364 307.903 175.833C307.434 176.302 307.171 176.938 307.171 177.601C307.171 178.264 307.434 178.9 307.903 179.369C308.372 179.837 309.008 180.101 309.671 180.101Z" stroke="#FF0000"/>
<path d="M342.113 185.7C342.776 185.7 343.412 185.437 343.881 184.968C344.35 184.499 344.613 183.863 344.613 183.2C344.613 182.537 344.35 181.901 343.881 181.433C343.412 180.964 342.776 180.7 342.113 180.7C341.45 180.7 340.815 180.964 340.346 181.433C339.877 181.901 339.613 182.537 339.613 183.2C339.613 183.863 339.877 184.499 340.346 184.968C340.815 185.437 341.45 185.7 342.113 185.7Z" stroke="#FF0000"/>
<path d="M302.018 177.32C302.681 177.32 303.316 177.056 303.785 176.587C304.254 176.119 304.518 175.483 304.518 174.82C304.518 174.157 304.254 173.521 303.785 173.052C303.316 172.583 302.681 172.32 302.018 172.32C301.355 172.32 300.719 172.583 300.25 173.052C299.781 173.521 299.518 174.157 299.518 174.82C299.518 175.483 299.781 176.119 300.25 176.587C300.719 177.056 301.355 177.32 302.018 177.32Z" stroke="#FF0000"/>
<path d="M312.741 214.899C313.404 214.899 314.04 214.635 314.509 214.166C314.978 213.698 315.241 213.062 315.241 212.399C315.241 211.736 314.978 211.1 314.509 210.631C314.04 210.162 313.404 209.899 312.741 209.899C312.078 209.899 311.442 210.162 310.973 210.631C310.505 211.1 310.241 211.736 310.241 212.399C310.241 213.062 310.505 213.698 310.973 214.166C311.442 214.635 312.078 214.899 312.741 214.899Z" stroke="#FF0000"/>
<path d="M291.522 168.738C292.185 168.738 292.821 168.474 293.29 168.005C293.759 167.536 294.022 166.901 294.022 166.238C294.022 165.574 293.759 164.939 293.29 164.47C292.821 164.001 292.185 163.738 291.522 163.738C290.859 163.738 290.223 164.001 289.754 164.47C289.286 164.939 289.022 165.574 289.022 166.238C289.022 166.901 289.286 167.536 289.754 168.005C290.223 168.474 290.859 168.738 291.522 168.738Z" stroke="#FF0000"/>
<path d="M281.701 160.623C282.364 160.623 283 160.36 283.468 159.891C283.937 159.422 284.201 158.786 284.201 158.123C284.201 157.46 283.937 156.824 283.468 156.356C283 155.887 282.364 155.623 281.701 155.623C281.038 155.623 280.402 155.887 279.933 156.356C279.464 156.824 279.201 157.46 279.201 158.123C279.201 158.786 279.464 159.422 279.933 159.891C280.402 160.36 281.038 160.623 281.701 160.623Z" stroke="#FF0000"/>
<path d="M312.505 205.121C313.168 205.121 313.804 204.858 314.273 204.389C314.742 203.92 315.005 203.284 315.005 202.621C315.005 201.958 314.742 201.323 314.273 200.854C313.804 200.385 313.168 200.121 312.505 200.121C311.842 200.121 311.206 200.385 310.737 200.854C310.269 201.323 310.005 201.958 310.005 202.621C310.005 203.284 310.269 203.92 310.737 204.389C311.206 204.858 311.842 205.121 312.505 205.121Z" stroke="#FF0000"/>
<path d="M315.719 124.348C316.382 124.348 317.017 124.085 317.486 123.616C317.955 123.147 318.219 122.511 318.219 121.848C318.219 121.185 317.955 120.549 317.486 120.081C317.017 119.612 316.382 119.348 315.719 119.348C315.056 119.348 314.42 119.612 313.951 120.081C313.482 120.549 313.219 121.185 313.219 121.848C313.219 122.511 313.482 123.147 313.951 123.616C314.42 124.085 315.056 124.348 315.719 124.348Z" stroke="#FF0000"/>
<path d="M341.127 170.71C341.79 170.71 342.426 170.446 342.895 169.977C343.364 169.509 343.627 168.873 343.627 168.21C343.627 167.547 343.364 166.911 342.895 166.442C342.426 165.973 341.79 165.71 341.127 165.71C340.464 165.71 339.828 165.973 339.359 166.442C338.89 166.911 338.627 167.547 338.627 168.21C338.627 168.873 338.89 169.509 339.359 169.977C339.828 170.446 340.464 170.71 341.127 170.71Z" stroke="#FF0000"/>
<path d="M418.006 156.778C418.669 156.778 419.305 156.514 419.774 156.045C420.242 155.577 420.506 154.941 420.506 154.278C420.506 153.615 420.242 152.979 419.774 152.51C419.305 152.041 418.669 151.778 418.006 151.778C417.343 151.778 416.707 152.041 416.238 152.51C415.769 152.979 415.506 153.615 415.506 154.278C415.506 154.941 415.769 155.577 416.238 156.045C416.707 156.514 417.343 156.778 418.006 156.778Z" stroke="#FF0000"/>
<path d="M340.576 201.216C341.239 201.216 341.875 200.953 342.344 200.484C342.813 200.015 343.076 199.379 343.076 198.716C343.076 198.053 342.813 197.417 342.344 196.948C341.875 196.479 341.239 196.216 340.576 196.216C339.913 196.216 339.278 196.479 338.809 196.948C338.34 197.417 338.076 198.053 338.076 198.716C338.076 199.379 338.34 200.015 338.809 200.484C339.278 200.953 339.913 201.216 340.576 201.216Z" stroke="#FF0000"/>
<path d="M305.503 199.284C306.166 199.284 306.802 199.02 307.27 198.551C307.739 198.083 308.003 197.447 308.003 196.784C308.003 196.121 307.739 195.485 307.27 195.016C306.802 194.547 306.166 194.284 305.503 194.284C304.84 194.284 304.204 194.547 303.735 195.016C303.266 195.485 303.003 196.121 303.003 196.784C303.003 197.447 303.266 198.083 303.735 198.551C304.204 199.02 304.84 199.284 305.503 199.284Z" stroke="#FF0000"/>
<path d="M467.052 260.033C467.715 260.033 468.351 259.77 468.82 259.301C469.289 258.832 469.552 258.196 469.552 257.533C469.552 256.87 469.289 256.234 468.82 255.766C468.351 255.297 467.715 255.033 467.052 255.033C466.389 255.033 465.753 255.297 465.284 255.766C464.815 256.234 464.552 256.87 464.552 257.533C464.552 258.196 464.815 258.832 465.284 259.301C465.753 259.77 466.389 260.033 467.052 260.033Z" stroke="#FF0000"/>
<path d="M468.13 273.3C468.793 273.3 469.428 273.036 469.897 272.567C470.366 272.099 470.63 271.463 470.63 270.8C470.63 270.137 470.366 269.501 469.897 269.032C469.428 268.563 468.793 268.3 468.13 268.3C467.467 268.3 466.831 268.563 466.362 269.032C465.893 269.501 465.63 270.137 465.63 270.8C465.63 271.463 465.893 272.099 466.362 272.567C466.831 273.036 467.467 273.3 468.13 273.3Z" stroke="#FF0000"/>
<path d="M480.332 253.663C480.995 253.663 481.631 253.4 482.1 252.931C482.569 252.462 482.832 251.826 482.832 251.163C482.832 250.5 482.569 249.864 482.1 249.396C481.631 248.927 480.995 248.663 480.332 248.663C479.669 248.663 479.033 248.927 478.564 249.396C478.095 249.864 477.832 250.5 477.832 251.163C477.832 251.826 478.095 252.462 478.564 252.931C479.033 253.4 479.669 253.663 480.332 253.663Z" stroke="#FF0000"/>
<path d="M473.303 281.894C473.966 281.894 474.602 281.631 475.071 281.162C475.54 280.693 475.803 280.057 475.803 279.394C475.803 278.731 475.54 278.095 475.071 277.626C474.602 277.158 473.966 276.894 473.303 276.894C472.64 276.894 472.004 277.158 471.535 277.626C471.066 278.095 470.803 278.731 470.803 279.394C470.803 280.057 471.066 280.693 471.535 281.162C472.004 281.631 472.64 281.894 473.303 281.894Z" stroke="#FF0000"/>
<path d="M468.279 243.579C468.942 243.579 469.578 243.316 470.047 242.847C470.516 242.378 470.779 241.742 470.779 241.079C470.779 240.416 470.516 239.78 470.047 239.312C469.578 238.843 468.942 238.579 468.279 238.579C467.616 238.579 466.98 238.843 466.511 239.312C466.043 239.78 465.779 240.416 465.779 241.079C465.779 241.742 466.043 242.378 466.511 242.847C466.98 243.316 467.616 243.579 468.279 243.579Z" stroke="#FF0000"/>
<path d="M457.846 297.861C458.509 297.861 459.145 297.598 459.614 297.129C460.082 296.66 460.346 296.024 460.346 295.361C460.346 294.698 460.082 294.062 459.614 293.593C459.145 293.125 458.509 292.861 457.846 292.861C457.183 292.861 456.547 293.125 456.078 293.593C455.609 294.062 455.346 294.698 455.346 295.361C455.346 296.024 455.609 296.66 456.078 297.129C456.547 297.598 457.183 297.861 457.846 297.861Z" stroke="#FF0000"/>
<path d="M468.358 285.758C469.021 285.758 469.657 285.495 470.126 285.026C470.595 284.557 470.858 283.921 470.858 283.258C470.858 282.595 470.595 281.959 470.126 281.491C469.657 281.022 469.021 280.758 468.358 280.758C467.695 280.758 467.059 281.022 466.591 281.491C466.122 281.959 465.858 282.595 465.858 283.258C465.858 283.921 466.122 284.557 466.591 285.026C467.059 285.495 467.695 285.758 468.358 285.758Z" stroke="#FF0000"/>
<path d="M453.413 242.891C454.076 242.891 454.712 242.628 455.181 242.159C455.65 241.69 455.913 241.054 455.913 240.391C455.913 239.728 455.65 239.092 455.181 238.624C454.712 238.155 454.076 237.891 453.413 237.891C452.75 237.891 452.114 238.155 451.646 238.624C451.177 239.092 450.913 239.728 450.913 240.391C450.913 241.054 451.177 241.69 451.646 242.159C452.114 242.628 452.75 242.891 453.413 242.891Z" stroke="#FF0000"/>
<path d="M433.81 193.713C434.473 193.713 435.109 193.449 435.578 192.981C436.047 192.512 436.31 191.876 436.31 191.213C436.31 190.55 436.047 189.914 435.578 189.445C435.109 188.976 434.473 188.713 433.81 188.713C433.147 188.713 432.511 188.976 432.042 189.445C431.573 189.914 431.31 190.55 431.31 191.213C431.31 191.876 431.573 192.512 432.042 192.981C432.511 193.449 433.147 193.713 433.81 193.713Z" stroke="#FF0000"/>
<path d="M210.855 348.866C211.518 348.866 212.154 348.602 212.623 348.134C213.092 347.665 213.355 347.029 213.355 346.366C213.355 345.703 213.092 345.067 212.623 344.598C212.154 344.129 211.518 343.866 210.855 343.866C210.192 343.866 209.556 344.129 209.087 344.598C208.619 345.067 208.355 345.703 208.355 346.366C208.355 347.029 208.619 347.665 209.087 348.134C209.556 348.602 210.192 348.866 210.855 348.866Z" stroke="#FF0000"/>
<path d="M227.825 343.603C228.488 343.603 229.124 343.34 229.593 342.871C230.061 342.402 230.325 341.766 230.325 341.103C230.325 340.44 230.061 339.804 229.593 339.336C229.124 338.867 228.488 338.603 227.825 338.603C227.162 338.603 226.526 338.867 226.057 339.336C225.588 339.804 225.325 340.44 225.325 341.103C225.325 341.766 225.588 342.402 226.057 342.871C226.526 343.34 227.162 343.603 227.825 343.603Z" stroke="#FF0000"/>
<path d="M224.837 369.425C225.5 369.425 226.136 369.162 226.605 368.693C227.074 368.224 227.337 367.588 227.337 366.925C227.337 366.262 227.074 365.626 226.605 365.157C226.136 364.689 225.5 364.425 224.837 364.425C224.174 364.425 223.538 364.689 223.07 365.157C222.601 365.626 222.337 366.262 222.337 366.925C222.337 367.588 222.601 368.224 223.07 368.693C223.538 369.162 224.174 369.425 224.837 369.425Z" stroke="#FF0000"/>
<path d="M231.313 376.597C231.976 376.597 232.612 376.333 233.081 375.864C233.55 375.396 233.813 374.76 233.813 374.097C233.813 373.434 233.55 372.798 233.081 372.329C232.612 371.86 231.976 371.597 231.313 371.597C230.65 371.597 230.014 371.86 229.546 372.329C229.077 372.798 228.813 373.434 228.813 374.097C228.813 374.76 229.077 375.396 229.546 375.864C230.014 376.333 230.65 376.597 231.313 376.597Z" stroke="#FF0000"/>
<path d="M314.187 373.728C314.85 373.728 315.486 373.465 315.955 372.996C316.424 372.527 316.687 371.891 316.687 371.228C316.687 370.565 316.424 369.93 315.955 369.461C315.486 368.992 314.85 368.728 314.187 368.728C313.524 368.728 312.888 368.992 312.419 369.461C311.95 369.93 311.687 370.565 311.687 371.228C311.687 371.891 311.95 372.527 312.419 372.996C312.888 373.465 313.524 373.728 314.187 373.728Z" stroke="#FF0000"/>
<path d="M212.228 336.671C212.891 336.671 213.527 336.408 213.996 335.939C214.464 335.47 214.728 334.834 214.728 334.171C214.728 333.508 214.464 332.872 213.996 332.404C213.527 331.935 212.891 331.671 212.228 331.671C211.565 331.671 210.929 331.935 210.46 332.404C209.991 332.872 209.728 333.508 209.728 334.171C209.728 334.834 209.991 335.47 210.46 335.939C210.929 336.408 211.565 336.671 212.228 336.671Z" stroke="#FF0000"/>
<path d="M230.554 351.586C231.217 351.586 231.853 351.323 232.322 350.854C232.791 350.385 233.054 349.749 233.054 349.086C233.054 348.423 232.791 347.787 232.322 347.318C231.853 346.849 231.217 346.586 230.554 346.586C229.891 346.586 229.256 346.849 228.787 347.318C228.318 347.787 228.054 348.423 228.054 349.086C228.054 349.749 228.318 350.385 228.787 350.854C229.256 351.323 229.891 351.586 230.554 351.586Z" stroke="#FF0000"/>
<path d="M223.129 340.119C223.792 340.119 224.428 339.856 224.896 339.387C225.365 338.918 225.629 338.282 225.629 337.619C225.629 336.956 225.365 336.32 224.896 335.852C224.428 335.383 223.792 335.119 223.129 335.119C222.466 335.119 221.83 335.383 221.361 335.852C220.892 336.32 220.629 336.956 220.629 337.619C220.629 338.282 220.892 338.918 221.361 339.387C221.83 339.856 222.466 340.119 223.129 340.119Z" stroke="#FF0000"/>
<path d="M220.159 353.407C220.822 353.407 221.458 353.143 221.926 352.675C222.395 352.206 222.659 351.57 222.659 350.907C222.659 350.244 222.395 349.608 221.926 349.139C221.458 348.67 220.822 348.407 220.159 348.407C219.496 348.407 218.86 348.67 218.391 349.139C217.922 349.608 217.659 350.244 217.659 350.907C217.659 351.57 217.922 352.206 218.391 352.675C218.86 353.143 219.496 353.407 220.159 353.407Z" stroke="#FF0000"/>
<path d="M199.624 369.397C200.287 369.397 200.923 369.134 201.392 368.665C201.86 368.196 202.124 367.56 202.124 366.897C202.124 366.234 201.86 365.598 201.392 365.13C200.923 364.661 200.287 364.397 199.624 364.397C198.961 364.397 198.325 364.661 197.856 365.13C197.387 365.598 197.124 366.234 197.124 366.897C197.124 367.56 197.387 368.196 197.856 368.665C198.325 369.134 198.961 369.397 199.624 369.397Z" stroke="#FF0000"/>
<path d="M202.085 360.916C202.748 360.916 203.384 360.653 203.853 360.184C204.322 359.715 204.585 359.079 204.585 358.416C204.585 357.753 204.322 357.117 203.853 356.648C203.384 356.179 202.748 355.916 202.085 355.916C201.422 355.916 200.786 356.179 200.318 356.648C199.849 357.117 199.585 357.753 199.585 358.416C199.585 359.079 199.849 359.715 200.318 360.184C200.786 360.653 201.422 360.916 202.085 360.916Z" stroke="#FF0000"/>
<path d="M422.496 333.195C423.159 333.195 423.795 332.932 424.264 332.463C424.732 331.994 424.996 331.358 424.996 330.695C424.996 330.032 424.732 329.396 424.264 328.927C423.795 328.459 423.159 328.195 422.496 328.195C421.833 328.195 421.197 328.459 420.728 328.927C420.259 329.396 419.996 330.032 419.996 330.695C419.996 331.358 420.259 331.994 420.728 332.463C421.197 332.932 421.833 333.195 422.496 333.195Z" stroke="#FF0000"/>
<path d="M224.358 362.536C225.021 362.536 225.657 362.273 226.126 361.804C226.595 361.335 226.858 360.699 226.858 360.036C226.858 359.373 226.595 358.737 226.126 358.269C225.657 357.8 225.021 357.536 224.358 357.536C223.695 357.536 223.059 357.8 222.591 358.269C222.122 358.737 221.858 359.373 221.858 360.036C221.858 360.699 222.122 361.335 222.591 361.804C223.059 362.273 223.695 362.536 224.358 362.536Z" stroke="#FF0000"/>
<path d="M195.173 355.19C195.836 355.19 196.472 354.927 196.941 354.458C197.41 353.989 197.673 353.353 197.673 352.69C197.673 352.027 197.41 351.391 196.941 350.922C196.472 350.454 195.836 350.19 195.173 350.19C194.51 350.19 193.874 350.454 193.405 350.922C192.937 351.391 192.673 352.027 192.673 352.69C192.673 353.353 192.937 353.989 193.405 354.458C193.874 354.927 194.51 355.19 195.173 355.19Z" stroke="#FF0000"/>
<path d="M229.296 403.596C229.959 403.596 230.595 403.333 231.064 402.864C231.533 402.395 231.796 401.759 231.796 401.096C231.796 400.433 231.533 399.797 231.064 399.328C230.595 398.86 229.959 398.596 229.296 398.596C228.633 398.596 227.997 398.86 227.528 399.328C227.06 399.797 226.796 400.433 226.796 401.096C226.796 401.759 227.06 402.395 227.528 402.864C227.997 403.333 228.633 403.596 229.296 403.596Z" stroke="#FF0000"/>
<path d="M277.848 405.341C278.511 405.341 279.147 405.078 279.616 404.609C280.085 404.14 280.348 403.504 280.348 402.841C280.348 402.178 280.085 401.542 279.616 401.073C279.147 400.605 278.511 400.341 277.848 400.341C277.185 400.341 276.549 400.605 276.081 401.073C275.612 401.542 275.348 402.178 275.348 402.841C275.348 403.504 275.612 404.14 276.081 404.609C276.549 405.078 277.185 405.341 277.848 405.341Z" stroke="#FF0000"/>
<path d="M187.432 368.042C188.095 368.042 188.731 367.779 189.2 367.31C189.669 366.841 189.932 366.205 189.932 365.542C189.932 364.879 189.669 364.243 189.2 363.774C188.731 363.306 188.095 363.042 187.432 363.042C186.769 363.042 186.134 363.306 185.665 363.774C185.196 364.243 184.932 364.879 184.932 365.542C184.932 366.205 185.196 366.841 185.665 367.31C186.134 367.779 186.769 368.042 187.432 368.042Z" stroke="#FF0000"/>
<path d="M143.247 356.424C143.91 356.424 144.545 356.161 145.014 355.692C145.483 355.223 145.747 354.587 145.747 353.924C145.747 353.261 145.483 352.625 145.014 352.156C144.545 351.688 143.91 351.424 143.247 351.424C142.583 351.424 141.948 351.688 141.479 352.156C141.01 352.625 140.747 353.261 140.747 353.924C140.747 354.587 141.01 355.223 141.479 355.692C141.948 356.161 142.583 356.424 143.247 356.424Z" stroke="#FF0000"/>
<path d="M142.614 355.474C143.277 355.474 143.912 355.21 144.381 354.741C144.85 354.273 145.114 353.637 145.114 352.974C145.114 352.311 144.85 351.675 144.381 351.206C143.912 350.737 143.277 350.474 142.614 350.474C141.951 350.474 141.315 350.737 140.846 351.206C140.377 351.675 140.114 352.311 140.114 352.974C140.114 353.637 140.377 354.273 140.846 354.741C141.315 355.21 141.951 355.474 142.614 355.474Z" stroke="#FF0000"/>
<path d="M137.314 352.428C137.977 352.428 138.613 352.164 139.082 351.696C139.551 351.227 139.814 350.591 139.814 349.928C139.814 349.265 139.551 348.629 139.082 348.16C138.613 347.691 137.977 347.428 137.314 347.428C136.651 347.428 136.015 347.691 135.547 348.16C135.078 348.629 134.814 349.265 134.814 349.928C134.814 350.591 135.078 351.227 135.547 351.696C136.015 352.164 136.651 352.428 137.314 352.428Z" stroke="#FF0000"/>
<path d="M147.535 368.794C148.198 368.794 148.834 368.53 149.303 368.061C149.772 367.593 150.035 366.957 150.035 366.294C150.035 365.631 149.772 364.995 149.303 364.526C148.834 364.057 148.198 363.794 147.535 363.794C146.872 363.794 146.236 364.057 145.768 364.526C145.299 364.995 145.035 365.631 145.035 366.294C145.035 366.957 145.299 367.593 145.768 368.061C146.236 368.53 146.872 368.794 147.535 368.794Z" stroke="#FF0000"/>
<path d="M139.016 349.012C139.679 349.012 140.315 348.748 140.784 348.28C141.253 347.811 141.516 347.175 141.516 346.512C141.516 345.849 141.253 345.213 140.784 344.744C140.315 344.275 139.679 344.012 139.016 344.012C138.353 344.012 137.717 344.275 137.248 344.744C136.78 345.213 136.516 345.849 136.516 346.512C136.516 347.175 136.78 347.811 137.248 348.28C137.717 348.748 138.353 349.012 139.016 349.012Z" stroke="#FF0000"/>
</svg>
