<svg width="581" height="514" viewBox="0 0 581 514" fill="none" xmlns="http://www.w3.org/2000/svg">
<path d="M214.739 362.238L214.27 362.064L214.265 362.077L214.261 362.09L214.739 362.238ZM215.467 360.271L215.026 360.036L215.01 360.066L214.998 360.098L215.467 360.271ZM216.17 358.956L215.852 358.57L215.775 358.633L215.729 358.72L216.17 358.956ZM217.04 358.238L216.823 357.787L216.768 357.814L216.721 357.852L217.04 358.238ZM219.348 357.124L219.566 357.574L219.637 357.54L219.694 357.485L219.348 357.124ZM220.296 356.215L220.642 356.576L220.701 356.519L220.739 356.447L220.296 356.215ZM220.886 355.088L221.329 355.319L221.353 355.273L221.367 355.222L220.886 355.088ZM221.195 353.977L220.793 353.68L220.738 353.754L220.713 353.843L221.195 353.977ZM221.984 352.908L221.736 352.474L221.644 352.526L221.582 352.611L221.984 352.908ZM223.739 351.906L223.597 351.427L223.541 351.443L223.491 351.472L223.739 351.906ZM225.672 351.334L225.661 350.834L225.594 350.836L225.53 350.855L225.672 351.334ZM226.895 351.309L227.224 350.933L227.079 350.805L226.884 350.809L226.895 351.309ZM227.426 351.775L227.867 351.538L227.824 351.459L227.756 351.399L227.426 351.775ZM228.01 352.859L227.57 353.096L227.685 353.311L227.926 353.352L228.01 352.859ZM228.664 352.972L228.58 353.464L228.72 353.488L228.852 353.435L228.664 352.972ZM229.473 352.643L229.661 353.107L229.741 353.074L229.805 353.017L229.473 352.643ZM230.726 351.531L230.57 351.056L230.471 351.089L230.394 351.157L230.726 351.531ZM231.982 351.118L232.138 351.593L232.224 351.565L232.295 351.509L231.982 351.118ZM234.392 349.189L234.118 348.772L234.098 348.784L234.08 348.799L234.392 349.189ZM235.635 348.373L235.446 347.91L235.401 347.928L235.36 347.955L235.635 348.373ZM236.832 347.885L236.709 347.4L236.675 347.409L236.643 347.422L236.832 347.885ZM238.992 347.34L239.114 347.824L239.201 347.802L239.275 347.752L238.992 347.34ZM240.399 346.372L240.223 345.903L240.166 345.925L240.115 345.96L240.399 346.372ZM241.588 345.926L241.522 345.43L241.466 345.438L241.413 345.458L241.588 345.926ZM242.97 345.741L243.018 345.243L242.961 345.238L242.904 345.245L242.97 345.741ZM244.181 345.858L244.427 345.422L244.334 345.37L244.229 345.36L244.181 345.858ZM244.955 346.293L245.396 346.059L245.327 345.929L245.2 345.857L244.955 346.293ZM245.278 346.902L244.836 347.137L244.862 347.185L244.898 347.227L245.278 346.902ZM245.7 347.397L245.32 347.721L245.441 347.863L245.625 347.891L245.7 347.397ZM246.72 347.552L246.645 348.046L246.727 348.059L246.809 348.044L246.72 347.552ZM247.88 347.344L247.968 347.836L248.039 347.823L248.103 347.791L247.88 347.344ZM248.648 346.962L248.871 347.409L248.998 347.346L249.073 347.224L248.648 346.962ZM249.148 346.151L249.573 346.413L249.591 346.384L249.605 346.353L249.148 346.151ZM250.365 343.404L249.948 343.129L249.925 343.164L249.908 343.201L250.365 343.404ZM251.332 341.937L250.972 341.589L250.94 341.623L250.914 341.662L251.332 341.937ZM252.771 340.448L252.444 340.069L252.427 340.084L252.411 340.1L252.771 340.448ZM256.165 337.52L255.84 337.139L255.838 337.141L256.165 337.52ZM257.162 336.667L257.487 337.047L257.541 337.001L257.58 336.941L257.162 336.667ZM258.6 334.471L258.318 334.057L258.236 334.113L258.181 334.197L258.6 334.471ZM261.471 332.518L261.252 332.068L261.22 332.084L261.19 332.104L261.471 332.518ZM263.572 331.493L263.791 331.942L263.874 331.902L263.937 331.834L263.572 331.493ZM264.399 330.61L264.764 330.952L264.811 330.902L264.842 330.841L264.399 330.61ZM265.031 329.398L265.474 329.629L265.487 329.605L265.497 329.58L265.031 329.398ZM265.542 328.087L265.108 327.839L265.09 327.871L265.076 327.906L265.542 328.087ZM266.332 326.703L266.766 326.951L266.775 326.936L266.782 326.921L266.332 326.703ZM267.343 324.619L266.931 324.337L266.91 324.368L266.893 324.401L267.343 324.619ZM268.563 322.836L268.305 322.408L268.211 322.464L268.15 322.554L268.563 322.836ZM270.273 321.807L270.044 321.362L270.029 321.37L270.015 321.379L270.273 321.807ZM272.28 320.777L272.508 321.222L272.614 321.168L272.685 321.071L272.28 320.777ZM274.665 317.497L274.307 317.148L274.282 317.173L274.26 317.203L274.665 317.497ZM276.146 315.977L275.841 315.581L275.813 315.603L275.788 315.628L276.146 315.977ZM277.232 315.139L277.537 315.534L277.567 315.511L277.593 315.484L277.232 315.139ZM279.083 313.202L278.794 312.794L278.755 312.822L278.722 312.857L279.083 313.202ZM281.535 311.469L281.823 311.877L281.884 311.834L281.93 311.775L281.535 311.469ZM282.434 310.31L282.829 310.616L282.872 310.562L282.898 310.498L282.434 310.31ZM282.918 309.12L283.381 309.308L283.398 309.265L283.408 309.22L282.918 309.12ZM283.117 308.149L282.667 307.931L282.639 307.987L282.627 308.049L283.117 308.149ZM283.442 307.481L283.186 307.051L283.058 307.128L282.992 307.262L283.442 307.481ZM285.232 306.413L285.488 306.842L285.552 306.804L285.602 306.749L285.232 306.413ZM286.916 304.562L286.78 304.081L286.643 304.12L286.546 304.225L286.916 304.562ZM289.089 303.951L289.224 304.432L289.399 304.383L289.502 304.232L289.089 303.951ZM289.516 303.324L289.929 303.606L289.969 303.548L289.991 303.482L289.516 303.324ZM289.804 302.459L289.355 302.239L289.341 302.269L289.33 302.301L289.804 302.459ZM290.223 301.605L289.908 301.217L289.822 301.286L289.774 301.385L290.223 301.605ZM291.946 300.21L292.26 300.598L292.31 300.558L292.348 300.506L291.946 300.21ZM294.36 296.933L294.028 296.56L293.989 296.594L293.958 296.637L294.36 296.933ZM298.429 293.318L298.761 293.692L298.784 293.671L298.805 293.648L298.429 293.318ZM299.746 291.82L300.121 292.15L300.169 292.097L300.199 292.032L299.746 291.82ZM300.483 290.241L300.936 290.452L300.951 290.419L300.962 290.384L300.483 290.241ZM301.113 288.137L301.592 288.28L301.592 288.279L301.113 288.137ZM301.583 286.559L301.121 286.369L301.111 286.392L301.104 286.416L301.583 286.559ZM302.048 285.427L301.7 285.068L301.625 285.141L301.585 285.237L302.048 285.427ZM302.643 284.85L302.396 284.415L302.34 284.447L302.295 284.491L302.643 284.85ZM304.312 283.903L304.559 284.337L304.642 284.29L304.702 284.215L304.312 283.903ZM305.738 282.122L305.403 281.751L305.373 281.778L305.347 281.809L305.738 282.122ZM307.212 280.791L307.547 281.163L307.626 281.091L307.67 280.992L307.212 280.791ZM307.736 279.596L308.194 279.796L308.221 279.734L308.231 279.666L307.736 279.596ZM307.987 277.823L308.482 277.893L308.486 277.863L308.487 277.834L307.987 277.823ZM308.033 275.703L307.536 275.655L307.534 275.673L307.533 275.692L308.033 275.703ZM308.21 273.87L307.769 273.635L307.722 273.723L307.712 273.822L308.21 273.87ZM308.782 272.798L308.517 272.374L308.404 272.445L308.341 272.562L308.782 272.798ZM214.465 364.806L215.216 362.386L214.261 362.09L213.51 364.51L214.465 364.806ZM215.207 362.411L215.936 360.445L214.998 360.098L214.27 362.064L215.207 362.411ZM215.908 360.507L216.611 359.191L215.729 358.72L215.026 360.036L215.908 360.507ZM216.488 359.341L217.358 358.623L216.721 357.852L215.852 358.57L216.488 359.341ZM217.257 358.688L219.566 357.574L219.131 356.674L216.823 357.787L217.257 358.688ZM219.694 357.485L220.642 356.576L219.95 355.854L219.002 356.763L219.694 357.485ZM220.739 356.447L221.329 355.319L220.442 354.856L219.853 355.983L220.739 356.447ZM221.367 355.222L221.677 354.111L220.713 353.843L220.404 354.954L221.367 355.222ZM221.597 354.274L222.386 353.205L221.582 352.611L220.793 353.68L221.597 354.274ZM222.232 353.342L223.987 352.341L223.491 351.472L221.736 352.474L222.232 353.342ZM223.881 352.386L225.814 351.814L225.53 350.855L223.597 351.427L223.881 352.386ZM225.682 351.834L226.905 351.809L226.884 350.809L225.661 350.834L225.682 351.834ZM226.565 351.685L227.097 352.151L227.756 351.399L227.224 350.933L226.565 351.685ZM226.986 352.012L227.57 353.096L228.45 352.622L227.867 351.538L226.986 352.012ZM227.926 353.352L228.58 353.464L228.749 352.479L228.095 352.367L227.926 353.352ZM228.852 353.435L229.661 353.107L229.285 352.18L228.476 352.508L228.852 353.435ZM229.805 353.017L231.058 351.905L230.394 351.157L229.141 352.269L229.805 353.017ZM230.882 352.006L232.138 351.593L231.826 350.643L230.57 351.056L230.882 352.006ZM232.295 351.509L234.705 349.58L234.08 348.799L231.67 350.728L232.295 351.509ZM234.667 349.607L235.909 348.791L235.36 347.955L234.118 348.772L234.667 349.607ZM235.823 348.836L237.02 348.348L236.643 347.422L235.446 347.91L235.823 348.836ZM236.954 348.37L239.114 347.824L238.869 346.855L236.709 347.4L236.954 348.37ZM239.275 347.752L240.682 346.784L240.115 345.96L238.708 346.928L239.275 347.752ZM240.574 346.84L241.764 346.394L241.413 345.458L240.223 345.903L240.574 346.84ZM241.655 346.421L243.037 346.237L242.904 345.245L241.522 345.43L241.655 346.421ZM242.922 346.239L244.133 346.356L244.229 345.36L243.018 345.243L242.922 346.239ZM243.936 346.294L244.709 346.729L245.2 345.857L244.427 345.422L243.936 346.294ZM244.513 346.528L244.836 347.137L245.72 346.668L245.396 346.059L244.513 346.528ZM244.898 347.227L245.32 347.721L246.08 347.072L245.658 346.578L244.898 347.227ZM245.625 347.891L246.645 348.046L246.795 347.057L245.775 346.903L245.625 347.891ZM246.809 348.044L247.968 347.836L247.792 346.852L246.632 347.06L246.809 348.044ZM248.103 347.791L248.871 347.409L248.425 346.514L247.657 346.896L248.103 347.791ZM249.073 347.224L249.573 346.413L248.722 345.888L248.222 346.699L249.073 347.224ZM249.605 346.353L250.822 343.607L249.908 343.201L248.691 345.948L249.605 346.353ZM250.783 343.679L251.749 342.212L250.914 341.662L249.948 343.129L250.783 343.679ZM251.692 342.284L253.13 340.795L252.411 340.1L250.972 341.589L251.692 342.284ZM253.097 340.826L256.491 337.898L255.838 337.141L252.444 340.069L253.097 340.826ZM256.49 337.9L257.487 337.047L256.837 336.287L255.84 337.139L256.49 337.9ZM257.58 336.941L259.018 334.744L258.181 334.197L256.744 336.393L257.58 336.941ZM258.881 334.884L261.753 332.931L261.19 332.104L258.318 334.057L258.881 334.884ZM261.691 332.967L263.791 331.942L263.353 331.043L261.252 332.068L261.691 332.967ZM263.937 331.834L264.764 330.952L264.034 330.268L263.207 331.151L263.937 331.834ZM264.842 330.841L265.474 329.629L264.588 329.167L263.956 330.379L264.842 330.841ZM265.497 329.58L266.008 328.269L265.076 327.906L264.565 329.217L265.497 329.58ZM265.976 328.335L266.766 326.951L265.898 326.455L265.108 327.839L265.976 328.335ZM266.782 326.921L267.793 324.838L266.893 324.401L265.882 326.485L266.782 326.921ZM267.756 324.902L268.975 323.119L268.15 322.554L266.931 324.337L267.756 324.902ZM268.82 323.265L270.53 322.236L270.015 321.379L268.305 322.408L268.82 323.265ZM270.501 322.252L272.508 321.222L272.052 320.333L270.044 321.362L270.501 322.252ZM272.685 321.071L275.069 317.791L274.26 317.203L271.876 320.483L272.685 321.071ZM275.023 317.846L276.504 316.326L275.788 315.628L274.307 317.148L275.023 317.846ZM276.452 316.373L277.537 315.534L276.926 314.743L275.841 315.581L276.452 316.373ZM277.593 315.484L279.445 313.548L278.722 312.857L276.87 314.793L277.593 315.484ZM279.372 313.61L281.823 311.877L281.246 311.061L278.794 312.794L279.372 313.61ZM281.93 311.775L282.829 310.616L282.039 310.003L281.14 311.162L281.93 311.775ZM282.898 310.498L283.381 309.308L282.454 308.932L281.971 310.122L282.898 310.498ZM283.408 309.22L283.606 308.25L282.627 308.049L282.428 309.02L283.408 309.22ZM283.566 308.368L283.892 307.699L282.992 307.262L282.667 307.931L283.566 308.368ZM283.698 307.91L285.488 306.842L284.976 305.983L283.186 307.051L283.698 307.91ZM285.602 306.749L287.286 304.899L286.546 304.225L284.862 306.076L285.602 306.749ZM287.051 305.043L289.224 304.432L288.953 303.469L286.78 304.081L287.051 305.043ZM289.502 304.232L289.929 303.606L289.103 303.042L288.676 303.669L289.502 304.232ZM289.991 303.482L290.279 302.617L289.33 302.301L289.042 303.166L289.991 303.482ZM290.253 302.679L290.672 301.825L289.774 301.385L289.355 302.239L290.253 302.679ZM290.537 301.994L292.26 300.598L291.631 299.821L289.908 301.217L290.537 301.994ZM292.348 300.506L294.763 297.23L293.958 296.637L291.543 299.913L292.348 300.506ZM294.692 297.307L298.761 293.692L298.097 292.944L294.028 296.56L294.692 297.307ZM298.805 293.648L300.121 292.15L299.37 291.49L298.054 292.988L298.805 293.648ZM300.199 292.032L300.936 290.452L300.03 290.03L299.293 291.609L300.199 292.032ZM300.962 290.384L301.592 288.28L300.634 287.993L300.004 290.098L300.962 290.384ZM301.592 288.279L302.063 286.702L301.104 286.416L300.634 287.994L301.592 288.279ZM302.046 286.749L302.511 285.617L301.585 285.237L301.121 286.369L302.046 286.749ZM302.396 285.786L302.991 285.209L302.295 284.491L301.7 285.068L302.396 285.786ZM302.89 285.285L304.559 284.337L304.065 283.468L302.396 284.415L302.89 285.285ZM304.702 284.215L306.128 282.434L305.347 281.809L303.922 283.59L304.702 284.215ZM306.073 282.493L307.547 281.163L306.877 280.42L305.403 281.751L306.073 282.493ZM307.67 280.992L308.194 279.796L307.278 279.395L306.754 280.591L307.67 280.992ZM308.231 279.666L308.482 277.893L307.492 277.753L307.241 279.526L308.231 279.666ZM308.487 277.834L308.533 275.714L307.533 275.692L307.487 277.812L308.487 277.834ZM308.531 275.751L308.707 273.918L307.712 273.822L307.536 275.655L308.531 275.751ZM308.651 274.106L309.223 273.033L308.341 272.562L307.769 273.635L308.651 274.106ZM309.048 273.221L309.903 272.685L309.372 271.838L308.517 272.374L309.048 273.221Z" fill="#0000FF"/>
</svg>
