<svg width="581" height="514" viewBox="0 0 581 514" fill="none" xmlns="http://www.w3.org/2000/svg">
<mask id="path-1-inside-1_1_503" fill="white">
<path d="M219.197 133.773C219.197 133.621 219.17 133.479 219.115 133.346C219.064 133.213 218.975 133.09 218.846 132.977C218.721 132.859 218.555 132.754 218.348 132.66C218.145 132.562 217.891 132.473 217.586 132.391C217.215 132.289 216.859 132.162 216.52 132.01C216.184 131.857 215.887 131.674 215.629 131.459C215.371 131.244 215.164 130.994 215.008 130.709C214.855 130.424 214.779 130.096 214.779 129.725C214.779 129.365 214.855 129.039 215.008 128.746C215.16 128.453 215.371 128.203 215.641 127.996C215.91 127.789 216.229 127.631 216.596 127.521C216.963 127.408 217.361 127.352 217.791 127.352C218.236 127.352 218.643 127.416 219.01 127.545C219.381 127.674 219.699 127.855 219.965 128.09C220.23 128.32 220.438 128.596 220.586 128.916C220.734 129.236 220.809 129.588 220.809 129.971H219.203C219.195 129.779 219.16 129.604 219.098 129.443C219.039 129.283 218.949 129.146 218.828 129.033C218.711 128.916 218.562 128.826 218.383 128.764C218.207 128.697 218 128.664 217.762 128.664C217.543 128.664 217.348 128.691 217.176 128.746C217.008 128.797 216.865 128.871 216.748 128.969C216.631 129.062 216.541 129.176 216.479 129.309C216.42 129.438 216.391 129.578 216.391 129.73C216.391 129.891 216.43 130.035 216.508 130.164C216.59 130.293 216.707 130.41 216.859 130.516C217.012 130.617 217.195 130.711 217.41 130.797C217.629 130.883 217.875 130.963 218.148 131.037C218.539 131.15 218.898 131.289 219.227 131.453C219.555 131.617 219.836 131.812 220.07 132.039C220.309 132.262 220.492 132.518 220.621 132.807C220.754 133.092 220.82 133.41 220.82 133.762C220.82 134.137 220.744 134.471 220.592 134.764C220.443 135.053 220.236 135.299 219.971 135.502C219.705 135.701 219.389 135.854 219.021 135.959C218.654 136.061 218.254 136.111 217.82 136.111C217.551 136.111 217.281 136.086 217.012 136.035C216.746 135.988 216.49 135.914 216.244 135.812C216.002 135.711 215.775 135.584 215.564 135.432C215.354 135.279 215.17 135.102 215.014 134.898C214.861 134.695 214.74 134.465 214.65 134.207C214.564 133.949 214.521 133.664 214.521 133.352H216.139C216.146 133.609 216.191 133.83 216.273 134.014C216.355 134.197 216.469 134.348 216.613 134.465C216.762 134.582 216.938 134.668 217.141 134.723C217.348 134.777 217.574 134.805 217.82 134.805C218.039 134.805 218.232 134.779 218.4 134.729C218.572 134.678 218.717 134.607 218.834 134.518C218.951 134.428 219.041 134.32 219.104 134.195C219.166 134.066 219.197 133.926 219.197 133.773Z"/>
<path d="M226.076 135.109C225.861 135.426 225.602 135.674 225.297 135.854C224.996 136.033 224.666 136.123 224.307 136.123C223.979 136.123 223.678 136.072 223.404 135.971C223.131 135.869 222.896 135.709 222.701 135.49C222.506 135.268 222.354 134.986 222.244 134.646C222.139 134.303 222.086 133.891 222.086 133.41V129.66H223.715V133.422C223.715 133.68 223.732 133.896 223.768 134.072C223.807 134.248 223.867 134.391 223.949 134.5C224.031 134.605 224.139 134.682 224.271 134.729C224.404 134.775 224.566 134.799 224.758 134.799C225.082 134.799 225.346 134.738 225.549 134.617C225.752 134.492 225.906 134.322 226.012 134.107V129.66H227.646V136H226.17L226.076 135.109Z"/>
<path d="M230.717 129.66L230.816 130.539C231.043 130.223 231.318 129.979 231.643 129.807C231.967 129.631 232.326 129.543 232.721 129.543C233.041 129.543 233.334 129.59 233.6 129.684C233.865 129.777 234.094 129.928 234.285 130.135C234.48 130.338 234.631 130.602 234.736 130.926C234.846 131.246 234.9 131.637 234.9 132.098V136H233.271V132.121C233.271 131.871 233.242 131.666 233.184 131.506C233.129 131.342 233.049 131.213 232.943 131.119C232.838 131.025 232.711 130.961 232.562 130.926C232.414 130.887 232.246 130.867 232.059 130.867C231.781 130.867 231.545 130.924 231.35 131.037C231.154 131.146 230.996 131.299 230.875 131.494V136H229.24V129.66H230.717Z"/>
<path d="M236.277 132.783C236.277 132.303 236.332 131.863 236.441 131.465C236.555 131.066 236.719 130.725 236.934 130.439C237.148 130.154 237.408 129.934 237.713 129.777C238.021 129.621 238.373 129.543 238.768 129.543C239.1 129.543 239.391 129.604 239.641 129.725C239.895 129.842 240.119 130.01 240.314 130.229V127H241.949V136H240.479L240.396 135.338C240.197 135.584 239.963 135.775 239.693 135.912C239.424 136.049 239.111 136.117 238.756 136.117C238.369 136.117 238.021 136.037 237.713 135.877C237.408 135.713 237.148 135.488 236.934 135.203C236.723 134.918 236.561 134.58 236.447 134.189C236.334 133.795 236.277 133.367 236.277 132.906V132.783ZM237.906 132.906C237.906 133.172 237.928 133.42 237.971 133.65C238.018 133.877 238.092 134.076 238.193 134.248C238.295 134.416 238.426 134.549 238.586 134.646C238.746 134.744 238.941 134.793 239.172 134.793C239.453 134.793 239.686 134.732 239.869 134.611C240.057 134.49 240.205 134.324 240.314 134.113V131.547C240.205 131.332 240.059 131.166 239.875 131.049C239.691 130.928 239.461 130.867 239.184 130.867C238.953 130.867 238.756 130.918 238.592 131.02C238.432 131.117 238.301 131.254 238.199 131.43C238.098 131.602 238.023 131.805 237.977 132.039C237.93 132.27 237.906 132.518 237.906 132.783V132.906Z"/>
<path d="M243.994 127H247.539V134.676H249.355V136H243.994V134.676H245.893V128.33H243.994V127Z"/>
<path d="M254.822 136C254.783 135.922 254.75 135.832 254.723 135.73C254.695 135.629 254.672 135.521 254.652 135.408C254.562 135.506 254.459 135.598 254.342 135.684C254.225 135.77 254.094 135.846 253.949 135.912C253.809 135.975 253.652 136.023 253.48 136.059C253.309 136.098 253.123 136.117 252.924 136.117C252.6 136.117 252.301 136.07 252.027 135.977C251.758 135.883 251.525 135.752 251.33 135.584C251.135 135.416 250.982 135.217 250.873 134.986C250.764 134.752 250.709 134.498 250.709 134.225C250.709 133.557 250.957 133.041 251.453 132.678C251.953 132.311 252.697 132.127 253.686 132.127H254.594V131.752C254.594 131.447 254.494 131.207 254.295 131.031C254.096 130.852 253.809 130.762 253.434 130.762C253.102 130.762 252.859 130.834 252.707 130.979C252.555 131.119 252.479 131.309 252.479 131.547H250.85C250.85 131.277 250.908 131.021 251.025 130.779C251.146 130.537 251.32 130.324 251.547 130.141C251.777 129.957 252.057 129.812 252.385 129.707C252.717 129.598 253.096 129.543 253.521 129.543C253.904 129.543 254.26 129.59 254.588 129.684C254.92 129.777 255.207 129.916 255.449 130.1C255.691 130.283 255.881 130.516 256.018 130.797C256.154 131.074 256.223 131.396 256.223 131.764V134.482C256.223 134.822 256.244 135.104 256.287 135.326C256.33 135.549 256.393 135.74 256.475 135.9V136H254.822ZM253.27 134.857C253.434 134.857 253.586 134.838 253.727 134.799C253.867 134.76 253.994 134.709 254.107 134.646C254.221 134.584 254.318 134.514 254.4 134.436C254.482 134.354 254.547 134.271 254.594 134.189V133.1H253.762C253.508 133.1 253.291 133.125 253.111 133.176C252.932 133.223 252.785 133.291 252.672 133.381C252.559 133.467 252.475 133.572 252.42 133.697C252.365 133.818 252.338 133.951 252.338 134.096C252.338 134.314 252.414 134.496 252.566 134.641C252.723 134.785 252.957 134.857 253.27 134.857Z"/>
<path d="M262.111 135.109C261.896 135.426 261.637 135.674 261.332 135.854C261.031 136.033 260.701 136.123 260.342 136.123C260.014 136.123 259.713 136.072 259.439 135.971C259.166 135.869 258.932 135.709 258.736 135.49C258.541 135.268 258.389 134.986 258.279 134.646C258.174 134.303 258.121 133.891 258.121 133.41V129.66H259.75V133.422C259.75 133.68 259.768 133.896 259.803 134.072C259.842 134.248 259.902 134.391 259.984 134.5C260.066 134.605 260.174 134.682 260.307 134.729C260.439 134.775 260.602 134.799 260.793 134.799C261.117 134.799 261.381 134.738 261.584 134.617C261.787 134.492 261.941 134.322 262.047 134.107V129.66H263.682V136H262.205L262.111 135.109Z"/>
<path d="M265.111 132.783C265.111 132.303 265.17 131.863 265.287 131.465C265.408 131.066 265.58 130.725 265.803 130.439C266.025 130.154 266.295 129.934 266.611 129.777C266.928 129.621 267.285 129.543 267.684 129.543C268.055 129.543 268.373 129.605 268.639 129.73C268.904 129.855 269.131 130.033 269.318 130.264L269.383 129.66H270.865V135.795C270.865 136.225 270.791 136.607 270.643 136.943C270.498 137.279 270.293 137.562 270.027 137.793C269.766 138.023 269.449 138.197 269.078 138.314C268.711 138.436 268.305 138.496 267.859 138.496C267.668 138.496 267.463 138.477 267.244 138.438C267.025 138.398 266.809 138.338 266.594 138.256C266.379 138.174 266.176 138.068 265.984 137.939C265.793 137.814 265.629 137.664 265.492 137.488L266.225 136.498C266.432 136.732 266.666 136.91 266.928 137.031C267.189 137.156 267.473 137.219 267.777 137.219C268.234 137.219 268.59 137.096 268.844 136.85C269.102 136.607 269.23 136.262 269.23 135.812V135.449C269.039 135.66 268.814 135.824 268.557 135.941C268.303 136.059 268.008 136.117 267.672 136.117C267.277 136.117 266.922 136.037 266.605 135.877C266.293 135.713 266.025 135.488 265.803 135.203C265.58 134.918 265.408 134.58 265.287 134.189C265.17 133.795 265.111 133.367 265.111 132.906V132.783ZM266.746 132.906C266.746 133.172 266.771 133.42 266.822 133.65C266.877 133.877 266.959 134.076 267.068 134.248C267.178 134.416 267.316 134.549 267.484 134.646C267.652 134.744 267.852 134.793 268.082 134.793C268.367 134.793 268.602 134.738 268.785 134.629C268.973 134.52 269.121 134.367 269.23 134.172V131.488C269.121 131.289 268.973 131.137 268.785 131.031C268.602 130.922 268.371 130.867 268.094 130.867C267.863 130.867 267.664 130.918 267.496 131.02C267.328 131.117 267.188 131.254 267.074 131.43C266.965 131.602 266.883 131.805 266.828 132.039C266.773 132.27 266.746 132.518 266.746 132.783V132.906Z"/>
<path d="M276.443 136C276.404 135.922 276.371 135.832 276.344 135.73C276.316 135.629 276.293 135.521 276.273 135.408C276.184 135.506 276.08 135.598 275.963 135.684C275.846 135.77 275.715 135.846 275.57 135.912C275.43 135.975 275.273 136.023 275.102 136.059C274.93 136.098 274.744 136.117 274.545 136.117C274.221 136.117 273.922 136.07 273.648 135.977C273.379 135.883 273.146 135.752 272.951 135.584C272.756 135.416 272.604 135.217 272.494 134.986C272.385 134.752 272.33 134.498 272.33 134.225C272.33 133.557 272.578 133.041 273.074 132.678C273.574 132.311 274.318 132.127 275.307 132.127H276.215V131.752C276.215 131.447 276.115 131.207 275.916 131.031C275.717 130.852 275.43 130.762 275.055 130.762C274.723 130.762 274.48 130.834 274.328 130.979C274.176 131.119 274.1 131.309 274.1 131.547H272.471C272.471 131.277 272.529 131.021 272.646 130.779C272.768 130.537 272.941 130.324 273.168 130.141C273.398 129.957 273.678 129.812 274.006 129.707C274.338 129.598 274.717 129.543 275.143 129.543C275.525 129.543 275.881 129.59 276.209 129.684C276.541 129.777 276.828 129.916 277.07 130.1C277.312 130.283 277.502 130.516 277.639 130.797C277.775 131.074 277.844 131.396 277.844 131.764V134.482C277.844 134.822 277.865 135.104 277.908 135.326C277.951 135.549 278.014 135.74 278.096 135.9V136H276.443ZM274.891 134.857C275.055 134.857 275.207 134.838 275.348 134.799C275.488 134.76 275.615 134.709 275.729 134.646C275.842 134.584 275.939 134.514 276.021 134.436C276.104 134.354 276.168 134.271 276.215 134.189V133.1H275.383C275.129 133.1 274.912 133.125 274.732 133.176C274.553 133.223 274.406 133.291 274.293 133.381C274.18 133.467 274.096 133.572 274.041 133.697C273.986 133.818 273.959 133.951 273.959 134.096C273.959 134.314 274.035 134.496 274.188 134.641C274.344 134.785 274.578 134.857 274.891 134.857Z"/>
<path d="M284.242 129.543C284.488 129.543 284.715 129.561 284.922 129.596C285.133 129.627 285.303 129.662 285.432 129.701L285.191 131.324C284.977 131.273 284.756 131.236 284.529 131.213C284.307 131.186 284.094 131.172 283.891 131.172C283.434 131.172 283.066 131.26 282.789 131.436C282.516 131.611 282.311 131.863 282.174 132.191V136H280.545V129.66H282.062L282.139 130.697C282.396 130.338 282.705 130.057 283.064 129.854C283.424 129.646 283.816 129.543 284.242 129.543Z"/>
<path d="M298.064 136C298.025 135.922 297.992 135.832 297.965 135.73C297.938 135.629 297.914 135.521 297.895 135.408C297.805 135.506 297.701 135.598 297.584 135.684C297.467 135.77 297.336 135.846 297.191 135.912C297.051 135.975 296.895 136.023 296.723 136.059C296.551 136.098 296.365 136.117 296.166 136.117C295.842 136.117 295.543 136.07 295.27 135.977C295 135.883 294.768 135.752 294.572 135.584C294.377 135.416 294.225 135.217 294.115 134.986C294.006 134.752 293.951 134.498 293.951 134.225C293.951 133.557 294.199 133.041 294.695 132.678C295.195 132.311 295.939 132.127 296.928 132.127H297.836V131.752C297.836 131.447 297.736 131.207 297.537 131.031C297.338 130.852 297.051 130.762 296.676 130.762C296.344 130.762 296.102 130.834 295.949 130.979C295.797 131.119 295.721 131.309 295.721 131.547H294.092C294.092 131.277 294.15 131.021 294.268 130.779C294.389 130.537 294.562 130.324 294.789 130.141C295.02 129.957 295.299 129.812 295.627 129.707C295.959 129.598 296.338 129.543 296.764 129.543C297.146 129.543 297.502 129.59 297.83 129.684C298.162 129.777 298.449 129.916 298.691 130.1C298.934 130.283 299.123 130.516 299.26 130.797C299.396 131.074 299.465 131.396 299.465 131.764V134.482C299.465 134.822 299.486 135.104 299.529 135.326C299.572 135.549 299.635 135.74 299.717 135.9V136H298.064ZM296.512 134.857C296.676 134.857 296.828 134.838 296.969 134.799C297.109 134.76 297.236 134.709 297.35 134.646C297.463 134.584 297.561 134.514 297.643 134.436C297.725 134.354 297.789 134.271 297.836 134.189V133.1H297.004C296.75 133.1 296.533 133.125 296.354 133.176C296.174 133.223 296.027 133.291 295.914 133.381C295.801 133.467 295.717 133.572 295.662 133.697C295.607 133.818 295.58 133.951 295.58 134.096C295.58 134.314 295.656 134.496 295.809 134.641C295.965 134.785 296.199 134.857 296.512 134.857ZM297.18 127.205H298.973L297.35 128.84H296.084L297.18 127.205Z"/>
<path d="M215.131 141.469H220.064V142.799H218.4V148.676H220.064V150H215.131V148.676H216.754V142.799H215.131V141.469ZM217.926 139.318H219.719L218.096 140.953H216.83L217.926 139.318Z"/>
<path d="M226.123 148.26C226.123 148.162 226.1 148.076 226.053 148.002C226.01 147.928 225.93 147.859 225.812 147.797C225.699 147.73 225.547 147.67 225.355 147.615C225.164 147.561 224.922 147.506 224.629 147.451C224.258 147.377 223.918 147.285 223.609 147.176C223.305 147.062 223.043 146.928 222.824 146.771C222.605 146.611 222.434 146.428 222.309 146.221C222.188 146.014 222.127 145.775 222.127 145.506C222.127 145.244 222.189 144.994 222.314 144.756C222.439 144.518 222.619 144.309 222.854 144.129C223.088 143.949 223.373 143.807 223.709 143.701C224.045 143.596 224.424 143.543 224.846 143.543C225.287 143.543 225.684 143.596 226.035 143.701C226.387 143.803 226.684 143.945 226.926 144.129C227.172 144.309 227.359 144.523 227.488 144.773C227.617 145.023 227.682 145.295 227.682 145.588H226.053C226.053 145.342 225.953 145.137 225.754 144.973C225.555 144.805 225.252 144.721 224.846 144.721C224.467 144.721 224.18 144.789 223.984 144.926C223.793 145.062 223.697 145.23 223.697 145.43C223.697 145.523 223.717 145.611 223.756 145.693C223.795 145.771 223.863 145.844 223.961 145.91C224.062 145.973 224.199 146.031 224.371 146.086C224.543 146.137 224.762 146.182 225.027 146.221C225.41 146.283 225.766 146.363 226.094 146.461C226.422 146.559 226.705 146.686 226.943 146.842C227.182 146.994 227.367 147.182 227.5 147.404C227.637 147.623 227.705 147.885 227.705 148.189C227.705 148.471 227.637 148.73 227.5 148.969C227.367 149.203 227.176 149.406 226.926 149.578C226.68 149.75 226.381 149.885 226.029 149.982C225.678 150.076 225.285 150.123 224.852 150.123C224.375 150.123 223.953 150.061 223.586 149.936C223.223 149.811 222.918 149.648 222.672 149.449C222.426 149.246 222.238 149.018 222.109 148.764C221.984 148.506 221.922 148.248 221.922 147.99H223.475C223.486 148.162 223.533 148.311 223.615 148.436C223.697 148.557 223.803 148.656 223.932 148.734C224.061 148.809 224.207 148.863 224.371 148.898C224.539 148.934 224.711 148.951 224.887 148.951C225.289 148.951 225.596 148.887 225.807 148.758C226.018 148.629 226.123 148.463 226.123 148.26Z"/>
<path d="M229.58 141H233.125V148.676H234.941V150H229.58V148.676H231.479V142.33H229.58V141Z"/>
<path d="M240.408 150C240.369 149.922 240.336 149.832 240.309 149.73C240.281 149.629 240.258 149.521 240.238 149.408C240.148 149.506 240.045 149.598 239.928 149.684C239.811 149.77 239.68 149.846 239.535 149.912C239.395 149.975 239.238 150.023 239.066 150.059C238.895 150.098 238.709 150.117 238.51 150.117C238.186 150.117 237.887 150.07 237.613 149.977C237.344 149.883 237.111 149.752 236.916 149.584C236.721 149.416 236.568 149.217 236.459 148.986C236.35 148.752 236.295 148.498 236.295 148.225C236.295 147.557 236.543 147.041 237.039 146.678C237.539 146.311 238.283 146.127 239.271 146.127H240.18V145.752C240.18 145.447 240.08 145.207 239.881 145.031C239.682 144.852 239.395 144.762 239.02 144.762C238.688 144.762 238.445 144.834 238.293 144.979C238.141 145.119 238.064 145.309 238.064 145.547H236.436C236.436 145.277 236.494 145.021 236.611 144.779C236.732 144.537 236.906 144.324 237.133 144.141C237.363 143.957 237.643 143.812 237.971 143.707C238.303 143.598 238.682 143.543 239.107 143.543C239.49 143.543 239.846 143.59 240.174 143.684C240.506 143.777 240.793 143.916 241.035 144.1C241.277 144.283 241.467 144.516 241.604 144.797C241.74 145.074 241.809 145.396 241.809 145.764V148.482C241.809 148.822 241.83 149.104 241.873 149.326C241.916 149.549 241.979 149.74 242.061 149.9V150H240.408ZM238.855 148.857C239.02 148.857 239.172 148.838 239.312 148.799C239.453 148.76 239.58 148.709 239.693 148.646C239.807 148.584 239.904 148.514 239.986 148.436C240.068 148.354 240.133 148.271 240.18 148.189V147.1H239.348C239.094 147.1 238.877 147.125 238.697 147.176C238.518 147.223 238.371 147.291 238.258 147.381C238.145 147.467 238.061 147.572 238.006 147.697C237.951 147.818 237.924 147.951 237.924 148.096C237.924 148.314 238 148.496 238.152 148.641C238.309 148.785 238.543 148.857 238.855 148.857Z"/>
<path d="M245.131 143.66L245.23 144.539C245.457 144.223 245.732 143.979 246.057 143.807C246.381 143.631 246.74 143.543 247.135 143.543C247.455 143.543 247.748 143.59 248.014 143.684C248.279 143.777 248.508 143.928 248.699 144.135C248.895 144.338 249.045 144.602 249.15 144.926C249.26 145.246 249.314 145.637 249.314 146.098V150H247.686V146.121C247.686 145.871 247.656 145.666 247.598 145.506C247.543 145.342 247.463 145.213 247.357 145.119C247.252 145.025 247.125 144.961 246.977 144.926C246.828 144.887 246.66 144.867 246.473 144.867C246.195 144.867 245.959 144.924 245.764 145.037C245.568 145.146 245.41 145.299 245.289 145.494V150H243.654V143.66H245.131Z"/>
<path d="M250.691 146.783C250.691 146.303 250.746 145.863 250.855 145.465C250.969 145.066 251.133 144.725 251.348 144.439C251.562 144.154 251.822 143.934 252.127 143.777C252.436 143.621 252.787 143.543 253.182 143.543C253.514 143.543 253.805 143.604 254.055 143.725C254.309 143.842 254.533 144.01 254.729 144.229V141H256.363V150H254.893L254.811 149.338C254.611 149.584 254.377 149.775 254.107 149.912C253.838 150.049 253.525 150.117 253.17 150.117C252.783 150.117 252.436 150.037 252.127 149.877C251.822 149.713 251.562 149.488 251.348 149.203C251.137 148.918 250.975 148.58 250.861 148.189C250.748 147.795 250.691 147.367 250.691 146.906V146.783ZM252.32 146.906C252.32 147.172 252.342 147.42 252.385 147.65C252.432 147.877 252.506 148.076 252.607 148.248C252.709 148.416 252.84 148.549 253 148.646C253.16 148.744 253.355 148.793 253.586 148.793C253.867 148.793 254.1 148.732 254.283 148.611C254.471 148.49 254.619 148.324 254.729 148.113V145.547C254.619 145.332 254.473 145.166 254.289 145.049C254.105 144.928 253.875 144.867 253.598 144.867C253.367 144.867 253.17 144.918 253.006 145.02C252.846 145.117 252.715 145.254 252.613 145.43C252.512 145.602 252.438 145.805 252.391 146.039C252.344 146.27 252.32 146.518 252.32 146.783V146.906Z"/>
<path d="M258.502 143.66H261.953V148.676H263.67V150H258.502V148.676H260.307V144.99H258.502V143.66ZM260.189 142.037C260.189 141.912 260.211 141.797 260.254 141.691C260.301 141.582 260.365 141.49 260.447 141.416C260.529 141.338 260.627 141.277 260.74 141.234C260.857 141.191 260.986 141.17 261.127 141.17C261.416 141.17 261.645 141.252 261.812 141.416C261.984 141.576 262.07 141.783 262.07 142.037C262.07 142.291 261.984 142.5 261.812 142.664C261.645 142.824 261.416 142.904 261.127 142.904C260.986 142.904 260.857 142.883 260.74 142.84C260.627 142.797 260.529 142.738 260.447 142.664C260.365 142.586 260.301 142.494 260.254 142.389C260.211 142.279 260.189 142.162 260.189 142.037Z"/>
</mask>
<path d="M219.197 133.773C219.197 133.621 219.17 133.479 219.115 133.346C219.064 133.213 218.975 133.09 218.846 132.977C218.721 132.859 218.555 132.754 218.348 132.66C218.145 132.562 217.891 132.473 217.586 132.391C217.215 132.289 216.859 132.162 216.52 132.01C216.184 131.857 215.887 131.674 215.629 131.459C215.371 131.244 215.164 130.994 215.008 130.709C214.855 130.424 214.779 130.096 214.779 129.725C214.779 129.365 214.855 129.039 215.008 128.746C215.16 128.453 215.371 128.203 215.641 127.996C215.91 127.789 216.229 127.631 216.596 127.521C216.963 127.408 217.361 127.352 217.791 127.352C218.236 127.352 218.643 127.416 219.01 127.545C219.381 127.674 219.699 127.855 219.965 128.09C220.23 128.32 220.438 128.596 220.586 128.916C220.734 129.236 220.809 129.588 220.809 129.971H219.203C219.195 129.779 219.16 129.604 219.098 129.443C219.039 129.283 218.949 129.146 218.828 129.033C218.711 128.916 218.562 128.826 218.383 128.764C218.207 128.697 218 128.664 217.762 128.664C217.543 128.664 217.348 128.691 217.176 128.746C217.008 128.797 216.865 128.871 216.748 128.969C216.631 129.062 216.541 129.176 216.479 129.309C216.42 129.438 216.391 129.578 216.391 129.73C216.391 129.891 216.43 130.035 216.508 130.164C216.59 130.293 216.707 130.41 216.859 130.516C217.012 130.617 217.195 130.711 217.41 130.797C217.629 130.883 217.875 130.963 218.148 131.037C218.539 131.15 218.898 131.289 219.227 131.453C219.555 131.617 219.836 131.812 220.07 132.039C220.309 132.262 220.492 132.518 220.621 132.807C220.754 133.092 220.82 133.41 220.82 133.762C220.82 134.137 220.744 134.471 220.592 134.764C220.443 135.053 220.236 135.299 219.971 135.502C219.705 135.701 219.389 135.854 219.021 135.959C218.654 136.061 218.254 136.111 217.82 136.111C217.551 136.111 217.281 136.086 217.012 136.035C216.746 135.988 216.49 135.914 216.244 135.812C216.002 135.711 215.775 135.584 215.564 135.432C215.354 135.279 215.17 135.102 215.014 134.898C214.861 134.695 214.74 134.465 214.65 134.207C214.564 133.949 214.521 133.664 214.521 133.352H216.139C216.146 133.609 216.191 133.83 216.273 134.014C216.355 134.197 216.469 134.348 216.613 134.465C216.762 134.582 216.938 134.668 217.141 134.723C217.348 134.777 217.574 134.805 217.82 134.805C218.039 134.805 218.232 134.779 218.4 134.729C218.572 134.678 218.717 134.607 218.834 134.518C218.951 134.428 219.041 134.32 219.104 134.195C219.166 134.066 219.197 133.926 219.197 133.773Z" stroke="black" stroke-width="2" mask="url(#path-1-inside-1_1_503)"/>
<path d="M226.076 135.109C225.861 135.426 225.602 135.674 225.297 135.854C224.996 136.033 224.666 136.123 224.307 136.123C223.979 136.123 223.678 136.072 223.404 135.971C223.131 135.869 222.896 135.709 222.701 135.49C222.506 135.268 222.354 134.986 222.244 134.646C222.139 134.303 222.086 133.891 222.086 133.41V129.66H223.715V133.422C223.715 133.68 223.732 133.896 223.768 134.072C223.807 134.248 223.867 134.391 223.949 134.5C224.031 134.605 224.139 134.682 224.271 134.729C224.404 134.775 224.566 134.799 224.758 134.799C225.082 134.799 225.346 134.738 225.549 134.617C225.752 134.492 225.906 134.322 226.012 134.107V129.66H227.646V136H226.17L226.076 135.109Z" stroke="black" stroke-width="2" mask="url(#path-1-inside-1_1_503)"/>
<path d="M230.717 129.66L230.816 130.539C231.043 130.223 231.318 129.979 231.643 129.807C231.967 129.631 232.326 129.543 232.721 129.543C233.041 129.543 233.334 129.59 233.6 129.684C233.865 129.777 234.094 129.928 234.285 130.135C234.48 130.338 234.631 130.602 234.736 130.926C234.846 131.246 234.9 131.637 234.9 132.098V136H233.271V132.121C233.271 131.871 233.242 131.666 233.184 131.506C233.129 131.342 233.049 131.213 232.943 131.119C232.838 131.025 232.711 130.961 232.562 130.926C232.414 130.887 232.246 130.867 232.059 130.867C231.781 130.867 231.545 130.924 231.35 131.037C231.154 131.146 230.996 131.299 230.875 131.494V136H229.24V129.66H230.717Z" stroke="black" stroke-width="2" mask="url(#path-1-inside-1_1_503)"/>
<path d="M236.277 132.783C236.277 132.303 236.332 131.863 236.441 131.465C236.555 131.066 236.719 130.725 236.934 130.439C237.148 130.154 237.408 129.934 237.713 129.777C238.021 129.621 238.373 129.543 238.768 129.543C239.1 129.543 239.391 129.604 239.641 129.725C239.895 129.842 240.119 130.01 240.314 130.229V127H241.949V136H240.479L240.396 135.338C240.197 135.584 239.963 135.775 239.693 135.912C239.424 136.049 239.111 136.117 238.756 136.117C238.369 136.117 238.021 136.037 237.713 135.877C237.408 135.713 237.148 135.488 236.934 135.203C236.723 134.918 236.561 134.58 236.447 134.189C236.334 133.795 236.277 133.367 236.277 132.906V132.783ZM237.906 132.906C237.906 133.172 237.928 133.42 237.971 133.65C238.018 133.877 238.092 134.076 238.193 134.248C238.295 134.416 238.426 134.549 238.586 134.646C238.746 134.744 238.941 134.793 239.172 134.793C239.453 134.793 239.686 134.732 239.869 134.611C240.057 134.49 240.205 134.324 240.314 134.113V131.547C240.205 131.332 240.059 131.166 239.875 131.049C239.691 130.928 239.461 130.867 239.184 130.867C238.953 130.867 238.756 130.918 238.592 131.02C238.432 131.117 238.301 131.254 238.199 131.43C238.098 131.602 238.023 131.805 237.977 132.039C237.93 132.27 237.906 132.518 237.906 132.783V132.906Z" stroke="black" stroke-width="2" mask="url(#path-1-inside-1_1_503)"/>
<path d="M243.994 127H247.539V134.676H249.355V136H243.994V134.676H245.893V128.33H243.994V127Z" stroke="black" stroke-width="2" mask="url(#path-1-inside-1_1_503)"/>
<path d="M254.822 136C254.783 135.922 254.75 135.832 254.723 135.73C254.695 135.629 254.672 135.521 254.652 135.408C254.562 135.506 254.459 135.598 254.342 135.684C254.225 135.77 254.094 135.846 253.949 135.912C253.809 135.975 253.652 136.023 253.48 136.059C253.309 136.098 253.123 136.117 252.924 136.117C252.6 136.117 252.301 136.07 252.027 135.977C251.758 135.883 251.525 135.752 251.33 135.584C251.135 135.416 250.982 135.217 250.873 134.986C250.764 134.752 250.709 134.498 250.709 134.225C250.709 133.557 250.957 133.041 251.453 132.678C251.953 132.311 252.697 132.127 253.686 132.127H254.594V131.752C254.594 131.447 254.494 131.207 254.295 131.031C254.096 130.852 253.809 130.762 253.434 130.762C253.102 130.762 252.859 130.834 252.707 130.979C252.555 131.119 252.479 131.309 252.479 131.547H250.85C250.85 131.277 250.908 131.021 251.025 130.779C251.146 130.537 251.32 130.324 251.547 130.141C251.777 129.957 252.057 129.812 252.385 129.707C252.717 129.598 253.096 129.543 253.521 129.543C253.904 129.543 254.26 129.59 254.588 129.684C254.92 129.777 255.207 129.916 255.449 130.1C255.691 130.283 255.881 130.516 256.018 130.797C256.154 131.074 256.223 131.396 256.223 131.764V134.482C256.223 134.822 256.244 135.104 256.287 135.326C256.33 135.549 256.393 135.74 256.475 135.9V136H254.822ZM253.27 134.857C253.434 134.857 253.586 134.838 253.727 134.799C253.867 134.76 253.994 134.709 254.107 134.646C254.221 134.584 254.318 134.514 254.4 134.436C254.482 134.354 254.547 134.271 254.594 134.189V133.1H253.762C253.508 133.1 253.291 133.125 253.111 133.176C252.932 133.223 252.785 133.291 252.672 133.381C252.559 133.467 252.475 133.572 252.42 133.697C252.365 133.818 252.338 133.951 252.338 134.096C252.338 134.314 252.414 134.496 252.566 134.641C252.723 134.785 252.957 134.857 253.27 134.857Z" stroke="black" stroke-width="2" mask="url(#path-1-inside-1_1_503)"/>
<path d="M262.111 135.109C261.896 135.426 261.637 135.674 261.332 135.854C261.031 136.033 260.701 136.123 260.342 136.123C260.014 136.123 259.713 136.072 259.439 135.971C259.166 135.869 258.932 135.709 258.736 135.49C258.541 135.268 258.389 134.986 258.279 134.646C258.174 134.303 258.121 133.891 258.121 133.41V129.66H259.75V133.422C259.75 133.68 259.768 133.896 259.803 134.072C259.842 134.248 259.902 134.391 259.984 134.5C260.066 134.605 260.174 134.682 260.307 134.729C260.439 134.775 260.602 134.799 260.793 134.799C261.117 134.799 261.381 134.738 261.584 134.617C261.787 134.492 261.941 134.322 262.047 134.107V129.66H263.682V136H262.205L262.111 135.109Z" stroke="black" stroke-width="2" mask="url(#path-1-inside-1_1_503)"/>
<path d="M265.111 132.783C265.111 132.303 265.17 131.863 265.287 131.465C265.408 131.066 265.58 130.725 265.803 130.439C266.025 130.154 266.295 129.934 266.611 129.777C266.928 129.621 267.285 129.543 267.684 129.543C268.055 129.543 268.373 129.605 268.639 129.73C268.904 129.855 269.131 130.033 269.318 130.264L269.383 129.66H270.865V135.795C270.865 136.225 270.791 136.607 270.643 136.943C270.498 137.279 270.293 137.562 270.027 137.793C269.766 138.023 269.449 138.197 269.078 138.314C268.711 138.436 268.305 138.496 267.859 138.496C267.668 138.496 267.463 138.477 267.244 138.438C267.025 138.398 266.809 138.338 266.594 138.256C266.379 138.174 266.176 138.068 265.984 137.939C265.793 137.814 265.629 137.664 265.492 137.488L266.225 136.498C266.432 136.732 266.666 136.91 266.928 137.031C267.189 137.156 267.473 137.219 267.777 137.219C268.234 137.219 268.59 137.096 268.844 136.85C269.102 136.607 269.23 136.262 269.23 135.812V135.449C269.039 135.66 268.814 135.824 268.557 135.941C268.303 136.059 268.008 136.117 267.672 136.117C267.277 136.117 266.922 136.037 266.605 135.877C266.293 135.713 266.025 135.488 265.803 135.203C265.58 134.918 265.408 134.58 265.287 134.189C265.17 133.795 265.111 133.367 265.111 132.906V132.783ZM266.746 132.906C266.746 133.172 266.771 133.42 266.822 133.65C266.877 133.877 266.959 134.076 267.068 134.248C267.178 134.416 267.316 134.549 267.484 134.646C267.652 134.744 267.852 134.793 268.082 134.793C268.367 134.793 268.602 134.738 268.785 134.629C268.973 134.52 269.121 134.367 269.23 134.172V131.488C269.121 131.289 268.973 131.137 268.785 131.031C268.602 130.922 268.371 130.867 268.094 130.867C267.863 130.867 267.664 130.918 267.496 131.02C267.328 131.117 267.188 131.254 267.074 131.43C266.965 131.602 266.883 131.805 266.828 132.039C266.773 132.27 266.746 132.518 266.746 132.783V132.906Z" stroke="black" stroke-width="2" mask="url(#path-1-inside-1_1_503)"/>
<path d="M276.443 136C276.404 135.922 276.371 135.832 276.344 135.73C276.316 135.629 276.293 135.521 276.273 135.408C276.184 135.506 276.08 135.598 275.963 135.684C275.846 135.77 275.715 135.846 275.57 135.912C275.43 135.975 275.273 136.023 275.102 136.059C274.93 136.098 274.744 136.117 274.545 136.117C274.221 136.117 273.922 136.07 273.648 135.977C273.379 135.883 273.146 135.752 272.951 135.584C272.756 135.416 272.604 135.217 272.494 134.986C272.385 134.752 272.33 134.498 272.33 134.225C272.33 133.557 272.578 133.041 273.074 132.678C273.574 132.311 274.318 132.127 275.307 132.127H276.215V131.752C276.215 131.447 276.115 131.207 275.916 131.031C275.717 130.852 275.43 130.762 275.055 130.762C274.723 130.762 274.48 130.834 274.328 130.979C274.176 131.119 274.1 131.309 274.1 131.547H272.471C272.471 131.277 272.529 131.021 272.646 130.779C272.768 130.537 272.941 130.324 273.168 130.141C273.398 129.957 273.678 129.812 274.006 129.707C274.338 129.598 274.717 129.543 275.143 129.543C275.525 129.543 275.881 129.59 276.209 129.684C276.541 129.777 276.828 129.916 277.07 130.1C277.312 130.283 277.502 130.516 277.639 130.797C277.775 131.074 277.844 131.396 277.844 131.764V134.482C277.844 134.822 277.865 135.104 277.908 135.326C277.951 135.549 278.014 135.74 278.096 135.9V136H276.443ZM274.891 134.857C275.055 134.857 275.207 134.838 275.348 134.799C275.488 134.76 275.615 134.709 275.729 134.646C275.842 134.584 275.939 134.514 276.021 134.436C276.104 134.354 276.168 134.271 276.215 134.189V133.1H275.383C275.129 133.1 274.912 133.125 274.732 133.176C274.553 133.223 274.406 133.291 274.293 133.381C274.18 133.467 274.096 133.572 274.041 133.697C273.986 133.818 273.959 133.951 273.959 134.096C273.959 134.314 274.035 134.496 274.188 134.641C274.344 134.785 274.578 134.857 274.891 134.857Z" stroke="black" stroke-width="2" mask="url(#path-1-inside-1_1_503)"/>
<path d="M284.242 129.543C284.488 129.543 284.715 129.561 284.922 129.596C285.133 129.627 285.303 129.662 285.432 129.701L285.191 131.324C284.977 131.273 284.756 131.236 284.529 131.213C284.307 131.186 284.094 131.172 283.891 131.172C283.434 131.172 283.066 131.26 282.789 131.436C282.516 131.611 282.311 131.863 282.174 132.191V136H280.545V129.66H282.062L282.139 130.697C282.396 130.338 282.705 130.057 283.064 129.854C283.424 129.646 283.816 129.543 284.242 129.543Z" stroke="black" stroke-width="2" mask="url(#path-1-inside-1_1_503)"/>
<path d="M298.064 136C298.025 135.922 297.992 135.832 297.965 135.73C297.938 135.629 297.914 135.521 297.895 135.408C297.805 135.506 297.701 135.598 297.584 135.684C297.467 135.77 297.336 135.846 297.191 135.912C297.051 135.975 296.895 136.023 296.723 136.059C296.551 136.098 296.365 136.117 296.166 136.117C295.842 136.117 295.543 136.07 295.27 135.977C295 135.883 294.768 135.752 294.572 135.584C294.377 135.416 294.225 135.217 294.115 134.986C294.006 134.752 293.951 134.498 293.951 134.225C293.951 133.557 294.199 133.041 294.695 132.678C295.195 132.311 295.939 132.127 296.928 132.127H297.836V131.752C297.836 131.447 297.736 131.207 297.537 131.031C297.338 130.852 297.051 130.762 296.676 130.762C296.344 130.762 296.102 130.834 295.949 130.979C295.797 131.119 295.721 131.309 295.721 131.547H294.092C294.092 131.277 294.15 131.021 294.268 130.779C294.389 130.537 294.562 130.324 294.789 130.141C295.02 129.957 295.299 129.812 295.627 129.707C295.959 129.598 296.338 129.543 296.764 129.543C297.146 129.543 297.502 129.59 297.83 129.684C298.162 129.777 298.449 129.916 298.691 130.1C298.934 130.283 299.123 130.516 299.26 130.797C299.396 131.074 299.465 131.396 299.465 131.764V134.482C299.465 134.822 299.486 135.104 299.529 135.326C299.572 135.549 299.635 135.74 299.717 135.9V136H298.064ZM296.512 134.857C296.676 134.857 296.828 134.838 296.969 134.799C297.109 134.76 297.236 134.709 297.35 134.646C297.463 134.584 297.561 134.514 297.643 134.436C297.725 134.354 297.789 134.271 297.836 134.189V133.1H297.004C296.75 133.1 296.533 133.125 296.354 133.176C296.174 133.223 296.027 133.291 295.914 133.381C295.801 133.467 295.717 133.572 295.662 133.697C295.607 133.818 295.58 133.951 295.58 134.096C295.58 134.314 295.656 134.496 295.809 134.641C295.965 134.785 296.199 134.857 296.512 134.857ZM297.18 127.205H298.973L297.35 128.84H296.084L297.18 127.205Z" stroke="black" stroke-width="2" mask="url(#path-1-inside-1_1_503)"/>
<path d="M215.131 141.469H220.064V142.799H218.4V148.676H220.064V150H215.131V148.676H216.754V142.799H215.131V141.469ZM217.926 139.318H219.719L218.096 140.953H216.83L217.926 139.318Z" stroke="black" stroke-width="2" mask="url(#path-1-inside-1_1_503)"/>
<path d="M226.123 148.26C226.123 148.162 226.1 148.076 226.053 148.002C226.01 147.928 225.93 147.859 225.812 147.797C225.699 147.73 225.547 147.67 225.355 147.615C225.164 147.561 224.922 147.506 224.629 147.451C224.258 147.377 223.918 147.285 223.609 147.176C223.305 147.062 223.043 146.928 222.824 146.771C222.605 146.611 222.434 146.428 222.309 146.221C222.188 146.014 222.127 145.775 222.127 145.506C222.127 145.244 222.189 144.994 222.314 144.756C222.439 144.518 222.619 144.309 222.854 144.129C223.088 143.949 223.373 143.807 223.709 143.701C224.045 143.596 224.424 143.543 224.846 143.543C225.287 143.543 225.684 143.596 226.035 143.701C226.387 143.803 226.684 143.945 226.926 144.129C227.172 144.309 227.359 144.523 227.488 144.773C227.617 145.023 227.682 145.295 227.682 145.588H226.053C226.053 145.342 225.953 145.137 225.754 144.973C225.555 144.805 225.252 144.721 224.846 144.721C224.467 144.721 224.18 144.789 223.984 144.926C223.793 145.062 223.697 145.23 223.697 145.43C223.697 145.523 223.717 145.611 223.756 145.693C223.795 145.771 223.863 145.844 223.961 145.91C224.062 145.973 224.199 146.031 224.371 146.086C224.543 146.137 224.762 146.182 225.027 146.221C225.41 146.283 225.766 146.363 226.094 146.461C226.422 146.559 226.705 146.686 226.943 146.842C227.182 146.994 227.367 147.182 227.5 147.404C227.637 147.623 227.705 147.885 227.705 148.189C227.705 148.471 227.637 148.73 227.5 148.969C227.367 149.203 227.176 149.406 226.926 149.578C226.68 149.75 226.381 149.885 226.029 149.982C225.678 150.076 225.285 150.123 224.852 150.123C224.375 150.123 223.953 150.061 223.586 149.936C223.223 149.811 222.918 149.648 222.672 149.449C222.426 149.246 222.238 149.018 222.109 148.764C221.984 148.506 221.922 148.248 221.922 147.99H223.475C223.486 148.162 223.533 148.311 223.615 148.436C223.697 148.557 223.803 148.656 223.932 148.734C224.061 148.809 224.207 148.863 224.371 148.898C224.539 148.934 224.711 148.951 224.887 148.951C225.289 148.951 225.596 148.887 225.807 148.758C226.018 148.629 226.123 148.463 226.123 148.26Z" stroke="black" stroke-width="2" mask="url(#path-1-inside-1_1_503)"/>
<path d="M229.58 141H233.125V148.676H234.941V150H229.58V148.676H231.479V142.33H229.58V141Z" stroke="black" stroke-width="2" mask="url(#path-1-inside-1_1_503)"/>
<path d="M240.408 150C240.369 149.922 240.336 149.832 240.309 149.73C240.281 149.629 240.258 149.521 240.238 149.408C240.148 149.506 240.045 149.598 239.928 149.684C239.811 149.77 239.68 149.846 239.535 149.912C239.395 149.975 239.238 150.023 239.066 150.059C238.895 150.098 238.709 150.117 238.51 150.117C238.186 150.117 237.887 150.07 237.613 149.977C237.344 149.883 237.111 149.752 236.916 149.584C236.721 149.416 236.568 149.217 236.459 148.986C236.35 148.752 236.295 148.498 236.295 148.225C236.295 147.557 236.543 147.041 237.039 146.678C237.539 146.311 238.283 146.127 239.271 146.127H240.18V145.752C240.18 145.447 240.08 145.207 239.881 145.031C239.682 144.852 239.395 144.762 239.02 144.762C238.688 144.762 238.445 144.834 238.293 144.979C238.141 145.119 238.064 145.309 238.064 145.547H236.436C236.436 145.277 236.494 145.021 236.611 144.779C236.732 144.537 236.906 144.324 237.133 144.141C237.363 143.957 237.643 143.812 237.971 143.707C238.303 143.598 238.682 143.543 239.107 143.543C239.49 143.543 239.846 143.59 240.174 143.684C240.506 143.777 240.793 143.916 241.035 144.1C241.277 144.283 241.467 144.516 241.604 144.797C241.74 145.074 241.809 145.396 241.809 145.764V148.482C241.809 148.822 241.83 149.104 241.873 149.326C241.916 149.549 241.979 149.74 242.061 149.9V150H240.408ZM238.855 148.857C239.02 148.857 239.172 148.838 239.312 148.799C239.453 148.76 239.58 148.709 239.693 148.646C239.807 148.584 239.904 148.514 239.986 148.436C240.068 148.354 240.133 148.271 240.18 148.189V147.1H239.348C239.094 147.1 238.877 147.125 238.697 147.176C238.518 147.223 238.371 147.291 238.258 147.381C238.145 147.467 238.061 147.572 238.006 147.697C237.951 147.818 237.924 147.951 237.924 148.096C237.924 148.314 238 148.496 238.152 148.641C238.309 148.785 238.543 148.857 238.855 148.857Z" stroke="black" stroke-width="2" mask="url(#path-1-inside-1_1_503)"/>
<path d="M245.131 143.66L245.23 144.539C245.457 144.223 245.732 143.979 246.057 143.807C246.381 143.631 246.74 143.543 247.135 143.543C247.455 143.543 247.748 143.59 248.014 143.684C248.279 143.777 248.508 143.928 248.699 144.135C248.895 144.338 249.045 144.602 249.15 144.926C249.26 145.246 249.314 145.637 249.314 146.098V150H247.686V146.121C247.686 145.871 247.656 145.666 247.598 145.506C247.543 145.342 247.463 145.213 247.357 145.119C247.252 145.025 247.125 144.961 246.977 144.926C246.828 144.887 246.66 144.867 246.473 144.867C246.195 144.867 245.959 144.924 245.764 145.037C245.568 145.146 245.41 145.299 245.289 145.494V150H243.654V143.66H245.131Z" stroke="black" stroke-width="2" mask="url(#path-1-inside-1_1_503)"/>
<path d="M250.691 146.783C250.691 146.303 250.746 145.863 250.855 145.465C250.969 145.066 251.133 144.725 251.348 144.439C251.562 144.154 251.822 143.934 252.127 143.777C252.436 143.621 252.787 143.543 253.182 143.543C253.514 143.543 253.805 143.604 254.055 143.725C254.309 143.842 254.533 144.01 254.729 144.229V141H256.363V150H254.893L254.811 149.338C254.611 149.584 254.377 149.775 254.107 149.912C253.838 150.049 253.525 150.117 253.17 150.117C252.783 150.117 252.436 150.037 252.127 149.877C251.822 149.713 251.562 149.488 251.348 149.203C251.137 148.918 250.975 148.58 250.861 148.189C250.748 147.795 250.691 147.367 250.691 146.906V146.783ZM252.32 146.906C252.32 147.172 252.342 147.42 252.385 147.65C252.432 147.877 252.506 148.076 252.607 148.248C252.709 148.416 252.84 148.549 253 148.646C253.16 148.744 253.355 148.793 253.586 148.793C253.867 148.793 254.1 148.732 254.283 148.611C254.471 148.49 254.619 148.324 254.729 148.113V145.547C254.619 145.332 254.473 145.166 254.289 145.049C254.105 144.928 253.875 144.867 253.598 144.867C253.367 144.867 253.17 144.918 253.006 145.02C252.846 145.117 252.715 145.254 252.613 145.43C252.512 145.602 252.438 145.805 252.391 146.039C252.344 146.27 252.32 146.518 252.32 146.783V146.906Z" stroke="black" stroke-width="2" mask="url(#path-1-inside-1_1_503)"/>
<path d="M258.502 143.66H261.953V148.676H263.67V150H258.502V148.676H260.307V144.99H258.502V143.66ZM260.189 142.037C260.189 141.912 260.211 141.797 260.254 141.691C260.301 141.582 260.365 141.49 260.447 141.416C260.529 141.338 260.627 141.277 260.74 141.234C260.857 141.191 260.986 141.17 261.127 141.17C261.416 141.17 261.645 141.252 261.812 141.416C261.984 141.576 262.07 141.783 262.07 142.037C262.07 142.291 261.984 142.5 261.812 142.664C261.645 142.824 261.416 142.904 261.127 142.904C260.986 142.904 260.857 142.883 260.74 142.84C260.627 142.797 260.529 142.738 260.447 142.664C260.365 142.586 260.301 142.494 260.254 142.389C260.211 142.279 260.189 142.162 260.189 142.037Z" stroke="black" stroke-width="2" mask="url(#path-1-inside-1_1_503)"/>
</svg>
