<svg width="1183" height="789" viewBox="0 0 1183 789" fill="none" xmlns="http://www.w3.org/2000/svg">
<path d="M313.725 690.083V94.64H898.85V690.083H313.725Z" fill="white"/>
<path d="M791.704 268.714L789.735 270.931L782.318 274.348L779.017 276.899L775.174 277.875L773.859 278.978L772.847 280.789L773.871 281.182L774.375 281.709L774.586 282.528L774.798 282.73L776.174 285.605L775.983 286.827L775.123 289.344L771.125 293.232L770.421 293.573L767.839 293.737L766.737 294.732L765.97 297.032L767.256 298.047L767.888 298.332L770.368 298.495L770.9 299.296L771.135 301.248L770.696 301.562L769.422 302.718L770.29 303.383L775.004 303.546L777.727 304.827L779.623 304.663L783.062 301.508L785.196 301.248L786.129 301.751L786.953 302.705L787.541 304.254L787.765 306.583L788.032 307.79L788.619 308.2L789.206 308.337L789.476 308.713L789.573 309.891L789.986 312.181L790.044 313.299L789.918 313.72L789.384 314.27L789.191 314.695L789.165 315.166L789.191 316.723L788.075 319.935L787.592 320.368L784.885 323.767L781.803 326.082L780.864 327.314L780.941 329.092L780.119 330.547L778.011 332.877L779.257 332.794L780.368 331.892L782.318 329.333L781.674 331.416L780.473 333.696L779.982 335.524L781.461 336.28L782.961 335.846L786.238 333.936L795.211 331.486L798.44 329.702L800.149 329.258L801.49 330.725L799.677 334.995L798.643 336.045L798.746 336.912L799.228 338.11L799.422 338.366L800.37 339.109L803.017 340.9L803.796 341.882L801.523 342.583L800.306 343.547L799.285 346.158L797.126 348.734L796.277 350.893L793.102 354.724L792.466 355.991L791.98 357.504L791.757 359.189L792.289 358.398L793.18 356.201L793.626 355.745L794.105 355.475L795.507 354.034L795.939 353.369L796.701 351.731L801.877 343.918L802.785 343.267L803.904 343.56L807.221 346.031L806.564 345.067L805.377 343.761L804.911 342.64L814.095 348.167L815.265 348.352L819.856 347.179L820.635 347.294L821.125 347.788L821.434 348.998L821.491 350.03L821.258 350.732L820.71 350.921V351.554L822.023 351.505L822.601 351.706L822.992 352.31L823.036 353.012L822.73 355.126L823.016 355.864L823.378 356.422L824.135 357.123L826.081 354.231L827.154 353.431L828.414 353.747L828.632 354.17L828.725 355.745L828.985 355.823L829.587 355.635L829.839 355.745L831.577 357.873L831.645 360.098L831.05 361.494L830.281 362.455L829.839 363.368L829.944 363.952L830.424 365.865L830.439 366.736L830.162 367.128L828.725 368.169L829.152 368.781L829.143 369.544L828.995 370.47L829.012 371.596L827.601 372.627L823.795 372.048L822.135 372.961L823.166 373.858L826.417 375.014L826.552 376.655L825.598 377.777L824.266 378.383L822.184 378.4L821.302 378.68L819.543 379.79L816.054 380.448L814.979 381.155L815.632 382.089L822.261 379.603L824.278 379.79L828.315 378.725L829.58 379.107L831.652 380.497L832.72 381.667L833.317 383.259L832.322 384.046L830.623 386.755L829.713 387.347L824.419 388.7H818.829L816.404 389.32H813.836L815.122 390.352L819.986 389.32L826.417 390.061L829.296 389.32H830.866L831.284 389.656L831.087 390.385L830.439 391.482L830.366 392.562V392.95L830.154 393.395L828.57 394.13L827.162 394.272L825.848 394.81V395.553L829.082 394.866L829.839 395.553V396.163L829.439 396.272L829.072 396.551L828.414 397.58H829.713L830.123 397.786L830.866 398.876L831.284 398.573L831.955 397.217L832.305 396.91L832.39 396.522L833.604 394.13L835.315 392.101L835.431 393.556L835.278 397.689L835.031 398.876V399.614L835.808 400.183L836.036 401.122L835.757 402.323L835.031 403.677L834.184 404.458L832.414 404.982L831.577 405.698L832.703 407.975L832.592 408.401L831.941 408.723L830.635 410.158L829.999 410.483L826.985 409.748L824.388 410.218L823.536 409.748L823.139 408.827L822.792 407.46L822.353 406.237L821.695 405.698L821.016 405.477L819.632 404.511L817.44 403.774L815.122 401.485L813.836 400.969L814.101 402.057L814.537 402.855L815.047 403.387L815.521 403.677L814.016 405.368L805.506 405.698V406.439L818.686 407.722L819.113 408.108L819.693 408.859L820.205 409.816L820.424 410.788L820.781 411.314L822.73 413.117L827.04 415.123L827.87 416.542L826.132 417.92L824.082 417.608L820.424 415.812L816.261 416.542L813.695 415.431L812.979 415.812L815.448 417.596L821.434 418.994L824.135 421.247L824.866 422.723L825.002 423.562L824.552 423.93L823.87 424.246L822.829 425.632L822.278 425.944L817.911 424.226L816.664 425.329L821.195 427.193L821.955 427.932L821.98 428.985L820.787 429.36L816.016 429.161L814.69 428.618L814.43 429.085L814.084 429.424L813.236 429.958V430.688L814.521 432.29L815.2 433.37L815.833 434.699L815.152 434.954L813.236 436.705L803.95 438.701L802.455 438.224L801.626 437.691L801.073 437.039L799.877 433.222L798.809 432.123L797.683 429.863L797.064 429.348L793.782 428.618L794.196 429.181L794.644 429.376L795.636 429.348L796.211 429.803L796.155 430.82L795.779 432.637L796.425 433.461L798.537 434.62L799.228 434.699L799.16 436.593L799.736 438.144L800.522 439.476L801.073 440.036L803.195 440.766L803.969 441.608L803.51 442.704L803.796 443.37L796.789 441.001L794.636 442.704L795.318 443.537L796.993 444.41L797.803 445.361L798.206 446.455L798.156 447.382L797.714 448.139L796.92 448.685H791.347L790.837 449.323L791.35 450.621L792.18 451.712L792.616 451.701L793.042 452.697L793.945 453.337L794.762 453.397L794.925 452.673L796.646 452.203L799.228 448.309L800.527 447.359L800.792 447.834L800.149 448.919L796.318 453.598L795.779 454.724L795.634 455.625L795.51 457.626L795.338 458.396L793.973 460.817L793.782 461.699L793.925 463.68L793.292 464.436L793.116 465.455L792.486 467.28L788.146 467.764L784.053 469.32L785.864 467.882L789.602 466.801L791.5 466.022L790.432 465.298L785.786 464.554L785.456 464.708L785.402 465.117L785.481 466.407L785.323 466.683L785.017 466.891L784.124 467.799L783.614 468L783.422 468.259L782.575 469.921L782.092 470.424L779.779 471.912L778.83 472.912L777.977 474.077L777.441 475.253L777.808 473.681L778.011 473.277V472.618H777.727L777.441 473.579L776.796 474.418L776.089 475.018L775.596 475.253L775.441 475.563L775.563 476.265L775.881 476.966L776.31 477.279L777.215 477.177L777.614 476.97L778.011 476.566L778.215 477.922L778.582 479.198L777.647 479.182L776.415 480.798L775.596 481.221L773.655 481.013L772.803 480.614L771.992 479.906L770.671 478.297L769.87 477.581L769.007 477.279L768.633 477.553L767.849 478.814L767.45 479.198L766.941 479.088L766.463 478.712L765.974 478.579L765.429 479.198L765.97 479.906L765.523 480.38L765.042 480.544L764.001 480.505L764.831 477.875V477.279L763.484 477.655L762.829 477.604L762.549 476.923L762.358 475.438L761.895 474.442L761.334 474.105L760.838 474.591V475.253L761.421 476.206L761.717 477.875L761.151 477.487L759.96 477.04L759.411 476.566V475.971L759.817 474.622L759.202 472.595L758.151 470.734L757.256 469.921L756.396 468.967L753.676 468L754.389 468.589L756.686 469.627L757.134 470.699L758.268 473.869L757.913 474.395L757.555 474.548L757.197 474.36L756.839 473.869V474.591L757.686 475.367L757.834 476.848L757.487 478.532L756.839 479.906L755.817 480.446L753.488 479.808L752.532 480.505L753.12 481.021L753.758 481.221H755.13L754.073 482.1L751.396 483.074L748.995 483.304L746.471 484.258L745.376 485.16L744.808 483.781L743.641 485.429L739.93 488.427L743.411 487.244L744.233 487.834L742.83 489.012L732.003 492.344L730.488 493.722H732.458V494.31L729.8 496.616L728.495 497.176L727.06 498.878L726.07 499.613L725.669 500.079L725.349 500.894L724.912 499.974L724.495 499.811L724.073 500.195L723.611 500.894V501.546H724.179V502.14L721.669 503.897L720.757 504.153L721.019 502.792L718.761 504.51L717.679 505.827L717.023 507.4L717.708 507.439L718.672 506.397L717.591 508.604L717.023 509.413L714.019 512.02L712.019 515.188L710.718 515.891L711.239 515.605L711.764 515.146L712.196 514.416L712.431 513.303L706.127 518.545L700.52 520.18L699.683 519.933L698.965 519.131L699.632 520.11L700.006 520.353L700.418 520.423L699.642 520.896L698.965 521.07L699.105 522.068L699.081 523.38L698.86 524.5L698.394 524.951L698.19 524.65L698.112 524.004L698.005 522.41L697.255 521.717L695.255 519.131L694.585 518.896L694.244 519.17L694.129 519.995L694.117 521.393L694.231 524.377L693.974 524.951L693.415 524.624L693.326 523.785L693.545 521.393L693.408 520.538L693.105 519.432L692.801 518.827L692.663 519.451L692.607 523.161L692.403 524.246L692.964 525.108L692.765 525.754L692.098 526.162L691.26 526.293L691.731 524.154L691.762 523.219L691.52 522.422L691.806 521.228L692.331 520.804L692.353 520.261L692.091 519.775L692.372 515.852L692.105 514.864L691.653 514.138L691.173 513.713L690.949 514.242L690.908 517.704L691.26 518.545L690.578 519.162L689.796 519.104L689.102 519.243L688.668 520.423L689.178 521.393L689.678 523.496L690.381 524.246L689.617 525.316L688.068 525.678L685.076 525.593L684.439 525.378L682.934 524.246L682.367 524.65L681.801 525.297L681.374 525.274L681.221 523.658L676.061 526.885L670.327 528.822L666.432 529.759L666.893 529.079L667.159 528.249L667.14 527.239L666.903 526.293L666.592 527.638L666.092 528.553L665.495 528.822L664.881 528.176L665.191 530.162L659.742 534.029L660.154 531.97L661.235 530.807L662.575 530.281L663.762 530.162V529.459L660.997 528.015L660.004 526.885L659.79 528.161L660.004 529.459L658.929 530.212L657.904 530.001L656.858 529.513L655.722 529.459L656.577 530.162V530.749L655.525 530.726L655.048 530.918L654.608 531.452L653.923 531.06L653.164 531.624L652.552 532.668L652.297 533.707L652.072 535.375L651.506 536.524L650.761 536.831L649.987 535.957L649.447 536.762L649.249 537.593L649.463 538.259L650.144 538.531L650.674 538.328L651.506 537.443L652.144 537.244L655.443 537.616L656.577 537.244L654.78 540.75L653.69 541.713L652.582 541.094L652.792 540.872L652.868 540.509H651.157L651.219 541.384L650.042 541.266L649.394 541.793L649.933 541.728L650.302 542L650.44 542.646L650.3 543.719L653.412 543.54L654.008 543.02L652.97 546.194L651.465 549.096L649.547 551.215L645.266 553.18L642.527 555.258L639.916 555.866L638.547 553.956L639.076 553.271L640.251 552.837L640.702 552.327L641.261 551.318L641.787 550.861L643.113 550.758V550.118L641.926 550.095L639.685 550.792L638.547 550.758L635.695 548.974L634.841 548.78L635.098 549.485L634.658 549.798L634.527 550.118L634.93 550.689L636.11 552.62L636.515 553.214L636.977 556.452L640.406 556.702L631.461 558.071L626.282 560.562L617.487 562.968L615.356 562.88L607.342 560.387L603.962 561.321L602.751 560.968L603.4 560.767L603.608 560.387L602.115 560.053L601.37 559.636L600.752 559.055L599.907 560.262L594.281 559.055L593.751 558.815L591.569 557.143L588.142 556.452L583.261 553.134L576.547 551.307L575.224 550.118L575.789 550.011L576.11 549.649L576.068 549.188L575.537 548.78L575.027 548.746L574.325 549.317L573.809 549.485L569.804 548.78L569.927 549.249L574.11 550.118L563.08 549.356L562.361 548.196L562.07 548.425L561.815 548.78L561.488 548.28L561.218 548.196L561.504 549.485L558.295 549.546L556.732 549.165L550.378 543.792L549.752 543.02L550.341 543.559L551.014 543.788L551.705 543.628L552.346 543.02L551.81 542.917L550.858 542.481L550.32 542.378L550.606 540.509L549.841 541.637L549.15 542.092L548.402 541.897L547.468 541.094V540.509L548.897 541.094L548.337 539.659L547.575 538.821L546.752 538.155L546.014 537.244L544.487 533.949L543.448 534.029V534.616L544.905 536.7L545.749 538.247L546.327 539.809L543.55 537.267L542.275 535.593L541.477 533.385L542.045 532.683L541.735 532.238L541.162 530.749L542.334 529.39L543.657 528.607L546.468 528.176L547.79 528.791L550.109 531.271L551.489 531.452L550.793 530.542L549.773 528.783L549.205 528.176L546.014 526.293L547.273 523.923L547.468 523.011L547.31 521.682L546.844 521.336L546.473 521.671L546.611 523.011L546.113 523.923L543.132 527.646L542.334 528.48L541.317 528.822L540.987 529.19L540.877 532.096L540.559 533.017L540.356 533.213L538.477 532.119L536.634 530.504L535.224 529.863L532.294 527.531H535.018L535.509 527.777L536.515 528.753L537.144 528.822L537.229 528.272L537.78 528.099L539.168 528.176V527.531H538.001V526.885H538.596V526.293L535.627 527.054L534.576 526.885V526.293L535.998 524.42L536.416 521.551L535.838 519.108L534.265 518.545V519.131L535.44 519.625L535.307 520.931L534.518 522.46L532.959 524.577L531.96 525.354L530.836 525.608L529.698 524.951L530.295 526.885L528.607 525.07L524.836 522.537L519.491 520.527L517.678 519.197L516.668 518.723L515.663 517.959L514.808 516.485L515.049 515.748L514.988 514.81L514.551 512.596L517.808 512.805L519.6 512.387L520.826 511.297H517.685L515.694 510.16L514.964 509.997L512.816 510.574L512.372 510.972L511.995 511.556L510.214 513.303V513.894L512.342 514.844L513.418 515.748L513.951 517.187L513.08 516.709L511.189 516.419L509.253 516.651L508.08 517.141L507.408 518.129L507.959 519.775L507.76 519.802L507.362 520.423L495.118 522.098L493.638 521.07L492.234 519.571L490.934 518.638L489.547 518.433L482.598 520.974L480.302 521.024L478.154 521.717L466.843 519.131L465.962 519.752L465.194 520.935L464.42 521.713L463.522 521.07L464.119 520.423L463.134 520.426L461.563 521.451L460.224 521.879L458.956 523.011L458.507 523.107L454.461 522.641L453.534 523.011L452.522 524.246L452.014 523.958L451.378 522.711L450.915 522.422L451.177 521.451L451.755 520.203L451.82 519.131L451.64 518.09L451.293 517.627L450.844 517.249L450.369 516.485L451.017 515.52L451.857 512.059L452.237 511.297L454.078 511.285L454.364 510.972L454.187 509.986H453.762L452.796 510.647L451.993 510.438L451.109 509.754L450.395 508.546L450.109 506.757L450.915 504.153L450.959 503.059L450.864 499.414L451.114 498.61L451.558 497.942L452.082 497.577L452.685 497.802L453.956 499.247L455.41 500.265L456.541 501.977L457.563 504.285L458.129 506.757H457.531L458.218 507.78L459.235 508.093L463.313 508.302L464.318 508.058L464.972 507.4L464.507 506.699L464.755 505.936L465.828 504.796L466.44 504.49L468.425 504.153L469.95 502.958L470.418 502.792L470.94 503.001L472.023 503.936L472.578 504.153L473.683 503.746L475.714 501.954L479.203 501.267L480.336 500.486L481.317 498.878L481.669 499.426L481.941 499.531L482.185 499.321L482.435 498.878V498.292L481.713 497.53L480.705 496.815L479.707 496.5L479.009 496.924L479.445 495.38L480.481 494.629L481.635 494.528L482.435 494.963L482.105 495.064L481.317 495.683L482.074 496.084L482.919 496.192L483.746 496.033L484.455 495.683V494.963H483.601L484.455 494.31L481.858 491.896L480.45 491.14L479.009 491.046L480.271 490.064L486.552 491.21L487.312 492.355L488.611 493.095L489.276 493.033L489.904 492.355L489.428 492.441L488.98 492.39L488.56 492.153L488.166 491.701L488.975 490.649L489.336 490.392L488.479 489.737L489.562 489.327L491.04 489.795L492.448 489.76L493.327 487.834L491.878 488.668L491.098 488.77L490.761 488.134L491.05 486.991L491.72 486.421L493.041 485.757L492.2 485.218L490.934 485.066L489.649 485.258L488.734 485.757L488.992 484.125L488.516 483.379L487.686 483.179L486.516 483.226L486.123 483.367L485.754 483.648L485.455 484.109L483.887 483.781L485.113 482.71L485.52 481.924L485.312 480.505L487.873 478.685L489.128 477.248L490.047 475.606L490.766 473.63L491.164 473.061L491.878 472.618L492.786 472.402L495.424 472.677L494.592 472.316L494.23 471.959H493.898L495.592 470.526L496.502 470.086L497.492 469.921L503.247 471.46L504.225 471.24L505.39 469.32L503.51 470.392L502.51 469.921V469.32L502.91 469.34L503.25 469.19L503.913 468.664L503.878 468.106L503.652 468H503.913L496.319 467.516L492.751 468.365L489.593 471.24L488.734 473.277L488.378 473.556L486.511 474.124L484.618 475.516L484.026 476.265L482.465 477.675L480.486 477.405L476.726 475.971V475.253L478.481 474.207L480.149 472.618L481.54 470.644L482.435 470.078L483.339 470.64L484.111 469.811L485.96 469.214L486.766 468.664L483.04 468.259L481.889 468.664L481.083 469.222L480.43 469.438L479.792 468.919L479.009 467.28L479.571 466.376L480.006 462.357L480.285 462.239L480.623 462.523L480.909 462.558L481.125 460.88L481.353 460.099L481.889 458.759L481.945 457.733L483.001 456.746L487.705 454.31L490.189 454.061L489.99 453.195L489.594 452.709L489.07 452.555L488.479 452.673V452.068L489.24 451.341L490.839 449.148L492.24 448.519L493.327 447.359L493.887 447.232L495.638 447.359L495.472 449.109L496.315 449.394L497.388 449.418L497.919 450.407L498.461 451.119L501.941 451.345L501.254 450.795L499.795 450.945L499.062 450.739L498.46 450.075L497.54 448.57L496.778 448.087L498.49 447.359V446.76H494.184V446.027L496.577 444.552L497.349 443.735L498.041 443.549L501.346 444.096V443.37L498.092 442.668L497.063 442.704L494.39 445.215L493.327 445.361V444.695L494.421 443.648L494.822 442.93L495.067 441.977L493.399 443.811L492.914 444.096L492.53 444.6L492.254 446.851L489.593 449.35L487.419 450.182L486.766 450.739L487.026 452.068L485.787 451.629L484.615 451.958L482.174 454.061L481.185 455.258L480.526 455.66L479.863 455.38L479.414 454.44L479.475 453.48L480.149 451.345L479.282 451.629L478.87 452.717L478.588 456.178L477.583 458.033L477.407 458.908L477.35 460.162L477.013 460.738L475.51 460.722L474.768 461.719L474.016 462.003L473.338 461.684L472.585 460.821L471.935 459.555L471.562 458.033L470.879 458.979L470.136 459.354L470.731 458.123L471.244 456.612L471.414 455.151L470.991 454.061L471.17 453.91L471.562 453.397L470.904 452.772L470.537 452.654L470.136 452.673L470.731 451.345V450.739L468.809 452.187L467.624 452.756L466.714 452.673L465.961 451.491L465.656 449.897L465.808 448.357L466.401 447.359V446.76L465.677 446.618L465.146 445.892L464.561 444.695L464.024 444.418L463.42 443.716L462.408 441.977L463.45 442.442L464.541 443.549L465.644 444.227L466.714 443.37H465.828L466.083 442.263L466.483 441.529L466.983 441.048L467.544 440.703L466.971 440.036V439.368L471.812 436.927L473.016 435.368V434.699L470.425 436.959L469.044 437.699L467.7 437.973L466.561 438.709L465.277 440.095L464.098 440.941L463.262 440.036L463.808 439.642L464.972 437.973L465.823 437.087L466.308 436.375L466.714 435.368L466.401 434.699L466.777 434.524L467.01 434.246L467.544 433.366L466.608 432.262L465.35 431.908L462.665 432.027L463.262 430.688H462.408L462.7 429.695L463.833 426.615L463.401 426.734L463.02 427.122L462.69 427.764L462.408 428.618L462.144 427.708L461.803 427.341L461.41 427.453L460.979 427.948V428.618L458.673 427.948L458.022 428.275L456.787 429.671L456.102 429.958V430.688L456.43 430.784L457.245 431.358L453.395 432.111L452.395 431.358L453.379 431.497L453.881 431.417L454.236 431.023L454.116 430.473L453.165 428.941L452.796 428.618H448.371L449.024 429.336L451.226 430.688V431.358L450.106 431.314L448.14 429.56L446.942 429.348H447.228L441.987 428.866H437.004L431.247 428.439L428.817 425.856L426.501 425.684L422.457 426.615L422.431 426.894L421.416 428.618L420.508 429.344L420.003 429.468L415.141 427.948L415.59 427.533L416.083 427.285L416.605 427.197L415.903 426.902L414.304 427.768L413.049 429.408L412.858 431.358L412.085 433.656L410.942 434.612L407.852 434.699L406.947 434.954L405.117 435.981L404.27 436.1L401.248 434.333L400.604 433.389L400.005 433.15L399.566 432.676L399.393 431.023L399.158 430.15L397.371 427.285L396.606 425.732L395.958 424.082L394.805 419.902L395.087 419.17L395.93 420.043L396.718 419.674L398.253 417.824L399.053 417.319L403.593 416.013L404.481 416.117L407.842 418.341L412.443 419.17L412.84 418.914L413.998 417.215L415.727 417.311L416.151 416.879L417.675 414.457L419.392 413.863L423.181 414.529V413.791L422.819 413.221L422.586 412.443L424.338 412.322L424.909 412.852L424.61 414.529L425.161 414.946L425.851 413.759L426.319 413.791L426.47 414.738L426.477 416.117L426.695 416.83L427.462 415.812L428.113 416.438L428.868 416.057L429.487 415.131L429.746 414.156L429.054 410.459L429.176 409.072L430.324 407.492L432.064 407.179L435.48 407.722L435.166 408.851L434.645 409.615L433.453 410.483L433.768 411.832L433.278 411.941L432.926 412.314L432.314 413.791L434.625 417.215L434.375 415.72L434.344 414.481L434.531 413.422L434.936 412.443L435.205 412.226L435.997 412.073L436.334 411.832L436.604 411.278L437.062 409.41L438.215 407.878L439.41 407.758L440.545 408.739L441.497 410.483L442.16 409.458L443.034 408.819L445.599 408.184L448.085 406.439L447.42 406.008L444.38 406.439V405.698L446.136 405.296L449.262 402.049L450.915 401.646L450.369 402.323L451.114 402.525L451.82 403V404.289L451.235 405.151L449.973 405.859L449.512 406.439L450.065 406.591L450.762 406.539L451.48 406.249L452.082 405.698L452.361 407.613L452.716 408.417L454.106 409.072L455.973 410.808L456.673 411.097V410.483L456.153 410.17L455.684 409.551L454.65 407.722L455.782 406.201L456.405 405.718L457.245 405.698L457.326 404.386L458.109 404.003L461.598 404.172L465.022 403.351L470.675 404.491L474.418 406.439L474.843 406.177L475.482 405.288L475.87 405.022H479.009L479.856 405.416L480.754 406.117L481.713 406.366L482.435 405.698L483.53 406.443L488.166 405.698L489.276 404.752L489.319 403.524L488.574 402.541L487.312 402.323L487.734 401.009L488.23 400.574L488.837 400.332L489.593 399.614L490.128 398.468L491.878 393.395L492.016 389.952L490.679 388.542L488.866 388.725L487.57 390.061V390.741H487.88V391.482L481.577 396.91L479.489 397.786L467.573 395.456L464.573 392.986L464.119 392.78L463.915 392.841L463.32 393.29L459.51 393.888L458.388 393.395L457.595 392.424L458.236 392.003L459.459 391.615L460.41 390.741L460.728 391.259L461.041 391.469L461.809 391.482V390.741L460.884 390.053L459.826 389.948L457.813 390.741L458.241 389.267L459.002 387.841L460.41 385.985L462.354 385.052L463.092 384.208L462.979 382.581L463.593 382.313L465.103 382.581L465.476 382.191L466.714 379.79L467.828 378.928L472.491 377.594L476.431 374.53L477.942 372.623L480.618 371.233L481.577 370.164L481.305 369.993L481.317 369.54L481.945 369.614L482.97 370.768L483.601 370.85L483.031 368.793L485.623 367.275L491.05 365.551L493.638 363.997L489.625 365.326L488.166 365.363L485.184 364.684L482.705 365.428L481.889 365.363L482.71 363.805L483.601 362.623L482.093 361.13L481.526 360.036L481.317 358.5L480.771 358.914L480.195 359.164L479.601 359.262L479.009 359.189L479.246 360.601L478.873 361.056L478.278 360.913L477.843 360.565L477.459 359.66L476.675 357.246L476.129 356.434L476.346 358.136L476.248 359.561L475.877 360.806L475.272 361.936L474.108 363.229L473.731 363.368L472.979 365.682L472.578 366.111L471.001 366.262L470.295 365.976L469.173 364.202L466.714 361.936L464.956 361.031L464.721 360.143L465.544 358.5L466.45 357.824L471.078 356.808L473.016 355.438L474.016 355.126L474.479 354.683L474.603 353.649L474.703 351.554L475.064 350.843L475.527 350.301L476.44 349.549L475.203 349.894L472.134 354.371L470.71 355.569L469.35 356.213L466.401 356.434V355.745L468.17 354.465L468.71 353.747V352.992L467.843 353.057L467.221 353.653L466.139 355.126L465.275 355.462L464.746 355.052L464.262 354.49L463.522 354.371V355.126L464.03 355.897L463.816 356.803L463.207 357.562L460.899 358.5L460.282 358.181L459.838 356.434L459.796 354.781L459.956 353.542L459.945 352.285L459.398 350.576L458.588 347.019L458.088 345.78L457.566 346.718L457.626 349.433L458.292 351.583L458.298 352.409L458.061 353.185L457.258 354.962L456.803 355.651L456.279 355.721L455.66 354.748L454.867 352.84L454.512 352.671L454.248 355.298L453.932 356.094L453.48 356.48L452.939 356.434L452.616 356.004L452.282 355.192L451.328 352.027L451.146 350.379L451.449 348.685L452.395 346.784L452.014 346.228L451.803 346.373L451.595 346.718L451.226 346.784L450.109 346.031H449.405L449.165 346.204L448.971 346.784L448.997 347.364L449.371 349.549L449.772 350.798L450.915 358.5L450.33 359.127L449.616 358.972L448.844 358.578L448.085 358.5V357.873L448.323 357.037L448.119 356.356L447.647 355.914L447.085 355.745L445.701 356.201L445.242 356.078L445.206 355.126L444.864 355.204L443.806 355.126V354.371L444.818 353.353L446.686 350.782L447.803 350.231L447.385 349.121L446.681 348.352L445.206 347.41L444.977 349.664L444.126 351.595L443.068 352.565L442.211 351.928L441.502 348.578L441.055 348.167L440.946 348.849L440.614 352.992L439.727 354.145L437.215 354.765L436.038 355.438L433.732 354.293L432.501 353.037L432.625 350.921L431.46 351.608L430.749 353.603L430.695 355.807L431.484 357.123V357.873L430.943 358.439L429.994 360L429.436 360.565L428.768 360.773L425.984 360.442L424.839 359.926L424.168 359.815L423.518 359.488L422.328 357.873L421.845 358.062L421.416 358.5L421.727 358.771L422.015 359.189L420.814 359.692L418.615 361.527L412.971 362.68L411.688 361.936L411.651 363.143L411.471 363.531L411.188 363.633L410.835 363.997L409.263 366.736L401.597 368.891L399.662 368.659L397.968 367.483V366.736L398.202 365.939L398.026 365.207L397.111 363.997L397.873 364.051L398.196 364.259L398.539 364.684L398.662 362.836L397.891 361.903L396.937 362.038L396.514 363.368L395.514 361.866L389.094 359.189L377.179 360.466L375.652 360.176L374.749 358.5L376.584 357.394L377.513 356.463L377.914 355.438L378.441 354.748L380.883 353.185L381.625 352.31L381.795 350.741L381.788 348.919L382.026 347.41L383.312 346.554L384.043 345.566L384.635 345.339L385.698 345.537L389.764 347.969L390.937 348.167L391.655 348.599L393.947 351.554L395.594 352.606L398.514 353.394L399.207 354.355L399.815 355.487L400.534 356.434L401.794 357.074L403.014 356.988L405.389 355.745L403.481 355.819L402.493 355.549L401.702 355.126L401.019 354.219L399.789 351.998L398.952 351.554L396.896 349.277L395.754 347.278L394.42 345.475L393.687 344.025L399.991 345.339L404.085 347.759L405.389 348.167L404.59 346.599L403.473 345.277L402.279 344.355L400.463 343.683L398.294 342.224L396.359 341.511L395.437 340.616L393.947 338.486L392.233 334.953L392.095 333.663L392.097 331.238L391.665 330.037L393.434 328.446L395.23 328.57L412.858 338.486L413.256 338.986L413.998 340.496L415.136 341.383L415.426 341.882L415.855 343.687L415.668 344.833L415.226 345.883L414.88 347.41L415.63 347.838L416.59 347.068L418.304 344.647L418.471 345.154L419.135 346.031L419.59 345.08L421.862 345.656L422.87 345.339V344.647L422.331 344.215L422.015 343.267L422.743 343.213L424.61 341.882L425.287 341.799L425.957 341.898L426.594 341.816L427.178 341.189L422.219 341.61L419.957 340.875L418.304 339.803L417.726 339.126L416.982 337.928L416.574 336.788L416.993 336.28L419.595 335.065L420.161 335.301L420.811 335.883L424.222 335.416L425.309 334.424L426.166 334.197L427.994 334.904L428.889 334.995L429.746 334.197L428.957 333.489L428.605 333.502V332.877L430.574 331.491L431.174 330.725L428.882 331.056L427.562 331.664L425.766 333.303L414.501 333.026L412.289 332.116L410.835 330.725L408.634 331.54L408.136 331.106L407.556 330.049L405.126 327.314L403.784 324.551L402.889 321.224L403.034 318.13L404.814 316.095L405.638 316.045L408.008 317.489L411.12 318.193L411.903 318.704L413.229 320.36L413.998 320.983L414.789 321.083L417.423 320.285L422.586 322.371H424.299L427.276 324.58L428.889 325.248L430.341 324.526L426.885 323.401L425.783 322.01L422.328 321.681L421.248 321.037L419.287 319.253L414.957 318.213L413.998 317.489L411.729 314.37L410.583 313.716L410.024 312.757L409.12 312.373L407.207 310.542L405.498 308.149L405.126 307.314L405.121 304.145L405.36 302.479L405.983 301.248L407.706 300.612L409.87 301.11L417.447 305.742L419.666 306.328L421.161 305.458L421.355 307.072L421.868 308.45L422.595 309.402L423.441 309.736V309.093L422.732 307.999L421.45 304.797L420.59 304.124L419.634 303.902L417.712 302.94L416.712 302.718L416.246 302.366L414.972 300.607L412.525 298.382L411.12 296.394L412.472 295.261L416.115 294.9L418.875 295.353L422.586 298.441L421.593 297.514L419.95 294.791L419.005 294.215L414.991 294.312L413.998 293.573V292.804L415.018 291.089L415.722 290.307L416.426 289.979L418.158 289.891L418.814 289.297L418.875 287.93L419.824 287.441L426.389 289.344L430.645 292.514L431.9 292.804L432.727 293.472L433.783 295.047L434.502 296.906L434.337 298.441L434.625 300.679L436.686 297.413L437.502 297.032L437.951 297.3L438.347 297.929L438.929 299.204L439.691 300.306L439.776 300.863L439.788 302.366L440.075 305.023L439.798 305.78L436.645 311.898H436.905L437.803 310.437L440.089 307.615L440.926 306.231L441.614 303.71L442.068 303.421L442.568 303.743L442.885 304.513L443.494 306.934L443.211 307.698L443.813 307.105L444.477 306.119L445.147 305.554L445.778 306.231L445.065 308.617L444.084 311.017L442.88 312.957L441.497 313.932L443.176 313.824L443.939 313.424L444.636 312.532L445.436 309.903L446.043 308.337L446.502 308.012L447.085 310.78L446.818 313.632L446.436 316.04L446.66 317.489L448.085 312.532L448.007 310.241L448.181 307.598L448.531 305.14L448.971 303.421L449.308 302.642L449.538 302.479L452.369 302.743L452.653 303.069L452.752 304.463L453.017 305.308L453.381 305.826L454.98 307.535L456.735 310.78L456.772 311.243L456.405 314.595L456.15 315.591L455.818 316.095L456.102 316.723L453.951 322.753L453.51 324.63L453.813 325.497L454.357 325.336L455.338 321.399L458.112 313.92L458.388 311.13L459.282 310.967L459.85 311.939L460.333 313.395L460.979 314.695L461.282 314.77L461.524 314.52L461.782 314.524L462.122 315.395L462.098 316.219L461.874 317.015L461.838 317.706L462.408 318.193L462.677 316.644L462.956 315.866L463.262 316.095L463.265 316.794L462.979 320.285L462.632 321.432L461.666 323.393L461.265 324.526V325.161L462.864 324.252L464.493 318.555L465.828 317.489V316.723L464.969 315.782L464.493 313.807L463.833 309.736L463.224 308.275L462.428 306.896L461.544 305.868L460.667 305.458L461.098 304.124L461.522 301.713L462.122 300.679L462.92 300.268L463.755 300.218L464.486 299.841L464.972 298.441L464.114 298.474L462.051 299.522L461.265 300.293L460.491 300.595L456.99 298.847L454.65 296.394L444.711 292.06L441.79 288.931L440.045 284.332L441.997 283.067L448.201 281.371L449.512 281.435L453.951 282.852H455.104L455.553 283.029L456.102 284.332L457.226 285.508L457.818 285.66L458.388 285.04L458.105 284.686L457.901 284.218L457.531 282.852L459.595 282.865L460.655 282.574L462.491 281.093L464.578 280.878L465.544 280.08L459.864 280.992L458.129 280.08L457.308 279.206L457.481 279.066L458.155 278.99L458.828 278.272L459.272 277.495L459.884 276.873L460.578 276.518L461.265 276.539V275.761L460.337 275.224L459.782 275.423L458.129 277.182L456.007 278.365L453.534 278.602L451.578 278.192L451.226 277.959L451.17 276.835L451.532 276.083L452.395 275.051L452.548 274.31L452.939 271.567L453.51 270.935L455.507 270.079L453.691 270.461L452.318 271.444L449.012 275.046L448.235 275.478L446.502 275.761L445.99 275.152L446.272 273.79L446.919 272.359L447.49 271.567V270.791L446.058 271.389L445.349 272.003L444.636 272.926L442.97 275.935L442.636 276.15L441.63 277.355L435.011 275.605L433.286 274.619L432.15 273.112L431.467 272.435L431.181 271.757L431.742 270.791L433.348 270.677L435.368 271.465L437.155 271.198L438.072 267.951L436.892 267.773L435.572 266.759L434.349 265.277L433.453 263.676L434.732 262.63L436.045 263.242L437.358 264.428L438.62 265.099L438.099 263.421L437.759 262.898L442.339 262.124L442.636 262.248L442.892 262.669L443.242 263.943L443.494 264.385L444.395 264.619L444.772 263.824L444.619 262.779L443.936 262.248L443.252 261.98L441.186 260.104H445.364L446.104 260.436L447.582 261.912L449.466 262.643L450.973 264.504L451.82 265.099L452.891 264.912L454.524 262.966L455.507 262.248L455.247 260.819L456.891 260.219L458.241 261.317L459.558 262.881L462.442 264.317L463.073 264.186L463.262 262.898L462.959 261.865L461.864 261.1L461.547 260.104L462.889 260.338L464.18 261.648L465.16 263.701L465.544 266.169L466.275 267.705L469.676 269.609L470.731 271.567L470.136 272.604L470.675 273.231L472.448 273.637V274.348L471.683 274.094L471.363 274.539L471.306 276.539L471.88 277.799L471.955 278.576L471.306 279.311V280.08L471.848 280.789L472.418 280.156L473.083 279.636L473.775 279.32L474.418 279.311L474.802 279.776L475.139 280.485L475.542 280.797L476.489 278.771L477.159 278.559L477.544 279.286L477.297 280.789L480.275 280.472L481.032 280.789L481.397 280.139L481.768 280.105L482.435 280.789L484.173 283.624L483.776 284.358L481.317 286.448L481.873 286.827L482.409 286.54L482.97 286.001L483.601 285.681L484.217 285.837L486.169 287.479L487.026 288.565L487.44 288.591L488.286 288.048L488.734 287.93L491.358 289.344L491.234 289.714L491.047 290.69L491.768 291.161L492.184 292.396L492.174 293.648L491.618 294.215L492.186 296.394L492.2 296.356L492.268 298.047L492.48 300.029L492.757 300.72L493.327 301.248L493.921 301.156L494.654 300.695L495.366 300.507L495.898 301.248L495.98 302.672L495.613 303.961L494.781 306.231L495.315 306.081L495.978 305.604L496.54 305.006L496.778 304.475L496.756 301.96L495.898 299.904L496.417 299.329L497.903 298.571L499.761 298.441L500.073 298.793L500.645 300.679L501.417 301.047L500.914 301.851L500.022 302.58L499.633 302.718L499.358 303.701L499.543 304.45L500.347 305.843L501.408 306.729L505.937 305.458L507.138 305.78L508.124 306.357L508.879 307.556L509.386 309.736L503.502 310.296L502.383 311.23L497.971 312.544L497.349 312.532L498.118 313.982L499.288 313.82L501.643 312.532L505.561 311.818L506.791 312.532L506.286 313.399L504.485 314.695V315.395L508.985 314.095L510.087 315.045L510.696 317.106L510.827 318.867L510.332 320.202L509.077 320.983L511.071 322.371V323.131L508.998 328.011L508.245 329.333L507.012 330.468L502.771 332.116V332.877L503.675 332.943L505.233 332.645L505.937 332.877L508.158 334.308L508.816 334.953L505.39 339.109L504.162 340.059L498.49 339.803L498.087 339.332L497.206 337.73L496.4 337.127L495.648 335.784L495.142 334.366L495.067 333.502L494.029 332.041L492.744 331.329L491.399 331.366L490.189 332.116L491.001 332.248L492.968 333.547L493.638 334.197L493.725 334.474L494.781 336.28L494.888 337.507L494.757 338.317L493.898 339.803L494.919 341.007L495.067 341.535L495.286 342.88L495.766 343.646L497.206 345.018L504.184 344.833L505.383 345.463L505.937 346.784L505.512 347.936L503.352 351.39L502.51 352.31V352.992L504.536 351.866L507.094 349.532L509.286 349.03L510.214 353.369L509.332 357.054L507.24 360.601L504.776 363.18L502.771 363.997V364.684L506.988 363.04L508.607 361.584L509.515 361.248L510.454 361.445L511.061 361.993L512.24 363.997L513.832 365.522L514.26 366.503L513.951 368.169L514.541 368.54L514.631 369.295L514.531 370.336L514.551 371.596L514.801 373.809L514.808 375.356L514.638 378.351L516.263 383.6L516.831 384.622L516.612 384.955L516.52 385.235L517.355 386.131L518.199 387.789L518.641 389.733L518.26 391.482V392.101L518.94 392.699L519.634 392.113L519.964 390.749L519.355 388.324L519.117 385.985L518.75 384.967L517.685 382.581L518.542 381.155L518.393 380.29L518.661 379.656L519.398 378.485L519.624 376.948L519.602 375.56L518.734 367.973L518.566 364.791L519.102 363.368L520.389 364.1L521.285 365.894L522.563 370.164L523.784 372.611L524.246 374.029L525.673 374.493L526.246 375.014L526.559 374.261L525.469 371.959L524.484 368.879L523.743 365.583L523.396 362.623L523.229 358.623L523.396 357.123L523.581 356.57L524.277 355.126L524.847 351.554L526.122 349.08L530.838 345.339L533.409 341.882L534.183 341.453L534.984 341.222L535.572 340.801L535.715 339.803L536.266 339.712L536.668 340.021L537.453 341.189L537.634 341.222L538.314 341.189L538.436 342.063L538.314 342.344L538.11 342.401L538.001 342.64L537.673 348.734L538.001 350.231L537.499 351.94L537.474 353.698L537.923 354.757L538.856 354.371L538.428 352.524L538.501 350.893L539.042 350.132L540.021 350.921L540.387 351.579L540.569 353.747L540.305 355.192L540.307 355.745L540.453 355.708L541.477 356.434L542.132 358.562L542.593 359.189L543.059 359.57L543.559 359.815L544.082 359.905L544.752 359.717L545.541 359.16L545.907 358.086L546.121 356.529L546.611 354.371L546.132 353.948L545.49 352.593L545.018 352.31L543.579 352.433L542.885 352.236L542.305 351.554L543.698 351.012L545.018 350.921L545.572 350.708L546.723 349.758L547.327 349.549L547.858 350.498L547.691 354.986L548.297 356.434L548.143 354.81L548.797 352.441L548.297 350.921L548.773 349.581L550.116 347.611L550.762 346.405L550.919 345.664L550.968 344.017L551.177 343.267L551.57 342.88L552.341 342.892L553.203 342.64L552.274 342.447L551.703 341.197L551.626 339.786L552.193 339.109L552.735 338.713L553.142 337.672L553.397 336.226L553.489 334.573L553.157 331.967L552.344 329.577L551.31 327.692L550.32 326.618V325.858L551.432 324.813L551.011 321.848L549.929 318.53L548.05 313.966L547.78 310.437L547.518 308.738L547.065 307.414L546.458 306.357L545.732 305.458L546.371 304.454L546.96 302.894L547.154 301.223L546.611 299.904L547.453 299.149L548.456 298.973L550.193 299.204L550.611 299.023L551.773 297.795L552.32 297.619L553.796 297.795L554.601 297.334L556.106 295.412L556.769 294.984L559.272 295.79L559.752 295.84L560.646 294.984L560.861 297.187L561.415 298.47L562.221 299.25L563.214 299.904L562.929 300.679L563.364 301.089L563.672 301.864L564.07 303.421L564.621 304.948L566.381 308.333L566.998 310.696L567.497 311.13L566.949 312.532L567.762 313.899L568.835 315.02L569.609 316.315L569.517 318.193L570.272 318.916L572.524 319.291L574.197 320.414L575.16 320.484L575.922 321.611L576.457 321.511L576.68 321.681L576.942 322.421L577.248 324.526L578.416 327.314L578.598 328.579L578.83 331.329L579.105 332.496L580.008 333.738L582.141 334.383L582.983 335.648L583.243 333.481L583.539 332.712L584.824 332.877L584.986 333.055L585.863 334.197L586.334 334.333L587.518 334.271L587.149 334.494L586.843 334.842L586.717 335.301L586.867 336.127L587.222 336.156L587.987 335.648L588.431 335.04L588.816 333.626L589.285 330.725L589.578 327.758L589.601 325.199L589.326 322.795L588.717 320.285L587.416 316.095L584.955 313.299L584.937 312.569L585.12 311.606L585.477 310.788L585.993 310.437L586.753 310.262L587.584 309.736L588.375 308.876L588.999 307.698L588.54 307.109L588.135 306.282L587.806 305.266L587.401 302.73L588.741 300.687L591.129 299.396L596.703 298.441L598.661 299.954L599.701 300.142L599.611 298.441L600.271 297.778L600.635 297.69L601.038 297.795L600.921 298.193L600.752 299.204L601.591 299.539L603.009 301.03L603.866 301.248L603.339 300.746L602.958 300.155L602.683 299.405L602.465 298.441H602.751V297.795L601.894 297.032V296.394L602.285 295.676L603.009 292.161L603.417 291.531L604.865 290.231L608.599 288.839L609.927 289.487L609.625 292.804L610.424 292.476L610.982 291.568L611.934 289.344L611.619 287.93L612.385 287.315L613.517 287.517L615.614 288.565L615.288 290.109L614.584 292.354L614.451 293.892L614.915 293.858L617.925 290.69L619.15 290.976L620.158 292.22L621.017 293.573L621.791 294.215L622.185 294.95L621.701 296.587L620.517 299.204L621.046 299.25L621.645 299.086L622.213 298.709L622.634 298.118L623.124 297.728L623.67 298.164L624.202 298.847L624.67 299.204L625.323 299.975L625.73 301.776L626.063 303.86L626.512 305.458L625.41 310.337L625.512 311.13L628.508 311.898L630.435 313.132L633.537 313.591L633.955 313.932L634.404 314.732L635.107 316.407L636.073 317.181L636.396 318.23L637.062 321.212L637.202 321.548L637.537 321.681L638.302 321.565L638.68 321.648L638.964 322.022L639.382 323.293L639.494 324.132L639.404 326.966L639.569 328.123L640.573 330.725L640.566 334.991L640.702 335.648L641.062 335.933L642.283 337.73L644.256 339.803L644.032 341.16L644.239 342.966L644.743 344.404L645.425 344.647L645.95 343.386L645.914 341.531L645.559 339.695L645.139 338.486L644.802 338.102L643.935 337.433L643.688 337.036L643.506 335.888L643.629 335.235L643.996 334.197V330.725L644.215 330.327L645.139 329.333L645.384 327.443L645.256 325.817L643.965 320.663L643.889 318.854L643.113 318.892L642.29 317.073L641.93 316.619L641.749 316.19L641.532 316.095L641.324 316.315L640.833 317.489L640.267 317.106L638.974 315.445L638.547 314.695L638.94 313.245L638.782 311.869L638.251 310.842L637.046 310.037L636.202 307.916L635.67 306.934V306.231H635.981V305.458L634.845 302.588L634.323 297.791L634.547 292.959L635.67 289.979L636.226 289.731L639.976 289.979L640.545 290.32L641.552 291.211L642.129 291.392L643.914 291.211L644.566 291.392L644.453 291.976L644.256 292.161L645.822 293.085L649.945 291.993L651.729 292.804L652.072 293.598L652.506 295.63L652.868 296.394L653.331 296.629L655.021 296.394L655.752 296.83L657.093 298.768L657.873 299.204L658.433 299.702L660.072 302.287L660.599 303.421L661.273 306.382L661.751 307.757L663.092 308.768L663.807 309.795L664.881 311.898L666.301 316.157L666.903 317.489L667.072 315.541L666.721 314.016L666.174 312.64L665.735 311.13L666.548 311.18L667.505 310.917L668.439 310.412L669.184 309.736L665.347 309.941L664.334 309.093L670.985 308.976L671.473 309.469L671.752 310.638L672.351 312.532H672.607L672.832 311.806L672.881 311.047L672.725 310.341L672.351 309.736V309.093L672.888 308.626L673.362 307.857L673.619 306.804L673.493 305.458L674.158 304.701L674.425 304.195L674.636 303.421L674.663 302.831L674.566 301.236L674.636 299.904L675.158 298.495L676.22 297.132L677.454 296.092L678.497 295.689L678.949 295.135L679.189 293.926L679.228 292.716L679.056 292.161L678.597 291.85L678.803 291.114L679.653 289.663L680.792 288.468L683.352 287.492L683.791 285.681L684.893 286.721L689.097 287.155L690.231 288.001L691.046 289.79L692.663 294.215V295.689H692.091V296.394L692.581 296.834L693.105 297.061L693.627 296.96L694.117 296.394L693.84 296.31L693.231 295.689L694.721 294.555L699.986 293.081L701.535 293.573L700.862 293.548L700.198 293.774L699.564 294.241L698.965 294.984L699.499 295.349L700.249 296.839L700.547 296.709L701.394 294.648L701.892 293.816L702.392 293.573L703.571 294.723L704.435 296.553L705.36 298.114L706.724 298.441V297.795L705.387 296.822L704.72 296.083L704.27 295.336L703.943 293.984L703.931 292.968L703.765 292.161L702.989 291.392L704.892 290.008L707.744 289.058L709.463 287.959L710.433 287.93L706.734 290.118L705.581 291.392L709.247 289.928L710.118 289.979L711.135 290.913L712.761 293.409L713.856 293.573V292.804L712.382 291.266L711.637 290.105L711.315 288.957L711.479 287.378L711.912 286.043L712.543 285.015L713.285 284.332L713.387 283.219L713.754 282.409L714.035 281.409L714.142 280.434L714.036 278.847L713.757 277.976L713.353 277.266L712.484 275.351L712.247 275.127L711.989 275.051L711.769 274.666L711.576 272.278L710.417 271.338L710.132 270.503L710.433 268.655L710.295 268.617L709.861 268.655L710.433 267.17L710.137 266.873L709.933 266.428L709.55 265.099H710.433V264.385L709.708 263.37L708.907 260.04L707.724 258.636L708.101 257.192L708.963 255.918L709.861 255.757L710.106 256.374L710.247 257.818L710.718 257.959L711.315 255.492L711.861 255.04L713.035 254.533L713.713 254.572L713.727 255.399L713.514 256.553L713.657 257.529L714.016 258.253L714.453 258.61L714.142 256.532L714.802 256.272L716.035 255.211L716.427 255.04L717.043 255.582L718.004 257.052L718.734 257.18L717.876 257.959L718.596 258.61L719.373 258.457L720.444 257.959V257.18L720.907 256.438L721.335 255.433L721.825 254.776L722.193 256.242L722.677 256.421L723.126 255.816L723.468 253.838L723.829 253.356L724.754 252.891H725.912L728.294 253.932L728.771 253.667L730.713 252.814L734.233 256.37L736.218 257.18L735.655 258.138L735.002 258.568L734.458 259.215L734.196 260.819H734.767V261.47L733.912 262.248L734.136 262.541L734.767 263.676L734.277 264.615L734.845 264.767L736.349 264.385L738.025 264.772L738.76 264.385L738.503 266.525H742.495L743.25 266.805L743.93 267.527L744.318 268.468L744.233 270.079L745.064 272.926L743.319 276.218L742.335 277.554L741.07 278.602L741.641 280.08L742.141 279.514L742.651 279.835L743.229 280.451L744.605 281.059L744.753 281.793L744.233 284.332L744.882 284.897L747.943 285.04L749.416 284.358L749.911 284.497L750.539 285.681L750.719 285.672L751.369 285.04L751.462 286.165L751.727 287.075L752.146 287.702L753.324 288.25L754.574 289.663L755.926 290.736L756.743 292.161L757.569 293.043L758.555 292.161L758.219 291.997L757.957 291.392L758.691 290.849L759.237 289.714L759.576 288.085L759.697 286.064L759.345 282.511L759.62 281.507L760.838 280.789H765.984L768.921 279.75L769.15 278.948L769.191 277.989L769.422 277.182L772.382 275.237L772.847 273.993L773.14 272.401L773.837 271.13L775.466 269.431L776.582 268.629L780.164 267.951L781.15 268.235L782.757 269.622L783.742 270.079L791.704 268.714Z" stroke="black"/>
<path d="M658.477 532.868L657.875 532.745L657.565 532.845L656.853 533.305L655.576 534.581L655.467 535.359L657.29 534.716L657.739 534.65L658.087 534.926L658.154 535.474L657.943 535.972L657.649 536.363L657.905 536.248L658.562 535.306L658.817 534.248L658.791 533.454L658.477 532.868Z" stroke="black"/>
<path d="M647.708 249.924L647.266 250.219L647.363 251.935L648.089 253.151L648.899 252.558L649.072 251.589L648.751 251.346L647.708 249.924Z" stroke="black"/>
<path d="M553.548 558.496L553.754 558.029L553.674 557.869L552.681 557.941L551.846 558.374L551.722 559.419L552.034 560.509L552.305 561.23L552.507 562.057L552.81 562.406L553.223 561.81L553.619 560.922L553.937 559.909L553.713 558.838L553.548 558.496Z" stroke="black"/>
<path d="M632.19 307.239L631.811 306.579L631.007 305.667L630.762 306.052L631.172 307.51L631.415 308.763L631.507 309.561L631.762 310.179L632.124 310.567L632.62 310.738L633.172 310.367V309.177L632.563 307.811L632.19 307.239Z" stroke="black"/>
<path d="M453.526 510.142C456.431 510.142 459.218 508.988 461.272 506.934C463.326 504.88 464.48 502.093 464.48 499.188C464.48 496.283 463.326 493.497 461.272 491.443C459.218 489.389 456.431 488.235 453.526 488.235C450.621 488.235 447.835 489.389 445.781 491.443C443.727 493.497 442.573 496.283 442.573 499.188C442.573 502.093 443.727 504.88 445.781 506.934C447.835 508.988 450.621 510.142 453.526 510.142Z" fill="#FF0000" stroke="#FF0000"/>
<path d="M313.725 701.037C316.63 701.037 319.416 699.883 321.47 697.829C323.524 695.775 324.679 692.988 324.679 690.083C324.679 687.178 323.524 684.392 321.47 682.338C319.416 680.284 316.63 679.13 313.725 679.13C310.82 679.13 308.034 680.284 305.98 682.338C303.925 684.392 302.771 687.178 302.771 690.083C302.771 692.988 303.925 695.775 305.98 697.829C308.034 699.883 310.82 701.037 313.725 701.037Z" fill="#FF0000" stroke="#FF0000"/>
<path d="M313.725 690.083V94.64H898.85V690.083H313.725Z" stroke="black" stroke-width="0.8"/>
<path d="M480.06 496.743C480.206 496.743 480.345 496.685 480.448 496.582C480.55 496.48 480.608 496.34 480.608 496.195C480.608 496.05 480.55 495.911 480.448 495.808C480.345 495.705 480.206 495.647 480.06 495.647C479.915 495.647 479.776 495.705 479.673 495.808C479.57 495.911 479.513 496.05 479.513 496.195C479.513 496.34 479.57 496.48 479.673 496.582C479.776 496.685 479.915 496.743 480.06 496.743Z" fill="white" stroke="#FF0000"/>
<path d="M489.478 495.978C489.624 495.978 489.763 495.921 489.866 495.818C489.968 495.715 490.026 495.576 490.026 495.431C490.026 495.285 489.968 495.146 489.866 495.043C489.763 494.941 489.624 494.883 489.478 494.883C489.333 494.883 489.194 494.941 489.091 495.043C488.988 495.146 488.931 495.285 488.931 495.431C488.931 495.576 488.988 495.715 489.091 495.818C489.194 495.921 489.333 495.978 489.478 495.978Z" fill="white" stroke="#FF0000"/>
<path d="M483.852 498.256C483.998 498.256 484.137 498.198 484.24 498.095C484.342 497.992 484.4 497.853 484.4 497.708C484.4 497.563 484.342 497.423 484.24 497.321C484.137 497.218 483.998 497.16 483.852 497.16C483.707 497.16 483.568 497.218 483.465 497.321C483.362 497.423 483.305 497.563 483.305 497.708C483.305 497.853 483.362 497.992 483.465 498.095C483.568 498.198 483.707 498.256 483.852 498.256Z" fill="white" stroke="#FF0000"/>
<path d="M481.939 501.715C482.084 501.715 482.224 501.657 482.326 501.554C482.429 501.451 482.487 501.312 482.487 501.167C482.487 501.022 482.429 500.882 482.326 500.78C482.224 500.677 482.084 500.619 481.939 500.619C481.794 500.619 481.655 500.677 481.552 500.78C481.449 500.882 481.392 501.022 481.392 501.167C481.392 501.312 481.449 501.451 481.552 501.554C481.655 501.657 481.794 501.715 481.939 501.715Z" fill="white" stroke="#FF0000"/>
<path d="M488.455 496.723C488.601 496.723 488.74 496.665 488.843 496.563C488.945 496.46 489.003 496.321 489.003 496.175C489.003 496.03 488.945 495.891 488.843 495.788C488.74 495.685 488.601 495.628 488.455 495.628C488.31 495.628 488.171 495.685 488.068 495.788C487.965 495.891 487.908 496.03 487.908 496.175C487.908 496.321 487.965 496.46 488.068 496.563C488.171 496.665 488.31 496.723 488.455 496.723Z" fill="white" stroke="#FF0000"/>
<path d="M489.828 493.503C489.974 493.503 490.113 493.445 490.216 493.343C490.318 493.24 490.376 493.101 490.376 492.955C490.376 492.81 490.318 492.671 490.216 492.568C490.113 492.465 489.974 492.408 489.828 492.408C489.683 492.408 489.544 492.465 489.441 492.568C489.338 492.671 489.281 492.81 489.281 492.955C489.281 493.101 489.338 493.24 489.441 493.343C489.544 493.445 489.683 493.503 489.828 493.503Z" fill="white" stroke="#FF0000"/>
<path d="M488.121 483.96C488.266 483.96 488.406 483.902 488.508 483.799C488.611 483.697 488.669 483.557 488.669 483.412C488.669 483.267 488.611 483.127 488.508 483.025C488.406 482.922 488.266 482.864 488.121 482.864C487.976 482.864 487.836 482.922 487.734 483.025C487.631 483.127 487.573 483.267 487.573 483.412C487.573 483.557 487.631 483.697 487.734 483.799C487.836 483.902 487.976 483.96 488.121 483.96Z" fill="white" stroke="#FF0000"/>
<path d="M492.381 490.925C492.527 490.925 492.666 490.867 492.769 490.765C492.871 490.662 492.929 490.523 492.929 490.377C492.929 490.232 492.871 490.093 492.769 489.99C492.666 489.887 492.527 489.83 492.381 489.83C492.236 489.83 492.097 489.887 491.994 489.99C491.891 490.093 491.834 490.232 491.834 490.377C491.834 490.523 491.891 490.662 491.994 490.765C492.097 490.867 492.236 490.925 492.381 490.925Z" fill="white" stroke="#FF0000"/>
<path d="M485.915 492.733C486.06 492.733 486.2 492.676 486.303 492.573C486.405 492.47 486.463 492.331 486.463 492.186C486.463 492.04 486.405 491.901 486.303 491.798C486.2 491.696 486.06 491.638 485.915 491.638C485.77 491.638 485.631 491.696 485.528 491.798C485.425 491.901 485.368 492.04 485.368 492.186C485.368 492.331 485.425 492.47 485.528 492.573C485.631 492.676 485.77 492.733 485.915 492.733Z" fill="white" stroke="#FF0000"/>
<path d="M486.951 497.936C487.097 497.936 487.236 497.878 487.339 497.775C487.441 497.672 487.499 497.533 487.499 497.388C487.499 497.243 487.441 497.103 487.339 497.001C487.236 496.898 487.097 496.84 486.951 496.84C486.806 496.84 486.667 496.898 486.564 497.001C486.461 497.103 486.404 497.243 486.404 497.388C486.404 497.533 486.461 497.672 486.564 497.775C486.667 497.878 486.806 497.936 486.951 497.936Z" fill="white" stroke="#FF0000"/>
<path d="M481.24 492.327C481.385 492.327 481.525 492.269 481.627 492.166C481.73 492.063 481.788 491.924 481.788 491.779C481.788 491.634 481.73 491.494 481.627 491.392C481.525 491.289 481.385 491.231 481.24 491.231C481.095 491.231 480.956 491.289 480.853 491.392C480.75 491.494 480.692 491.634 480.692 491.779C480.692 491.924 480.75 492.063 480.853 492.166C480.956 492.269 481.095 492.327 481.24 492.327Z" fill="white" stroke="#FF0000"/>
<path d="M482.482 500.963C482.627 500.963 482.767 500.905 482.869 500.802C482.972 500.7 483.03 500.56 483.03 500.415C483.03 500.27 482.972 500.13 482.869 500.028C482.767 499.925 482.627 499.867 482.482 499.867C482.337 499.867 482.198 499.925 482.095 500.028C481.992 500.13 481.935 500.27 481.935 500.415C481.935 500.56 481.992 500.7 482.095 500.802C482.198 500.905 482.337 500.963 482.482 500.963Z" fill="white" stroke="#FF0000"/>
<path d="M482.227 499.768C482.372 499.768 482.512 499.711 482.614 499.608C482.717 499.505 482.775 499.366 482.775 499.221C482.775 499.075 482.717 498.936 482.614 498.833C482.512 498.731 482.372 498.673 482.227 498.673C482.082 498.673 481.942 498.731 481.84 498.833C481.737 498.936 481.679 499.075 481.679 499.221C481.679 499.366 481.737 499.505 481.84 499.608C481.942 499.711 482.082 499.768 482.227 499.768Z" fill="white" stroke="#FF0000"/>
<path d="M484.22 493.144C484.365 493.144 484.504 493.087 484.607 492.984C484.71 492.881 484.767 492.742 484.767 492.597C484.767 492.451 484.71 492.312 484.607 492.209C484.504 492.107 484.365 492.049 484.22 492.049C484.075 492.049 483.935 492.107 483.833 492.209C483.73 492.312 483.672 492.451 483.672 492.597C483.672 492.742 483.73 492.881 483.833 492.984C483.935 493.087 484.075 493.144 484.22 493.144Z" fill="white" stroke="#FF0000"/>
<path d="M484.371 496.128C484.516 496.128 484.655 496.07 484.758 495.967C484.861 495.865 484.918 495.725 484.918 495.58C484.918 495.435 484.861 495.295 484.758 495.193C484.655 495.09 484.516 495.032 484.371 495.032C484.225 495.032 484.086 495.09 483.983 495.193C483.881 495.295 483.823 495.435 483.823 495.58C483.823 495.725 483.881 495.865 483.983 495.967C484.086 496.07 484.225 496.128 484.371 496.128Z" fill="white" stroke="#FF0000"/>
<path d="M493.872 490.424C494.017 490.424 494.156 490.367 494.259 490.264C494.362 490.161 494.419 490.022 494.419 489.877C494.419 489.731 494.362 489.592 494.259 489.489C494.156 489.387 494.017 489.329 493.872 489.329C493.727 489.329 493.587 489.387 493.484 489.489C493.382 489.592 493.324 489.731 493.324 489.877C493.324 490.022 493.382 490.161 493.484 490.264C493.587 490.367 493.727 490.424 493.872 490.424Z" fill="white" stroke="#FF0000"/>
<path d="M482.455 492.887C482.601 492.887 482.74 492.83 482.843 492.727C482.945 492.624 483.003 492.485 483.003 492.34C483.003 492.194 482.945 492.055 482.843 491.952C482.74 491.85 482.601 491.792 482.455 491.792C482.31 491.792 482.171 491.85 482.068 491.952C481.965 492.055 481.908 492.194 481.908 492.34C481.908 492.485 481.965 492.624 482.068 492.727C482.171 492.83 482.31 492.887 482.455 492.887Z" fill="white" stroke="#FF0000"/>
<path d="M484.132 454.723C484.278 454.723 484.417 454.665 484.52 454.563C484.622 454.46 484.68 454.321 484.68 454.175C484.68 454.03 484.622 453.891 484.52 453.788C484.417 453.685 484.278 453.628 484.132 453.628C483.987 453.628 483.848 453.685 483.745 453.788C483.642 453.891 483.585 454.03 483.585 454.175C483.585 454.321 483.642 454.46 483.745 454.563C483.848 454.665 483.987 454.723 484.132 454.723Z" fill="white" stroke="#FF0000"/>
<path d="M505.896 443.478C506.042 443.478 506.181 443.421 506.284 443.318C506.386 443.215 506.444 443.076 506.444 442.931C506.444 442.786 506.386 442.646 506.284 442.544C506.181 442.441 506.042 442.383 505.896 442.383C505.751 442.383 505.612 442.441 505.509 442.544C505.406 442.646 505.349 442.786 505.349 442.931C505.349 443.076 505.406 443.215 505.509 443.318C505.612 443.421 505.751 443.478 505.896 443.478Z" fill="white" stroke="#FF0000"/>
<path d="M497.927 440.065C498.072 440.065 498.211 440.008 498.314 439.905C498.417 439.802 498.474 439.663 498.474 439.518C498.474 439.372 498.417 439.233 498.314 439.13C498.211 439.028 498.072 438.97 497.927 438.97C497.781 438.97 497.642 439.028 497.539 439.13C497.437 439.233 497.379 439.372 497.379 439.518C497.379 439.663 497.437 439.802 497.539 439.905C497.642 440.008 497.781 440.065 497.927 440.065Z" fill="white" stroke="#FF0000"/>
<path d="M478.437 476.177C478.582 476.177 478.721 476.119 478.824 476.016C478.927 475.914 478.984 475.774 478.984 475.629C478.984 475.484 478.927 475.344 478.824 475.242C478.721 475.139 478.582 475.081 478.437 475.081C478.291 475.081 478.152 475.139 478.049 475.242C477.947 475.344 477.889 475.484 477.889 475.629C477.889 475.774 477.947 475.914 478.049 476.016C478.152 476.119 478.291 476.177 478.437 476.177Z" fill="white" stroke="#FF0000"/>
<path d="M430.053 424.486C430.199 424.486 430.338 424.428 430.441 424.326C430.543 424.223 430.601 424.084 430.601 423.938C430.601 423.793 430.543 423.654 430.441 423.551C430.338 423.448 430.199 423.391 430.053 423.391C429.908 423.391 429.769 423.448 429.666 423.551C429.563 423.654 429.506 423.793 429.506 423.938C429.506 424.084 429.563 424.223 429.666 424.326C429.769 424.428 429.908 424.486 430.053 424.486Z" fill="white" stroke="#FF0000"/>
<path d="M409.298 419.871C409.443 419.871 409.582 419.814 409.685 419.711C409.788 419.608 409.845 419.469 409.845 419.324C409.845 419.178 409.788 419.039 409.685 418.936C409.582 418.834 409.443 418.776 409.298 418.776C409.152 418.776 409.013 418.834 408.91 418.936C408.808 419.039 408.75 419.178 408.75 419.324C408.75 419.469 408.808 419.608 408.91 419.711C409.013 419.814 409.152 419.871 409.298 419.871Z" fill="white" stroke="#FF0000"/>
<path d="M450.443 402.482C450.589 402.482 450.728 402.424 450.831 402.322C450.933 402.219 450.991 402.08 450.991 401.934C450.991 401.789 450.933 401.65 450.831 401.547C450.728 401.444 450.589 401.387 450.443 401.387C450.298 401.387 450.159 401.444 450.056 401.547C449.954 401.65 449.896 401.789 449.896 401.934C449.896 402.08 449.954 402.219 450.056 402.322C450.159 402.424 450.298 402.482 450.443 402.482Z" fill="white" stroke="#FF0000"/>
<path d="M497.191 467.248C497.336 467.248 497.475 467.19 497.578 467.088C497.681 466.985 497.738 466.846 497.738 466.7C497.738 466.555 497.681 466.416 497.578 466.313C497.475 466.21 497.336 466.153 497.191 466.153C497.046 466.153 496.906 466.21 496.804 466.313C496.701 466.416 496.643 466.555 496.643 466.7C496.643 466.846 496.701 466.985 496.804 467.088C496.906 467.19 497.046 467.248 497.191 467.248Z" fill="white" stroke="#FF0000"/>
<path d="M528.089 439.252C528.234 439.252 528.374 439.194 528.476 439.091C528.579 438.988 528.637 438.849 528.637 438.704C528.637 438.559 528.579 438.419 528.476 438.317C528.374 438.214 528.234 438.156 528.089 438.156C527.944 438.156 527.804 438.214 527.702 438.317C527.599 438.419 527.541 438.559 527.541 438.704C527.541 438.849 527.599 438.988 527.702 439.091C527.804 439.194 527.944 439.252 528.089 439.252Z" fill="white" stroke="#FF0000"/>
<path d="M428.551 292.993C428.696 292.993 428.835 292.935 428.938 292.832C429.041 292.729 429.099 292.59 429.099 292.445C429.099 292.3 429.041 292.16 428.938 292.058C428.835 291.955 428.696 291.897 428.551 291.897C428.406 291.897 428.266 291.955 428.164 292.058C428.061 292.16 428.003 292.3 428.003 292.445C428.003 292.59 428.061 292.729 428.164 292.832C428.266 292.935 428.406 292.993 428.551 292.993Z" fill="white" stroke="#FF0000"/>
<path d="M417.494 303.72C417.639 303.72 417.778 303.663 417.881 303.56C417.984 303.457 418.041 303.318 418.041 303.172C418.041 303.027 417.984 302.888 417.881 302.785C417.778 302.682 417.639 302.625 417.494 302.625C417.348 302.625 417.209 302.682 417.106 302.785C417.004 302.888 416.946 303.027 416.946 303.172C416.946 303.318 417.004 303.457 417.106 303.56C417.209 303.663 417.348 303.72 417.494 303.72Z" fill="white" stroke="#FF0000"/>
<path d="M397.818 350.137C397.964 350.137 398.103 350.079 398.206 349.977C398.308 349.874 398.366 349.735 398.366 349.589C398.366 349.444 398.308 349.305 398.206 349.202C398.103 349.099 397.964 349.042 397.818 349.042C397.673 349.042 397.534 349.099 397.431 349.202C397.328 349.305 397.271 349.444 397.271 349.589C397.271 349.735 397.328 349.874 397.431 349.977C397.534 350.079 397.673 350.137 397.818 350.137Z" fill="white" stroke="#FF0000"/>
<path d="M417.232 295.815C417.377 295.815 417.517 295.757 417.619 295.654C417.722 295.552 417.78 295.412 417.78 295.267C417.78 295.122 417.722 294.983 417.619 294.88C417.517 294.777 417.377 294.72 417.232 294.72C417.087 294.72 416.948 294.777 416.845 294.88C416.742 294.983 416.684 295.122 416.684 295.267C416.684 295.412 416.742 295.552 416.845 295.654C416.948 295.757 417.087 295.815 417.232 295.815Z" fill="white" stroke="#FF0000"/>
<path d="M434.166 301.459C434.311 301.459 434.45 301.401 434.553 301.298C434.656 301.196 434.714 301.056 434.714 300.911C434.714 300.766 434.656 300.626 434.553 300.524C434.45 300.421 434.311 300.363 434.166 300.363C434.021 300.363 433.881 300.421 433.779 300.524C433.676 300.626 433.618 300.766 433.618 300.911C433.618 301.056 433.676 301.196 433.779 301.298C433.881 301.401 434.021 301.459 434.166 301.459Z" fill="white" stroke="#FF0000"/>
<path d="M418.454 321.229C418.599 321.229 418.739 321.171 418.841 321.069C418.944 320.966 419.002 320.827 419.002 320.682C419.002 320.536 418.944 320.397 418.841 320.294C418.739 320.192 418.599 320.134 418.454 320.134C418.309 320.134 418.17 320.192 418.067 320.294C417.964 320.397 417.906 320.536 417.906 320.682C417.906 320.827 417.964 320.966 418.067 321.069C418.17 321.171 418.309 321.229 418.454 321.229Z" fill="white" stroke="#FF0000"/>
<path d="M403.775 346.804C403.92 346.804 404.059 346.746 404.162 346.643C404.265 346.541 404.322 346.401 404.322 346.256C404.322 346.111 404.265 345.971 404.162 345.869C404.059 345.766 403.92 345.708 403.775 345.708C403.63 345.708 403.49 345.766 403.387 345.869C403.285 345.971 403.227 346.111 403.227 346.256C403.227 346.401 403.285 346.541 403.387 346.643C403.49 346.746 403.63 346.804 403.775 346.804Z" fill="white" stroke="#FF0000"/>
<path d="M589.682 320.142C589.828 320.142 589.967 320.084 590.07 319.981C590.172 319.879 590.23 319.739 590.23 319.594C590.23 319.449 590.172 319.31 590.07 319.207C589.967 319.104 589.828 319.046 589.682 319.046C589.537 319.046 589.398 319.104 589.295 319.207C589.192 319.31 589.134 319.449 589.134 319.594C589.134 319.739 589.192 319.879 589.295 319.981C589.398 320.084 589.537 320.142 589.682 320.142Z" fill="white" stroke="#FF0000"/>
<path d="M579.264 334.941C579.41 334.941 579.549 334.884 579.652 334.781C579.754 334.678 579.812 334.539 579.812 334.394C579.812 334.248 579.754 334.109 579.652 334.006C579.549 333.904 579.41 333.846 579.264 333.846C579.119 333.846 578.98 333.904 578.877 334.006C578.774 334.109 578.717 334.248 578.717 334.394C578.717 334.539 578.774 334.678 578.877 334.781C578.98 334.884 579.119 334.941 579.264 334.941Z" fill="white" stroke="#FF0000"/>
<path d="M551.098 326.743C551.243 326.743 551.383 326.686 551.485 326.583C551.588 326.48 551.646 326.341 551.646 326.196C551.646 326.051 551.588 325.911 551.485 325.808C551.383 325.706 551.243 325.648 551.098 325.648C550.953 325.648 550.813 325.706 550.711 325.808C550.608 325.911 550.55 326.051 550.55 326.196C550.55 326.341 550.608 326.48 550.711 326.583C550.813 326.686 550.953 326.743 551.098 326.743Z" fill="white" stroke="#FF0000"/>
<path d="M601.237 303.675C601.382 303.675 601.521 303.618 601.624 303.515C601.727 303.412 601.784 303.273 601.784 303.128C601.784 302.982 601.727 302.843 601.624 302.74C601.521 302.638 601.382 302.58 601.237 302.58C601.092 302.58 600.952 302.638 600.85 302.74C600.747 302.843 600.689 302.982 600.689 303.128C600.689 303.273 600.747 303.412 600.85 303.515C600.952 303.618 601.092 303.675 601.237 303.675Z" fill="white" stroke="#FF0000"/>
<path d="M552.647 343.747C552.792 343.747 552.932 343.689 553.034 343.587C553.137 343.484 553.195 343.344 553.195 343.199C553.195 343.054 553.137 342.915 553.034 342.812C552.932 342.709 552.792 342.652 552.647 342.652C552.502 342.652 552.362 342.709 552.26 342.812C552.157 342.915 552.099 343.054 552.099 343.199C552.099 343.344 552.157 343.484 552.26 343.587C552.362 343.689 552.502 343.747 552.647 343.747Z" fill="white" stroke="#FF0000"/>
<path d="M525.062 369.937C525.207 369.937 525.347 369.88 525.449 369.777C525.552 369.674 525.61 369.535 525.61 369.39C525.61 369.244 525.552 369.105 525.449 369.002C525.347 368.9 525.207 368.842 525.062 368.842C524.917 368.842 524.778 368.9 524.675 369.002C524.572 369.105 524.514 369.244 524.514 369.39C524.514 369.535 524.572 369.674 524.675 369.777C524.778 369.88 524.917 369.937 525.062 369.937Z" fill="white" stroke="#FF0000"/>
<path d="M587.428 354.458C587.573 354.458 587.712 354.4 587.815 354.297C587.918 354.195 587.975 354.055 587.975 353.91C587.975 353.765 587.918 353.625 587.815 353.523C587.712 353.42 587.573 353.362 587.428 353.362C587.282 353.362 587.143 353.42 587.04 353.523C586.938 353.625 586.88 353.765 586.88 353.91C586.88 354.055 586.938 354.195 587.04 354.297C587.143 354.4 587.282 354.458 587.428 354.458Z" fill="white" stroke="#FF0000"/>
<path d="M625.596 312.39C625.741 312.39 625.881 312.332 625.983 312.229C626.086 312.127 626.144 311.987 626.144 311.842C626.144 311.697 626.086 311.558 625.983 311.455C625.881 311.352 625.741 311.294 625.596 311.294C625.451 311.294 625.312 311.352 625.209 311.455C625.106 311.558 625.048 311.697 625.048 311.842C625.048 311.987 625.106 312.127 625.209 312.229C625.312 312.332 625.451 312.39 625.596 312.39Z" fill="white" stroke="#FF0000"/>
<path d="M643.146 340.768C643.292 340.768 643.431 340.71 643.534 340.607C643.636 340.505 643.694 340.365 643.694 340.22C643.694 340.075 643.636 339.935 643.534 339.833C643.431 339.73 643.292 339.672 643.146 339.672C643.001 339.672 642.862 339.73 642.759 339.833C642.656 339.935 642.599 340.075 642.599 340.22C642.599 340.365 642.656 340.505 642.759 340.607C642.862 340.71 643.001 340.768 643.146 340.768Z" fill="white" stroke="#FF0000"/>
<path d="M640.89 314.286C641.036 314.286 641.175 314.229 641.278 314.126C641.38 314.023 641.438 313.884 641.438 313.739C641.438 313.593 641.38 313.454 641.278 313.351C641.175 313.249 641.036 313.191 640.89 313.191C640.745 313.191 640.606 313.249 640.503 313.351C640.4 313.454 640.343 313.593 640.343 313.739C640.343 313.884 640.4 314.023 640.503 314.126C640.606 314.229 640.745 314.286 640.89 314.286Z" fill="white" stroke="#FF0000"/>
<path d="M676.51 320.434C676.655 320.434 676.794 320.376 676.897 320.274C677 320.171 677.058 320.032 677.058 319.886C677.058 319.741 677 319.602 676.897 319.499C676.794 319.396 676.655 319.339 676.51 319.339C676.365 319.339 676.225 319.396 676.123 319.499C676.02 319.602 675.962 319.741 675.962 319.886C675.962 320.032 676.02 320.171 676.123 320.274C676.225 320.376 676.365 320.434 676.51 320.434Z" fill="white" stroke="#FF0000"/>
<path d="M632.488 311.233C632.633 311.233 632.773 311.175 632.875 311.072C632.978 310.969 633.036 310.83 633.036 310.685C633.036 310.54 632.978 310.4 632.875 310.298C632.773 310.195 632.633 310.137 632.488 310.137C632.343 310.137 632.203 310.195 632.101 310.298C631.998 310.4 631.94 310.54 631.94 310.685C631.94 310.83 631.998 310.969 632.101 311.072C632.203 311.175 632.343 311.233 632.488 311.233Z" fill="white" stroke="#FF0000"/>
<path d="M644.262 352.491C644.407 352.491 644.546 352.433 644.649 352.331C644.752 352.228 644.809 352.089 644.809 351.943C644.809 351.798 644.752 351.659 644.649 351.556C644.546 351.453 644.407 351.396 644.262 351.396C644.116 351.396 643.977 351.453 643.874 351.556C643.772 351.659 643.714 351.798 643.714 351.943C643.714 352.089 643.772 352.228 643.874 352.331C643.977 352.433 644.116 352.491 644.262 352.491Z" fill="white" stroke="#FF0000"/>
<path d="M620.965 301.81C621.11 301.81 621.25 301.753 621.352 301.65C621.455 301.547 621.513 301.408 621.513 301.263C621.513 301.117 621.455 300.978 621.352 300.875C621.25 300.773 621.11 300.715 620.965 300.715C620.82 300.715 620.68 300.773 620.578 300.875C620.475 300.978 620.417 301.117 620.417 301.263C620.417 301.408 620.475 301.547 620.578 301.65C620.68 301.753 620.82 301.81 620.965 301.81Z" fill="white" stroke="#FF0000"/>
<path d="M610.182 292.902C610.327 292.902 610.466 292.844 610.569 292.741C610.672 292.639 610.729 292.499 610.729 292.354C610.729 292.209 610.672 292.069 610.569 291.967C610.466 291.864 610.327 291.806 610.182 291.806C610.036 291.806 609.897 291.864 609.794 291.967C609.692 292.069 609.634 292.209 609.634 292.354C609.634 292.499 609.692 292.639 609.794 292.741C609.897 292.844 610.036 292.902 610.182 292.902Z" fill="white" stroke="#FF0000"/>
<path d="M644.002 341.757C644.148 341.757 644.287 341.699 644.39 341.596C644.492 341.494 644.55 341.354 644.55 341.209C644.55 341.064 644.492 340.924 644.39 340.822C644.287 340.719 644.148 340.661 644.002 340.661C643.857 340.661 643.718 340.719 643.615 340.822C643.512 340.924 643.455 341.064 643.455 341.209C643.455 341.354 643.512 341.494 643.615 341.596C643.718 341.699 643.857 341.757 644.002 341.757Z" fill="white" stroke="#FF0000"/>
<path d="M647.53 253.075C647.676 253.075 647.815 253.017 647.918 252.914C648.02 252.812 648.078 252.672 648.078 252.527C648.078 252.382 648.02 252.242 647.918 252.14C647.815 252.037 647.676 251.979 647.53 251.979C647.385 251.979 647.246 252.037 647.143 252.14C647.04 252.242 646.983 252.382 646.983 252.527C646.983 252.672 647.04 252.812 647.143 252.914C647.246 253.017 647.385 253.075 647.53 253.075Z" fill="white" stroke="#FF0000"/>
<path d="M675.427 303.975C675.572 303.975 675.711 303.918 675.814 303.815C675.917 303.712 675.974 303.573 675.974 303.428C675.974 303.283 675.917 303.143 675.814 303.041C675.711 302.938 675.572 302.88 675.427 302.88C675.282 302.88 675.142 302.938 675.04 303.041C674.937 303.143 674.879 303.283 674.879 303.428C674.879 303.573 674.937 303.712 675.04 303.815C675.142 303.918 675.282 303.975 675.427 303.975Z" fill="white" stroke="#FF0000"/>
<path d="M759.833 288.679C759.979 288.679 760.118 288.622 760.221 288.519C760.323 288.416 760.381 288.277 760.381 288.132C760.381 287.986 760.323 287.847 760.221 287.744C760.118 287.642 759.979 287.584 759.833 287.584C759.688 287.584 759.549 287.642 759.446 287.744C759.343 287.847 759.286 287.986 759.286 288.132C759.286 288.277 759.343 288.416 759.446 288.519C759.549 288.622 759.688 288.679 759.833 288.679Z" fill="white" stroke="#FF0000"/>
<path d="M674.822 337.469C674.968 337.469 675.107 337.411 675.21 337.308C675.312 337.206 675.37 337.066 675.37 336.921C675.37 336.776 675.312 336.637 675.21 336.534C675.107 336.431 674.968 336.373 674.822 336.373C674.677 336.373 674.538 336.431 674.435 336.534C674.332 336.637 674.275 336.776 674.275 336.921C674.275 337.066 674.332 337.206 674.435 337.308C674.538 337.411 674.677 337.469 674.822 337.469Z" fill="white" stroke="#FF0000"/>
<path d="M636.314 335.347C636.46 335.347 636.599 335.29 636.702 335.187C636.804 335.084 636.862 334.945 636.862 334.8C636.862 334.654 636.804 334.515 636.702 334.412C636.599 334.31 636.46 334.252 636.314 334.252C636.169 334.252 636.03 334.31 635.927 334.412C635.824 334.515 635.767 334.654 635.767 334.8C635.767 334.945 635.824 335.084 635.927 335.187C636.03 335.29 636.169 335.347 636.314 335.347Z" fill="white" stroke="#FF0000"/>
<path d="M813.682 402.045C813.827 402.045 813.966 401.988 814.069 401.885C814.172 401.782 814.229 401.643 814.229 401.498C814.229 401.352 814.172 401.213 814.069 401.11C813.966 401.008 813.827 400.95 813.682 400.95C813.536 400.95 813.397 401.008 813.294 401.11C813.192 401.213 813.134 401.352 813.134 401.498C813.134 401.643 813.192 401.782 813.294 401.885C813.397 401.988 813.536 402.045 813.682 402.045Z" fill="white" stroke="#FF0000"/>
<path d="M814.865 416.61C815.01 416.61 815.149 416.553 815.252 416.45C815.355 416.347 815.412 416.208 815.412 416.063C815.412 415.918 815.355 415.778 815.252 415.676C815.149 415.573 815.01 415.515 814.865 415.515C814.72 415.515 814.58 415.573 814.478 415.676C814.375 415.778 814.317 415.918 814.317 416.063C814.317 416.208 814.375 416.347 814.478 416.45C814.58 416.553 814.72 416.61 814.865 416.61Z" fill="white" stroke="#FF0000"/>
<path d="M828.262 395.052C828.407 395.052 828.547 394.994 828.649 394.891C828.752 394.788 828.81 394.649 828.81 394.504C828.81 394.359 828.752 394.219 828.649 394.117C828.547 394.014 828.407 393.956 828.262 393.956C828.117 393.956 827.977 394.014 827.875 394.117C827.772 394.219 827.714 394.359 827.714 394.504C827.714 394.649 827.772 394.788 827.875 394.891C827.977 394.994 828.117 395.052 828.262 395.052Z" fill="white" stroke="#FF0000"/>
<path d="M820.545 426.047C820.69 426.047 820.829 425.989 820.932 425.886C821.035 425.783 821.092 425.644 821.092 425.499C821.092 425.354 821.035 425.214 820.932 425.112C820.829 425.009 820.69 424.951 820.545 424.951C820.4 424.951 820.26 425.009 820.158 425.112C820.055 425.214 819.997 425.354 819.997 425.499C819.997 425.644 820.055 425.783 820.158 425.886C820.26 425.989 820.4 426.047 820.545 426.047Z" fill="white" stroke="#FF0000"/>
<path d="M815.029 383.98C815.174 383.98 815.314 383.922 815.416 383.82C815.519 383.717 815.577 383.578 815.577 383.432C815.577 383.287 815.519 383.148 815.416 383.045C815.314 382.943 815.174 382.885 815.029 382.885C814.884 382.885 814.744 382.943 814.642 383.045C814.539 383.148 814.481 383.287 814.481 383.432C814.481 383.578 814.539 383.717 814.642 383.82C814.744 383.922 814.884 383.98 815.029 383.98Z" fill="white" stroke="#FF0000"/>
<path d="M803.574 443.577C803.719 443.577 803.859 443.519 803.961 443.417C804.064 443.314 804.122 443.175 804.122 443.029C804.122 442.884 804.064 442.745 803.961 442.642C803.859 442.539 803.719 442.482 803.574 442.482C803.429 442.482 803.29 442.539 803.187 442.642C803.084 442.745 803.026 442.884 803.026 443.029C803.026 443.175 803.084 443.314 803.187 443.417C803.29 443.519 803.429 443.577 803.574 443.577Z" fill="white" stroke="#FF0000"/>
<path d="M815.116 430.289C815.261 430.289 815.401 430.231 815.503 430.129C815.606 430.026 815.664 429.887 815.664 429.741C815.664 429.596 815.606 429.457 815.503 429.354C815.401 429.251 815.261 429.194 815.116 429.194C814.971 429.194 814.832 429.251 814.729 429.354C814.626 429.457 814.568 429.596 814.568 429.741C814.568 429.887 814.626 430.026 814.729 430.129C814.832 430.231 814.971 430.289 815.116 430.289Z" fill="white" stroke="#FF0000"/>
<path d="M798.708 383.225C798.853 383.225 798.992 383.167 799.095 383.064C799.198 382.962 799.255 382.822 799.255 382.677C799.255 382.532 799.198 382.392 799.095 382.29C798.992 382.187 798.853 382.129 798.708 382.129C798.562 382.129 798.423 382.187 798.32 382.29C798.218 382.392 798.16 382.532 798.16 382.677C798.16 382.822 798.218 382.962 798.32 383.064C798.423 383.167 798.562 383.225 798.708 383.225Z" fill="white" stroke="#FF0000"/>
<path d="M777.185 329.231C777.33 329.231 777.469 329.173 777.572 329.071C777.675 328.968 777.733 328.829 777.733 328.683C777.733 328.538 777.675 328.399 777.572 328.296C777.469 328.193 777.33 328.136 777.185 328.136C777.04 328.136 776.9 328.193 776.798 328.296C776.695 328.399 776.637 328.538 776.637 328.683C776.637 328.829 776.695 328.968 776.798 329.071C776.9 329.173 777.04 329.231 777.185 329.231Z" fill="white" stroke="#FF0000"/>
<path d="M532.399 499.576C532.545 499.576 532.684 499.518 532.787 499.415C532.889 499.313 532.947 499.173 532.947 499.028C532.947 498.883 532.889 498.743 532.787 498.641C532.684 498.538 532.545 498.48 532.399 498.48C532.254 498.48 532.115 498.538 532.012 498.641C531.909 498.743 531.852 498.883 531.852 499.028C531.852 499.173 531.909 499.313 532.012 499.415C532.115 499.518 532.254 499.576 532.399 499.576Z" fill="white" stroke="#FF0000"/>
<path d="M551.031 493.798C551.176 493.798 551.315 493.74 551.418 493.638C551.521 493.535 551.578 493.396 551.578 493.25C551.578 493.105 551.521 492.966 551.418 492.863C551.315 492.76 551.176 492.703 551.031 492.703C550.885 492.703 550.746 492.76 550.644 492.863C550.541 492.966 550.483 493.105 550.483 493.25C550.483 493.396 550.541 493.535 550.644 493.638C550.746 493.74 550.885 493.798 551.031 493.798Z" fill="white" stroke="#FF0000"/>
<path d="M547.751 522.148C547.896 522.148 548.035 522.09 548.138 521.988C548.241 521.885 548.298 521.746 548.298 521.6C548.298 521.455 548.241 521.316 548.138 521.213C548.035 521.11 547.896 521.053 547.751 521.053C547.605 521.053 547.466 521.11 547.363 521.213C547.261 521.316 547.203 521.455 547.203 521.6C547.203 521.746 547.261 521.885 547.363 521.988C547.466 522.09 547.605 522.148 547.751 522.148Z" fill="white" stroke="#FF0000"/>
<path d="M554.861 530.022C555.006 530.022 555.145 529.964 555.248 529.861C555.351 529.759 555.408 529.619 555.408 529.474C555.408 529.329 555.351 529.19 555.248 529.087C555.145 528.984 555.006 528.927 554.861 528.927C554.715 528.927 554.576 528.984 554.473 529.087C554.371 529.19 554.313 529.329 554.313 529.474C554.313 529.619 554.371 529.759 554.473 529.861C554.576 529.964 554.715 530.022 554.861 530.022Z" fill="white" stroke="#FF0000"/>
<path d="M645.849 526.873C645.994 526.873 646.134 526.815 646.236 526.713C646.339 526.61 646.397 526.47 646.397 526.325C646.397 526.18 646.339 526.041 646.236 525.938C646.134 525.835 645.994 525.777 645.849 525.777C645.704 525.777 645.564 525.835 645.462 525.938C645.359 526.041 645.301 526.18 645.301 526.325C645.301 526.47 645.359 526.61 645.462 526.713C645.564 526.815 645.704 526.873 645.849 526.873Z" fill="white" stroke="#FF0000"/>
<path d="M533.906 486.187C534.052 486.187 534.191 486.13 534.294 486.027C534.397 485.924 534.454 485.785 534.454 485.64C534.454 485.494 534.397 485.355 534.294 485.252C534.191 485.15 534.052 485.092 533.906 485.092C533.761 485.092 533.622 485.15 533.519 485.252C533.416 485.355 533.359 485.494 533.359 485.64C533.359 485.785 533.416 485.924 533.519 486.027C533.622 486.13 533.761 486.187 533.906 486.187Z" fill="white" stroke="#FF0000"/>
<path d="M554.028 502.562C554.173 502.562 554.312 502.505 554.415 502.402C554.518 502.299 554.575 502.16 554.575 502.015C554.575 501.869 554.518 501.73 554.415 501.627C554.312 501.525 554.173 501.467 554.028 501.467C553.882 501.467 553.743 501.525 553.64 501.627C553.538 501.73 553.48 501.869 553.48 502.015C553.48 502.16 553.538 502.299 553.64 502.402C553.743 502.505 553.882 502.562 554.028 502.562Z" fill="white" stroke="#FF0000"/>
<path d="M545.874 489.973C546.02 489.973 546.159 489.915 546.262 489.812C546.365 489.71 546.422 489.57 546.422 489.425C546.422 489.28 546.365 489.141 546.262 489.038C546.159 488.935 546.02 488.877 545.874 488.877C545.729 488.877 545.59 488.935 545.487 489.038C545.384 489.141 545.327 489.28 545.327 489.425C545.327 489.57 545.384 489.71 545.487 489.812C545.59 489.915 545.729 489.973 545.874 489.973Z" fill="white" stroke="#FF0000"/>
<path d="M542.614 504.561C542.759 504.561 542.898 504.504 543.001 504.401C543.104 504.298 543.161 504.159 543.161 504.014C543.161 503.868 543.104 503.729 543.001 503.626C542.898 503.524 542.759 503.466 542.614 503.466C542.469 503.466 542.329 503.524 542.227 503.626C542.124 503.729 542.066 503.868 542.066 504.014C542.066 504.159 542.124 504.298 542.227 504.401C542.329 504.504 542.469 504.561 542.614 504.561Z" fill="white" stroke="#FF0000"/>
<path d="M520.068 522.118C520.213 522.118 520.353 522.06 520.455 521.957C520.558 521.854 520.616 521.715 520.616 521.57C520.616 521.425 520.558 521.285 520.455 521.183C520.353 521.08 520.213 521.022 520.068 521.022C519.923 521.022 519.784 521.08 519.681 521.183C519.578 521.285 519.521 521.425 519.521 521.57C519.521 521.715 519.578 521.854 519.681 521.957C519.784 522.06 519.923 522.118 520.068 522.118Z" fill="white" stroke="#FF0000"/>
<path d="M522.771 512.806C522.916 512.806 523.055 512.748 523.158 512.645C523.261 512.543 523.318 512.403 523.318 512.258C523.318 512.113 523.261 511.974 523.158 511.871C523.055 511.768 522.916 511.711 522.771 511.711C522.626 511.711 522.486 511.768 522.384 511.871C522.281 511.974 522.223 512.113 522.223 512.258C522.223 512.403 522.281 512.543 522.384 512.645C522.486 512.748 522.626 512.806 522.771 512.806Z" fill="white" stroke="#FF0000"/>
<path d="M764.763 482.371C764.908 482.371 765.047 482.313 765.15 482.21C765.253 482.108 765.311 481.968 765.311 481.823C765.311 481.678 765.253 481.539 765.15 481.436C765.047 481.333 764.908 481.275 764.763 481.275C764.618 481.275 764.478 481.333 764.376 481.436C764.273 481.539 764.215 481.678 764.215 481.823C764.215 481.968 764.273 482.108 764.376 482.21C764.478 482.313 764.618 482.371 764.763 482.371Z" fill="white" stroke="#FF0000"/>
<path d="M547.225 514.585C547.37 514.585 547.509 514.527 547.612 514.424C547.715 514.322 547.773 514.182 547.773 514.037C547.773 513.892 547.715 513.753 547.612 513.65C547.509 513.547 547.37 513.49 547.225 513.49C547.08 513.49 546.94 513.547 546.838 513.65C546.735 513.753 546.677 513.892 546.677 514.037C546.677 514.182 546.735 514.322 546.838 514.424C546.94 514.527 547.08 514.585 547.225 514.585Z" fill="white" stroke="#FF0000"/>
<path d="M515.182 506.519C515.327 506.519 515.466 506.462 515.569 506.359C515.672 506.256 515.73 506.117 515.73 505.972C515.73 505.826 515.672 505.687 515.569 505.584C515.466 505.482 515.327 505.424 515.182 505.424C515.037 505.424 514.897 505.482 514.795 505.584C514.692 505.687 514.634 505.826 514.634 505.972C514.634 506.117 514.692 506.256 514.795 506.359C514.897 506.462 515.037 506.519 515.182 506.519Z" fill="white" stroke="#FF0000"/>
<path d="M552.646 559.665C552.791 559.665 552.931 559.607 553.033 559.505C553.136 559.402 553.194 559.262 553.194 559.117C553.194 558.972 553.136 558.833 553.033 558.73C552.931 558.627 552.791 558.57 552.646 558.57C552.501 558.57 552.361 558.627 552.259 558.73C552.156 558.833 552.098 558.972 552.098 559.117C552.098 559.262 552.156 559.402 552.259 559.505C552.361 559.607 552.501 559.665 552.646 559.665Z" fill="white" stroke="#FF0000"/>
<path d="M605.952 561.581C606.097 561.581 606.237 561.523 606.339 561.421C606.442 561.318 606.5 561.179 606.5 561.033C606.5 560.888 606.442 560.749 606.339 560.646C606.237 560.543 606.097 560.486 605.952 560.486C605.807 560.486 605.668 560.543 605.565 560.646C605.462 560.749 605.405 560.888 605.405 561.033C605.405 561.179 605.462 561.318 605.565 561.421C605.668 561.523 605.807 561.581 605.952 561.581Z" fill="white" stroke="#FF0000"/>
<path d="M506.683 520.63C506.828 520.63 506.968 520.572 507.071 520.469C507.173 520.367 507.231 520.227 507.231 520.082C507.231 519.937 507.173 519.798 507.071 519.695C506.968 519.592 506.828 519.534 506.683 519.534C506.538 519.534 506.399 519.592 506.296 519.695C506.193 519.798 506.136 519.937 506.136 520.082C506.136 520.227 506.193 520.367 506.296 520.469C506.399 520.572 506.538 520.63 506.683 520.63Z" fill="white" stroke="#FF0000"/>
<path d="M458.171 507.874C458.316 507.874 458.455 507.817 458.558 507.714C458.661 507.611 458.718 507.472 458.718 507.327C458.718 507.181 458.661 507.042 458.558 506.939C458.455 506.837 458.316 506.779 458.171 506.779C458.026 506.779 457.886 506.837 457.784 506.939C457.681 507.042 457.623 507.181 457.623 507.327C457.623 507.472 457.681 507.611 457.784 507.714C457.886 507.817 458.026 507.874 458.171 507.874Z" fill="white" stroke="#FF0000"/>
<path d="M457.476 506.831C457.621 506.831 457.76 506.773 457.863 506.67C457.966 506.567 458.024 506.428 458.024 506.283C458.024 506.138 457.966 505.998 457.863 505.896C457.76 505.793 457.621 505.735 457.476 505.735C457.331 505.735 457.191 505.793 457.089 505.896C456.986 505.998 456.928 506.138 456.928 506.283C456.928 506.428 456.986 506.567 457.089 506.67C457.191 506.773 457.331 506.831 457.476 506.831Z" fill="white" stroke="#FF0000"/>
<path d="M451.658 503.487C451.803 503.487 451.942 503.429 452.045 503.326C452.148 503.224 452.205 503.084 452.205 502.939C452.205 502.794 452.148 502.654 452.045 502.552C451.942 502.449 451.803 502.391 451.658 502.391C451.513 502.391 451.373 502.449 451.27 502.552C451.168 502.654 451.11 502.794 451.11 502.939C451.11 503.084 451.168 503.224 451.27 503.326C451.373 503.429 451.513 503.487 451.658 503.487Z" fill="white" stroke="#FF0000"/>
<path d="M462.88 521.455C463.025 521.455 463.164 521.397 463.267 521.295C463.37 521.192 463.427 521.052 463.427 520.907C463.427 520.762 463.37 520.623 463.267 520.52C463.164 520.417 463.025 520.359 462.88 520.359C462.734 520.359 462.595 520.417 462.492 520.52C462.39 520.623 462.332 520.762 462.332 520.907C462.332 521.052 462.39 521.192 462.492 521.295C462.595 521.397 462.734 521.455 462.88 521.455Z" fill="white" stroke="#FF0000"/>
<path d="M453.526 499.736C453.672 499.736 453.811 499.678 453.914 499.576C454.016 499.473 454.074 499.334 454.074 499.188C454.074 499.043 454.016 498.904 453.914 498.801C453.811 498.698 453.672 498.641 453.526 498.641C453.381 498.641 453.242 498.698 453.139 498.801C453.036 498.904 452.979 499.043 452.979 499.188C452.979 499.334 453.036 499.473 453.139 499.576C453.242 499.678 453.381 499.736 453.526 499.736Z" fill="white" stroke="#FF0000"/>
<rect x="454.579" y="498.393" width="10.9537" height="10.9537" fill="#C4C4C4"/>
</svg>
