<svg width="1183" height="789" viewBox="0 0 1183 789" fill="none" xmlns="http://www.w3.org/2000/svg">
<g id="Group 1">

<g id="lol 2">
<g id="lolfig1">
<g id="lolax1">
<g id="loline2d">
<g id="lolrgoup">
<path id="Vector_10" d="M480.06 496.743C480.206 496.743 480.345 496.685 480.448 496.582C480.55 496.48 480.608 496.34 480.608 496.195C480.608 496.05 480.55 495.911 480.448 495.808C480.345 495.705 480.206 495.647 480.06 495.647C479.915 495.647 479.776 495.705 479.673 495.808C479.57 495.911 479.513 496.05 479.513 496.195C479.513 496.34 479.57 496.48 479.673 496.582C479.776 496.685 479.915 496.743 480.06 496.743Z" fill="white" stroke="#FF0000"/>
<path id="Vector_11" d="M489.478 495.978C489.624 495.978 489.763 495.921 489.866 495.818C489.968 495.715 490.026 495.576 490.026 495.431C490.026 495.285 489.968 495.146 489.866 495.043C489.763 494.941 489.624 494.883 489.478 494.883C489.333 494.883 489.194 494.941 489.091 495.043C488.988 495.146 488.931 495.285 488.931 495.431C488.931 495.576 488.988 495.715 489.091 495.818C489.194 495.921 489.333 495.978 489.478 495.978Z" fill="white" stroke="#FF0000"/>
<path id="Vector_12" d="M483.852 498.256C483.998 498.256 484.137 498.198 484.24 498.095C484.342 497.992 484.4 497.853 484.4 497.708C484.4 497.563 484.342 497.423 484.24 497.321C484.137 497.218 483.998 497.16 483.852 497.16C483.707 497.16 483.568 497.218 483.465 497.321C483.362 497.423 483.305 497.563 483.305 497.708C483.305 497.853 483.362 497.992 483.465 498.095C483.568 498.198 483.707 498.256 483.852 498.256Z" fill="white" stroke="#FF0000"/>
<path id="Vector_13" d="M481.939 501.715C482.084 501.715 482.224 501.657 482.326 501.554C482.429 501.451 482.487 501.312 482.487 501.167C482.487 501.022 482.429 500.882 482.326 500.78C482.224 500.677 482.084 500.619 481.939 500.619C481.794 500.619 481.655 500.677 481.552 500.78C481.449 500.882 481.392 501.022 481.392 501.167C481.392 501.312 481.449 501.451 481.552 501.554C481.655 501.657 481.794 501.715 481.939 501.715Z" fill="white" stroke="#FF0000"/>
<path id="Vector_14" d="M488.455 496.723C488.601 496.723 488.74 496.665 488.843 496.563C488.945 496.46 489.003 496.321 489.003 496.175C489.003 496.03 488.945 495.891 488.843 495.788C488.74 495.685 488.601 495.628 488.455 495.628C488.31 495.628 488.171 495.685 488.068 495.788C487.965 495.891 487.908 496.03 487.908 496.175C487.908 496.321 487.965 496.46 488.068 496.563C488.171 496.665 488.31 496.723 488.455 496.723Z" fill="white" stroke="#FF0000"/>
<path id="Vector_15" d="M489.828 493.503C489.974 493.503 490.113 493.445 490.216 493.343C490.318 493.24 490.376 493.101 490.376 492.955C490.376 492.81 490.318 492.671 490.216 492.568C490.113 492.465 489.974 492.408 489.828 492.408C489.683 492.408 489.544 492.465 489.441 492.568C489.338 492.671 489.281 492.81 489.281 492.955C489.281 493.101 489.338 493.24 489.441 493.343C489.544 493.445 489.683 493.503 489.828 493.503Z" fill="white" stroke="#FF0000"/>
<path id="Vector_16" d="M488.121 483.96C488.266 483.96 488.406 483.902 488.508 483.799C488.611 483.697 488.669 483.557 488.669 483.412C488.669 483.267 488.611 483.127 488.508 483.025C488.406 482.922 488.266 482.864 488.121 482.864C487.976 482.864 487.836 482.922 487.734 483.025C487.631 483.127 487.573 483.267 487.573 483.412C487.573 483.557 487.631 483.697 487.734 483.799C487.836 483.902 487.976 483.96 488.121 483.96Z" fill="white" stroke="#FF0000"/>
<path id="Vector_17" d="M492.381 490.925C492.527 490.925 492.666 490.867 492.769 490.765C492.871 490.662 492.929 490.523 492.929 490.377C492.929 490.232 492.871 490.093 492.769 489.99C492.666 489.887 492.527 489.83 492.381 489.83C492.236 489.83 492.097 489.887 491.994 489.99C491.891 490.093 491.834 490.232 491.834 490.377C491.834 490.523 491.891 490.662 491.994 490.765C492.097 490.867 492.236 490.925 492.381 490.925Z" fill="white" stroke="#FF0000"/>
<path id="Vector_18" d="M485.915 492.733C486.06 492.733 486.2 492.676 486.303 492.573C486.405 492.47 486.463 492.331 486.463 492.186C486.463 492.04 486.405 491.901 486.303 491.798C486.2 491.696 486.06 491.638 485.915 491.638C485.77 491.638 485.631 491.696 485.528 491.798C485.425 491.901 485.368 492.04 485.368 492.186C485.368 492.331 485.425 492.47 485.528 492.573C485.631 492.676 485.77 492.733 485.915 492.733Z" fill="white" stroke="#FF0000"/>
<path id="Vector_19" d="M486.951 497.936C487.097 497.936 487.236 497.878 487.339 497.775C487.441 497.672 487.499 497.533 487.499 497.388C487.499 497.243 487.441 497.103 487.339 497.001C487.236 496.898 487.097 496.84 486.951 496.84C486.806 496.84 486.667 496.898 486.564 497.001C486.461 497.103 486.404 497.243 486.404 497.388C486.404 497.533 486.461 497.672 486.564 497.775C486.667 497.878 486.806 497.936 486.951 497.936Z" fill="white" stroke="#FF0000"/>
<path id="Vector_20" d="M481.24 492.327C481.385 492.327 481.525 492.269 481.627 492.166C481.73 492.063 481.788 491.924 481.788 491.779C481.788 491.634 481.73 491.494 481.627 491.392C481.525 491.289 481.385 491.231 481.24 491.231C481.095 491.231 480.956 491.289 480.853 491.392C480.75 491.494 480.692 491.634 480.692 491.779C480.692 491.924 480.75 492.063 480.853 492.166C480.956 492.269 481.095 492.327 481.24 492.327Z" fill="white" stroke="#FF0000"/>
<path id="Vector_21" d="M482.482 500.963C482.627 500.963 482.767 500.905 482.869 500.802C482.972 500.7 483.03 500.56 483.03 500.415C483.03 500.27 482.972 500.13 482.869 500.028C482.767 499.925 482.627 499.867 482.482 499.867C482.337 499.867 482.198 499.925 482.095 500.028C481.992 500.13 481.935 500.27 481.935 500.415C481.935 500.56 481.992 500.7 482.095 500.802C482.198 500.905 482.337 500.963 482.482 500.963Z" fill="white" stroke="#FF0000"/>
<path id="Vector_22" d="M482.227 499.768C482.372 499.768 482.512 499.711 482.614 499.608C482.717 499.505 482.775 499.366 482.775 499.221C482.775 499.075 482.717 498.936 482.614 498.833C482.512 498.731 482.372 498.673 482.227 498.673C482.082 498.673 481.942 498.731 481.84 498.833C481.737 498.936 481.679 499.075 481.679 499.221C481.679 499.366 481.737 499.505 481.84 499.608C481.942 499.711 482.082 499.768 482.227 499.768Z" fill="white" stroke="#FF0000"/>
<path id="Vector_23" d="M484.22 493.144C484.365 493.144 484.504 493.087 484.607 492.984C484.71 492.881 484.767 492.742 484.767 492.597C484.767 492.451 484.71 492.312 484.607 492.209C484.504 492.107 484.365 492.049 484.22 492.049C484.075 492.049 483.935 492.107 483.833 492.209C483.73 492.312 483.672 492.451 483.672 492.597C483.672 492.742 483.73 492.881 483.833 492.984C483.935 493.087 484.075 493.144 484.22 493.144Z" fill="white" stroke="#FF0000"/>
<path id="Vector_24" d="M484.371 496.128C484.516 496.128 484.655 496.07 484.758 495.967C484.861 495.865 484.918 495.725 484.918 495.58C484.918 495.435 484.861 495.295 484.758 495.193C484.655 495.09 484.516 495.032 484.371 495.032C484.225 495.032 484.086 495.09 483.983 495.193C483.881 495.295 483.823 495.435 483.823 495.58C483.823 495.725 483.881 495.865 483.983 495.967C484.086 496.07 484.225 496.128 484.371 496.128Z" fill="white" stroke="#FF0000"/>
<path id="Vector_25" d="M493.872 490.424C494.017 490.424 494.156 490.367 494.259 490.264C494.362 490.161 494.419 490.022 494.419 489.877C494.419 489.731 494.362 489.592 494.259 489.489C494.156 489.387 494.017 489.329 493.872 489.329C493.727 489.329 493.587 489.387 493.484 489.489C493.382 489.592 493.324 489.731 493.324 489.877C493.324 490.022 493.382 490.161 493.484 490.264C493.587 490.367 493.727 490.424 493.872 490.424Z" fill="white" stroke="#FF0000"/>
<path id="Vector_26" d="M482.455 492.887C482.601 492.887 482.74 492.83 482.843 492.727C482.945 492.624 483.003 492.485 483.003 492.34C483.003 492.194 482.945 492.055 482.843 491.952C482.74 491.85 482.601 491.792 482.455 491.792C482.31 491.792 482.171 491.85 482.068 491.952C481.965 492.055 481.908 492.194 481.908 492.34C481.908 492.485 481.965 492.624 482.068 492.727C482.171 492.83 482.31 492.887 482.455 492.887Z" fill="white" stroke="#FF0000"/>
<path id="Vector_27" d="M484.132 454.723C484.278 454.723 484.417 454.665 484.52 454.563C484.622 454.46 484.68 454.321 484.68 454.175C484.68 454.03 484.622 453.891 484.52 453.788C484.417 453.685 484.278 453.628 484.132 453.628C483.987 453.628 483.848 453.685 483.745 453.788C483.642 453.891 483.585 454.03 483.585 454.175C483.585 454.321 483.642 454.46 483.745 454.563C483.848 454.665 483.987 454.723 484.132 454.723Z" fill="white" stroke="#FF0000"/>
<path id="Vector_28" d="M505.896 443.478C506.042 443.478 506.181 443.421 506.284 443.318C506.386 443.215 506.444 443.076 506.444 442.931C506.444 442.786 506.386 442.646 506.284 442.544C506.181 442.441 506.042 442.383 505.896 442.383C505.751 442.383 505.612 442.441 505.509 442.544C505.406 442.646 505.349 442.786 505.349 442.931C505.349 443.076 505.406 443.215 505.509 443.318C505.612 443.421 505.751 443.478 505.896 443.478Z" fill="white" stroke="#FF0000"/>
<path id="Vector_29" d="M497.927 440.065C498.072 440.065 498.211 440.008 498.314 439.905C498.417 439.802 498.474 439.663 498.474 439.518C498.474 439.372 498.417 439.233 498.314 439.13C498.211 439.028 498.072 438.97 497.927 438.97C497.781 438.97 497.642 439.028 497.539 439.13C497.437 439.233 497.379 439.372 497.379 439.518C497.379 439.663 497.437 439.802 497.539 439.905C497.642 440.008 497.781 440.065 497.927 440.065Z" fill="white" stroke="#FF0000"/>
<path id="Vector_30" d="M478.437 476.177C478.582 476.177 478.721 476.119 478.824 476.016C478.927 475.914 478.984 475.774 478.984 475.629C478.984 475.484 478.927 475.344 478.824 475.242C478.721 475.139 478.582 475.081 478.437 475.081C478.291 475.081 478.152 475.139 478.049 475.242C477.947 475.344 477.889 475.484 477.889 475.629C477.889 475.774 477.947 475.914 478.049 476.016C478.152 476.119 478.291 476.177 478.437 476.177Z" fill="white" stroke="#FF0000"/>
<path id="Vector_31" d="M430.053 424.486C430.199 424.486 430.338 424.428 430.441 424.326C430.543 424.223 430.601 424.084 430.601 423.938C430.601 423.793 430.543 423.654 430.441 423.551C430.338 423.448 430.199 423.391 430.053 423.391C429.908 423.391 429.769 423.448 429.666 423.551C429.563 423.654 429.506 423.793 429.506 423.938C429.506 424.084 429.563 424.223 429.666 424.326C429.769 424.428 429.908 424.486 430.053 424.486Z" fill="white" stroke="#FF0000"/>
<path id="Vector_32" d="M409.298 419.871C409.443 419.871 409.582 419.814 409.685 419.711C409.788 419.608 409.845 419.469 409.845 419.324C409.845 419.178 409.788 419.039 409.685 418.936C409.582 418.834 409.443 418.776 409.298 418.776C409.152 418.776 409.013 418.834 408.91 418.936C408.808 419.039 408.75 419.178 408.75 419.324C408.75 419.469 408.808 419.608 408.91 419.711C409.013 419.814 409.152 419.871 409.298 419.871Z" fill="white" stroke="#FF0000"/>
<path id="Vector_33" d="M450.443 402.482C450.589 402.482 450.728 402.424 450.831 402.322C450.933 402.219 450.991 402.08 450.991 401.934C450.991 401.789 450.933 401.65 450.831 401.547C450.728 401.444 450.589 401.387 450.443 401.387C450.298 401.387 450.159 401.444 450.056 401.547C449.954 401.65 449.896 401.789 449.896 401.934C449.896 402.08 449.954 402.219 450.056 402.322C450.159 402.424 450.298 402.482 450.443 402.482Z" fill="white" stroke="#FF0000"/>
<path id="Vector_34" d="M497.191 467.248C497.336 467.248 497.475 467.19 497.578 467.088C497.681 466.985 497.738 466.846 497.738 466.7C497.738 466.555 497.681 466.416 497.578 466.313C497.475 466.21 497.336 466.153 497.191 466.153C497.046 466.153 496.906 466.21 496.804 466.313C496.701 466.416 496.643 466.555 496.643 466.7C496.643 466.846 496.701 466.985 496.804 467.088C496.906 467.19 497.046 467.248 497.191 467.248Z" fill="white" stroke="#FF0000"/>
<path id="Vector_35" d="M528.089 439.252C528.234 439.252 528.374 439.194 528.476 439.091C528.579 438.988 528.637 438.849 528.637 438.704C528.637 438.559 528.579 438.419 528.476 438.317C528.374 438.214 528.234 438.156 528.089 438.156C527.944 438.156 527.804 438.214 527.702 438.317C527.599 438.419 527.541 438.559 527.541 438.704C527.541 438.849 527.599 438.988 527.702 439.091C527.804 439.194 527.944 439.252 528.089 439.252Z" fill="white" stroke="#FF0000"/>
<path id="Vector_36" d="M428.551 292.993C428.696 292.993 428.835 292.935 428.938 292.832C429.041 292.729 429.099 292.59 429.099 292.445C429.099 292.3 429.041 292.16 428.938 292.058C428.835 291.955 428.696 291.897 428.551 291.897C428.406 291.897 428.266 291.955 428.164 292.058C428.061 292.16 428.003 292.3 428.003 292.445C428.003 292.59 428.061 292.729 428.164 292.832C428.266 292.935 428.406 292.993 428.551 292.993Z" fill="white" stroke="#FF0000"/>
<path id="Vector_37" d="M417.494 303.72C417.639 303.72 417.778 303.663 417.881 303.56C417.984 303.457 418.041 303.318 418.041 303.172C418.041 303.027 417.984 302.888 417.881 302.785C417.778 302.682 417.639 302.625 417.494 302.625C417.348 302.625 417.209 302.682 417.106 302.785C417.004 302.888 416.946 303.027 416.946 303.172C416.946 303.318 417.004 303.457 417.106 303.56C417.209 303.663 417.348 303.72 417.494 303.72Z" fill="white" stroke="#FF0000"/>
<path id="Vector_38" d="M397.818 350.137C397.964 350.137 398.103 350.079 398.206 349.977C398.308 349.874 398.366 349.735 398.366 349.589C398.366 349.444 398.308 349.305 398.206 349.202C398.103 349.099 397.964 349.042 397.818 349.042C397.673 349.042 397.534 349.099 397.431 349.202C397.328 349.305 397.271 349.444 397.271 349.589C397.271 349.735 397.328 349.874 397.431 349.977C397.534 350.079 397.673 350.137 397.818 350.137Z" fill="white" stroke="#FF0000"/>
<path id="Vector_39" d="M417.232 295.815C417.377 295.815 417.517 295.757 417.619 295.654C417.722 295.552 417.78 295.412 417.78 295.267C417.78 295.122 417.722 294.983 417.619 294.88C417.517 294.777 417.377 294.72 417.232 294.72C417.087 294.72 416.948 294.777 416.845 294.88C416.742 294.983 416.684 295.122 416.684 295.267C416.684 295.412 416.742 295.552 416.845 295.654C416.948 295.757 417.087 295.815 417.232 295.815Z" fill="white" stroke="#FF0000"/>
<path id="Vector_40" d="M434.166 301.459C434.311 301.459 434.45 301.401 434.553 301.298C434.656 301.196 434.714 301.056 434.714 300.911C434.714 300.766 434.656 300.626 434.553 300.524C434.45 300.421 434.311 300.363 434.166 300.363C434.021 300.363 433.881 300.421 433.779 300.524C433.676 300.626 433.618 300.766 433.618 300.911C433.618 301.056 433.676 301.196 433.779 301.298C433.881 301.401 434.021 301.459 434.166 301.459Z" fill="white" stroke="#FF0000"/>
<path id="Vector_41" d="M418.454 321.229C418.599 321.229 418.739 321.171 418.841 321.069C418.944 320.966 419.002 320.827 419.002 320.682C419.002 320.536 418.944 320.397 418.841 320.294C418.739 320.192 418.599 320.134 418.454 320.134C418.309 320.134 418.17 320.192 418.067 320.294C417.964 320.397 417.906 320.536 417.906 320.682C417.906 320.827 417.964 320.966 418.067 321.069C418.17 321.171 418.309 321.229 418.454 321.229Z" fill="white" stroke="#FF0000"/>
<path id="Vector_42" d="M403.775 346.804C403.92 346.804 404.059 346.746 404.162 346.643C404.265 346.541 404.322 346.401 404.322 346.256C404.322 346.111 404.265 345.971 404.162 345.869C404.059 345.766 403.92 345.708 403.775 345.708C403.63 345.708 403.49 345.766 403.387 345.869C403.285 345.971 403.227 346.111 403.227 346.256C403.227 346.401 403.285 346.541 403.387 346.643C403.49 346.746 403.63 346.804 403.775 346.804Z" fill="white" stroke="#FF0000"/>
<path id="Vector_43" d="M589.682 320.142C589.828 320.142 589.967 320.084 590.07 319.981C590.172 319.879 590.23 319.739 590.23 319.594C590.23 319.449 590.172 319.31 590.07 319.207C589.967 319.104 589.828 319.046 589.682 319.046C589.537 319.046 589.398 319.104 589.295 319.207C589.192 319.31 589.134 319.449 589.134 319.594C589.134 319.739 589.192 319.879 589.295 319.981C589.398 320.084 589.537 320.142 589.682 320.142Z" fill="white" stroke="#FF0000"/>
<path id="Vector_44" d="M579.264 334.941C579.41 334.941 579.549 334.884 579.652 334.781C579.754 334.678 579.812 334.539 579.812 334.394C579.812 334.248 579.754 334.109 579.652 334.006C579.549 333.904 579.41 333.846 579.264 333.846C579.119 333.846 578.98 333.904 578.877 334.006C578.774 334.109 578.717 334.248 578.717 334.394C578.717 334.539 578.774 334.678 578.877 334.781C578.98 334.884 579.119 334.941 579.264 334.941Z" fill="white" stroke="#FF0000"/>
<path id="Vector_45" d="M551.098 326.743C551.243 326.743 551.383 326.686 551.485 326.583C551.588 326.48 551.646 326.341 551.646 326.196C551.646 326.051 551.588 325.911 551.485 325.808C551.383 325.706 551.243 325.648 551.098 325.648C550.953 325.648 550.813 325.706 550.711 325.808C550.608 325.911 550.55 326.051 550.55 326.196C550.55 326.341 550.608 326.48 550.711 326.583C550.813 326.686 550.953 326.743 551.098 326.743Z" fill="white" stroke="#FF0000"/>
<path id="Vector_46" d="M601.237 303.675C601.382 303.675 601.521 303.618 601.624 303.515C601.727 303.412 601.784 303.273 601.784 303.128C601.784 302.982 601.727 302.843 601.624 302.74C601.521 302.638 601.382 302.58 601.237 302.58C601.092 302.58 600.952 302.638 600.85 302.74C600.747 302.843 600.689 302.982 600.689 303.128C600.689 303.273 600.747 303.412 600.85 303.515C600.952 303.618 601.092 303.675 601.237 303.675Z" fill="white" stroke="#FF0000"/>
<path id="Vector_47" d="M552.647 343.747C552.792 343.747 552.932 343.689 553.034 343.587C553.137 343.484 553.195 343.344 553.195 343.199C553.195 343.054 553.137 342.915 553.034 342.812C552.932 342.709 552.792 342.652 552.647 342.652C552.502 342.652 552.362 342.709 552.26 342.812C552.157 342.915 552.099 343.054 552.099 343.199C552.099 343.344 552.157 343.484 552.26 343.587C552.362 343.689 552.502 343.747 552.647 343.747Z" fill="white" stroke="#FF0000"/>
<path id="Vector_48" d="M525.062 369.937C525.207 369.937 525.347 369.88 525.449 369.777C525.552 369.674 525.61 369.535 525.61 369.39C525.61 369.244 525.552 369.105 525.449 369.002C525.347 368.9 525.207 368.842 525.062 368.842C524.917 368.842 524.778 368.9 524.675 369.002C524.572 369.105 524.514 369.244 524.514 369.39C524.514 369.535 524.572 369.674 524.675 369.777C524.778 369.88 524.917 369.937 525.062 369.937Z" fill="white" stroke="#FF0000"/>
<path id="Vector_49" d="M587.428 354.458C587.573 354.458 587.712 354.4 587.815 354.297C587.918 354.195 587.975 354.055 587.975 353.91C587.975 353.765 587.918 353.625 587.815 353.523C587.712 353.42 587.573 353.362 587.428 353.362C587.282 353.362 587.143 353.42 587.04 353.523C586.938 353.625 586.88 353.765 586.88 353.91C586.88 354.055 586.938 354.195 587.04 354.297C587.143 354.4 587.282 354.458 587.428 354.458Z" fill="white" stroke="#FF0000"/>
<path id="Vector_50" d="M625.596 312.39C625.741 312.39 625.881 312.332 625.983 312.229C626.086 312.127 626.144 311.987 626.144 311.842C626.144 311.697 626.086 311.558 625.983 311.455C625.881 311.352 625.741 311.294 625.596 311.294C625.451 311.294 625.312 311.352 625.209 311.455C625.106 311.558 625.048 311.697 625.048 311.842C625.048 311.987 625.106 312.127 625.209 312.229C625.312 312.332 625.451 312.39 625.596 312.39Z" fill="white" stroke="#FF0000"/>
<path id="Vector_51" d="M643.146 340.768C643.292 340.768 643.431 340.71 643.534 340.607C643.636 340.505 643.694 340.365 643.694 340.22C643.694 340.075 643.636 339.935 643.534 339.833C643.431 339.73 643.292 339.672 643.146 339.672C643.001 339.672 642.862 339.73 642.759 339.833C642.656 339.935 642.599 340.075 642.599 340.22C642.599 340.365 642.656 340.505 642.759 340.607C642.862 340.71 643.001 340.768 643.146 340.768Z" fill="white" stroke="#FF0000"/>
<path id="Vector_52" d="M640.89 314.286C641.036 314.286 641.175 314.229 641.278 314.126C641.38 314.023 641.438 313.884 641.438 313.739C641.438 313.593 641.38 313.454 641.278 313.351C641.175 313.249 641.036 313.191 640.89 313.191C640.745 313.191 640.606 313.249 640.503 313.351C640.4 313.454 640.343 313.593 640.343 313.739C640.343 313.884 640.4 314.023 640.503 314.126C640.606 314.229 640.745 314.286 640.89 314.286Z" fill="white" stroke="#FF0000"/>
<path id="Vector_53" d="M676.51 320.434C676.655 320.434 676.794 320.376 676.897 320.274C677 320.171 677.058 320.032 677.058 319.886C677.058 319.741 677 319.602 676.897 319.499C676.794 319.396 676.655 319.339 676.51 319.339C676.365 319.339 676.225 319.396 676.123 319.499C676.02 319.602 675.962 319.741 675.962 319.886C675.962 320.032 676.02 320.171 676.123 320.274C676.225 320.376 676.365 320.434 676.51 320.434Z" fill="white" stroke="#FF0000"/>
<path id="Vector_54" d="M632.488 311.233C632.633 311.233 632.773 311.175 632.875 311.072C632.978 310.969 633.036 310.83 633.036 310.685C633.036 310.54 632.978 310.4 632.875 310.298C632.773 310.195 632.633 310.137 632.488 310.137C632.343 310.137 632.203 310.195 632.101 310.298C631.998 310.4 631.94 310.54 631.94 310.685C631.94 310.83 631.998 310.969 632.101 311.072C632.203 311.175 632.343 311.233 632.488 311.233Z" fill="white" stroke="#FF0000"/>
<path id="Vector_55" d="M644.262 352.491C644.407 352.491 644.546 352.433 644.649 352.331C644.752 352.228 644.809 352.089 644.809 351.943C644.809 351.798 644.752 351.659 644.649 351.556C644.546 351.453 644.407 351.396 644.262 351.396C644.116 351.396 643.977 351.453 643.874 351.556C643.772 351.659 643.714 351.798 643.714 351.943C643.714 352.089 643.772 352.228 643.874 352.331C643.977 352.433 644.116 352.491 644.262 352.491Z" fill="white" stroke="#FF0000"/>
<path id="Vector_56" d="M620.965 301.81C621.11 301.81 621.25 301.753 621.352 301.65C621.455 301.547 621.513 301.408 621.513 301.263C621.513 301.117 621.455 300.978 621.352 300.875C621.25 300.773 621.11 300.715 620.965 300.715C620.82 300.715 620.68 300.773 620.578 300.875C620.475 300.978 620.417 301.117 620.417 301.263C620.417 301.408 620.475 301.547 620.578 301.65C620.68 301.753 620.82 301.81 620.965 301.81Z" fill="white" stroke="#FF0000"/>
<path id="Vector_57" d="M610.182 292.902C610.327 292.902 610.466 292.844 610.569 292.741C610.672 292.639 610.729 292.499 610.729 292.354C610.729 292.209 610.672 292.069 610.569 291.967C610.466 291.864 610.327 291.806 610.182 291.806C610.036 291.806 609.897 291.864 609.794 291.967C609.692 292.069 609.634 292.209 609.634 292.354C609.634 292.499 609.692 292.639 609.794 292.741C609.897 292.844 610.036 292.902 610.182 292.902Z" fill="white" stroke="#FF0000"/>
<path id="Vector_58" d="M644.002 341.757C644.148 341.757 644.287 341.699 644.39 341.596C644.492 341.494 644.55 341.354 644.55 341.209C644.55 341.064 644.492 340.924 644.39 340.822C644.287 340.719 644.148 340.661 644.002 340.661C643.857 340.661 643.718 340.719 643.615 340.822C643.512 340.924 643.455 341.064 643.455 341.209C643.455 341.354 643.512 341.494 643.615 341.596C643.718 341.699 643.857 341.757 644.002 341.757Z" fill="white" stroke="#FF0000"/>
<path id="Vector_59" d="M647.53 253.075C647.676 253.075 647.815 253.017 647.918 252.914C648.02 252.812 648.078 252.672 648.078 252.527C648.078 252.382 648.02 252.242 647.918 252.14C647.815 252.037 647.676 251.979 647.53 251.979C647.385 251.979 647.246 252.037 647.143 252.14C647.04 252.242 646.983 252.382 646.983 252.527C646.983 252.672 647.04 252.812 647.143 252.914C647.246 253.017 647.385 253.075 647.53 253.075Z" fill="white" stroke="#FF0000"/>
<path id="Vector_60" d="M675.427 303.975C675.572 303.975 675.711 303.918 675.814 303.815C675.917 303.712 675.974 303.573 675.974 303.428C675.974 303.283 675.917 303.143 675.814 303.041C675.711 302.938 675.572 302.88 675.427 302.88C675.282 302.88 675.142 302.938 675.04 303.041C674.937 303.143 674.879 303.283 674.879 303.428C674.879 303.573 674.937 303.712 675.04 303.815C675.142 303.918 675.282 303.975 675.427 303.975Z" fill="white" stroke="#FF0000"/>
<path id="Vector_61" d="M759.833 288.679C759.979 288.679 760.118 288.622 760.221 288.519C760.323 288.416 760.381 288.277 760.381 288.132C760.381 287.986 760.323 287.847 760.221 287.744C760.118 287.642 759.979 287.584 759.833 287.584C759.688 287.584 759.549 287.642 759.446 287.744C759.343 287.847 759.286 287.986 759.286 288.132C759.286 288.277 759.343 288.416 759.446 288.519C759.549 288.622 759.688 288.679 759.833 288.679Z" fill="white" stroke="#FF0000"/>
<path id="Vector_62" d="M674.822 337.469C674.968 337.469 675.107 337.411 675.21 337.308C675.312 337.206 675.37 337.066 675.37 336.921C675.37 336.776 675.312 336.637 675.21 336.534C675.107 336.431 674.968 336.373 674.822 336.373C674.677 336.373 674.538 336.431 674.435 336.534C674.332 336.637 674.275 336.776 674.275 336.921C674.275 337.066 674.332 337.206 674.435 337.308C674.538 337.411 674.677 337.469 674.822 337.469Z" fill="white" stroke="#FF0000"/>
<path id="Vector_63" d="M636.314 335.347C636.46 335.347 636.599 335.29 636.702 335.187C636.804 335.084 636.862 334.945 636.862 334.8C636.862 334.654 636.804 334.515 636.702 334.412C636.599 334.31 636.46 334.252 636.314 334.252C636.169 334.252 636.03 334.31 635.927 334.412C635.824 334.515 635.767 334.654 635.767 334.8C635.767 334.945 635.824 335.084 635.927 335.187C636.03 335.29 636.169 335.347 636.314 335.347Z" fill="white" stroke="#FF0000"/>
<path id="Vector_64" d="M813.682 402.045C813.827 402.045 813.966 401.988 814.069 401.885C814.172 401.782 814.229 401.643 814.229 401.498C814.229 401.352 814.172 401.213 814.069 401.11C813.966 401.008 813.827 400.95 813.682 400.95C813.536 400.95 813.397 401.008 813.294 401.11C813.192 401.213 813.134 401.352 813.134 401.498C813.134 401.643 813.192 401.782 813.294 401.885C813.397 401.988 813.536 402.045 813.682 402.045Z" fill="white" stroke="#FF0000"/>
<path id="Vector_65" d="M814.865 416.61C815.01 416.61 815.149 416.553 815.252 416.45C815.355 416.347 815.412 416.208 815.412 416.063C815.412 415.918 815.355 415.778 815.252 415.676C815.149 415.573 815.01 415.515 814.865 415.515C814.72 415.515 814.58 415.573 814.478 415.676C814.375 415.778 814.317 415.918 814.317 416.063C814.317 416.208 814.375 416.347 814.478 416.45C814.58 416.553 814.72 416.61 814.865 416.61Z" fill="white" stroke="#FF0000"/>
<path id="Vector_66" d="M828.262 395.052C828.407 395.052 828.547 394.994 828.649 394.891C828.752 394.788 828.81 394.649 828.81 394.504C828.81 394.359 828.752 394.219 828.649 394.117C828.547 394.014 828.407 393.956 828.262 393.956C828.117 393.956 827.977 394.014 827.875 394.117C827.772 394.219 827.714 394.359 827.714 394.504C827.714 394.649 827.772 394.788 827.875 394.891C827.977 394.994 828.117 395.052 828.262 395.052Z" fill="white" stroke="#FF0000"/>
<path id="Vector_67" d="M820.545 426.047C820.69 426.047 820.829 425.989 820.932 425.886C821.035 425.783 821.092 425.644 821.092 425.499C821.092 425.354 821.035 425.214 820.932 425.112C820.829 425.009 820.69 424.951 820.545 424.951C820.4 424.951 820.26 425.009 820.158 425.112C820.055 425.214 819.997 425.354 819.997 425.499C819.997 425.644 820.055 425.783 820.158 425.886C820.26 425.989 820.4 426.047 820.545 426.047Z" fill="white" stroke="#FF0000"/>
<path id="Vector_68" d="M815.029 383.98C815.174 383.98 815.314 383.922 815.416 383.82C815.519 383.717 815.577 383.578 815.577 383.432C815.577 383.287 815.519 383.148 815.416 383.045C815.314 382.943 815.174 382.885 815.029 382.885C814.884 382.885 814.744 382.943 814.642 383.045C814.539 383.148 814.481 383.287 814.481 383.432C814.481 383.578 814.539 383.717 814.642 383.82C814.744 383.922 814.884 383.98 815.029 383.98Z" fill="white" stroke="#FF0000"/>
<path id="Vector_69" d="M803.574 443.577C803.719 443.577 803.859 443.519 803.961 443.417C804.064 443.314 804.122 443.175 804.122 443.029C804.122 442.884 804.064 442.745 803.961 442.642C803.859 442.539 803.719 442.482 803.574 442.482C803.429 442.482 803.29 442.539 803.187 442.642C803.084 442.745 803.026 442.884 803.026 443.029C803.026 443.175 803.084 443.314 803.187 443.417C803.29 443.519 803.429 443.577 803.574 443.577Z" fill="white" stroke="#FF0000"/>
<path id="Vector_70" d="M815.116 430.289C815.261 430.289 815.401 430.231 815.503 430.129C815.606 430.026 815.664 429.887 815.664 429.741C815.664 429.596 815.606 429.457 815.503 429.354C815.401 429.251 815.261 429.194 815.116 429.194C814.971 429.194 814.832 429.251 814.729 429.354C814.626 429.457 814.568 429.596 814.568 429.741C814.568 429.887 814.626 430.026 814.729 430.129C814.832 430.231 814.971 430.289 815.116 430.289Z" fill="white" stroke="#FF0000"/>
<path id="Vector_71" d="M798.708 383.225C798.853 383.225 798.992 383.167 799.095 383.064C799.198 382.962 799.255 382.822 799.255 382.677C799.255 382.532 799.198 382.392 799.095 382.29C798.992 382.187 798.853 382.129 798.708 382.129C798.562 382.129 798.423 382.187 798.32 382.29C798.218 382.392 798.16 382.532 798.16 382.677C798.16 382.822 798.218 382.962 798.32 383.064C798.423 383.167 798.562 383.225 798.708 383.225Z" fill="white" stroke="#FF0000"/>
<path id="Vector_72" d="M777.185 329.231C777.33 329.231 777.469 329.173 777.572 329.071C777.675 328.968 777.733 328.829 777.733 328.683C777.733 328.538 777.675 328.399 777.572 328.296C777.469 328.193 777.33 328.136 777.185 328.136C777.04 328.136 776.9 328.193 776.798 328.296C776.695 328.399 776.637 328.538 776.637 328.683C776.637 328.829 776.695 328.968 776.798 329.071C776.9 329.173 777.04 329.231 777.185 329.231Z" fill="white" stroke="#FF0000"/>
<path id="Vector_73" d="M532.399 499.576C532.545 499.576 532.684 499.518 532.787 499.415C532.889 499.313 532.947 499.173 532.947 499.028C532.947 498.883 532.889 498.743 532.787 498.641C532.684 498.538 532.545 498.48 532.399 498.48C532.254 498.48 532.115 498.538 532.012 498.641C531.909 498.743 531.852 498.883 531.852 499.028C531.852 499.173 531.909 499.313 532.012 499.415C532.115 499.518 532.254 499.576 532.399 499.576Z" fill="white" stroke="#FF0000"/>
<path id="Vector_74" d="M551.031 493.798C551.176 493.798 551.315 493.74 551.418 493.638C551.521 493.535 551.578 493.396 551.578 493.25C551.578 493.105 551.521 492.966 551.418 492.863C551.315 492.76 551.176 492.703 551.031 492.703C550.885 492.703 550.746 492.76 550.644 492.863C550.541 492.966 550.483 493.105 550.483 493.25C550.483 493.396 550.541 493.535 550.644 493.638C550.746 493.74 550.885 493.798 551.031 493.798Z" fill="white" stroke="#FF0000"/>
<path id="Vector_75" d="M547.751 522.148C547.896 522.148 548.035 522.09 548.138 521.988C548.241 521.885 548.298 521.746 548.298 521.6C548.298 521.455 548.241 521.316 548.138 521.213C548.035 521.11 547.896 521.053 547.751 521.053C547.605 521.053 547.466 521.11 547.363 521.213C547.261 521.316 547.203 521.455 547.203 521.6C547.203 521.746 547.261 521.885 547.363 521.988C547.466 522.09 547.605 522.148 547.751 522.148Z" fill="white" stroke="#FF0000"/>
<path id="Vector_76" d="M554.861 530.022C555.006 530.022 555.145 529.964 555.248 529.861C555.351 529.759 555.408 529.619 555.408 529.474C555.408 529.329 555.351 529.19 555.248 529.087C555.145 528.984 555.006 528.927 554.861 528.927C554.715 528.927 554.576 528.984 554.473 529.087C554.371 529.19 554.313 529.329 554.313 529.474C554.313 529.619 554.371 529.759 554.473 529.861C554.576 529.964 554.715 530.022 554.861 530.022Z" fill="white" stroke="#FF0000"/>
<path id="Vector_77" d="M645.849 526.873C645.994 526.873 646.134 526.815 646.236 526.713C646.339 526.61 646.397 526.47 646.397 526.325C646.397 526.18 646.339 526.041 646.236 525.938C646.134 525.835 645.994 525.777 645.849 525.777C645.704 525.777 645.564 525.835 645.462 525.938C645.359 526.041 645.301 526.18 645.301 526.325C645.301 526.47 645.359 526.61 645.462 526.713C645.564 526.815 645.704 526.873 645.849 526.873Z" fill="white" stroke="#FF0000"/>
<path id="Vector_78" d="M533.906 486.187C534.052 486.187 534.191 486.13 534.294 486.027C534.397 485.924 534.454 485.785 534.454 485.64C534.454 485.494 534.397 485.355 534.294 485.252C534.191 485.15 534.052 485.092 533.906 485.092C533.761 485.092 533.622 485.15 533.519 485.252C533.416 485.355 533.359 485.494 533.359 485.64C533.359 485.785 533.416 485.924 533.519 486.027C533.622 486.13 533.761 486.187 533.906 486.187Z" fill="white" stroke="#FF0000"/>
<path id="Vector_79" d="M554.028 502.562C554.173 502.562 554.312 502.505 554.415 502.402C554.518 502.299 554.575 502.16 554.575 502.015C554.575 501.869 554.518 501.73 554.415 501.627C554.312 501.525 554.173 501.467 554.028 501.467C553.882 501.467 553.743 501.525 553.64 501.627C553.538 501.73 553.48 501.869 553.48 502.015C553.48 502.16 553.538 502.299 553.64 502.402C553.743 502.505 553.882 502.562 554.028 502.562Z" fill="white" stroke="#FF0000"/>
<path id="Vector_80" d="M545.874 489.973C546.02 489.973 546.159 489.915 546.262 489.812C546.365 489.71 546.422 489.57 546.422 489.425C546.422 489.28 546.365 489.141 546.262 489.038C546.159 488.935 546.02 488.877 545.874 488.877C545.729 488.877 545.59 488.935 545.487 489.038C545.384 489.141 545.327 489.28 545.327 489.425C545.327 489.57 545.384 489.71 545.487 489.812C545.59 489.915 545.729 489.973 545.874 489.973Z" fill="white" stroke="#FF0000"/>
<path id="Vector_81" d="M542.614 504.561C542.759 504.561 542.898 504.504 543.001 504.401C543.104 504.298 543.161 504.159 543.161 504.014C543.161 503.868 543.104 503.729 543.001 503.626C542.898 503.524 542.759 503.466 542.614 503.466C542.469 503.466 542.329 503.524 542.227 503.626C542.124 503.729 542.066 503.868 542.066 504.014C542.066 504.159 542.124 504.298 542.227 504.401C542.329 504.504 542.469 504.561 542.614 504.561Z" fill="white" stroke="#FF0000"/>
<path id="Vector_82" d="M520.068 522.118C520.213 522.118 520.353 522.06 520.455 521.957C520.558 521.854 520.616 521.715 520.616 521.57C520.616 521.425 520.558 521.285 520.455 521.183C520.353 521.08 520.213 521.022 520.068 521.022C519.923 521.022 519.784 521.08 519.681 521.183C519.578 521.285 519.521 521.425 519.521 521.57C519.521 521.715 519.578 521.854 519.681 521.957C519.784 522.06 519.923 522.118 520.068 522.118Z" fill="white" stroke="#FF0000"/>
<path id="Vector_83" d="M522.771 512.806C522.916 512.806 523.055 512.748 523.158 512.645C523.261 512.543 523.318 512.403 523.318 512.258C523.318 512.113 523.261 511.974 523.158 511.871C523.055 511.768 522.916 511.711 522.771 511.711C522.626 511.711 522.486 511.768 522.384 511.871C522.281 511.974 522.223 512.113 522.223 512.258C522.223 512.403 522.281 512.543 522.384 512.645C522.486 512.748 522.626 512.806 522.771 512.806Z" fill="white" stroke="#FF0000"/>
<path id="Vector_84" d="M764.763 482.371C764.908 482.371 765.047 482.313 765.15 482.21C765.253 482.108 765.311 481.968 765.311 481.823C765.311 481.678 765.253 481.539 765.15 481.436C765.047 481.333 764.908 481.275 764.763 481.275C764.618 481.275 764.478 481.333 764.376 481.436C764.273 481.539 764.215 481.678 764.215 481.823C764.215 481.968 764.273 482.108 764.376 482.21C764.478 482.313 764.618 482.371 764.763 482.371Z" fill="white" stroke="#FF0000"/>
<path id="Vector_85" d="M547.225 514.585C547.37 514.585 547.509 514.527 547.612 514.424C547.715 514.322 547.773 514.182 547.773 514.037C547.773 513.892 547.715 513.753 547.612 513.65C547.509 513.547 547.37 513.49 547.225 513.49C547.08 513.49 546.94 513.547 546.838 513.65C546.735 513.753 546.677 513.892 546.677 514.037C546.677 514.182 546.735 514.322 546.838 514.424C546.94 514.527 547.08 514.585 547.225 514.585Z" fill="white" stroke="#FF0000"/>
<path id="Vector_86" d="M515.182 506.519C515.327 506.519 515.466 506.462 515.569 506.359C515.672 506.256 515.73 506.117 515.73 505.972C515.73 505.826 515.672 505.687 515.569 505.584C515.466 505.482 515.327 505.424 515.182 505.424C515.037 505.424 514.897 505.482 514.795 505.584C514.692 505.687 514.634 505.826 514.634 505.972C514.634 506.117 514.692 506.256 514.795 506.359C514.897 506.462 515.037 506.519 515.182 506.519Z" fill="white" stroke="#FF0000"/>
<path id="Vector_87" d="M552.646 559.665C552.791 559.665 552.931 559.607 553.033 559.505C553.136 559.402 553.194 559.262 553.194 559.117C553.194 558.972 553.136 558.833 553.033 558.73C552.931 558.627 552.791 558.57 552.646 558.57C552.501 558.57 552.361 558.627 552.259 558.73C552.156 558.833 552.098 558.972 552.098 559.117C552.098 559.262 552.156 559.402 552.259 559.505C552.361 559.607 552.501 559.665 552.646 559.665Z" fill="white" stroke="#FF0000"/>
<path id="Vector_88" d="M605.952 561.581C606.097 561.581 606.237 561.523 606.339 561.421C606.442 561.318 606.5 561.179 606.5 561.033C606.5 560.888 606.442 560.749 606.339 560.646C606.237 560.543 606.097 560.486 605.952 560.486C605.807 560.486 605.668 560.543 605.565 560.646C605.462 560.749 605.405 560.888 605.405 561.033C605.405 561.179 605.462 561.318 605.565 561.421C605.668 561.523 605.807 561.581 605.952 561.581Z" fill="white" stroke="#FF0000"/>
<path id="Vector_89" d="M506.683 520.63C506.828 520.63 506.968 520.572 507.071 520.469C507.173 520.367 507.231 520.227 507.231 520.082C507.231 519.937 507.173 519.798 507.071 519.695C506.968 519.592 506.828 519.534 506.683 519.534C506.538 519.534 506.399 519.592 506.296 519.695C506.193 519.798 506.136 519.937 506.136 520.082C506.136 520.227 506.193 520.367 506.296 520.469C506.399 520.572 506.538 520.63 506.683 520.63Z" fill="white" stroke="#FF0000"/>
<path id="Vector_90" d="M458.171 507.874C458.316 507.874 458.455 507.817 458.558 507.714C458.661 507.611 458.718 507.472 458.718 507.327C458.718 507.181 458.661 507.042 458.558 506.939C458.455 506.837 458.316 506.779 458.171 506.779C458.026 506.779 457.886 506.837 457.784 506.939C457.681 507.042 457.623 507.181 457.623 507.327C457.623 507.472 457.681 507.611 457.784 507.714C457.886 507.817 458.026 507.874 458.171 507.874Z" fill="white" stroke="#FF0000"/>
<path id="Vector_91" d="M457.476 506.831C457.621 506.831 457.76 506.773 457.863 506.67C457.966 506.567 458.024 506.428 458.024 506.283C458.024 506.138 457.966 505.998 457.863 505.896C457.76 505.793 457.621 505.735 457.476 505.735C457.331 505.735 457.191 505.793 457.089 505.896C456.986 505.998 456.928 506.138 456.928 506.283C456.928 506.428 456.986 506.567 457.089 506.67C457.191 506.773 457.331 506.831 457.476 506.831Z" fill="white" stroke="#FF0000"/>
<path id="Vector_92" d="M451.658 503.487C451.803 503.487 451.942 503.429 452.045 503.326C452.148 503.224 452.205 503.084 452.205 502.939C452.205 502.794 452.148 502.654 452.045 502.552C451.942 502.449 451.803 502.391 451.658 502.391C451.513 502.391 451.373 502.449 451.27 502.552C451.168 502.654 451.11 502.794 451.11 502.939C451.11 503.084 451.168 503.224 451.27 503.326C451.373 503.429 451.513 503.487 451.658 503.487Z" fill="white" stroke="#FF0000"/>
<path id="Vector_93" d="M462.88 521.455C463.025 521.455 463.164 521.397 463.267 521.295C463.37 521.192 463.427 521.052 463.427 520.907C463.427 520.762 463.37 520.623 463.267 520.52C463.164 520.417 463.025 520.359 462.88 520.359C462.734 520.359 462.595 520.417 462.492 520.52C462.39 520.623 462.332 520.762 462.332 520.907C462.332 521.052 462.39 521.192 462.492 521.295C462.595 521.397 462.734 521.455 462.88 521.455Z" fill="white" stroke="#FF0000"/>
<path id="Vector_94" d="M453.526 499.736C453.672 499.736 453.811 499.678 453.914 499.576C454.016 499.473 454.074 499.334 454.074 499.188C454.074 499.043 454.016 498.904 453.914 498.801C453.811 498.698 453.672 498.641 453.526 498.641C453.381 498.641 453.242 498.698 453.139 498.801C453.036 498.904 452.979 499.043 452.979 499.188C452.979 499.334 453.036 499.473 453.139 499.576C453.242 499.678 453.381 499.736 453.526 499.736Z" fill="white" stroke="#FF0000"/>
</g>
</g>
</g>
</g>
</g>
<rect id="Rectangle 1" x="454.579" y="498.393" width="10.9537" height="10.9537" fill="#C4C4C4"/>
</g>
</svg>
