<svg width="597" height="501" viewBox="0 0 597 501" fill="none" xmlns="http://www.w3.org/2000/svg">
<path d="M35.8491 465.866H35.4491V466.266H35.8491V465.866ZM35.8491 16.4331V16.0331H35.4491V16.4331H35.8491ZM543.088 16.4331H543.488V16.0331H543.088V16.4331ZM543.088 465.866V466.266H543.488V465.866H543.088ZM36.2491 465.866V16.4331H35.4491V465.866H36.2491ZM35.8491 16.8331H543.088V16.0331H35.8491V16.8331ZM542.688 16.4331V465.866H543.488V16.4331H542.688ZM543.088 465.466H35.8491V466.266H543.088V465.466Z" fill="black"/>
<path d="M543.088 375.821V326.292L540.943 326.792L517.119 325.265L520.316 341.46L520.764 348.323L518.997 353.717L525.255 364.499L532.608 370.085L539.998 373.554L543.088 375.821Z" fill="#BF6464"/>
<path d="M543.088 315.763V16.4331H445.4L441.577 22.729L434.424 24.3372L404.871 16.4331H380.637L378.427 17.5015L366.036 27.9839H368.461L371.111 30.5964L377.195 33.2373H371.497L357.899 31.228L351.256 32.8068L346.03 36.0501L343.119 40.211L337.857 54.6669L331.139 66.6766L321.957 77.1898L303.221 90.502L304.739 100.888L301.765 106.636L292.795 114.47L304.266 116.871L306.456 113.498L309.155 111.44L312.029 110.41L320.589 110.067L326.66 111.525L330.143 116.985L328.252 128.927L334.945 125.271L344.351 123.871L353.607 124.985L359.765 128.927L350.099 133.782L345.197 137.951L343.082 146.314L345.545 150.965L351.256 150.223L361.855 144.116L355.423 158.21L349.228 158.352L345.122 158.467L334.311 155.044L326.386 158.039L332.656 162.829L330.019 164.711L327.742 166.992L324.097 172.407L326.983 175.713L330.056 177.451L333.328 177.821L336.812 177.194L332.221 182.151L327.356 182.607L317.852 177.194L316.085 174.858L314.53 171.638L312.29 168.816L266.346 160.434L257.115 167.619L267.652 168.303L277.953 173.832L296.951 191.491L295.047 192.402L290.705 196.274H296.951V201.539L291.763 204.099L285.716 205.266L279.533 204.469L273.997 201.539L279.757 197.014L282.171 196.274L276.324 193.086L267.876 193.826L260.3 199.319L257.115 210.614L262.215 207.513L269.518 209.817L276.896 215.05L282.171 220.623V224.915L280.342 228.154L278.563 229.689L276.572 228.922L273.997 224.915L266.819 236.677L258.533 242.386L233.004 247.411L218.149 260.522L210.063 263.5L206.007 261.912L198.082 255.074L194.263 253.542L190.842 254.762L179.682 263.5L165.163 265.968L160.685 268.208L156.99 271.583L152.834 276.544L151.018 282.127L154.427 287.255L149.637 292.071L142.284 293.855L112.451 292.326L105.011 290.032L99.985 282.552H104.364L100.221 264.465L92.7443 247.581L84.4711 235.058L73.834 227.615L64.5406 217.041L60.1241 215.391L56.2922 218.064L53.0451 222.954L51.2163 228.836L51.5895 234.462L51.4154 240.909L51.913 255.5L51.5895 263.5L50.3952 269.173L45.6925 282.552L47.7826 295.639L53.0078 304.472L59.4771 309.482L65.3493 311.01L72.4157 306.171H75.526L76.8199 313.386L74.7298 315.678L61.2562 315.763L58.4818 321.335L52.336 346.657L47.596 353.717L51.067 359.306L54.3514 362.072L56.8894 365.458L58.2081 373.075L57.7354 380.914L55.8817 385.594L53.5054 390.047L51.5895 397.147L54.9735 399.26L59.6264 408.384L63.3463 410.495L65.7349 409.228L67.6757 406.441L69.2806 403.4L70.7487 401.457L77.529 398.753L107.126 402.161L110.411 401.457L113.844 399.091L119.691 393.175L129.483 390.047L140.978 382.549L148.181 382.521L143.815 387.257L150.383 391.963L156.044 386.27L161.667 377.615L168.112 373.075L250.857 391.991L266.57 386.919L270.874 387.2L283.365 386.552L334.199 367.969L344.351 369.464L353.856 376.29L364.132 387.257L374.956 394.781L464.531 382.521L465.7 380.971L466.521 379.279L467.442 377.982L468.898 377.785L464.867 365.74L469.781 358.516L478.365 354.931L492.523 353.237L506.357 355.354L512.727 358.854L508.833 348.323L500.958 341.714L485.394 334.763V330.439L488.84 327.979L498.42 317.658L501.182 313.386L504.429 310.472L520.142 306.255L525.479 307.444L540.048 315.763H543.088Z" fill="#BF6464"/>
<path d="M436.157 16.4331L436.352 16.5247L436.513 16.4331H436.157Z" fill="#BF6464"/>
<path d="M341.45 16.4331L334.535 22.729L333.341 25.6581L332.37 29.5342L330.915 33.754L328.252 37.6285L325.652 39.6658L319.718 41.7604L316.807 41.9612L311.992 43.826L298.145 54.0075L293.816 59.4832L282.395 69.7997L267.913 67.8228L240.406 57.3332V52.0863L253.245 44.4284L265.45 32.8068L275.627 18.3633L278.68 16.4331H285.726L288.789 18.3345L290.561 16.4331H341.45Z" fill="#BF6464"/>
<path d="M315.04 155.9L315.687 158.98L319.22 162.174L322.106 166.422L319.245 168.502L316.11 165.253L314.169 163.371L313.062 160.406L311.332 158.324L308.919 155.985L311.619 153.218L315.04 155.9Z" fill="#BF6464"/>
</svg>
