<svg width="923" height="816" viewBox="0 0 923 816" fill="none" xmlns="http://www.w3.org/2000/svg">
<g id="Frame 1">
<g id="coast">
<path d="M745.057 189.276L741.805 192.937L729.558 198.58L724.107 202.791L717.76 204.404L715.589 206.224L713.918 209.216L715.609 209.864L716.44 210.735L716.788 212.087L717.139 212.421L719.411 217.169L719.097 219.186L717.676 223.342L711.073 229.764L709.911 230.326L705.648 230.597L703.828 232.24L702.561 236.038L704.684 237.714L705.729 238.185L709.824 238.455L710.703 239.777L711.09 243.001L710.366 243.519L708.262 245.428L709.694 246.527L717.479 246.796L721.975 248.91L725.106 248.641L730.785 243.43L734.309 243.001L735.851 243.831L737.21 245.407L738.182 247.964L738.553 251.81L738.994 253.804L739.962 254.48L740.931 254.707L741.378 255.328L741.538 257.272L742.22 261.055L742.316 262.9L742.108 263.596L741.226 264.504L740.906 265.206L740.864 265.983L740.906 268.555L739.064 273.86L738.266 274.574L733.795 280.186L728.707 284.01L727.156 286.045L727.283 288.981L725.927 291.382L722.444 295.231L724.503 295.094L726.337 293.604L729.558 289.378L728.493 292.818L726.511 296.583L725.699 299.602L728.142 300.85L730.619 300.134L736.031 296.98L750.847 292.934L756.18 289.987L759.003 289.255L761.216 291.676L758.222 298.728L756.515 300.462L756.686 301.894L757.481 303.872L757.801 304.295L759.368 305.522L763.738 308.48L765.024 310.101L761.272 311.258L759.261 312.851L757.576 317.163L754.01 321.416L752.608 324.981L747.365 331.307L746.315 333.4L745.512 335.899L745.144 338.68L746.023 337.374L747.494 333.746L748.23 332.994L749.022 332.547L751.336 330.169L752.049 329.071L753.308 326.365L761.856 313.463L763.356 312.388L765.204 312.871L770.68 316.952L769.596 315.361L767.636 313.205L766.866 311.353L782.031 320.479L783.963 320.785L791.546 318.849L792.832 319.039L793.641 319.854L794.152 321.851L794.244 323.555L793.86 324.716L792.955 325.028V326.073L795.123 325.992L796.078 326.324L796.724 327.321L796.797 328.481L796.292 331.971L796.763 333.191L797.362 334.112L798.611 335.269L801.824 330.494L803.596 329.172L805.677 329.694L806.036 330.392L806.191 332.994L806.621 333.123L807.615 332.811L808.03 332.994L810.9 336.508L811.013 340.181L810.03 342.487L808.761 344.075L808.03 345.581L808.205 346.547L808.996 349.706L809.022 351.143L808.564 351.79L806.191 353.509L806.896 354.52L806.882 355.781L806.637 357.31L806.666 359.168L804.335 360.871L798.05 359.916L795.309 361.423L797.011 362.903L802.38 364.813L802.602 367.522L801.026 369.376L798.828 370.377L795.39 370.404L793.933 370.867L791.029 372.7L785.266 373.787L783.491 374.955L784.57 376.497L795.516 372.391L798.847 372.7L805.514 370.941L807.604 371.572L811.024 373.868L812.788 375.8L813.773 378.428L812.131 379.728L809.325 384.202L807.823 385.179L799.08 387.414H789.849L785.845 388.437H781.604L783.727 390.142L791.759 388.437L802.38 389.661L807.135 388.437H809.727L810.417 388.992L810.092 390.195L809.022 392.007L808.901 393.79V394.431L808.55 395.166L805.935 396.381L803.61 396.615L801.439 397.502V398.73L806.781 397.596L808.03 398.73V399.737L807.37 399.917L806.764 400.377L805.677 402.078H807.823L808.499 402.418L809.727 404.217L810.417 403.717L811.524 401.478L812.102 400.971L812.243 400.331L814.248 396.381L817.073 393.029L817.264 395.433L817.011 402.258L816.604 404.217V405.436L817.888 406.375L818.264 407.927L817.803 409.91L816.604 412.145L815.206 413.436L812.282 414.3L810.9 415.483L812.76 419.243L812.577 419.947L811.501 420.478L809.345 422.847L808.294 423.384L803.318 422.17L799.03 422.946L797.623 422.17L796.966 420.65L796.393 418.393L795.668 416.373L794.581 415.483L793.461 415.117L791.175 413.522L787.555 412.305L783.727 408.526L781.604 407.674L782.042 409.471L782.761 410.789L783.604 411.667L784.387 412.145L781.902 414.938L767.849 415.483V416.706L789.613 418.824L790.318 419.462L791.276 420.703L792.121 422.283L792.484 423.888L793.073 424.757L796.292 427.734L803.408 431.046L804.778 433.39L801.908 435.666L798.524 435.15L792.484 432.185L785.609 433.39L781.371 431.556L780.189 432.185L784.266 435.13L794.152 437.438L798.611 441.159L799.819 443.597L800.044 444.983L799.299 445.59L798.173 446.112L796.455 448.401L795.545 448.915L788.333 446.079L786.274 447.9L793.756 450.979L795.011 452.198L795.053 453.938L793.082 454.557L785.204 454.228L783.014 453.332L782.584 454.102L782.014 454.662L780.613 455.545V456.75L782.736 459.395L783.856 461.178L784.901 463.374L783.778 463.794L780.613 466.685L765.279 469.981L762.811 469.194L761.44 468.314L760.528 467.237L758.553 460.934L756.79 459.119L754.931 455.387L753.909 454.537L748.488 453.332L749.171 454.261L749.912 454.583L751.55 454.537L752.499 455.288L752.406 456.967L751.785 459.968L752.853 461.329L756.34 463.242L757.481 463.374L757.368 466.501L758.32 469.062L759.618 471.261L760.528 472.186L764.032 473.393L765.31 474.783L764.552 476.592L765.024 477.693L753.454 473.78L749.898 476.592L751.024 477.968L753.791 479.409L755.127 480.98L755.793 482.787L755.711 484.318L754.981 485.567L753.67 486.469H744.467L743.624 487.522L744.473 489.665L745.843 491.468L746.562 491.449L747.267 493.094L748.758 494.152L750.106 494.249L750.376 493.055L753.218 492.278L757.481 485.848L759.626 484.278L760.064 485.063L759.003 486.855L752.676 494.582L751.785 496.442L751.547 497.929L751.342 501.234L751.058 502.504L748.803 506.502L748.488 507.96L748.724 511.231L747.68 512.479L747.388 514.163L746.349 517.176L739.182 517.975L732.422 520.544L735.413 518.169L741.586 516.384L744.72 515.098L742.956 513.903L735.284 512.674L734.739 512.928L734.649 513.604L734.781 515.734L734.52 516.189L734.014 516.533L732.54 518.033L731.698 518.364L731.38 518.792L729.982 521.537L729.184 522.367L725.365 524.824L723.798 526.476L722.388 528.4L721.503 530.342L722.11 527.746L722.444 527.079V525.99H721.975L721.503 527.578L720.439 528.963L719.271 529.954L718.456 530.342L718.201 530.854L718.403 532.012L718.928 533.17L719.636 533.688L721.13 533.519L721.79 533.177L722.444 532.51L722.781 534.748L723.388 536.856L721.843 536.83L719.81 539.499L718.456 540.196L715.252 539.854L713.845 539.195L712.506 538.026L710.323 535.369L709.001 534.186L707.577 533.688L706.959 534.14L705.664 536.222L705.005 536.856L704.165 536.675L703.376 536.054L702.567 535.834L701.668 536.856L702.561 538.026L701.823 538.807L701.028 539.079L699.309 539.014L700.68 534.671V533.688L698.456 534.309L697.374 534.224L696.911 533.099L696.596 530.647L695.833 529.002L694.906 528.445L694.086 529.248V530.342L695.049 531.915L695.538 534.671L694.603 534.03L692.637 533.293L691.73 532.51V531.527L692.401 529.3L691.384 525.952L689.649 522.879L688.171 521.537L686.751 519.96L682.26 518.364L683.437 519.338L687.231 521.05L687.969 522.821L689.842 528.057L689.255 528.925L688.666 529.177L688.073 528.866L687.484 528.057V529.248L688.882 530.53L689.126 532.976L688.553 535.757L687.484 538.026L685.796 538.917L681.948 537.864L680.37 539.014L681.342 539.867L682.395 540.196H684.661L682.914 541.649L678.494 543.256L674.529 543.637L670.361 545.211L668.553 546.701L667.615 544.424L665.688 547.146L659.56 552.096L665.309 550.144L666.665 551.116L664.349 553.062L646.471 558.564L643.969 560.84H647.221V561.81L642.831 565.62L640.677 566.544L638.307 569.355L636.673 570.568L636.01 571.337L635.482 572.684L634.76 571.164L634.072 570.895L633.376 571.529L632.612 572.684V573.76H633.55V574.741L629.405 577.643L627.899 578.065L628.332 575.817L624.603 578.654L622.816 580.83L621.732 583.427L622.864 583.491L624.456 581.771L622.67 585.416L621.732 586.751L616.773 591.056L613.47 596.288L611.322 597.448L612.181 596.976L613.049 596.218L613.762 595.012L614.15 593.175L603.74 601.832L594.48 604.531L593.099 604.123L591.914 602.799L593.015 604.416L593.632 604.817L594.312 604.932L593.031 605.714L591.914 606.001L592.144 607.648L592.105 609.816L591.74 611.666L590.97 612.409L590.633 611.913L590.504 610.846L590.327 608.214L589.089 607.069L585.786 602.799L584.679 602.411L584.118 602.863L583.927 604.225L583.907 606.535L584.095 611.462L583.671 612.409L582.747 611.869L582.601 610.484L582.964 606.535L582.736 605.123L582.236 603.296L581.734 602.296L581.506 603.328L581.413 609.454L581.076 611.246L582.003 612.669L581.675 613.737L580.574 614.41L579.189 614.626L579.967 611.094L580.018 609.549L579.619 608.233L580.091 606.262L580.958 605.562L580.995 604.664L580.562 603.863L581.026 597.384L580.585 595.752L579.838 594.553L579.046 593.851L578.675 594.725L578.608 600.443L579.189 601.832L578.063 602.85L576.771 602.755L575.625 602.984L574.909 604.932L575.752 606.535L576.577 610.007L577.737 611.246L576.476 613.012L573.918 613.61L568.978 613.47L567.925 613.114L565.44 611.246L564.505 611.913L563.569 612.981L562.865 612.943L562.612 610.274L554.091 615.603L544.622 618.802L538.191 620.349L538.952 619.227L539.39 617.856L539.359 616.187L538.969 614.626L538.455 616.847L537.629 618.358L536.643 618.802L535.629 617.736L536.141 621.015L527.143 627.401L527.822 624L529.608 622.08L531.821 621.211L533.782 621.015V619.855L529.215 617.469L527.575 615.603L527.221 617.71L527.575 619.855L525.8 621.097L524.107 620.749L522.38 619.943L520.504 619.855L521.916 621.015V621.985L520.178 621.947L519.392 622.264L518.664 623.145L517.533 622.498L516.28 623.43L515.269 625.153L514.848 626.87L514.477 629.623L513.542 631.521L512.312 632.027L511.034 630.585L510.141 631.913L509.815 633.285L510.169 634.385L511.293 634.834L512.169 634.499L513.542 633.039L514.595 632.71L520.043 633.323L521.916 632.71L518.948 638.499L517.148 640.09L515.32 639.067L515.665 638.701L515.791 638.101H512.966L513.067 639.547L511.124 639.351L510.054 640.222L510.944 640.115L511.554 640.563L511.781 641.63L511.551 643.403L516.69 643.106L517.673 642.248L515.96 647.489L513.475 652.282L510.307 655.781L503.238 659.026L498.714 662.456L494.403 663.461L492.143 660.308L493.016 659.176L494.957 658.46L495.701 657.617L496.625 655.951L497.493 655.196L499.683 655.026V653.969L497.723 653.931L494.021 655.083L492.143 655.026L487.433 652.08L486.023 651.759L486.447 652.924L485.72 653.44L485.504 653.969L486.169 654.913L488.118 658.101L488.787 659.082L489.551 664.428L495.212 664.842L480.44 667.102L471.889 671.216L457.365 675.188L453.846 675.044L440.613 670.927L435.03 672.469L433.03 671.886L434.103 671.554L434.446 670.927L431.98 670.376L430.75 669.686L429.731 668.726L428.335 670.72L419.045 668.726L418.169 668.331L414.566 665.57L408.907 664.428L400.847 658.95L389.76 655.932L387.575 653.969L388.507 653.793L389.038 653.195L388.968 652.433L388.092 651.759L387.249 651.703L386.09 652.647L385.239 652.924L378.625 651.759L378.827 652.534L385.736 653.969L367.521 652.71L366.333 650.796L365.853 651.174L365.432 651.759L364.892 650.934L364.446 650.796L364.918 652.924L359.618 653.025L357.037 652.395L346.546 643.523L345.512 642.248L346.484 643.138L347.596 643.516L348.736 643.251L349.795 642.248L348.91 642.078L347.338 641.358L346.45 641.188L346.922 638.101L345.658 639.963L344.518 640.715L343.282 640.393L341.741 639.067V638.101L344.1 639.067L343.176 636.698L341.918 635.315L340.558 634.215L339.339 632.71L336.818 627.268L335.102 627.401V628.37L337.508 631.812L338.901 634.366L339.856 636.945L335.27 632.748L333.164 629.984L331.847 626.338L332.785 625.179L332.274 624.444L331.327 621.985L333.262 619.74L335.447 618.446L340.089 617.736L342.271 618.751L346.102 622.847L348.379 623.145L347.231 621.643L345.546 618.738L344.608 617.736L339.339 614.626L341.418 610.712L341.741 609.206L341.479 607.012L340.71 606.44L340.098 606.993L340.325 609.206L339.502 610.712L334.579 616.86L333.262 618.237L331.583 618.802L331.038 619.411L330.856 624.209L330.33 625.73L329.996 626.053L326.893 624.247L323.849 621.579L321.521 620.52L316.682 616.67H321.181L321.993 617.076L323.652 618.687L324.691 618.802L324.832 617.894L325.742 617.609L328.033 617.736V616.67H326.107V615.603H327.09V614.626L322.186 615.883L320.451 615.603V614.626L322.798 611.532L323.489 606.796L322.535 602.761L319.937 601.832V602.799L321.877 603.614L321.658 605.772L320.355 608.297L317.78 611.793L316.132 613.076L314.275 613.495L312.396 612.409L313.382 615.603L310.594 612.606L304.368 608.424L295.541 605.104L292.547 602.908L290.879 602.124L289.219 600.863L287.807 598.43L288.206 597.212L288.105 595.663L287.383 592.007L292.761 592.352L295.721 591.663L297.745 589.862H292.559L289.27 587.984L288.065 587.716L284.518 588.668L283.785 589.326L283.162 590.29L280.222 593.175V594.151L283.735 595.72L285.513 597.212L286.391 599.589L284.954 598.799L281.831 598.321L278.635 598.704L276.697 599.513L275.588 601.144L276.498 603.863L276.169 603.907L275.512 604.932L255.292 607.699L252.849 606.001L250.529 603.525L248.384 601.984L246.092 601.647L234.617 605.842L230.826 605.924L227.279 607.069L208.601 602.799L207.146 603.824L205.877 605.778L204.599 607.063L203.117 606.001L204.102 604.932L202.476 604.938L199.881 606.631L197.671 607.337L195.576 609.206L194.835 609.365L188.154 608.596L186.623 609.206L184.952 611.246L184.113 610.77L183.062 608.71L182.298 608.233L182.731 606.631L183.686 604.569L183.793 602.799L183.495 601.08L182.922 600.316L182.181 599.691L181.397 598.43L182.467 596.836L183.854 591.12L184.481 589.862L187.522 589.843L187.994 589.326L187.702 587.697H187L185.405 588.789L184.079 588.444L182.619 587.314L181.439 585.32L180.967 582.366L182.298 578.065L182.372 576.259L182.214 570.24L182.627 568.912L183.36 567.809L184.225 567.205L185.222 567.578L187.32 569.965L189.721 571.645L191.588 574.472L193.276 578.283L194.211 582.366H193.223L194.357 584.054L196.037 584.572L202.771 584.917L204.431 584.514L205.512 583.427L204.743 582.27L205.153 581.009L206.925 579.128L207.936 578.622L211.213 578.065L213.732 576.093L214.504 575.817L215.366 576.163L217.155 577.707L218.071 578.065L219.896 577.393L223.249 574.433L229.012 573.299L230.882 572.01L232.503 569.355L233.084 570.26L233.533 570.433L233.935 570.086L234.348 569.355V568.386L233.157 567.128L231.492 565.947L229.843 565.427L228.692 566.127L229.411 563.577L231.121 562.337L233.028 562.17L234.348 562.89L233.803 563.057L232.503 564.078L233.752 564.74L235.148 564.92L236.513 564.656L237.684 564.078V562.89H236.274L237.684 561.81L233.396 557.824L231.07 556.576L228.692 556.422L230.776 554.8L241.147 556.692L242.402 558.583L244.548 559.805L245.646 559.702L246.682 558.583L245.896 558.725L245.157 558.641L244.463 558.249L243.812 557.503L245.149 555.765L245.744 555.341L244.329 554.259L246.117 553.583L248.558 554.356L250.883 554.298L252.335 551.116L249.942 552.495L248.653 552.662L248.097 551.612L248.575 549.725L249.681 548.784L251.863 547.688L250.473 546.798L248.384 546.547L246.261 546.863L244.75 547.688L245.177 544.992L244.39 543.76L243.02 543.431L241.088 543.508L240.439 543.74L239.83 544.205L239.335 544.966L236.746 544.424L238.771 542.656L239.442 541.358L239.099 539.014L243.329 536.009L245.401 533.636L246.918 530.925L248.106 527.662L248.763 526.723L249.942 525.99L251.442 525.634L255.798 526.088L254.424 525.492L253.826 524.902H253.279L256.076 522.536L257.578 521.809L259.213 521.537L268.716 524.079L270.331 523.716L272.254 520.544L269.151 522.315L267.5 521.537V520.544L268.16 520.577L268.722 520.33L269.817 519.461L269.758 518.539L269.384 518.364H269.817L257.275 517.566L251.383 518.968L246.168 523.716L244.75 527.079L244.163 527.539L241.079 528.478L237.954 530.776L236.976 532.012L234.398 534.341L231.129 533.895L224.92 531.527V530.342L227.818 528.614L230.573 525.99L232.871 522.73L234.348 521.796L235.842 522.724L237.117 521.355L240.169 520.369L241.501 519.461L235.348 518.792L233.446 519.461L232.115 520.382L231.037 520.739L229.984 519.883L228.692 517.176L229.619 515.683L230.338 509.046L230.798 508.851L231.357 509.32L231.829 509.378L232.185 506.607L232.562 505.318L233.446 503.104L233.539 501.41L235.283 499.781L243.051 495.757L247.154 495.346L246.825 493.917L246.171 493.114L245.306 492.859L244.329 493.055V492.056L245.587 490.854L248.226 487.234L250.541 486.195L252.335 484.278L253.259 484.069L256.152 484.278L255.876 487.169L257.269 487.639L259.041 487.679L259.918 489.313L260.813 490.489L266.559 490.861L265.425 489.953L263.015 490.201L261.805 489.861L260.811 488.764L259.291 486.28L258.033 485.482L260.861 484.278V483.291H253.75V482.08L257.702 479.644L258.977 478.295L260.12 477.987L265.576 478.891V477.693L260.204 476.533L258.505 476.592L254.09 480.738L252.335 480.98V479.88L254.141 478.151L254.804 476.965L255.208 475.392L252.453 478.42L251.653 478.891L251.018 479.723L250.563 483.441L246.168 487.568L242.579 488.94L241.501 489.861L241.93 492.056L239.883 491.331L237.948 491.873L233.918 495.346L232.284 497.322L231.197 497.988L230.102 497.525L229.36 495.972L229.461 494.387L230.573 490.861L229.141 491.331L228.462 493.127L227.995 498.842L226.336 501.905L226.046 503.351L225.951 505.422L225.395 506.372L222.912 506.346L221.688 507.993L220.447 508.461L219.326 507.934L218.082 506.509L217.009 504.419L216.394 501.905L215.265 503.468L214.038 504.087L215.021 502.055L215.869 499.559L216.15 497.146L215.451 495.346L215.746 495.098L216.394 494.249L215.307 493.218L214.701 493.022L214.038 493.055L215.021 490.861V489.861L211.848 492.252L209.89 493.192L208.388 493.055L207.144 491.102L206.641 488.47L206.891 485.927L207.871 484.278V483.291L206.675 483.055L205.798 481.857L204.832 479.88L203.945 479.422L202.948 478.263L201.277 475.392L202.999 476.159L204.799 477.987L206.621 479.107L208.388 477.693H206.925L207.346 475.864L208.006 474.652L208.831 473.858L209.758 473.288L208.812 472.186V471.084L216.807 467.053L218.795 464.478V463.374L214.515 467.106L212.235 468.327L210.017 468.78L208.135 469.994L206.015 472.284L204.069 473.681L202.687 472.186L203.588 471.536L205.512 468.78L206.916 467.316L207.717 466.14L208.388 464.478L207.871 463.374L208.492 463.085L208.876 462.624L209.758 461.171L208.214 459.349L206.135 458.764L201.701 458.961L202.687 456.75H201.277L201.76 455.11L203.63 450.023L202.917 450.221L202.288 450.86L201.743 451.922L201.277 453.332L200.842 451.829L200.277 451.223L199.629 451.408L198.918 452.225V453.332L195.11 452.225L194.034 452.765L191.996 455.071L190.864 455.545V456.75L191.406 456.908L192.751 457.855L186.393 459.099L184.742 457.855L186.368 458.086L187.196 457.954L187.783 457.303L187.584 456.394L186.014 453.865L185.405 453.332H178.097L179.176 454.517L182.812 456.75V457.855L180.962 457.783L177.715 454.886L175.738 454.537H176.21L167.555 453.74H159.326L149.82 453.035L145.807 448.77L141.982 448.487L135.304 450.023L135.262 450.485L133.585 453.332L132.086 454.531L131.252 454.735L123.223 452.225L123.964 451.539L124.779 451.131L125.641 450.986L124.481 450.498L121.841 451.928L119.769 454.636L119.454 457.855L118.176 461.651L116.289 463.229L111.186 463.374L109.692 463.794L106.671 465.49L105.272 465.687L100.282 462.769L99.2173 461.211L98.2288 460.816L97.5042 460.033L97.2178 457.303L96.8302 455.861L93.8787 451.131L92.615 448.566L91.545 445.841L89.6409 438.939L90.1071 437.729L91.5001 439.17L92.8003 438.562L95.3362 435.507L96.6561 434.673L104.154 432.516L105.62 432.688L111.169 436.36L118.769 437.729L119.423 437.306L121.336 434.501L124.192 434.66L124.891 433.946L127.407 429.947L130.244 428.966L136.5 430.066V428.847L135.902 427.906L135.518 426.62L138.41 426.421L139.354 427.296L138.859 430.066L139.769 430.755L140.91 428.794L141.682 428.847L141.932 430.41L141.943 432.688L142.302 433.866L143.569 432.185L144.645 433.218L145.891 432.589L146.914 431.059L147.341 429.45L146.198 423.344L146.4 421.055L148.295 418.446L151.168 417.928L156.81 418.824L156.291 420.69L155.431 421.951L153.463 423.384L153.982 425.613L153.173 425.792L152.592 426.408L151.581 428.847L155.398 434.501L154.985 432.033L154.934 429.986L155.243 428.237L155.912 426.62L156.355 426.262L157.664 426.01L158.22 425.613L158.667 424.698L159.422 421.613L161.326 419.083L163.3 418.884L165.173 420.504L166.746 423.384L167.841 421.692L169.285 420.637L173.52 419.588L177.625 416.706L176.527 415.995L171.506 416.706V415.483L174.407 414.818L179.569 409.458L182.298 408.792L181.397 409.91L182.627 410.243L183.793 411.028V413.156L182.826 414.579L180.743 415.749L179.982 416.706L180.894 416.958L182.046 416.872L183.231 416.393L184.225 415.483L184.686 418.645L185.272 419.973L187.567 421.055L190.65 423.922L191.807 424.399V423.384L190.948 422.867L190.173 421.845L188.466 418.824L190.336 416.314L191.364 415.516L192.751 415.483L192.886 413.316L194.178 412.684L199.94 412.963L205.593 411.607L214.928 413.489L221.109 416.706L221.812 416.274L222.867 414.805L223.508 414.366H228.692L230.09 415.018L231.573 416.174L233.157 416.586L234.348 415.483L236.156 416.712L243.812 415.483L245.646 413.921L245.716 411.893L244.486 410.27L242.402 409.91L243.099 407.74L243.919 407.021L244.921 406.622L246.168 405.436L247.053 403.544L249.942 395.166L250.17 389.48L247.963 387.153L244.969 387.454L242.829 389.661V390.784H243.34V392.007L232.932 400.971L229.484 402.418L209.806 398.57L204.852 394.491L204.102 394.151L203.765 394.251L202.782 394.992L196.492 395.98L194.638 395.166L193.33 393.563L194.388 392.868L196.407 392.227L197.977 390.784L198.502 391.639L199.019 391.986L200.289 392.007V390.784L198.761 389.647L197.014 389.473L193.689 390.784L194.397 388.35L195.652 385.995L197.977 382.93L201.187 381.39L202.406 379.996L202.221 377.308L203.234 376.866L205.728 377.308L206.343 376.665L208.388 372.7L210.227 371.277L217.928 369.074L224.434 364.013L226.928 360.865L231.349 358.569L232.932 356.805L232.483 356.522L232.503 355.774L233.539 355.895L235.232 357.802L236.274 357.936L235.334 354.541L239.613 352.033L248.575 349.186L252.849 346.621L246.221 348.815L243.812 348.876L238.889 347.755L234.794 348.984L233.446 348.876L234.803 346.304L236.274 344.352L233.783 341.885L232.848 340.08L232.503 337.543L231.601 338.227L230.649 338.639L229.669 338.802L228.692 338.68L229.082 341.013L228.467 341.763L227.484 341.527L226.765 340.952L226.131 339.458L224.836 335.472L223.935 334.132L224.294 336.941L224.131 339.296L223.519 341.351L222.519 343.217L220.598 345.351L219.975 345.581L218.734 349.402L218.071 350.11L215.468 350.36L214.302 349.888L212.449 346.959L208.388 343.217L205.484 341.723L205.096 340.256L206.456 337.543L207.952 336.427L215.594 334.748L218.795 332.486L220.447 331.971L221.211 331.239L221.416 329.532L221.581 326.073L222.177 324.899L222.94 324.003L224.449 322.761L222.407 323.331L217.338 330.724L214.987 332.703L212.741 333.766L207.871 334.132V332.994L210.792 330.88L211.685 329.694V328.447L210.252 328.555L209.225 329.538L207.439 331.971L206.012 332.527L205.139 331.849L204.338 330.921L203.117 330.724V331.971L203.956 333.245L203.602 334.741L202.597 335.994L198.786 337.543L197.767 337.016L197.034 334.132L196.964 331.402L197.227 329.355L197.211 327.28L196.306 324.458L194.97 318.583L194.144 316.537L193.282 318.087L193.38 322.571L194.481 326.12L194.489 327.484L194.099 328.765L192.774 331.7L192.021 332.838L191.156 332.953L190.134 331.348L188.825 328.196L188.238 327.918L187.803 332.256L187.28 333.57L186.533 334.206L185.64 334.132L185.107 333.421L184.556 332.08L182.981 326.853L182.68 324.132L183.18 321.335L184.742 318.196L184.113 317.278L183.764 317.516L183.422 318.087L182.812 318.196L180.967 316.952H179.805L179.409 317.238L179.089 318.196L179.131 319.154L179.749 322.761L180.411 324.824L182.298 337.543L181.332 338.579L180.153 338.321L178.878 337.672L177.625 337.543V336.508L178.019 335.127L177.682 334.003L176.901 333.272L175.974 332.994L173.688 333.746L172.93 333.543L172.871 331.971L172.307 332.1L170.56 331.971V330.724L172.231 329.043L175.314 324.797L177.159 323.888L176.468 322.055L175.306 320.785L172.871 319.229L172.492 322.951L171.088 326.141L169.341 327.742L167.926 326.69L166.754 321.158L166.016 320.479L165.836 321.607L165.289 328.447L163.823 330.352L159.675 331.375L157.731 332.486L153.923 330.596L151.89 328.521L152.095 325.028L150.171 326.161L148.997 329.457L148.908 333.096L150.211 335.269V336.508L149.318 337.442L147.751 340.019L146.829 340.952L145.726 341.297L141.129 340.749L139.239 339.897L138.129 339.715L137.057 339.174L135.091 336.508L134.293 336.819L133.585 337.543L134.099 337.99L134.574 338.68L132.591 339.512L128.96 342.541L119.639 344.446L117.522 343.217L117.46 345.21L117.162 345.851L116.696 346.02L116.112 346.621L113.517 351.143L100.857 354.702L97.6615 354.318L94.8644 352.377V351.143L95.252 349.827L94.9599 348.619L93.449 346.621L94.7071 346.709L95.2407 347.053L95.808 347.755L96.0102 344.703L94.738 343.163L93.1626 343.386L92.4633 345.581L90.812 343.102L80.2106 338.68L60.5356 340.79L58.0137 340.31L56.5225 337.543L59.5527 335.716L61.086 334.179L61.7488 332.486L62.6193 331.348L66.6521 328.765L67.8765 327.321L68.1574 324.729L68.1461 321.722L68.5393 319.229L70.6624 317.815L71.8699 316.184L72.8472 315.81L74.6024 316.136L81.3171 320.153L83.2548 320.479L84.44 321.192L88.2256 326.073L90.944 327.809L95.7659 329.111L96.9117 330.697L97.9143 332.567L99.1022 334.132L101.183 335.188L103.197 335.046L107.12 332.994L103.969 333.116L102.337 332.669L101.031 331.971L99.9025 330.474L97.8721 326.806L96.4904 326.073L93.0952 322.313L91.208 319.012L89.0063 316.034L87.7959 313.64L98.2063 315.81L104.966 319.807L107.12 320.479L105.8 317.89L103.955 315.708L101.984 314.184L98.9842 313.075L95.4036 310.666L92.2078 309.488L90.6856 308.01L88.2256 304.493L85.3948 298.659L85.1673 296.529L85.1701 292.524L84.4568 290.541L87.3775 287.913L90.343 288.119L119.454 304.493L120.111 305.318L121.336 307.812L123.214 309.277L123.695 310.101L124.402 313.082L124.093 314.973L123.363 316.707L122.793 319.229L124.032 319.936L125.615 318.665L128.446 314.667L128.721 315.504L129.82 316.952L130.569 315.381L134.321 316.333L135.987 315.81V314.667L135.096 313.953L134.574 312.388L135.776 312.299L138.859 310.101L139.977 309.964L141.084 310.128L142.137 309.992L143.1 308.956L134.911 309.651L131.176 308.439L128.446 306.667L127.491 305.55L126.264 303.572L125.59 301.69L126.281 300.85L130.578 298.844L131.513 299.233L132.586 300.195L138.219 299.424L140.014 297.785L141.429 297.41L144.448 298.578L145.925 298.728L147.341 297.41L146.038 296.242L145.456 296.262V295.231L148.708 292.941L149.7 291.676L145.914 292.223L143.735 293.228L140.769 295.934L122.167 295.477L118.513 293.973L116.112 291.676L112.478 293.023L111.655 292.305L110.698 290.561L106.685 286.045L104.469 281.482L102.992 275.988L103.23 270.879L106.171 267.517L107.53 267.435L111.445 269.82L116.584 270.982L117.876 271.827L120.066 274.56L121.336 275.59L122.641 275.755L126.992 274.437L135.518 277.882H138.346L143.263 281.53L145.925 282.633L148.324 281.441L142.617 279.583L140.797 277.285L135.091 276.743L133.307 275.679L130.069 272.733L122.919 271.016L121.336 269.82L117.589 264.669L115.697 263.589L114.773 262.005L113.281 261.372L110.122 258.348L107.3 254.397L106.685 253.017L106.676 247.784L107.072 245.034L108.1 243.001L110.945 241.949L114.52 242.773L127.031 250.422L130.696 251.389L133.164 249.953L133.484 252.617L134.332 254.894L135.532 256.466L136.93 257.017V255.956L135.759 254.149L133.642 248.862L132.221 247.749L130.642 247.383L127.469 245.794L125.818 245.428L125.048 244.847L122.945 241.943L118.904 238.268L116.584 234.985L118.817 233.114L124.832 232.517L129.39 233.266L135.518 238.365L133.878 236.834L131.165 232.337L129.603 231.387L122.976 231.547L121.336 230.326V229.056L123.021 226.225L124.183 224.933L125.346 224.391L128.205 224.246L129.289 223.266L129.39 221.007L130.957 220.201L141.797 223.342L148.826 228.578L150.899 229.056L152.264 230.16L154.008 232.76L155.195 235.83L154.923 238.365L155.398 242.06L158.801 236.668L160.149 236.038L160.891 236.481L161.545 237.52L162.505 239.625L163.764 241.444L163.904 242.365L163.924 244.847L164.398 249.234L163.941 250.484L158.734 260.587H159.164L160.646 258.175L164.421 253.514L165.802 251.23L166.94 247.065L167.69 246.589L168.515 247.121L169.038 248.392L170.043 252.389L169.577 253.652L170.571 252.672L171.666 251.043L172.773 250.111L173.815 251.23L172.638 255.17L171.018 259.133L169.029 262.336L166.746 263.947L169.518 263.768L170.779 263.107L171.93 261.634L173.25 257.293L174.253 254.707L175.011 254.169L175.974 258.74L175.533 263.451L174.901 267.428L175.272 269.82L177.625 261.634L177.496 257.851L177.783 253.486L178.361 249.428L179.089 246.589L179.645 245.303L180.024 245.034L184.7 245.469L185.169 246.008L185.331 248.309L185.77 249.704L186.371 250.56L189.01 253.383L191.909 258.74L191.97 259.505L191.364 265.041L190.942 266.685L190.395 267.517L190.864 268.555L187.311 278.513L186.584 281.612L187.084 283.044L187.983 282.777L189.603 276.276L194.183 263.926L194.638 259.319L196.115 259.05L197.053 260.656L197.851 263.059L198.918 265.206L199.418 265.33L199.817 264.917L200.244 264.924L200.805 266.362L200.766 267.723L200.395 269.037L200.336 270.178L201.277 270.982L201.721 268.425L202.181 267.139L202.687 267.517L202.692 268.672L202.221 274.437L201.648 276.331L200.053 279.569L199.39 281.441V282.489L202.03 280.988L204.72 271.579L206.925 269.82V268.555L205.506 267.001L204.72 263.74L203.63 257.017L202.625 254.604L201.311 252.327L199.85 250.629L198.401 249.953L199.115 247.749L199.814 243.768L200.805 242.06L202.122 241.382L203.501 241.299L204.709 240.676L205.512 238.365L204.094 238.42L200.687 240.151L199.39 241.424L198.112 241.922L192.33 239.036L188.466 234.985L172.054 227.828L167.229 222.662L164.348 215.067L167.572 212.978L177.816 210.178L179.982 210.282L187.311 212.623H189.215L189.957 212.915L190.864 215.067L192.72 217.009L193.697 217.259L194.638 216.236L194.172 215.652L193.835 214.879L193.223 212.623L196.632 212.644L198.382 212.163L201.415 209.718L204.86 209.362L206.456 208.045L197.076 209.55L194.211 208.045L192.855 206.601L193.141 206.371L194.253 206.245L195.366 205.059L196.099 203.775L197.11 202.749L198.255 202.163L199.39 202.198V200.913L197.857 200.026L196.941 200.354L194.211 203.259L190.707 205.213L186.623 205.604L183.394 204.927L182.812 204.543L182.72 202.687L183.318 201.444L184.742 199.74L184.994 198.517L185.64 193.986L186.584 192.944L189.881 191.53L186.882 192.16L184.615 193.784L179.156 199.733L177.873 200.445L175.011 200.913L174.166 199.907L174.632 197.657L175.699 195.294L176.643 193.986V192.706L174.278 193.693L173.107 194.707L171.93 196.231L169.178 201.199L168.628 201.555L166.965 203.545L156.035 200.655L153.188 199.027L151.312 196.539L150.183 195.42L149.711 194.301L150.638 192.706L153.289 192.517L156.625 193.819L159.576 193.378L161.09 188.016L159.141 187.721L156.962 186.047L154.943 183.6L153.463 180.956L155.575 179.23L157.743 180.24L159.911 182.198L161.994 183.306L161.135 180.535L160.573 179.672L168.136 178.394L168.628 178.598L169.049 179.293L169.627 181.398L170.043 182.127L171.531 182.513L172.155 181.201L171.902 179.475L170.773 178.598L169.644 178.155L166.232 175.058H173.132L174.354 175.606L176.794 178.043L179.906 179.251L182.394 182.324L183.793 183.306L185.562 182.997L188.258 179.784L189.881 178.598L189.451 176.238L192.167 175.248L194.397 177.06L196.57 179.644L201.333 182.015L202.375 181.798L202.687 179.672L202.187 177.966L200.378 176.702L199.856 175.058L202.072 175.445L204.203 177.608L205.821 180.998L206.456 185.072L207.663 187.609L213.28 190.754L215.021 193.986L214.038 195.7L214.928 196.735L217.857 197.406V198.58L216.594 198.161L216.066 198.894L215.97 202.198L216.919 204.278L217.043 205.562L215.97 206.775V208.045L216.866 209.216L217.807 208.17L218.905 207.312L220.048 206.789L221.109 206.775L221.744 207.543L222.3 208.714L222.966 209.23L224.53 205.883L225.636 205.534L226.271 206.734L225.864 209.216L230.781 208.693L232.031 209.216L232.635 208.142L233.247 208.086L234.348 209.216L237.218 213.897L236.564 215.109L232.503 218.56L233.421 219.186L234.306 218.713L235.232 217.823L236.274 217.294L237.291 217.551L240.515 220.264L241.93 222.057L242.613 222.099L244.011 221.202L244.75 221.007L249.083 223.342L248.878 223.954L248.569 225.565L249.76 226.343L250.448 228.383L250.431 230.451L249.513 231.387L250.451 234.985L250.473 234.922L250.585 237.714L250.937 240.988L251.394 242.129L252.335 243.001L253.315 242.849L254.526 242.088L255.702 241.777L256.581 243.001L256.716 245.352L256.109 247.48L254.736 251.23L255.618 250.981L256.713 250.194L257.64 249.207L258.033 248.33L257.997 244.176L256.581 240.78L257.438 239.832L259.892 238.579L262.959 238.365L263.476 238.946L264.419 242.06L265.694 242.669L264.863 243.997L263.391 245.2L262.748 245.428L262.293 247.052L262.599 248.288L263.928 250.588L265.68 252.051L273.159 249.953L275.141 250.484L276.77 251.437L278.017 253.417L278.854 257.017L269.137 257.941L267.289 259.485L260.005 261.654L258.977 261.634L260.246 264.029L262.178 263.761L266.068 261.634L272.538 260.456L274.568 261.634L273.734 263.066L270.76 265.206V266.362L278.191 264.215L280.011 265.784L281.016 269.188L281.233 272.095L280.415 274.299L278.343 275.59L281.637 277.882V279.137L278.214 287.195L276.97 289.378L274.934 291.252L267.93 293.973V295.231L269.424 295.34L271.996 294.848L273.159 295.231L276.826 297.594L277.913 298.659L272.254 305.522L270.227 307.09L260.861 306.667L260.196 305.89L258.741 303.245L257.41 302.249L256.168 300.032L255.332 297.69L255.208 296.262L253.495 293.85L251.372 292.675L249.15 292.736L247.154 293.973L248.493 294.192L251.743 296.338L252.849 297.41L252.992 297.867L254.736 300.85L254.913 302.877L254.697 304.213L253.279 306.667L254.964 308.657L255.208 309.529L255.57 311.748L256.362 313.014L258.741 315.279L270.263 314.973L272.243 316.014L273.159 318.196L272.457 320.099L268.89 325.802L267.5 327.321V328.447L270.845 326.589L275.068 322.734L278.688 321.905L280.222 329.071L278.764 335.154L275.31 341.013L271.241 345.27L267.93 346.621V347.755L274.894 345.041L277.568 342.635L279.067 342.081L280.618 342.406L281.62 343.311L283.566 346.621L286.195 349.139L286.903 350.758L286.391 353.509L287.366 354.123L287.515 355.37L287.349 357.088L287.383 359.168L287.796 362.823L287.807 365.378L287.526 370.323L290.211 378.991L291.149 380.679L290.787 381.229L290.635 381.691L292.014 383.171L293.407 385.908L294.137 389.119L293.508 392.007V393.029L294.631 394.017L295.777 393.049L296.322 390.797L295.316 386.792L294.923 382.93L294.317 381.249L292.559 377.308L293.974 374.955L293.727 373.525L294.171 372.479L295.387 370.545L295.76 368.006L295.724 365.714L294.291 353.186L294.013 347.931L294.898 345.581L297.024 346.79L298.504 349.753L300.613 356.805L302.629 360.845L303.393 363.186L305.749 363.953L306.696 364.813L307.212 363.569L305.412 359.768L303.786 354.682L302.562 349.24L301.989 344.352L301.714 337.746L301.989 335.269L302.295 334.355L303.444 331.971L304.384 326.073L306.491 321.987L314.278 315.81L318.524 310.101L319.802 309.392L321.125 309.011L322.096 308.316L322.332 306.667L323.242 306.517L323.905 307.029L325.202 308.956L325.5 309.011L326.623 308.956L326.826 310.4L326.623 310.863L326.286 310.958L326.107 311.353L325.565 321.416L326.107 323.888L325.278 326.711L325.236 329.613L325.977 331.361L327.519 330.724L326.812 327.674L326.932 324.981L327.825 323.725L329.443 325.028L330.047 326.114L330.347 329.694L329.912 332.08L329.915 332.994L330.156 332.933L331.847 334.132L332.928 337.645L333.689 338.68L334.459 339.309L335.284 339.715L336.149 339.864L337.256 339.553L338.559 338.633L339.163 336.86L339.516 334.288L340.325 330.724L339.533 330.026L338.474 327.789L337.694 327.321L335.318 327.525L334.172 327.199L333.215 326.073L335.515 325.177L337.694 325.028L338.609 324.675L340.511 323.107L341.507 322.761L342.384 324.329L342.108 331.741L343.108 334.132L342.855 331.449L343.934 327.538L343.108 325.028L343.895 322.815L346.113 319.562L347.18 317.571L347.439 316.347L347.52 313.626L347.866 312.388L348.514 311.748L349.786 311.769L351.21 311.353L349.677 311.033L348.733 308.97L348.607 306.64L349.542 305.522L350.438 304.868L351.109 303.15L351.53 300.762L351.682 298.031L351.134 293.727L349.792 289.782L348.085 286.668L346.45 284.894V283.641L348.287 281.914L347.59 277.017L345.804 271.538L342.701 264.002L342.254 258.175L341.822 255.37L341.075 253.183L340.072 251.437L338.873 249.953L339.929 248.295L340.901 245.718L341.221 242.959L340.325 240.78L341.715 239.535L343.372 239.244L346.24 239.625L346.93 239.327L348.848 237.298L349.753 237.007L352.19 237.298L353.519 236.536L356.004 233.363L357.099 232.656L361.233 233.987L362.025 234.07L363.502 232.656L363.856 236.294L364.772 238.413L366.103 239.701L367.743 240.78L367.271 242.06L367.99 242.738L368.498 244.017L369.155 246.589L370.065 249.11L372.972 254.701L373.991 258.603L374.814 259.319L373.91 261.634L375.252 263.892L377.024 265.743L378.302 267.882L378.15 270.982L379.397 272.177L383.115 272.795L385.879 274.649L387.468 274.766L388.726 276.626L389.611 276.461L389.979 276.743L390.411 277.964L390.917 281.441L392.846 286.045L393.147 288.133L393.529 292.675L393.984 294.602L395.475 296.652L398.997 297.717L400.387 299.806L400.816 296.228L401.305 294.957L403.428 295.231L403.695 295.525L405.144 297.41L405.922 297.635L407.876 297.533L407.267 297.902L406.761 298.475L406.554 299.233L406.801 300.598L407.388 300.646L408.651 299.806L409.384 298.803L410.019 296.467L410.794 291.676L411.277 286.777L411.317 282.551L410.862 278.581L409.856 274.437L407.708 267.517L403.644 262.9L403.613 261.696L403.917 260.105L404.506 258.754L405.357 258.175L406.613 257.886L407.986 257.017L409.292 255.597L410.322 253.652L409.564 252.679L408.896 251.313L408.351 249.635L407.683 245.448L409.896 242.074L413.838 239.943L423.044 238.365L426.277 240.863L427.995 241.175L427.846 238.365L428.936 237.271L429.537 237.125L430.203 237.298L430.009 237.956L429.731 239.625L431.115 240.178L433.457 242.641L434.873 243.001L434.002 242.171L433.373 241.195L432.918 239.957L432.559 238.365H433.03V237.298L431.615 236.038V234.985L432.261 233.8L433.457 227.995L434.131 226.954L436.521 224.808L442.688 222.509L444.882 223.579L444.382 229.056L445.702 228.515L446.623 227.016L448.195 223.342L447.676 221.007L448.94 219.992L450.81 220.326L454.273 222.057L453.733 224.607L452.571 228.314L452.352 230.853L453.118 230.798L458.089 225.565L460.111 226.037L461.776 228.092L463.195 230.326L464.472 231.387L465.124 232.601L464.324 235.303L462.369 239.625L463.242 239.701L464.231 239.431L465.169 238.808L465.865 237.832L466.674 237.188L467.576 237.908L468.455 239.036L469.227 239.625L470.305 240.898L470.976 243.872L471.527 247.314L472.268 249.953L470.448 258.01L470.617 259.319L475.565 260.587L478.747 262.625L483.869 263.382L484.56 263.947L485.302 265.268L486.461 268.033L488.057 269.312L488.59 271.044L489.691 275.967L489.921 276.523L490.475 276.743L491.738 276.551L492.362 276.688L492.831 277.305L493.522 279.404L493.707 280.79L493.558 285.469L493.83 287.38L495.487 291.676L495.476 298.721L495.701 299.806L496.296 300.277L498.313 303.245L501.57 306.667L501.2 308.909L501.542 311.891L502.373 314.266L503.5 314.667L504.367 312.585L504.308 309.522L503.721 306.49L503.028 304.493L502.472 303.859L501.039 302.754L500.632 302.099L500.332 300.202L500.534 299.124L501.141 297.41V291.676L501.503 291.02L503.028 289.378L503.432 286.257L503.222 283.572L501.09 275.061L500.964 272.074L499.683 272.136L498.324 269.133L497.728 268.384L497.431 267.675L497.071 267.517L496.729 267.882L495.917 269.82L494.982 269.188L492.848 266.444L492.143 265.206L492.791 262.811L492.53 260.539L491.654 258.844L489.663 257.514L488.27 254.011L487.391 252.389V251.23H487.905V249.953L486.029 245.213L485.167 237.291L485.538 229.313L487.391 224.391L488.309 223.982L494.502 224.391L495.442 224.954L497.105 226.426L498.057 226.725L501.006 226.426L502.081 226.725L501.896 227.689L501.57 227.995L504.157 229.521L510.964 227.717L513.91 229.056L514.477 230.368L515.193 233.723L515.791 234.985L516.555 235.373L519.347 234.985L520.554 235.705L522.767 238.905L524.056 239.625L524.98 240.448L527.688 244.716L528.558 246.589L529.67 251.478L530.459 253.749L532.675 255.418L533.855 257.114L535.629 260.587L537.974 267.62L538.969 269.82L539.247 266.602L538.668 264.084L537.764 261.813L537.039 259.319L538.382 259.402L539.963 258.968L541.504 258.134L542.734 257.017L536.399 257.355L534.725 255.956L545.708 255.763L546.514 256.576L546.975 258.506L547.964 261.634H548.388L548.758 260.435L548.84 259.181L548.581 258.017L547.964 257.017V255.956L548.851 255.183L549.634 253.914L550.059 252.175L549.851 249.953L550.949 248.703L551.39 247.867L551.738 246.589L551.783 245.614L551.623 242.98L551.738 240.78L552.6 238.455L554.352 236.204L556.391 234.486L558.113 233.821L558.86 232.906L559.256 230.909L559.32 228.911L559.037 227.995L558.279 227.481L558.618 226.266L560.022 223.87L561.904 221.897L566.131 220.284L566.855 217.294L568.675 219.012L575.617 219.728L577.49 221.126L578.835 224.079L581.506 231.387V233.821H580.562V234.985L581.371 235.712L582.236 236.086L583.098 235.92L583.907 234.985L583.449 234.846L582.444 233.821L584.904 231.949L593.599 229.514L596.157 230.326L595.045 230.284L593.95 230.659L592.902 231.429L591.914 232.656L592.795 233.259L594.034 235.719L594.525 235.504L595.924 232.101L596.747 230.728L597.572 230.326L599.519 232.226L600.945 235.248L602.473 237.825L604.725 238.365V237.298L602.518 235.691L601.417 234.472L600.673 233.238L600.134 231.006L600.114 229.327L599.839 227.995L598.558 226.725L601.701 224.44L606.41 222.87L609.249 221.056L610.85 221.007L604.742 224.621L602.838 226.725L608.893 224.308L610.331 224.391L612.01 225.933L614.695 230.056L616.503 230.326V229.056L614.069 226.516L612.838 224.6L612.308 222.703L612.577 220.097L613.293 217.892L614.335 216.194L615.56 215.067L615.728 213.229L616.335 211.892L616.798 210.24L616.975 208.63L616.801 206.008L616.34 204.571L615.672 203.399L614.237 200.236L613.847 199.865L613.42 199.74L613.058 199.104L612.737 195.161L610.825 193.609L610.353 192.23L610.85 189.178L610.623 189.115L609.907 189.178L610.85 186.726L610.362 186.236L610.024 185.5L609.393 183.306H610.85V182.127L609.654 180.451L608.331 174.953L606.377 172.633L607 170.25L608.424 168.146L609.907 167.879L610.311 168.899L610.544 171.284L611.322 171.516L612.308 167.442L613.209 166.696L615.147 165.858L616.267 165.922L616.29 167.287L615.939 169.195L616.175 170.805L616.767 172.001L617.489 172.591L616.975 169.159L618.065 168.73L620.101 166.978L620.75 166.696L621.766 167.59L623.353 170.018L624.557 170.229L623.142 171.516L624.33 172.591L625.614 172.338L627.383 171.516V170.229L628.147 169.005L628.854 167.344L629.663 166.26L630.27 168.681L631.07 168.976L631.811 167.977L632.376 164.711L632.971 163.915L634.499 163.147H636.411L640.346 164.865L641.132 164.429L644.339 163.02L650.152 168.892L653.43 170.229L652.5 171.811L651.422 172.521L650.523 173.589L650.091 176.238H651.034V177.313L649.622 178.598L649.992 179.082L651.034 180.956L650.226 182.506L651.163 182.759L653.646 182.127L656.415 182.766L657.628 182.127L657.204 185.661H663.795L665.042 186.124L666.166 187.315L666.806 188.87L666.665 191.53L668.039 196.231L665.157 201.667L663.531 203.873L661.442 205.604L662.386 208.045L663.211 207.11L664.054 207.64L665.009 208.658L667.28 209.662L667.525 210.874L666.665 215.067L667.738 216L672.793 216.236L675.225 215.109L676.042 215.338L677.079 217.294L677.376 217.28L678.449 216.236L678.604 218.094L679.042 219.596L679.733 220.632L681.679 221.536L683.743 223.87L685.975 225.641L687.323 227.995L688.688 229.452L690.317 227.995L689.761 227.724L689.329 226.725L690.542 225.829L691.443 223.954L692.002 221.265L692.201 217.927L691.62 212.059L692.075 210.401L694.086 209.216H702.584L707.434 207.501L707.813 206.176L707.88 204.592L708.262 203.259L713.149 200.047L713.918 197.993L714.401 195.364L715.553 193.266L718.243 190.46L720.085 189.136L725.999 188.016L727.628 188.485L730.282 190.775L731.908 191.53L745.057 189.276Z" fill="#C5C5C5"/>
<path d="M525.053 625.483L524.059 625.28L523.548 625.445L522.371 626.205L520.262 628.313L520.083 629.598L523.093 628.535L523.834 628.427L524.41 628.883L524.52 629.788L524.172 630.61L523.686 631.255L524.11 631.066L525.194 629.509L525.615 627.762L525.573 626.452L525.053 625.483Z" fill="#C5C5C5"/>
<path d="M507.271 158.247L506.541 158.734L506.701 161.568L507.9 163.576L509.237 162.597L509.523 160.997L508.993 160.596L507.271 158.247Z" fill="#C5C5C5"/>
<path d="M351.78 667.804L352.12 667.033L351.988 666.769L350.348 666.888L348.969 667.603L348.764 669.328L349.281 671.128L349.727 672.319L350.062 673.685L350.562 674.261L351.244 673.277L351.898 671.811L352.423 670.137L352.053 668.369L351.78 667.804Z" fill="#C5C5C5"/>
<path d="M481.645 252.893L481.019 251.803L479.691 250.298L479.286 250.933L479.963 253.342L480.365 255.411L480.516 256.728L480.938 257.748L481.536 258.389L482.356 258.672L483.266 258.058V256.094L482.26 253.838L481.645 252.893Z" fill="#C5C5C5"/>
</g>
</g>
</svg>
