<?xml version="1.0" encoding="utf-8" standalone="no"?>
<!DOCTYPE svg PUBLIC "-//W3C//DTD SVG 1.1//EN"
  "http://www.w3.org/Graphics/SVG/1.1/DTD/svg11.dtd">
<svg xmlns:xlink="http://www.w3.org/1999/xlink" width="841.889764pt" height="595.275591pt" viewBox="0 0 841.889764 595.275591" xmlns="http://www.w3.org/2000/svg" version="1.1">
 <metadata>
  <rdf:RDF xmlns:dc="http://purl.org/dc/elements/1.1/" xmlns:cc="http://creativecommons.org/ns#" xmlns:rdf="http://www.w3.org/1999/02/22-rdf-syntax-ns#">
   <cc:Work>
    <dc:type rdf:resource="http://purl.org/dc/dcmitype/StillImage"/>
    <dc:date>2022-02-15T17:58:00.835079</dc:date>
    <dc:format>image/svg+xml</dc:format>
    <dc:creator>
     <cc:Agent>
      <dc:title>Matplotlib v3.5.1, https://matplotlib.org/</dc:title>
     </cc:Agent>
    </dc:creator>
   </cc:Work>
  </rdf:RDF>
 </metadata>
 <defs>
  <style type="text/css">*{stroke-linejoin: round; stroke-linecap: butt}</style>
 </defs>
 <g id="figure_1">
  <g id="patch_1">
   <path d="M 0 595.275591 
L 841.889764 595.275591 
L 841.889764 0 
L 0 0 
L 0 595.275591 
z
" style="fill: none"/>
  </g>
  <g id="axes_1">
   <g id="patch_2">
    <path d="M 205.53603 520.866142 
L 205.53603 71.433071 
L 657.400977 71.433071 
L 657.400977 520.866142 
L 205.53603 520.866142 
" style="fill: #ffffff"/>
   </g>
   <g id="PathCollection_1">
    <path clip-path="url(#p54bf0e24e6)" style="fill: none; stroke: #0000ff"/>
    <path clip-path="url(#p54bf0e24e6)" style="fill: none; stroke: #0000ff"/>
    <path clip-path="url(#p54bf0e24e6)" style="fill: none; stroke: #0000ff"/>
   </g>
   <g id="line2d_1">
    <defs>
     <path id="mfeb70dd834" d="M 0 2.5 
C 0.663008 2.5 1.29895 2.236584 1.767767 1.767767 
C 2.236584 1.29895 2.5 0.663008 2.5 0 
C 2.5 -0.663008 2.236584 -1.29895 1.767767 -1.767767 
C 1.29895 -2.236584 0.663008 -2.5 0 -2.5 
C -0.663008 -2.5 -1.29895 -2.236584 -1.767767 -1.767767 
C -2.236584 -1.29895 -2.5 -0.663008 -2.5 0 
C -2.5 0.663008 -2.236584 1.29895 -1.767767 1.767767 
C -1.29895 2.236584 -0.663008 2.5 0 2.5 
z
" style="stroke: #ff0000"/>
    </defs>
    <g clip-path="url(#p54bf0e24e6)"/>
   </g>
   <g id="line2d_2">
    <g clip-path="url(#p54bf0e24e6)">
     <use xlink:href="#mfeb70dd834" x="8586.146372" y="25086.267782" style="fill: #ff0000; stroke: #ff0000"/>
     <use xlink:href="#mfeb70dd834" x="12126.980797" y="24815.705343" style="fill: #ff0000; stroke: #ff0000"/>
     <use xlink:href="#mfeb70dd834" x="14033.58395" y="24545.059356" style="fill: #ff0000; stroke: #ff0000"/>
     <use xlink:href="#mfeb70dd834" x="15123.071465" y="24274.246144" style="fill: #ff0000; stroke: #ff0000"/>
     <use xlink:href="#mfeb70dd834" x="15667.815223" y="24003.181781" style="fill: #ff0000; stroke: #ff0000"/>
     <use xlink:href="#mfeb70dd834" x="15940.187102" y="23731.781955" style="fill: #ff0000; stroke: #ff0000"/>
     <use xlink:href="#mfeb70dd834" x="16484.93086" y="23459.961848" style="fill: #ff0000; stroke: #ff0000"/>
     <use xlink:href="#mfeb70dd834" x="16757.302739" y="23187.635999" style="fill: #ff0000; stroke: #ff0000"/>
     <use xlink:href="#mfeb70dd834" x="17029.674617" y="22914.718172" style="fill: #ff0000; stroke: #ff0000"/>
     <use xlink:href="#mfeb70dd834" x="18119.162133" y="22641.121218" style="fill: #ff0000; stroke: #ff0000"/>
     <use xlink:href="#mfeb70dd834" x="18391.534012" y="22366.75694" style="fill: #ff0000; stroke: #ff0000"/>
     <use xlink:href="#mfeb70dd834" x="22477.112195" y="22091.535943" style="fill: #ff0000; stroke: #ff0000"/>
     <use xlink:href="#mfeb70dd834" x="23566.599711" y="21815.367488" style="fill: #ff0000; stroke: #ff0000"/>
     <use xlink:href="#mfeb70dd834" x="23838.97159" y="21538.159339" style="fill: #ff0000; stroke: #ff0000"/>
     <use xlink:href="#mfeb70dd834" x="24111.343468" y="21259.817601" style="fill: #ff0000; stroke: #ff0000"/>
     <use xlink:href="#mfeb70dd834" x="24383.715347" y="20980.246555" style="fill: #ff0000; stroke: #ff0000"/>
     <use xlink:href="#mfeb70dd834" x="26017.946621" y="20699.348484" style="fill: #ff0000; stroke: #ff0000"/>
     <use xlink:href="#mfeb70dd834" x="26562.690378" y="20417.023487" style="fill: #ff0000; stroke: #ff0000"/>
     <use xlink:href="#mfeb70dd834" x="27379.806015" y="20133.169295" style="fill: #ff0000; stroke: #ff0000"/>
     <use xlink:href="#mfeb70dd834" x="27652.177894" y="19847.681063" style="fill: #ff0000; stroke: #ff0000"/>
    </g>
   </g>
   <g id="patch_3">
    <path d="M 205.53603 520.866142 
L 205.53603 71.433071 
L 657.400977 71.433071 
L 657.400977 520.866142 
L 205.53603 520.866142 
" style="fill: none; stroke: #000000; stroke-width: 0.8; stroke-linejoin: miter"/>
   </g>
   <g id="text_1">
    <text style="font: 12px 'sans-serif'; text-anchor: middle" x="431.468504" y="65.433071" transform="rotate(-0, 431.468504, 65.433071)">lol</text>
   </g>
  </g>
 </g>
 <defs>
  <clipPath id="p54bf0e24e6">
   <path d="M 205.53603 520.866142 
L 205.53603 71.433071 
L 657.400977 71.433071 
L 657.400977 520.866142 
L 205.53603 520.866142 
"/>
  </clipPath>
 </defs>
</svg>
