<?xml version="1.0" encoding="utf-8" standalone="no"?>
<!DOCTYPE svg PUBLIC "-//W3C//DTD SVG 1.1//EN"
  "http://www.w3.org/Graphics/SVG/1.1/DTD/svg11.dtd">
<svg xmlns:xlink="http://www.w3.org/1999/xlink" width="4320pt" height="2160pt" viewBox="0 0 4320 2160" xmlns="http://www.w3.org/2000/svg" version="1.1">
 <metadata>
  <rdf:RDF xmlns:dc="http://purl.org/dc/elements/1.1/" xmlns:cc="http://creativecommons.org/ns#" xmlns:rdf="http://www.w3.org/1999/02/22-rdf-syntax-ns#">
   <cc:Work>
    <dc:type rdf:resource="http://purl.org/dc/dcmitype/StillImage"/>
    <dc:date>2022-02-10T20:06:01.378055</dc:date>
    <dc:format>image/svg+xml</dc:format>
    <dc:creator>
     <cc:Agent>
      <dc:title>Matplotlib v3.5.1, https://matplotlib.org/</dc:title>
     </cc:Agent>
    </dc:creator>
   </cc:Work>
  </rdf:RDF>
 </metadata>
 <defs>
  <style type="text/css">*{stroke-linejoin: round; stroke-linecap: butt}</style>
 </defs>
 <g id="figure_1">
  <g id="patch_1">
   <path d="M 0 2160 
L 4320 2160 
L 4320 0 
L 0 0 
L 0 2160 
z
" style="fill: none"/>
  </g>
  <g id="axes_1">
   <g id="PathCollection_1">
    <path d="M -164211.587187 179059.902211 
L -164211.587187 -150150.931796 
L 164000.199189 -150150.931796 
L 164000.199189 179059.902211 
z
" clip-path="url(#p0e17ea74a0)" style="fill: #efefdb; stroke: #000000"/>
   </g>
   <g id="line2d_1">
    <defs>
     <path id="mad2fb0e75e" d="M 0 10 
C 2.652031 10 5.195799 8.946337 7.071068 7.071068 
C 8.946337 5.195799 10 2.652031 10 0 
C 10 -2.652031 8.946337 -5.195799 7.071068 -7.071068 
C 5.195799 -8.946337 2.652031 -10 0 -10 
C -2.652031 -10 -5.195799 -8.946337 -7.071068 -7.071068 
C -8.946337 -5.195799 -10 -2.652031 -10 0 
C -10 2.652031 -8.946337 5.195799 -7.071068 7.071068 
C -5.195799 8.946337 -2.652031 10 0 10 
z
" style="stroke: #ff0000"/>
    </defs>
    <g clip-path="url(#p0e17ea74a0)"/>
   </g>
   <g id="line2d_2">
    <g clip-path="url(#p0e17ea74a0)">
     <use xlink:href="#mad2fb0e75e" x="8199.559847" y="22088.219136" style="fill: #ff0000; stroke: #ff0000"/>
     <use xlink:href="#mad2fb0e75e" x="30436.505041" y="-1" style="fill: #ff0000; stroke: #ff0000"/>
    </g>
   </g>
   <g id="line2d_3">
    <g clip-path="url(#p0e17ea74a0)"/>
   </g>
   <g id="line2d_4">
    <g clip-path="url(#p0e17ea74a0)">
     <use xlink:href="#mad2fb0e75e" x="8199.559847" y="22088.219136" style="fill: #ff0000; stroke: #ff0000"/>
     <use xlink:href="#mad2fb0e75e" x="30436.505041" y="-1" style="fill: #ff0000; stroke: #ff0000"/>
    </g>
   </g>
   <g id="LineCollection_1">
    <path d="M 279.951789 1886.18014 
L 279.951789 1869.893674 
L 279.951789 1853.607208 
L 279.951789 1837.320741 
L 279.951789 1821.034274 
L 279.951789 1804.747808 
L 279.951789 1788.461341 
L 279.951789 1772.174874 
L 279.951789 1755.888408 
L 279.951789 1739.601941 
L 279.951789 1723.315474 
L 279.951789 1707.029008 
L 279.951789 1690.742541 
L 279.951789 1674.456074 
L 279.951789 1658.169608 
L 279.951789 1641.883142 
L 279.951789 1625.596674 
L 279.951789 1609.310208 
L 279.951789 1593.023742 
L 279.951789 1576.737275 
L 279.951789 1560.450808 
L 279.951789 1544.164341 
L 279.951789 1527.877875 
L 279.951789 1511.591408 
L 279.951789 1495.304942 
L 279.951789 1479.018475 
L 279.951789 1462.732008 
L 279.951789 1446.445542 
L 279.951789 1430.159075 
L 279.951789 1413.872608 
L 279.951789 1397.586141 
L 279.951789 1381.299675 
L 279.951789 1365.013208 
L 279.951789 1348.726742 
L 279.951789 1332.440276 
L 279.951789 1316.153808 
L 279.951789 1299.867341 
L 279.951789 1283.580876 
L 279.951789 1267.294409 
L 279.951789 1251.007942 
L 279.951789 1234.721476 
L 279.951789 1218.435009 
L 279.951789 1202.148542 
L 279.951789 1185.862075 
L 279.951789 1169.575609 
L 279.951789 1153.289142 
L 279.951789 1137.002675 
L 279.951789 1120.716209 
L 279.951789 1104.429742 
L 279.951789 1088.143276 
L 279.951789 1071.856809 
L 279.951789 1055.570343 
L 279.951789 1039.283876 
L 279.951789 1022.997409 
L 279.951789 1006.710942 
L 279.951789 990.424476 
L 279.951789 974.138009 
L 279.951789 957.851543 
L 279.951789 941.565076 
L 279.951789 925.278609 
L 279.951789 908.992143 
L 279.951789 892.705676 
L 279.951789 876.419209 
L 279.951789 860.132743 
L 279.951789 843.846276 
L 279.951789 827.559809 
L 279.951789 811.273343 
L 279.951789 794.986876 
L 279.951789 778.700409 
L 279.951789 762.413943 
L 279.951789 746.127476 
L 279.951789 729.84101 
L 279.951789 713.554543 
L 279.951789 697.268077 
L 279.951789 680.98161 
L 279.951789 664.695143 
L 279.951789 648.408677 
L 279.951789 632.12221 
L 279.951789 615.835743 
L 279.951789 599.549277 
L 279.951789 583.26281 
L 279.951789 566.976343 
L 279.951789 550.689877 
L 279.951789 534.40341 
L 279.951789 518.116943 
L 279.951789 501.830477 
L 279.951789 485.54401 
L 279.951789 469.257544 
L 279.951789 452.971077 
L 279.951789 436.68461 
L 279.951789 420.398144 
L 279.951789 404.111676 
L 279.951789 387.82521 
L 279.951789 371.538744 
L 279.951789 355.252277 
L 279.951789 338.96581 
L 279.951789 322.679344 
L 279.951789 306.392877 
L 279.951789 290.106411 
L 279.951789 273.819944 
" clip-path="url(#p0e17ea74a0)" style="fill: none; stroke: #b0b0b0; stroke-width: 0.8"/>
    <path d="M 999.916158 1886.18014 
L 999.916158 1869.893674 
L 999.916158 1853.607208 
L 999.916158 1837.320741 
L 999.916158 1821.034274 
L 999.916158 1804.747808 
L 999.916158 1788.461341 
L 999.916158 1772.174874 
L 999.916158 1755.888408 
L 999.916158 1739.601941 
L 999.916158 1723.315474 
L 999.916158 1707.029008 
L 999.916158 1690.742541 
L 999.916158 1674.456074 
L 999.916158 1658.169608 
L 999.916158 1641.883142 
L 999.916158 1625.596674 
L 999.916158 1609.310208 
L 999.916158 1593.023742 
L 999.916158 1576.737275 
L 999.916158 1560.450808 
L 999.916158 1544.164341 
L 999.916158 1527.877875 
L 999.916158 1511.591408 
L 999.916158 1495.304942 
L 999.916158 1479.018475 
L 999.916158 1462.732008 
L 999.916158 1446.445542 
L 999.916158 1430.159075 
L 999.916158 1413.872608 
L 999.916158 1397.586141 
L 999.916158 1381.299675 
L 999.916158 1365.013208 
L 999.916158 1348.726742 
L 999.916158 1332.440276 
L 999.916158 1316.153808 
L 999.916158 1299.867341 
L 999.916158 1283.580876 
L 999.916158 1267.294409 
L 999.916158 1251.007942 
L 999.916158 1234.721476 
L 999.916158 1218.435009 
L 999.916158 1202.148542 
L 999.916158 1185.862075 
L 999.916158 1169.575609 
L 999.916158 1153.289142 
L 999.916158 1137.002675 
L 999.916158 1120.716209 
L 999.916158 1104.429742 
L 999.916158 1088.143276 
L 999.916158 1071.856809 
L 999.916158 1055.570343 
L 999.916158 1039.283876 
L 999.916158 1022.997409 
L 999.916158 1006.710942 
L 999.916158 990.424476 
L 999.916158 974.138009 
L 999.916158 957.851543 
L 999.916158 941.565076 
L 999.916158 925.278609 
L 999.916158 908.992143 
L 999.916158 892.705676 
L 999.916158 876.419209 
L 999.916158 860.132743 
L 999.916158 843.846276 
L 999.916158 827.559809 
L 999.916158 811.273343 
L 999.916158 794.986876 
L 999.916158 778.700409 
L 999.916158 762.413943 
L 999.916158 746.127476 
L 999.916158 729.84101 
L 999.916158 713.554543 
L 999.916158 697.268077 
L 999.916158 680.98161 
L 999.916158 664.695143 
L 999.916158 648.408677 
L 999.916158 632.12221 
L 999.916158 615.835743 
L 999.916158 599.549277 
L 999.916158 583.26281 
L 999.916158 566.976343 
L 999.916158 550.689877 
L 999.916158 534.40341 
L 999.916158 518.116943 
L 999.916158 501.830477 
L 999.916158 485.54401 
L 999.916158 469.257544 
L 999.916158 452.971077 
L 999.916158 436.68461 
L 999.916158 420.398144 
L 999.916158 404.111676 
L 999.916158 387.82521 
L 999.916158 371.538744 
L 999.916158 355.252277 
L 999.916158 338.96581 
L 999.916158 322.679344 
L 999.916158 306.392877 
L 999.916158 290.106411 
L 999.916158 273.819944 
" clip-path="url(#p0e17ea74a0)" style="fill: none; stroke: #b0b0b0; stroke-width: 0.8"/>
    <path d="M 1719.880527 1886.18014 
L 1719.880527 1869.893674 
L 1719.880527 1853.607208 
L 1719.880527 1837.320741 
L 1719.880527 1821.034274 
L 1719.880527 1804.747808 
L 1719.880527 1788.461341 
L 1719.880527 1772.174874 
L 1719.880527 1755.888408 
L 1719.880527 1739.601941 
L 1719.880527 1723.315474 
L 1719.880527 1707.029008 
L 1719.880527 1690.742541 
L 1719.880527 1674.456074 
L 1719.880527 1658.169608 
L 1719.880527 1641.883142 
L 1719.880527 1625.596674 
L 1719.880527 1609.310208 
L 1719.880527 1593.023742 
L 1719.880527 1576.737275 
L 1719.880527 1560.450808 
L 1719.880527 1544.164341 
L 1719.880527 1527.877875 
L 1719.880527 1511.591408 
L 1719.880527 1495.304942 
L 1719.880527 1479.018475 
L 1719.880527 1462.732008 
L 1719.880527 1446.445542 
L 1719.880527 1430.159075 
L 1719.880527 1413.872608 
L 1719.880527 1397.586141 
L 1719.880527 1381.299675 
L 1719.880527 1365.013208 
L 1719.880527 1348.726742 
L 1719.880527 1332.440276 
L 1719.880527 1316.153808 
L 1719.880527 1299.867341 
L 1719.880527 1283.580876 
L 1719.880527 1267.294409 
L 1719.880527 1251.007942 
L 1719.880527 1234.721476 
L 1719.880527 1218.435009 
L 1719.880527 1202.148542 
L 1719.880527 1185.862075 
L 1719.880527 1169.575609 
L 1719.880527 1153.289142 
L 1719.880527 1137.002675 
L 1719.880527 1120.716209 
L 1719.880527 1104.429742 
L 1719.880527 1088.143276 
L 1719.880527 1071.856809 
L 1719.880527 1055.570343 
L 1719.880527 1039.283876 
L 1719.880527 1022.997409 
L 1719.880527 1006.710942 
L 1719.880527 990.424476 
L 1719.880527 974.138009 
L 1719.880527 957.851543 
L 1719.880527 941.565076 
L 1719.880527 925.278609 
L 1719.880527 908.992143 
L 1719.880527 892.705676 
L 1719.880527 876.419209 
L 1719.880527 860.132743 
L 1719.880527 843.846276 
L 1719.880527 827.559809 
L 1719.880527 811.273343 
L 1719.880527 794.986876 
L 1719.880527 778.700409 
L 1719.880527 762.413943 
L 1719.880527 746.127476 
L 1719.880527 729.84101 
L 1719.880527 713.554543 
L 1719.880527 697.268077 
L 1719.880527 680.98161 
L 1719.880527 664.695143 
L 1719.880527 648.408677 
L 1719.880527 632.12221 
L 1719.880527 615.835743 
L 1719.880527 599.549277 
L 1719.880527 583.26281 
L 1719.880527 566.976343 
L 1719.880527 550.689877 
L 1719.880527 534.40341 
L 1719.880527 518.116943 
L 1719.880527 501.830477 
L 1719.880527 485.54401 
L 1719.880527 469.257544 
L 1719.880527 452.971077 
L 1719.880527 436.68461 
L 1719.880527 420.398144 
L 1719.880527 404.111676 
L 1719.880527 387.82521 
L 1719.880527 371.538744 
L 1719.880527 355.252277 
L 1719.880527 338.96581 
L 1719.880527 322.679344 
L 1719.880527 306.392877 
L 1719.880527 290.106411 
L 1719.880527 273.819944 
" clip-path="url(#p0e17ea74a0)" style="fill: none; stroke: #b0b0b0; stroke-width: 0.8"/>
    <path d="M 2439.844896 1886.18014 
L 2439.844896 1869.893674 
L 2439.844896 1853.607208 
L 2439.844896 1837.320741 
L 2439.844896 1821.034274 
L 2439.844896 1804.747808 
L 2439.844896 1788.461341 
L 2439.844896 1772.174874 
L 2439.844896 1755.888408 
L 2439.844896 1739.601941 
L 2439.844896 1723.315474 
L 2439.844896 1707.029008 
L 2439.844896 1690.742541 
L 2439.844896 1674.456074 
L 2439.844896 1658.169608 
L 2439.844896 1641.883142 
L 2439.844896 1625.596674 
L 2439.844896 1609.310208 
L 2439.844896 1593.023742 
L 2439.844896 1576.737275 
L 2439.844896 1560.450808 
L 2439.844896 1544.164341 
L 2439.844896 1527.877875 
L 2439.844896 1511.591408 
L 2439.844896 1495.304942 
L 2439.844896 1479.018475 
L 2439.844896 1462.732008 
L 2439.844896 1446.445542 
L 2439.844896 1430.159075 
L 2439.844896 1413.872608 
L 2439.844896 1397.586141 
L 2439.844896 1381.299675 
L 2439.844896 1365.013208 
L 2439.844896 1348.726742 
L 2439.844896 1332.440276 
L 2439.844896 1316.153808 
L 2439.844896 1299.867341 
L 2439.844896 1283.580876 
L 2439.844896 1267.294409 
L 2439.844896 1251.007942 
L 2439.844896 1234.721476 
L 2439.844896 1218.435009 
L 2439.844896 1202.148542 
L 2439.844896 1185.862075 
L 2439.844896 1169.575609 
L 2439.844896 1153.289142 
L 2439.844896 1137.002675 
L 2439.844896 1120.716209 
L 2439.844896 1104.429742 
L 2439.844896 1088.143276 
L 2439.844896 1071.856809 
L 2439.844896 1055.570343 
L 2439.844896 1039.283876 
L 2439.844896 1022.997409 
L 2439.844896 1006.710942 
L 2439.844896 990.424476 
L 2439.844896 974.138009 
L 2439.844896 957.851543 
L 2439.844896 941.565076 
L 2439.844896 925.278609 
L 2439.844896 908.992143 
L 2439.844896 892.705676 
L 2439.844896 876.419209 
L 2439.844896 860.132743 
L 2439.844896 843.846276 
L 2439.844896 827.559809 
L 2439.844896 811.273343 
L 2439.844896 794.986876 
L 2439.844896 778.700409 
L 2439.844896 762.413943 
L 2439.844896 746.127476 
L 2439.844896 729.84101 
L 2439.844896 713.554543 
L 2439.844896 697.268077 
L 2439.844896 680.98161 
L 2439.844896 664.695143 
L 2439.844896 648.408677 
L 2439.844896 632.12221 
L 2439.844896 615.835743 
L 2439.844896 599.549277 
L 2439.844896 583.26281 
L 2439.844896 566.976343 
L 2439.844896 550.689877 
L 2439.844896 534.40341 
L 2439.844896 518.116943 
L 2439.844896 501.830477 
L 2439.844896 485.54401 
L 2439.844896 469.257544 
L 2439.844896 452.971077 
L 2439.844896 436.68461 
L 2439.844896 420.398144 
L 2439.844896 404.111676 
L 2439.844896 387.82521 
L 2439.844896 371.538744 
L 2439.844896 355.252277 
L 2439.844896 338.96581 
L 2439.844896 322.679344 
L 2439.844896 306.392877 
L 2439.844896 290.106411 
L 2439.844896 273.819944 
" clip-path="url(#p0e17ea74a0)" style="fill: none; stroke: #b0b0b0; stroke-width: 0.8"/>
    <path d="M 3159.809265 1886.18014 
L 3159.809265 1869.893674 
L 3159.809265 1853.607208 
L 3159.809265 1837.320741 
L 3159.809265 1821.034274 
L 3159.809265 1804.747808 
L 3159.809265 1788.461341 
L 3159.809265 1772.174874 
L 3159.809265 1755.888408 
L 3159.809265 1739.601941 
L 3159.809265 1723.315474 
L 3159.809265 1707.029008 
L 3159.809265 1690.742541 
L 3159.809265 1674.456074 
L 3159.809265 1658.169608 
L 3159.809265 1641.883142 
L 3159.809265 1625.596674 
L 3159.809265 1609.310208 
L 3159.809265 1593.023742 
L 3159.809265 1576.737275 
L 3159.809265 1560.450808 
L 3159.809265 1544.164341 
L 3159.809265 1527.877875 
L 3159.809265 1511.591408 
L 3159.809265 1495.304942 
L 3159.809265 1479.018475 
L 3159.809265 1462.732008 
L 3159.809265 1446.445542 
L 3159.809265 1430.159075 
L 3159.809265 1413.872608 
L 3159.809265 1397.586141 
L 3159.809265 1381.299675 
L 3159.809265 1365.013208 
L 3159.809265 1348.726742 
L 3159.809265 1332.440276 
L 3159.809265 1316.153808 
L 3159.809265 1299.867341 
L 3159.809265 1283.580876 
L 3159.809265 1267.294409 
L 3159.809265 1251.007942 
L 3159.809265 1234.721476 
L 3159.809265 1218.435009 
L 3159.809265 1202.148542 
L 3159.809265 1185.862075 
L 3159.809265 1169.575609 
L 3159.809265 1153.289142 
L 3159.809265 1137.002675 
L 3159.809265 1120.716209 
L 3159.809265 1104.429742 
L 3159.809265 1088.143276 
L 3159.809265 1071.856809 
L 3159.809265 1055.570343 
L 3159.809265 1039.283876 
L 3159.809265 1022.997409 
L 3159.809265 1006.710942 
L 3159.809265 990.424476 
L 3159.809265 974.138009 
L 3159.809265 957.851543 
L 3159.809265 941.565076 
L 3159.809265 925.278609 
L 3159.809265 908.992143 
L 3159.809265 892.705676 
L 3159.809265 876.419209 
L 3159.809265 860.132743 
L 3159.809265 843.846276 
L 3159.809265 827.559809 
L 3159.809265 811.273343 
L 3159.809265 794.986876 
L 3159.809265 778.700409 
L 3159.809265 762.413943 
L 3159.809265 746.127476 
L 3159.809265 729.84101 
L 3159.809265 713.554543 
L 3159.809265 697.268077 
L 3159.809265 680.98161 
L 3159.809265 664.695143 
L 3159.809265 648.408677 
L 3159.809265 632.12221 
L 3159.809265 615.835743 
L 3159.809265 599.549277 
L 3159.809265 583.26281 
L 3159.809265 566.976343 
L 3159.809265 550.689877 
L 3159.809265 534.40341 
L 3159.809265 518.116943 
L 3159.809265 501.830477 
L 3159.809265 485.54401 
L 3159.809265 469.257544 
L 3159.809265 452.971077 
L 3159.809265 436.68461 
L 3159.809265 420.398144 
L 3159.809265 404.111676 
L 3159.809265 387.82521 
L 3159.809265 371.538744 
L 3159.809265 355.252277 
L 3159.809265 338.96581 
L 3159.809265 322.679344 
L 3159.809265 306.392877 
L 3159.809265 290.106411 
L 3159.809265 273.819944 
" clip-path="url(#p0e17ea74a0)" style="fill: none; stroke: #b0b0b0; stroke-width: 0.8"/>
    <path d="M 3879.773634 1886.18014 
L 3879.773634 1869.893674 
L 3879.773634 1853.607208 
L 3879.773634 1837.320741 
L 3879.773634 1821.034274 
L 3879.773634 1804.747808 
L 3879.773634 1788.461341 
L 3879.773634 1772.174874 
L 3879.773634 1755.888408 
L 3879.773634 1739.601941 
L 3879.773634 1723.315474 
L 3879.773634 1707.029008 
L 3879.773634 1690.742541 
L 3879.773634 1674.456074 
L 3879.773634 1658.169608 
L 3879.773634 1641.883142 
L 3879.773634 1625.596674 
L 3879.773634 1609.310208 
L 3879.773634 1593.023742 
L 3879.773634 1576.737275 
L 3879.773634 1560.450808 
L 3879.773634 1544.164341 
L 3879.773634 1527.877875 
L 3879.773634 1511.591408 
L 3879.773634 1495.304942 
L 3879.773634 1479.018475 
L 3879.773634 1462.732008 
L 3879.773634 1446.445542 
L 3879.773634 1430.159075 
L 3879.773634 1413.872608 
L 3879.773634 1397.586141 
L 3879.773634 1381.299675 
L 3879.773634 1365.013208 
L 3879.773634 1348.726742 
L 3879.773634 1332.440276 
L 3879.773634 1316.153808 
L 3879.773634 1299.867341 
L 3879.773634 1283.580876 
L 3879.773634 1267.294409 
L 3879.773634 1251.007942 
L 3879.773634 1234.721476 
L 3879.773634 1218.435009 
L 3879.773634 1202.148542 
L 3879.773634 1185.862075 
L 3879.773634 1169.575609 
L 3879.773634 1153.289142 
L 3879.773634 1137.002675 
L 3879.773634 1120.716209 
L 3879.773634 1104.429742 
L 3879.773634 1088.143276 
L 3879.773634 1071.856809 
L 3879.773634 1055.570343 
L 3879.773634 1039.283876 
L 3879.773634 1022.997409 
L 3879.773634 1006.710942 
L 3879.773634 990.424476 
L 3879.773634 974.138009 
L 3879.773634 957.851543 
L 3879.773634 941.565076 
L 3879.773634 925.278609 
L 3879.773634 908.992143 
L 3879.773634 892.705676 
L 3879.773634 876.419209 
L 3879.773634 860.132743 
L 3879.773634 843.846276 
L 3879.773634 827.559809 
L 3879.773634 811.273343 
L 3879.773634 794.986876 
L 3879.773634 778.700409 
L 3879.773634 762.413943 
L 3879.773634 746.127476 
L 3879.773634 729.84101 
L 3879.773634 713.554543 
L 3879.773634 697.268077 
L 3879.773634 680.98161 
L 3879.773634 664.695143 
L 3879.773634 648.408677 
L 3879.773634 632.12221 
L 3879.773634 615.835743 
L 3879.773634 599.549277 
L 3879.773634 583.26281 
L 3879.773634 566.976343 
L 3879.773634 550.689877 
L 3879.773634 534.40341 
L 3879.773634 518.116943 
L 3879.773634 501.830477 
L 3879.773634 485.54401 
L 3879.773634 469.257544 
L 3879.773634 452.971077 
L 3879.773634 436.68461 
L 3879.773634 420.398144 
L 3879.773634 404.111676 
L 3879.773634 387.82521 
L 3879.773634 371.538744 
L 3879.773634 355.252277 
L 3879.773634 338.96581 
L 3879.773634 322.679344 
L 3879.773634 306.392877 
L 3879.773634 290.106411 
L 3879.773634 273.819944 
" clip-path="url(#p0e17ea74a0)" style="fill: none; stroke: #b0b0b0; stroke-width: 0.8"/>
   </g>
   <g id="LineCollection_2">
    <path d="M 0.000004 1706.5965 
L 43.636368 1706.5965 
L 87.272731 1706.5965 
L 130.909095 1706.5965 
L 174.545459 1706.5965 
L 218.181822 1706.5965 
L 261.818186 1706.5965 
L 305.454549 1706.5965 
L 349.090913 1706.5965 
L 392.727276 1706.5965 
L 436.36364 1706.5965 
L 480.000003 1706.5965 
L 523.636367 1706.5965 
L 567.27273 1706.5965 
L 610.909094 1706.5965 
L 654.545458 1706.5965 
L 698.181821 1706.5965 
L 741.818185 1706.5965 
L 785.454548 1706.5965 
L 829.090912 1706.5965 
L 872.727275 1706.5965 
L 916.363639 1706.5965 
L 960.000002 1706.5965 
L 1003.636366 1706.5965 
L 1047.272729 1706.5965 
L 1090.909093 1706.5965 
L 1134.545457 1706.5965 
L 1178.18182 1706.5965 
L 1221.818184 1706.5965 
L 1265.454547 1706.5965 
L 1309.090911 1706.5965 
L 1352.727274 1706.5965 
L 1396.363638 1706.5965 
L 1440.000001 1706.5965 
L 1483.636365 1706.5965 
L 1527.272729 1706.5965 
L 1570.909092 1706.5965 
L 1614.545456 1706.5965 
L 1658.181819 1706.5965 
L 1701.818183 1706.5965 
L 1745.454546 1706.5965 
L 1789.09091 1706.5965 
L 1832.727273 1706.5965 
L 1876.363637 1706.5965 
L 1920 1706.5965 
L 1963.636364 1706.5965 
L 2007.272728 1706.5965 
L 2050.909091 1706.5965 
L 2094.545455 1706.5965 
L 2138.181818 1706.5965 
L 2181.818182 1706.5965 
L 2225.454545 1706.5965 
L 2269.090909 1706.5965 
L 2312.727272 1706.5965 
L 2356.363636 1706.5965 
L 2400 1706.5965 
L 2443.636363 1706.5965 
L 2487.272727 1706.5965 
L 2530.90909 1706.5965 
L 2574.545454 1706.5965 
L 2618.181817 1706.5965 
L 2661.818181 1706.5965 
L 2705.454544 1706.5965 
L 2749.090908 1706.5965 
L 2792.727271 1706.5965 
L 2836.363635 1706.5965 
L 2879.999999 1706.5965 
L 2923.636362 1706.5965 
L 2967.272726 1706.5965 
L 3010.909089 1706.5965 
L 3054.545453 1706.5965 
L 3098.181816 1706.5965 
L 3141.81818 1706.5965 
L 3185.454543 1706.5965 
L 3229.090907 1706.5965 
L 3272.727271 1706.5965 
L 3316.363634 1706.5965 
L 3359.999998 1706.5965 
L 3403.636361 1706.5965 
L 3447.272725 1706.5965 
L 3490.909088 1706.5965 
L 3534.545452 1706.5965 
L 3578.181815 1706.5965 
L 3621.818179 1706.5965 
L 3665.454542 1706.5965 
L 3709.090906 1706.5965 
L 3752.72727 1706.5965 
L 3796.363633 1706.5965 
L 3839.999997 1706.5965 
L 3883.63636 1706.5965 
L 3927.272724 1706.5965 
L 3970.909087 1706.5965 
L 4014.545451 1706.5965 
L 4058.181814 1706.5965 
L 4101.818178 1706.5965 
L 4145.454541 1706.5965 
L 4189.090905 1706.5965 
L 4232.727269 1706.5965 
L 4276.363632 1706.5965 
L 4319.999996 1706.5965 
" clip-path="url(#p0e17ea74a0)" style="fill: none; stroke: #b0b0b0; stroke-width: 0.8"/>
    <path d="M 0.000004 1349.024173 
L 43.636368 1349.024173 
L 87.272731 1349.024173 
L 130.909095 1349.024173 
L 174.545459 1349.024173 
L 218.181822 1349.024173 
L 261.818186 1349.024173 
L 305.454549 1349.024173 
L 349.090913 1349.024173 
L 392.727276 1349.024173 
L 436.36364 1349.024173 
L 480.000003 1349.024173 
L 523.636367 1349.024173 
L 567.27273 1349.024173 
L 610.909094 1349.024173 
L 654.545458 1349.024173 
L 698.181821 1349.024173 
L 741.818185 1349.024173 
L 785.454548 1349.024173 
L 829.090912 1349.024173 
L 872.727275 1349.024173 
L 916.363639 1349.024173 
L 960.000002 1349.024173 
L 1003.636366 1349.024173 
L 1047.272729 1349.024173 
L 1090.909093 1349.024173 
L 1134.545457 1349.024173 
L 1178.18182 1349.024173 
L 1221.818184 1349.024173 
L 1265.454547 1349.024173 
L 1309.090911 1349.024173 
L 1352.727274 1349.024173 
L 1396.363638 1349.024173 
L 1440.000001 1349.024173 
L 1483.636365 1349.024173 
L 1527.272729 1349.024173 
L 1570.909092 1349.024173 
L 1614.545456 1349.024173 
L 1658.181819 1349.024173 
L 1701.818183 1349.024173 
L 1745.454546 1349.024173 
L 1789.09091 1349.024173 
L 1832.727273 1349.024173 
L 1876.363637 1349.024173 
L 1920 1349.024173 
L 1963.636364 1349.024173 
L 2007.272728 1349.024173 
L 2050.909091 1349.024173 
L 2094.545455 1349.024173 
L 2138.181818 1349.024173 
L 2181.818182 1349.024173 
L 2225.454545 1349.024173 
L 2269.090909 1349.024173 
L 2312.727272 1349.024173 
L 2356.363636 1349.024173 
L 2400 1349.024173 
L 2443.636363 1349.024173 
L 2487.272727 1349.024173 
L 2530.90909 1349.024173 
L 2574.545454 1349.024173 
L 2618.181817 1349.024173 
L 2661.818181 1349.024173 
L 2705.454544 1349.024173 
L 2749.090908 1349.024173 
L 2792.727271 1349.024173 
L 2836.363635 1349.024173 
L 2879.999999 1349.024173 
L 2923.636362 1349.024173 
L 2967.272726 1349.024173 
L 3010.909089 1349.024173 
L 3054.545453 1349.024173 
L 3098.181816 1349.024173 
L 3141.81818 1349.024173 
L 3185.454543 1349.024173 
L 3229.090907 1349.024173 
L 3272.727271 1349.024173 
L 3316.363634 1349.024173 
L 3359.999998 1349.024173 
L 3403.636361 1349.024173 
L 3447.272725 1349.024173 
L 3490.909088 1349.024173 
L 3534.545452 1349.024173 
L 3578.181815 1349.024173 
L 3621.818179 1349.024173 
L 3665.454542 1349.024173 
L 3709.090906 1349.024173 
L 3752.72727 1349.024173 
L 3796.363633 1349.024173 
L 3839.999997 1349.024173 
L 3883.63636 1349.024173 
L 3927.272724 1349.024173 
L 3970.909087 1349.024173 
L 4014.545451 1349.024173 
L 4058.181814 1349.024173 
L 4101.818178 1349.024173 
L 4145.454541 1349.024173 
L 4189.090905 1349.024173 
L 4232.727269 1349.024173 
L 4276.363632 1349.024173 
L 4319.999996 1349.024173 
" clip-path="url(#p0e17ea74a0)" style="fill: none; stroke: #b0b0b0; stroke-width: 0.8"/>
    <path d="M 0.000004 991.451846 
L 43.636368 991.451846 
L 87.272731 991.451846 
L 130.909095 991.451846 
L 174.545459 991.451846 
L 218.181822 991.451846 
L 261.818186 991.451846 
L 305.454549 991.451846 
L 349.090913 991.451846 
L 392.727276 991.451846 
L 436.36364 991.451846 
L 480.000003 991.451846 
L 523.636367 991.451846 
L 567.27273 991.451846 
L 610.909094 991.451846 
L 654.545458 991.451846 
L 698.181821 991.451846 
L 741.818185 991.451846 
L 785.454548 991.451846 
L 829.090912 991.451846 
L 872.727275 991.451846 
L 916.363639 991.451846 
L 960.000002 991.451846 
L 1003.636366 991.451846 
L 1047.272729 991.451846 
L 1090.909093 991.451846 
L 1134.545457 991.451846 
L 1178.18182 991.451846 
L 1221.818184 991.451846 
L 1265.454547 991.451846 
L 1309.090911 991.451846 
L 1352.727274 991.451846 
L 1396.363638 991.451846 
L 1440.000001 991.451846 
L 1483.636365 991.451846 
L 1527.272729 991.451846 
L 1570.909092 991.451846 
L 1614.545456 991.451846 
L 1658.181819 991.451846 
L 1701.818183 991.451846 
L 1745.454546 991.451846 
L 1789.09091 991.451846 
L 1832.727273 991.451846 
L 1876.363637 991.451846 
L 1920 991.451846 
L 1963.636364 991.451846 
L 2007.272728 991.451846 
L 2050.909091 991.451846 
L 2094.545455 991.451846 
L 2138.181818 991.451846 
L 2181.818182 991.451846 
L 2225.454545 991.451846 
L 2269.090909 991.451846 
L 2312.727272 991.451846 
L 2356.363636 991.451846 
L 2400 991.451846 
L 2443.636363 991.451846 
L 2487.272727 991.451846 
L 2530.90909 991.451846 
L 2574.545454 991.451846 
L 2618.181817 991.451846 
L 2661.818181 991.451846 
L 2705.454544 991.451846 
L 2749.090908 991.451846 
L 2792.727271 991.451846 
L 2836.363635 991.451846 
L 2879.999999 991.451846 
L 2923.636362 991.451846 
L 2967.272726 991.451846 
L 3010.909089 991.451846 
L 3054.545453 991.451846 
L 3098.181816 991.451846 
L 3141.81818 991.451846 
L 3185.454543 991.451846 
L 3229.090907 991.451846 
L 3272.727271 991.451846 
L 3316.363634 991.451846 
L 3359.999998 991.451846 
L 3403.636361 991.451846 
L 3447.272725 991.451846 
L 3490.909088 991.451846 
L 3534.545452 991.451846 
L 3578.181815 991.451846 
L 3621.818179 991.451846 
L 3665.454542 991.451846 
L 3709.090906 991.451846 
L 3752.72727 991.451846 
L 3796.363633 991.451846 
L 3839.999997 991.451846 
L 3883.63636 991.451846 
L 3927.272724 991.451846 
L 3970.909087 991.451846 
L 4014.545451 991.451846 
L 4058.181814 991.451846 
L 4101.818178 991.451846 
L 4145.454541 991.451846 
L 4189.090905 991.451846 
L 4232.727269 991.451846 
L 4276.363632 991.451846 
L 4319.999996 991.451846 
" clip-path="url(#p0e17ea74a0)" style="fill: none; stroke: #b0b0b0; stroke-width: 0.8"/>
    <path d="M 0.000004 633.879519 
L 43.636368 633.879519 
L 87.272731 633.879519 
L 130.909095 633.879519 
L 174.545459 633.879519 
L 218.181822 633.879519 
L 261.818186 633.879519 
L 305.454549 633.879519 
L 349.090913 633.879519 
L 392.727276 633.879519 
L 436.36364 633.879519 
L 480.000003 633.879519 
L 523.636367 633.879519 
L 567.27273 633.879519 
L 610.909094 633.879519 
L 654.545458 633.879519 
L 698.181821 633.879519 
L 741.818185 633.879519 
L 785.454548 633.879519 
L 829.090912 633.879519 
L 872.727275 633.879519 
L 916.363639 633.879519 
L 960.000002 633.879519 
L 1003.636366 633.879519 
L 1047.272729 633.879519 
L 1090.909093 633.879519 
L 1134.545457 633.879519 
L 1178.18182 633.879519 
L 1221.818184 633.879519 
L 1265.454547 633.879519 
L 1309.090911 633.879519 
L 1352.727274 633.879519 
L 1396.363638 633.879519 
L 1440.000001 633.879519 
L 1483.636365 633.879519 
L 1527.272729 633.879519 
L 1570.909092 633.879519 
L 1614.545456 633.879519 
L 1658.181819 633.879519 
L 1701.818183 633.879519 
L 1745.454546 633.879519 
L 1789.09091 633.879519 
L 1832.727273 633.879519 
L 1876.363637 633.879519 
L 1920 633.879519 
L 1963.636364 633.879519 
L 2007.272728 633.879519 
L 2050.909091 633.879519 
L 2094.545455 633.879519 
L 2138.181818 633.879519 
L 2181.818182 633.879519 
L 2225.454545 633.879519 
L 2269.090909 633.879519 
L 2312.727272 633.879519 
L 2356.363636 633.879519 
L 2400 633.879519 
L 2443.636363 633.879519 
L 2487.272727 633.879519 
L 2530.90909 633.879519 
L 2574.545454 633.879519 
L 2618.181817 633.879519 
L 2661.818181 633.879519 
L 2705.454544 633.879519 
L 2749.090908 633.879519 
L 2792.727271 633.879519 
L 2836.363635 633.879519 
L 2879.999999 633.879519 
L 2923.636362 633.879519 
L 2967.272726 633.879519 
L 3010.909089 633.879519 
L 3054.545453 633.879519 
L 3098.181816 633.879519 
L 3141.81818 633.879519 
L 3185.454543 633.879519 
L 3229.090907 633.879519 
L 3272.727271 633.879519 
L 3316.363634 633.879519 
L 3359.999998 633.879519 
L 3403.636361 633.879519 
L 3447.272725 633.879519 
L 3490.909088 633.879519 
L 3534.545452 633.879519 
L 3578.181815 633.879519 
L 3621.818179 633.879519 
L 3665.454542 633.879519 
L 3709.090906 633.879519 
L 3752.72727 633.879519 
L 3796.363633 633.879519 
L 3839.999997 633.879519 
L 3883.63636 633.879519 
L 3927.272724 633.879519 
L 3970.909087 633.879519 
L 4014.545451 633.879519 
L 4058.181814 633.879519 
L 4101.818178 633.879519 
L 4145.454541 633.879519 
L 4189.090905 633.879519 
L 4232.727269 633.879519 
L 4276.363632 633.879519 
L 4319.999996 633.879519 
" clip-path="url(#p0e17ea74a0)" style="fill: none; stroke: #b0b0b0; stroke-width: 0.8"/>
    <path d="M 0.000004 276.307193 
L 43.636368 276.307193 
L 87.272731 276.307193 
L 130.909095 276.307193 
L 174.545459 276.307193 
L 218.181822 276.307193 
L 261.818186 276.307193 
L 305.454549 276.307193 
L 349.090913 276.307193 
L 392.727276 276.307193 
L 436.36364 276.307193 
L 480.000003 276.307193 
L 523.636367 276.307193 
L 567.27273 276.307193 
L 610.909094 276.307193 
L 654.545458 276.307193 
L 698.181821 276.307193 
L 741.818185 276.307193 
L 785.454548 276.307193 
L 829.090912 276.307193 
L 872.727275 276.307193 
L 916.363639 276.307193 
L 960.000002 276.307193 
L 1003.636366 276.307193 
L 1047.272729 276.307193 
L 1090.909093 276.307193 
L 1134.545457 276.307193 
L 1178.18182 276.307193 
L 1221.818184 276.307193 
L 1265.454547 276.307193 
L 1309.090911 276.307193 
L 1352.727274 276.307193 
L 1396.363638 276.307193 
L 1440.000001 276.307193 
L 1483.636365 276.307193 
L 1527.272729 276.307193 
L 1570.909092 276.307193 
L 1614.545456 276.307193 
L 1658.181819 276.307193 
L 1701.818183 276.307193 
L 1745.454546 276.307193 
L 1789.09091 276.307193 
L 1832.727273 276.307193 
L 1876.363637 276.307193 
L 1920 276.307193 
L 1963.636364 276.307193 
L 2007.272728 276.307193 
L 2050.909091 276.307193 
L 2094.545455 276.307193 
L 2138.181818 276.307193 
L 2181.818182 276.307193 
L 2225.454545 276.307193 
L 2269.090909 276.307193 
L 2312.727272 276.307193 
L 2356.363636 276.307193 
L 2400 276.307193 
L 2443.636363 276.307193 
L 2487.272727 276.307193 
L 2530.90909 276.307193 
L 2574.545454 276.307193 
L 2618.181817 276.307193 
L 2661.818181 276.307193 
L 2705.454544 276.307193 
L 2749.090908 276.307193 
L 2792.727271 276.307193 
L 2836.363635 276.307193 
L 2879.999999 276.307193 
L 2923.636362 276.307193 
L 2967.272726 276.307193 
L 3010.909089 276.307193 
L 3054.545453 276.307193 
L 3098.181816 276.307193 
L 3141.81818 276.307193 
L 3185.454543 276.307193 
L 3229.090907 276.307193 
L 3272.727271 276.307193 
L 3316.363634 276.307193 
L 3359.999998 276.307193 
L 3403.636361 276.307193 
L 3447.272725 276.307193 
L 3490.909088 276.307193 
L 3534.545452 276.307193 
L 3578.181815 276.307193 
L 3621.818179 276.307193 
L 3665.454542 276.307193 
L 3709.090906 276.307193 
L 3752.72727 276.307193 
L 3796.363633 276.307193 
L 3839.999997 276.307193 
L 3883.63636 276.307193 
L 3927.272724 276.307193 
L 3970.909087 276.307193 
L 4014.545451 276.307193 
L 4058.181814 276.307193 
L 4101.818178 276.307193 
L 4145.454541 276.307193 
L 4189.090905 276.307193 
L 4232.727269 276.307193 
L 4276.363632 276.307193 
L 4319.999996 276.307193 
" clip-path="url(#p0e17ea74a0)" style="fill: none; stroke: #b0b0b0; stroke-width: 0.8"/>
   </g>
   <g id="text_1">
    <!-- 0 -->
    <g transform="translate(-792678848.630422 -3019610980.912874)scale(0.15 -0.15)">
     <defs>
      <path id="DejaVuSans-30" d="M 2034 4250 
Q 1547 4250 1301 3770 
Q 1056 3291 1056 2328 
Q 1056 1369 1301 889 
Q 1547 409 2034 409 
Q 2525 409 2770 889 
Q 3016 1369 3016 2328 
Q 3016 3291 2770 3770 
Q 2525 4250 2034 4250 
z
M 2034 4750 
Q 2819 4750 3233 4129 
Q 3647 3509 3647 2328 
Q 3647 1150 3233 529 
Q 2819 -91 2034 -91 
Q 1250 -91 836 529 
Q 422 1150 422 2328 
Q 422 3509 836 4129 
Q 1250 4750 2034 4750 
z
" transform="scale(0.015625)"/>
     </defs>
     <use xlink:href="#DejaVuSans-30"/>
    </g>
   </g>
   <g id="text_2">
    <!-- 1 -->
    <g transform="translate(-784567091.306336 -3020269410.564778)scale(0.15 -0.15)">
     <defs>
      <path id="DejaVuSans-31" d="M 794 531 
L 1825 531 
L 1825 4091 
L 703 3866 
L 703 4441 
L 1819 4666 
L 2450 4666 
L 2450 531 
L 3481 531 
L 3481 0 
L 794 0 
L 794 531 
z
" transform="scale(0.015625)"/>
     </defs>
     <use xlink:href="#DejaVuSans-31"/>
    </g>
   </g>
   <g id="text_3">
    <!-- 2 -->
    <g transform="translate(-789412787.790964 -3018308009.080525)scale(0.15 -0.15)">
     <defs>
      <path id="DejaVuSans-32" d="M 1228 531 
L 3431 531 
L 3431 0 
L 469 0 
L 469 531 
Q 828 903 1448 1529 
Q 2069 2156 2228 2338 
Q 2531 2678 2651 2914 
Q 2772 3150 2772 3378 
Q 2772 3750 2511 3984 
Q 2250 4219 1831 4219 
Q 1534 4219 1204 4116 
Q 875 4013 500 3803 
L 500 4441 
Q 881 4594 1212 4672 
Q 1544 4750 1819 4750 
Q 2544 4750 2975 4387 
Q 3406 4025 3406 3419 
Q 3406 3131 3298 2873 
Q 3191 2616 2906 2266 
Q 2828 2175 2409 1742 
Q 1991 1309 1228 531 
z
" transform="scale(0.015625)"/>
     </defs>
     <use xlink:href="#DejaVuSans-32"/>
    </g>
   </g>
   <g id="text_4">
    <!-- 3 -->
    <g transform="translate(-791060591.086837 -3015328692.847564)scale(0.15 -0.15)">
     <defs>
      <path id="DejaVuSans-33" d="M 2597 2516 
Q 3050 2419 3304 2112 
Q 3559 1806 3559 1356 
Q 3559 666 3084 287 
Q 2609 -91 1734 -91 
Q 1441 -91 1130 -33 
Q 819 25 488 141 
L 488 750 
Q 750 597 1062 519 
Q 1375 441 1716 441 
Q 2309 441 2620 675 
Q 2931 909 2931 1356 
Q 2931 1769 2642 2001 
Q 2353 2234 1838 2234 
L 1294 2234 
L 1294 2753 
L 1863 2753 
Q 2328 2753 2575 2939 
Q 2822 3125 2822 3475 
Q 2822 3834 2567 4026 
Q 2313 4219 1838 4219 
Q 1578 4219 1281 4162 
Q 984 4106 628 3988 
L 628 4550 
Q 988 4650 1302 4700 
Q 1616 4750 1894 4750 
Q 2613 4750 3031 4423 
Q 3450 4097 3450 3541 
Q 3450 3153 3228 2886 
Q 3006 2619 2597 2516 
z
" transform="scale(0.015625)"/>
     </defs>
     <use xlink:href="#DejaVuSans-33"/>
    </g>
   </g>
   <g id="text_5">
    <!-- 4 -->
    <g transform="translate(-785448056.80918 -3019627952.731425)scale(0.15 -0.15)">
     <defs>
      <path id="DejaVuSans-34" d="M 2419 4116 
L 825 1625 
L 2419 1625 
L 2419 4116 
z
M 2253 4666 
L 3047 4666 
L 3047 1625 
L 3713 1625 
L 3713 1100 
L 3047 1100 
L 3047 0 
L 2419 0 
L 2419 1100 
L 313 1100 
L 313 1709 
L 2253 4666 
z
" transform="scale(0.015625)"/>
     </defs>
     <use xlink:href="#DejaVuSans-34"/>
    </g>
   </g>
   <g id="text_6">
    <!-- 6 -->
    <g transform="translate(-784265454.279715 -3022401306.507535)scale(0.15 -0.15)">
     <defs>
      <path id="DejaVuSans-36" d="M 2113 2584 
Q 1688 2584 1439 2293 
Q 1191 2003 1191 1497 
Q 1191 994 1439 701 
Q 1688 409 2113 409 
Q 2538 409 2786 701 
Q 3034 994 3034 1497 
Q 3034 2003 2786 2293 
Q 2538 2584 2113 2584 
z
M 3366 4563 
L 3366 3988 
Q 3128 4100 2886 4159 
Q 2644 4219 2406 4219 
Q 1781 4219 1451 3797 
Q 1122 3375 1075 2522 
Q 1259 2794 1537 2939 
Q 1816 3084 2150 3084 
Q 2853 3084 3261 2657 
Q 3669 2231 3669 1497 
Q 3669 778 3244 343 
Q 2819 -91 2113 -91 
Q 1303 -91 875 529 
Q 447 1150 447 2328 
Q 447 3434 972 4092 
Q 1497 4750 2381 4750 
Q 2619 4750 2861 4703 
Q 3103 4656 3366 4563 
z
" transform="scale(0.015625)"/>
     </defs>
     <use xlink:href="#DejaVuSans-36"/>
    </g>
   </g>
   <g id="text_7">
    <!-- 7 -->
    <g transform="translate(-785736175.544618 -3030621126.877341)scale(0.15 -0.15)">
     <defs>
      <path id="DejaVuSans-37" d="M 525 4666 
L 3525 4666 
L 3525 4397 
L 1831 0 
L 1172 0 
L 2766 4134 
L 525 4134 
L 525 4666 
z
" transform="scale(0.015625)"/>
     </defs>
     <use xlink:href="#DejaVuSans-37"/>
    </g>
   </g>
   <g id="text_8">
    <!-- 8 -->
    <g transform="translate(-782066709.602954 -3024621924.352343)scale(0.15 -0.15)">
     <defs>
      <path id="DejaVuSans-38" d="M 2034 2216 
Q 1584 2216 1326 1975 
Q 1069 1734 1069 1313 
Q 1069 891 1326 650 
Q 1584 409 2034 409 
Q 2484 409 2743 651 
Q 3003 894 3003 1313 
Q 3003 1734 2745 1975 
Q 2488 2216 2034 2216 
z
M 1403 2484 
Q 997 2584 770 2862 
Q 544 3141 544 3541 
Q 544 4100 942 4425 
Q 1341 4750 2034 4750 
Q 2731 4750 3128 4425 
Q 3525 4100 3525 3541 
Q 3525 3141 3298 2862 
Q 3072 2584 2669 2484 
Q 3125 2378 3379 2068 
Q 3634 1759 3634 1313 
Q 3634 634 3220 271 
Q 2806 -91 2034 -91 
Q 1263 -91 848 271 
Q 434 634 434 1313 
Q 434 1759 690 2068 
Q 947 2378 1403 2484 
z
M 1172 3481 
Q 1172 3119 1398 2916 
Q 1625 2713 2034 2713 
Q 2441 2713 2670 2916 
Q 2900 3119 2900 3481 
Q 2900 3844 2670 4047 
Q 2441 4250 2034 4250 
Q 1625 4250 1398 4047 
Q 1172 3844 1172 3481 
z
" transform="scale(0.015625)"/>
     </defs>
     <use xlink:href="#DejaVuSans-38"/>
    </g>
   </g>
   <g id="text_9">
    <!-- 9 -->
    <g transform="translate(-787635987.354386 -3023064366.912497)scale(0.15 -0.15)">
     <defs>
      <path id="DejaVuSans-39" d="M 703 97 
L 703 672 
Q 941 559 1184 500 
Q 1428 441 1663 441 
Q 2288 441 2617 861 
Q 2947 1281 2994 2138 
Q 2813 1869 2534 1725 
Q 2256 1581 1919 1581 
Q 1219 1581 811 2004 
Q 403 2428 403 3163 
Q 403 3881 828 4315 
Q 1253 4750 1959 4750 
Q 2769 4750 3195 4129 
Q 3622 3509 3622 2328 
Q 3622 1225 3098 567 
Q 2575 -91 1691 -91 
Q 1453 -91 1209 -44 
Q 966 3 703 97 
z
M 1959 2075 
Q 2384 2075 2632 2365 
Q 2881 2656 2881 3163 
Q 2881 3666 2632 3958 
Q 2384 4250 1959 4250 
Q 1534 4250 1286 3958 
Q 1038 3666 1038 3163 
Q 1038 2656 1286 2365 
Q 1534 2075 1959 2075 
z
" transform="scale(0.015625)"/>
     </defs>
     <use xlink:href="#DejaVuSans-39"/>
    </g>
   </g>
   <g id="text_10">
    <!-- 10 -->
    <g transform="translate(-786743616.000789 -3018583570.977762)scale(0.15 -0.15)">
     <use xlink:href="#DejaVuSans-31"/>
     <use xlink:href="#DejaVuSans-30" x="63.623047"/>
    </g>
   </g>
   <g id="text_11">
    <!-- 11 -->
    <g transform="translate(-791662711.255 -3023414604.951394)scale(0.15 -0.15)">
     <use xlink:href="#DejaVuSans-31"/>
     <use xlink:href="#DejaVuSans-31" x="63.623047"/>
    </g>
   </g>
   <g id="text_12">
    <!-- 12 -->
    <g transform="translate(-790592884.668907 -3015976319.129303)scale(0.15 -0.15)">
     <use xlink:href="#DejaVuSans-31"/>
     <use xlink:href="#DejaVuSans-32" x="63.623047"/>
    </g>
   </g>
   <g id="text_13">
    <!-- 13 -->
    <g transform="translate(-790812739.825634 -3017004942.723315)scale(0.15 -0.15)">
     <use xlink:href="#DejaVuSans-31"/>
     <use xlink:href="#DejaVuSans-33" x="63.623047"/>
    </g>
   </g>
   <g id="text_14">
    <!-- 14 -->
    <g transform="translate(-789096286.105329 -3022710271.765933)scale(0.15 -0.15)">
     <use xlink:href="#DejaVuSans-31"/>
     <use xlink:href="#DejaVuSans-34" x="63.623047"/>
    </g>
   </g>
   <g id="text_15">
    <!-- 15 -->
    <g transform="translate(-788966323.417163 -3020140771.810172)scale(0.15 -0.15)">
     <defs>
      <path id="DejaVuSans-35" d="M 691 4666 
L 3169 4666 
L 3169 4134 
L 1269 4134 
L 1269 2991 
Q 1406 3038 1543 3061 
Q 1681 3084 1819 3084 
Q 2600 3084 3056 2656 
Q 3513 2228 3513 1497 
Q 3513 744 3044 326 
Q 2575 -91 1722 -91 
Q 1428 -91 1123 -41 
Q 819 9 494 109 
L 494 744 
Q 775 591 1075 516 
Q 1375 441 1709 441 
Q 2250 441 2565 725 
Q 2881 1009 2881 1497 
Q 2881 1984 2565 2268 
Q 2250 2553 1709 2553 
Q 1456 2553 1204 2497 
Q 953 2441 691 2322 
L 691 4666 
z
" transform="scale(0.015625)"/>
     </defs>
     <use xlink:href="#DejaVuSans-31"/>
     <use xlink:href="#DejaVuSans-35" x="63.623047"/>
    </g>
   </g>
   <g id="text_16">
    <!-- 16 -->
    <g transform="translate(-780782922.471517 -3025053165.350986)scale(0.15 -0.15)">
     <use xlink:href="#DejaVuSans-31"/>
     <use xlink:href="#DejaVuSans-36" x="63.623047"/>
    </g>
   </g>
   <g id="text_17">
    <!-- 17 -->
    <g transform="translate(-790616057.807956 -3022931677.647246)scale(0.15 -0.15)">
     <use xlink:href="#DejaVuSans-31"/>
     <use xlink:href="#DejaVuSans-37" x="63.623047"/>
    </g>
   </g>
   <g id="text_18">
    <!-- 19 -->
    <g transform="translate(-789171598.807238 -3055802954.051281)scale(0.15 -0.15)">
     <use xlink:href="#DejaVuSans-31"/>
     <use xlink:href="#DejaVuSans-39" x="63.623047"/>
    </g>
   </g>
   <g id="text_19">
    <!-- 20 -->
    <g transform="translate(-770426074.192572 -3065488129.394179)scale(0.15 -0.15)">
     <use xlink:href="#DejaVuSans-32"/>
     <use xlink:href="#DejaVuSans-30" x="63.623047"/>
    </g>
   </g>
   <g id="text_20">
    <!-- 21 -->
    <g transform="translate(-777290505.435666 -3068427910.997364)scale(0.15 -0.15)">
     <use xlink:href="#DejaVuSans-32"/>
     <use xlink:href="#DejaVuSans-31" x="63.623047"/>
    </g>
   </g>
   <g id="text_21">
    <!-- 22 -->
    <g transform="translate(-794077352.343901 -3037324720.035383)scale(0.15 -0.15)">
     <use xlink:href="#DejaVuSans-32"/>
     <use xlink:href="#DejaVuSans-32" x="63.623047"/>
    </g>
   </g>
   <g id="text_22">
    <!-- 23 -->
    <g transform="translate(-835750449.450343 -3081846488.700058)scale(0.15 -0.15)">
     <use xlink:href="#DejaVuSans-32"/>
     <use xlink:href="#DejaVuSans-33" x="63.623047"/>
    </g>
   </g>
   <g id="text_23">
    <!-- 24 -->
    <g transform="translate(-853627685.071901 -3085821232.26181)scale(0.15 -0.15)">
     <use xlink:href="#DejaVuSans-32"/>
     <use xlink:href="#DejaVuSans-34" x="63.623047"/>
    </g>
   </g>
   <g id="text_24">
    <!-- 26 -->
    <g transform="translate(-818188231.086369 -3100798907.745373)scale(0.15 -0.15)">
     <use xlink:href="#DejaVuSans-32"/>
     <use xlink:href="#DejaVuSans-36" x="63.623047"/>
    </g>
   </g>
   <g id="text_25">
    <!-- 27 -->
    <g transform="translate(-777924211.673756 -3045015064.543657)scale(0.15 -0.15)">
     <use xlink:href="#DejaVuSans-32"/>
     <use xlink:href="#DejaVuSans-37" x="63.623047"/>
    </g>
   </g>
   <g id="text_26">
    <!-- 28 -->
    <g transform="translate(-751311324.229058 -3069128775.603501)scale(0.15 -0.15)">
     <use xlink:href="#DejaVuSans-32"/>
     <use xlink:href="#DejaVuSans-38" x="63.623047"/>
    </g>
   </g>
   <g id="text_27">
    <!-- 30 -->
    <g transform="translate(-837044600.549486 -3195103360.231842)scale(0.15 -0.15)">
     <use xlink:href="#DejaVuSans-33"/>
     <use xlink:href="#DejaVuSans-30" x="63.623047"/>
    </g>
   </g>
   <g id="text_28">
    <!-- 33 -->
    <g transform="translate(-846568374.479621 -3185863633.708736)scale(0.15 -0.15)">
     <use xlink:href="#DejaVuSans-33"/>
     <use xlink:href="#DejaVuSans-33" x="63.623047"/>
    </g>
   </g>
   <g id="text_29">
    <!-- 37 -->
    <g transform="translate(-863514891.066121 -3145884178.212587)scale(0.15 -0.15)">
     <use xlink:href="#DejaVuSans-33"/>
     <use xlink:href="#DejaVuSans-37" x="63.623047"/>
    </g>
   </g>
   <g id="text_30">
    <!-- 38 -->
    <g transform="translate(-846793540.14738 -3192672474.593647)scale(0.15 -0.15)">
     <use xlink:href="#DejaVuSans-33"/>
     <use xlink:href="#DejaVuSans-38" x="63.623047"/>
    </g>
   </g>
   <g id="text_31">
    <!-- 39 -->
    <g transform="translate(-832208361.548436 -3187811410.998197)scale(0.15 -0.15)">
     <use xlink:href="#DejaVuSans-33"/>
     <use xlink:href="#DejaVuSans-39" x="63.623047"/>
    </g>
   </g>
   <g id="text_32">
    <!-- 42 -->
    <g transform="translate(-845740981.018476 -3170782802.30183)scale(0.15 -0.15)">
     <use xlink:href="#DejaVuSans-34"/>
     <use xlink:href="#DejaVuSans-32" x="63.623047"/>
    </g>
   </g>
   <g id="text_33">
    <!-- 43 -->
    <g transform="translate(-858384513.238411 -3148755231.625938)scale(0.15 -0.15)">
     <use xlink:href="#DejaVuSans-34"/>
     <use xlink:href="#DejaVuSans-33" x="63.623047"/>
    </g>
   </g>
   <g id="text_34">
    <!-- 44 -->
    <g transform="translate(-698260284.566322 -3171719443.906254)scale(0.15 -0.15)">
     <use xlink:href="#DejaVuSans-34"/>
     <use xlink:href="#DejaVuSans-34" x="63.623047"/>
    </g>
   </g>
   <g id="text_35">
    <!-- 45 -->
    <g transform="translate(-707233310.225061 -3158972459.031028)scale(0.15 -0.15)">
     <use xlink:href="#DejaVuSans-34"/>
     <use xlink:href="#DejaVuSans-35" x="63.623047"/>
    </g>
   </g>
   <g id="text_36">
    <!-- 46 -->
    <g transform="translate(-731493269.49541 -3166033420.335171)scale(0.15 -0.15)">
     <use xlink:href="#DejaVuSans-34"/>
     <use xlink:href="#DejaVuSans-36" x="63.623047"/>
    </g>
   </g>
   <g id="text_37">
    <!-- 47 -->
    <g transform="translate(-688308193.782765 -3185902212.768427)scale(0.15 -0.15)">
     <use xlink:href="#DejaVuSans-34"/>
     <use xlink:href="#DejaVuSans-37" x="63.623047"/>
    </g>
   </g>
   <g id="text_38">
    <!-- 48 -->
    <g transform="translate(-730159269.124158 -3151388047.891257)scale(0.15 -0.15)">
     <use xlink:href="#DejaVuSans-34"/>
     <use xlink:href="#DejaVuSans-38" x="63.623047"/>
    </g>
   </g>
   <g id="text_39">
    <!-- 49 -->
    <g transform="translate(-753918302.372066 -3128829978.013675)scale(0.15 -0.15)">
     <use xlink:href="#DejaVuSans-34"/>
     <use xlink:href="#DejaVuSans-39" x="63.623047"/>
    </g>
   </g>
   <g id="text_40">
    <!-- 50 -->
    <g transform="translate(-700202101.365059 -3142162793.684693)scale(0.15 -0.15)">
     <use xlink:href="#DejaVuSans-35"/>
     <use xlink:href="#DejaVuSans-30" x="63.623047"/>
    </g>
   </g>
   <g id="text_41">
    <!-- 51 -->
    <g transform="translate(-667327233.687843 -3178396298.547695)scale(0.15 -0.15)">
     <use xlink:href="#DejaVuSans-35"/>
     <use xlink:href="#DejaVuSans-31" x="63.623047"/>
    </g>
   </g>
   <g id="text_42">
    <!-- 52 -->
    <g transform="translate(-652211028.977474 -3153954187.116103)scale(0.15 -0.15)">
     <use xlink:href="#DejaVuSans-35"/>
     <use xlink:href="#DejaVuSans-32" x="63.623047"/>
    </g>
   </g>
   <g id="text_43">
    <!-- 53 -->
    <g transform="translate(-654154076.576481 -3176762874.551485)scale(0.15 -0.15)">
     <use xlink:href="#DejaVuSans-35"/>
     <use xlink:href="#DejaVuSans-33" x="63.623047"/>
    </g>
   </g>
   <g id="text_44">
    <!-- 54 -->
    <g transform="translate(-623474639.389958 -3171467769.501545)scale(0.15 -0.15)">
     <use xlink:href="#DejaVuSans-35"/>
     <use xlink:href="#DejaVuSans-34" x="63.623047"/>
    </g>
   </g>
   <g id="text_45">
    <!-- 55 -->
    <g transform="translate(-661391241.010961 -3179392981.681577)scale(0.15 -0.15)">
     <use xlink:href="#DejaVuSans-35"/>
     <use xlink:href="#DejaVuSans-35" x="63.623047"/>
    </g>
   </g>
   <g id="text_46">
    <!-- 57 -->
    <g transform="translate(-651250482.253647 -3143856546.02194)scale(0.15 -0.15)">
     <use xlink:href="#DejaVuSans-35"/>
     <use xlink:href="#DejaVuSans-37" x="63.623047"/>
    </g>
   </g>
   <g id="text_47">
    <!-- 58 -->
    <g transform="translate(-671316103.356136 -3187508646.113609)scale(0.15 -0.15)">
     <use xlink:href="#DejaVuSans-35"/>
     <use xlink:href="#DejaVuSans-38" x="63.623047"/>
    </g>
   </g>
   <g id="text_48">
    <!-- 59 -->
    <g transform="translate(-680603897.486956 -3195181676.433982)scale(0.15 -0.15)">
     <use xlink:href="#DejaVuSans-35"/>
     <use xlink:href="#DejaVuSans-39" x="63.623047"/>
    </g>
   </g>
   <g id="text_49">
    <!-- 64 -->
    <g transform="translate(-651473716.826486 -3153102250.897057)scale(0.15 -0.15)">
     <use xlink:href="#DejaVuSans-36"/>
     <use xlink:href="#DejaVuSans-34" x="63.623047"/>
    </g>
   </g>
   <g id="text_50">
    <!-- 65 -->
    <g transform="translate(-648434945.8592 -3229485129.518257)scale(0.15 -0.15)">
     <use xlink:href="#DejaVuSans-36"/>
     <use xlink:href="#DejaVuSans-35" x="63.623047"/>
    </g>
   </g>
   <g id="text_51">
    <!-- 66 -->
    <g transform="translate(-624407490.417309 -3185643733.096465)scale(0.15 -0.15)">
     <use xlink:href="#DejaVuSans-36"/>
     <use xlink:href="#DejaVuSans-36" x="63.623047"/>
    </g>
   </g>
   <g id="text_52">
    <!-- 67 -->
    <g transform="translate(-551707173.716996 -3198818515.775375)scale(0.15 -0.15)">
     <use xlink:href="#DejaVuSans-36"/>
     <use xlink:href="#DejaVuSans-37" x="63.623047"/>
    </g>
   </g>
   <g id="text_53">
    <!-- 68 -->
    <g transform="translate(-624928113.607942 -3156795503.349237)scale(0.15 -0.15)">
     <use xlink:href="#DejaVuSans-36"/>
     <use xlink:href="#DejaVuSans-38" x="63.623047"/>
    </g>
   </g>
   <g id="text_54">
    <!-- 70 -->
    <g transform="translate(-658095497.602092 -3158622747.401125)scale(0.15 -0.15)">
     <use xlink:href="#DejaVuSans-37"/>
     <use xlink:href="#DejaVuSans-30" x="63.623047"/>
    </g>
   </g>
   <g id="text_55">
    <!-- 72 -->
    <g transform="translate(-505326908.348485 -3101175021.070238)scale(0.15 -0.15)">
     <use xlink:href="#DejaVuSans-37"/>
     <use xlink:href="#DejaVuSans-32" x="63.623047"/>
    </g>
   </g>
   <g id="text_56">
    <!-- 73 -->
    <g transform="translate(-504307897.585359 -3088629825.916553)scale(0.15 -0.15)">
     <use xlink:href="#DejaVuSans-37"/>
     <use xlink:href="#DejaVuSans-33" x="63.623047"/>
    </g>
   </g>
   <g id="text_57">
    <!-- 76 -->
    <g transform="translate(-492768682.585929 -3107198748.168409)scale(0.15 -0.15)">
     <use xlink:href="#DejaVuSans-37"/>
     <use xlink:href="#DejaVuSans-36" x="63.623047"/>
    </g>
   </g>
   <g id="text_58">
    <!-- 77 -->
    <g transform="translate(-499415638.675617 -3080502436.115084)scale(0.15 -0.15)">
     <use xlink:href="#DejaVuSans-37"/>
     <use xlink:href="#DejaVuSans-37" x="63.623047"/>
    </g>
   </g>
   <g id="text_59">
    <!-- 78 -->
    <g transform="translate(-504166439.129513 -3116734697.689044)scale(0.15 -0.15)">
     <use xlink:href="#DejaVuSans-37"/>
     <use xlink:href="#DejaVuSans-38" x="63.623047"/>
    </g>
   </g>
   <g id="text_60">
    <!-- 79 -->
    <g transform="translate(-514032708.945812 -3065403205.691208)scale(0.15 -0.15)">
     <use xlink:href="#DejaVuSans-37"/>
     <use xlink:href="#DejaVuSans-39" x="63.623047"/>
    </g>
   </g>
   <g id="text_61">
    <!-- 80 -->
    <g transform="translate(-504091508.466607 -3076848237.487783)scale(0.15 -0.15)">
     <use xlink:href="#DejaVuSans-38"/>
     <use xlink:href="#DejaVuSans-30" x="63.623047"/>
    </g>
   </g>
   <g id="text_62">
    <!-- 81 -->
    <g transform="translate(-518224295.939393 -3117385331.030699)scale(0.15 -0.15)">
     <use xlink:href="#DejaVuSans-38"/>
     <use xlink:href="#DejaVuSans-31" x="63.623047"/>
    </g>
   </g>
   <g id="text_63">
    <!-- 82 -->
    <g transform="translate(-536762043.906358 -3163890783.841914)scale(0.15 -0.15)">
     <use xlink:href="#DejaVuSans-38"/>
     <use xlink:href="#DejaVuSans-32" x="63.623047"/>
    </g>
   </g>
   <g id="text_64">
    <!-- 83 -->
    <g transform="translate(-747598601.134432 -3017170899.63656)scale(0.15 -0.15)">
     <use xlink:href="#DejaVuSans-38"/>
     <use xlink:href="#DejaVuSans-33" x="63.623047"/>
    </g>
   </g>
   <g id="text_65">
    <!-- 84 -->
    <g transform="translate(-731551287.871648 -3022147285.696313)scale(0.15 -0.15)">
     <use xlink:href="#DejaVuSans-38"/>
     <use xlink:href="#DejaVuSans-34" x="63.623047"/>
    </g>
   </g>
   <g id="text_66">
    <!-- 85 -->
    <g transform="translate(-734376394.212084 -2997728983.998698)scale(0.15 -0.15)">
     <use xlink:href="#DejaVuSans-38"/>
     <use xlink:href="#DejaVuSans-35" x="63.623047"/>
    </g>
   </g>
   <g id="text_67">
    <!-- 86 -->
    <g transform="translate(-728252505.999414 -2990947200.883331)scale(0.15 -0.15)">
     <use xlink:href="#DejaVuSans-38"/>
     <use xlink:href="#DejaVuSans-36" x="63.623047"/>
    </g>
   </g>
   <g id="text_68">
    <!-- 87 -->
    <g transform="translate(-649883267.049759 -2993659522.106493)scale(0.15 -0.15)">
     <use xlink:href="#DejaVuSans-38"/>
     <use xlink:href="#DejaVuSans-37" x="63.623047"/>
    </g>
   </g>
   <g id="text_69">
    <!-- 88 -->
    <g transform="translate(-746300519.128706 -3028702521.679978)scale(0.15 -0.15)">
     <use xlink:href="#DejaVuSans-38"/>
     <use xlink:href="#DejaVuSans-38" x="63.623047"/>
    </g>
   </g>
   <g id="text_70">
    <!-- 89 -->
    <g transform="translate(-728970100.871963 -3014598522.745629)scale(0.15 -0.15)">
     <use xlink:href="#DejaVuSans-38"/>
     <use xlink:href="#DejaVuSans-39" x="63.623047"/>
    </g>
   </g>
   <g id="text_71">
    <!-- 90 -->
    <g transform="translate(-735992334.441764 -3025441976.733508)scale(0.15 -0.15)">
     <use xlink:href="#DejaVuSans-39"/>
     <use xlink:href="#DejaVuSans-30" x="63.623047"/>
    </g>
   </g>
   <g id="text_72">
    <!-- 91 -->
    <g transform="translate(-738800918.894497 -3012876665.991518)scale(0.15 -0.15)">
     <use xlink:href="#DejaVuSans-39"/>
     <use xlink:href="#DejaVuSans-31" x="63.623047"/>
    </g>
   </g>
   <g id="text_73">
    <!-- 92 -->
    <g transform="translate(-758219623.198536 -2997755212.523939)scale(0.15 -0.15)">
     <use xlink:href="#DejaVuSans-39"/>
     <use xlink:href="#DejaVuSans-32" x="63.623047"/>
    </g>
   </g>
   <g id="text_74">
    <!-- 93 -->
    <g transform="translate(-755891881.381068 -3005775585.12186)scale(0.15 -0.15)">
     <use xlink:href="#DejaVuSans-39"/>
     <use xlink:href="#DejaVuSans-33" x="63.623047"/>
    </g>
   </g>
   <g id="text_75">
    <!-- 94 -->
    <g transform="translate(-547461275.314752 -3031989693.728584)scale(0.15 -0.15)">
     <use xlink:href="#DejaVuSans-39"/>
     <use xlink:href="#DejaVuSans-34" x="63.623047"/>
    </g>
   </g>
   <g id="text_76">
    <!-- 95 -->
    <g transform="translate(-734829399.84633 -3004243351.514116)scale(0.15 -0.15)">
     <use xlink:href="#DejaVuSans-39"/>
     <use xlink:href="#DejaVuSans-35" x="63.623047"/>
    </g>
   </g>
   <g id="text_77">
    <!-- 96 -->
    <g transform="translate(-762428251.46881 -3011190298.771695)scale(0.15 -0.15)">
     <use xlink:href="#DejaVuSans-39"/>
     <use xlink:href="#DejaVuSans-36" x="63.623047"/>
    </g>
   </g>
   <g id="text_78">
    <!-- 97 -->
    <g transform="translate(-730160041.562127 -2965415270.262428)scale(0.15 -0.15)">
     <use xlink:href="#DejaVuSans-39"/>
     <use xlink:href="#DejaVuSans-37" x="63.623047"/>
    </g>
   </g>
   <g id="text_79">
    <!-- 98 -->
    <g transform="translate(-684246714.945452 -2963765057.780699)scale(0.15 -0.15)">
     <use xlink:href="#DejaVuSans-39"/>
     <use xlink:href="#DejaVuSans-38" x="63.623047"/>
    </g>
   </g>
   <g id="text_80">
    <!-- 99 -->
    <g transform="translate(-769748259.87539 -2999036746.936765)scale(0.15 -0.15)">
     <use xlink:href="#DejaVuSans-39"/>
     <use xlink:href="#DejaVuSans-39" x="63.623047"/>
    </g>
   </g>
   <g id="text_81">
    <!-- 100 -->
    <g transform="translate(-811532620.363932 -3010023201.443176)scale(0.15 -0.15)">
     <use xlink:href="#DejaVuSans-31"/>
     <use xlink:href="#DejaVuSans-30" x="63.623047"/>
     <use xlink:href="#DejaVuSans-30" x="127.246094"/>
    </g>
   </g>
   <g id="text_82">
    <!-- 101 -->
    <g transform="translate(-812131162.742041 -3010922219.100259)scale(0.15 -0.15)">
     <use xlink:href="#DejaVuSans-31"/>
     <use xlink:href="#DejaVuSans-30" x="63.623047"/>
     <use xlink:href="#DejaVuSans-31" x="127.246094"/>
    </g>
   </g>
   <g id="text_83">
    <!-- 102 -->
    <g transform="translate(-817142354.849167 -3013802395.014135)scale(0.15 -0.15)">
     <use xlink:href="#DejaVuSans-31"/>
     <use xlink:href="#DejaVuSans-30" x="63.623047"/>
     <use xlink:href="#DejaVuSans-32" x="127.246094"/>
    </g>
   </g>
   <g id="text_84">
    <!-- 103 -->
    <g transform="translate(-807476838.551849 -2998326068.855861)scale(0.15 -0.15)">
     <use xlink:href="#DejaVuSans-31"/>
     <use xlink:href="#DejaVuSans-30" x="63.623047"/>
     <use xlink:href="#DejaVuSans-33" x="127.246094"/>
    </g>
   </g>
   <g id="text_85">
    <!-- 104 -->
    <g transform="translate(-815532980.342218 -3017032811.139471)scale(0.15 -0.15)">
     <use xlink:href="#DejaVuSans-31"/>
     <use xlink:href="#DejaVuSans-30" x="63.623047"/>
     <use xlink:href="#DejaVuSans-34" x="127.246094"/>
    </g>
   </g>
   <g id="text_86">
    <!-- sland -->
    <g transform="translate(2142.149063 267.819898)scale(0.12 -0.12)">
     <defs>
      <path id="DejaVuSans-cd" d="M 628 4666 
L 1259 4666 
L 1259 0 
L 628 0 
L 628 4666 
z
M 1119 5935 
L 1697 5935 
L 984 5110 
L 506 5110 
L 1119 5935 
z
" transform="scale(0.015625)"/>
      <path id="DejaVuSans-73" d="M 2834 3397 
L 2834 2853 
Q 2591 2978 2328 3040 
Q 2066 3103 1784 3103 
Q 1356 3103 1142 2972 
Q 928 2841 928 2578 
Q 928 2378 1081 2264 
Q 1234 2150 1697 2047 
L 1894 2003 
Q 2506 1872 2764 1633 
Q 3022 1394 3022 966 
Q 3022 478 2636 193 
Q 2250 -91 1575 -91 
Q 1294 -91 989 -36 
Q 684 19 347 128 
L 347 722 
Q 666 556 975 473 
Q 1284 391 1588 391 
Q 1994 391 2212 530 
Q 2431 669 2431 922 
Q 2431 1156 2273 1281 
Q 2116 1406 1581 1522 
L 1381 1569 
Q 847 1681 609 1914 
Q 372 2147 372 2553 
Q 372 3047 722 3315 
Q 1072 3584 1716 3584 
Q 2034 3584 2315 3537 
Q 2597 3491 2834 3397 
z
" transform="scale(0.015625)"/>
      <path id="DejaVuSans-6c" d="M 603 4863 
L 1178 4863 
L 1178 0 
L 603 0 
L 603 4863 
z
" transform="scale(0.015625)"/>
      <path id="DejaVuSans-61" d="M 2194 1759 
Q 1497 1759 1228 1600 
Q 959 1441 959 1056 
Q 959 750 1161 570 
Q 1363 391 1709 391 
Q 2188 391 2477 730 
Q 2766 1069 2766 1631 
L 2766 1759 
L 2194 1759 
z
M 3341 1997 
L 3341 0 
L 2766 0 
L 2766 531 
Q 2569 213 2275 61 
Q 1981 -91 1556 -91 
Q 1019 -91 701 211 
Q 384 513 384 1019 
Q 384 1609 779 1909 
Q 1175 2209 1959 2209 
L 2766 2209 
L 2766 2266 
Q 2766 2663 2505 2880 
Q 2244 3097 1772 3097 
Q 1472 3097 1187 3025 
Q 903 2953 641 2809 
L 641 3341 
Q 956 3463 1253 3523 
Q 1550 3584 1831 3584 
Q 2591 3584 2966 3190 
Q 3341 2797 3341 1997 
z
" transform="scale(0.015625)"/>
      <path id="DejaVuSans-6e" d="M 3513 2113 
L 3513 0 
L 2938 0 
L 2938 2094 
Q 2938 2591 2744 2837 
Q 2550 3084 2163 3084 
Q 1697 3084 1428 2787 
Q 1159 2491 1159 1978 
L 1159 0 
L 581 0 
L 581 3500 
L 1159 3500 
L 1159 2956 
Q 1366 3272 1645 3428 
Q 1925 3584 2291 3584 
Q 2894 3584 3203 3211 
Q 3513 2838 3513 2113 
z
" transform="scale(0.015625)"/>
      <path id="DejaVuSans-64" d="M 2906 2969 
L 2906 4863 
L 3481 4863 
L 3481 0 
L 2906 0 
L 2906 525 
Q 2725 213 2448 61 
Q 2172 -91 1784 -91 
Q 1150 -91 751 415 
Q 353 922 353 1747 
Q 353 2572 751 3078 
Q 1150 3584 1784 3584 
Q 2172 3584 2448 3432 
Q 2725 3281 2906 2969 
z
M 947 1747 
Q 947 1113 1208 752 
Q 1469 391 1925 391 
Q 2381 391 2643 752 
Q 2906 1113 2906 1747 
Q 2906 2381 2643 2742 
Q 2381 3103 1925 3103 
Q 1469 3103 1208 2742 
Q 947 2381 947 1747 
z
" transform="scale(0.015625)"/>
     </defs>
     <use xlink:href="#DejaVuSans-cd"/>
     <use xlink:href="#DejaVuSans-73" x="29.492188"/>
     <use xlink:href="#DejaVuSans-6c" x="81.591797"/>
     <use xlink:href="#DejaVuSans-61" x="109.375"/>
     <use xlink:href="#DejaVuSans-6e" x="170.654297"/>
     <use xlink:href="#DejaVuSans-64" x="234.033203"/>
    </g>
   </g>
  </g>
 </g>
 <defs>
  <clipPath id="p0e17ea74a0">
   <path d="M 0 1886.180102 
L 0 273.819898 
L 4320 273.819898 
L 4320 1886.180102 
L 0 1886.180102 
"/>
  </clipPath>
 </defs>
</svg>
