<?xml version="1.0" encoding="utf-8" standalone="no"?>
<!DOCTYPE svg PUBLIC "-//W3C//DTD SVG 1.1//EN"
  "http://www.w3.org/Graphics/SVG/1.1/DTD/svg11.dtd">
<svg xmlns:xlink="http://www.w3.org/1999/xlink" width="720pt" height="360pt" viewBox="0 0 720 360" xmlns="http://www.w3.org/2000/svg" version="1.1">
 <metadata>
  <rdf:RDF xmlns:dc="http://purl.org/dc/elements/1.1/" xmlns:cc="http://creativecommons.org/ns#" xmlns:rdf="http://www.w3.org/1999/02/22-rdf-syntax-ns#">
   <cc:Work>
    <dc:type rdf:resource="http://purl.org/dc/dcmitype/StillImage"/>
    <dc:date>2022-02-15T12:27:16.685873</dc:date>
    <dc:format>image/svg+xml</dc:format>
    <dc:creator>
     <cc:Agent>
      <dc:title>Matplotlib v3.5.1, https://matplotlib.org/</dc:title>
     </cc:Agent>
    </dc:creator>
   </cc:Work>
  </rdf:RDF>
 </metadata>
 <defs>
  <style type="text/css">*{stroke-linejoin: round; stroke-linecap: butt}</style>
 </defs>
 <g id="figure_1">
  <g id="patch_1">
   <path d="M 0 360 
L 720 360 
L 720 0 
L 0 0 
L 0 360 
z
" style="fill: none"/>
  </g>
  <g id="axes_1">
   <g id="patch_2">
    <path d="M 215.620657 315 
L 215.620657 43.2 
L 522.379343 43.2 
L 522.379343 315 
L 215.620657 315 
" style="fill: #ffffff"/>
   </g>
   <g id="PathCollection_1">
    <path d="M 665.023839 361 
L 665.810888 355.287338 
L 666.18708 353.460041 
L 662.801354 358.450597 
L 659.746677 360.463139 
L 656.436189 359.600663 
L 652.305604 356.048627 
L 652.305604 353.460041 
L 658.625626 356.048627 
L 656.150284 349.703041 
L 652.779606 345.995636 
L 649.138069 343.049194 
L 645.872725 339.01781 
L 642.893286 332.001942 
L 641.283185 326.983202 
L 639.11632 324.439104 
L 634.519257 324.795311 
L 634.519257 327.390207 
L 640.967184 336.611872 
L 644.699006 343.455644 
L 647.25711 350.363141 
L 634.970687 339.119458 
L 629.327811 331.713762 
L 625.799132 321.945355 
L 626.506372 321.249725 
L 628.312093 318.840153 
L 626.942755 316.871403 
L 624.407222 310.283883 
L 629.591145 304.2704 
L 635.444689 300.803607 
L 647.881589 298.899835 
L 653.727609 301.619415 
L 663.99012 312.59333 
L 670.091951 313.391343 
L 667.014702 309.36677 
L 662.500401 301.585424 
L 659.98744 298.899835 
L 645.872725 290.567208 
L 651.440363 280.083523 
L 652.305604 276.047537 
L 651.605887 270.16989 
L 649.544356 268.636108 
L 647.90416 270.118767 
L 648.513591 273.441291 
L 648.513591 276.047537 
L 646.309107 280.083523 
L 638.31127 290.567208 
L 633.119824 296.553692 
L 629.591145 300.242706 
L 625.091891 301.755377 
L 623.632267 303.386805 
L 623.436647 307.362461 
L 623.587124 312.117893 
L 623.143218 316.243371 
L 621.736261 320.316499 
L 620.840924 321.181857 
L 612.527086 316.345217 
L 604.371248 309.196927 
L 598.133989 306.360179 
L 585.170421 296.043599 
L 597.223605 296.043599 
L 599.397993 297.13177 
L 603.84458 301.449459 
L 606.628399 301.755377 
L 607.004591 299.324811 
L 609.442314 298.559843 
L 615.581763 298.899835 
L 615.581763 296.043599 
L 610.420412 296.043599 
L 610.420412 293.186669 
L 611.067462 293.101631 
L 612.399181 293.288715 
L 613.053755 293.186669 
L 613.053755 290.567208 
L 599.917138 293.93498 
L 595.267408 293.186669 
L 595.267408 290.567208 
L 601.557334 282.279744 
L 603.408198 269.590485 
L 600.850094 258.781043 
L 593.890546 256.290394 
L 593.890546 258.883387 
L 599.089516 261.066517 
L 598.502657 266.846442 
L 595.011597 273.611651 
L 588.11224 282.977682 
L 583.695749 286.415697 
L 578.722494 287.538792 
L 573.689048 284.628736 
L 575.67534 291.485787 
L 576.329914 293.186669 
L 568.858746 285.156343 
L 552.178402 273.952365 
L 528.530988 265.056503 
L 520.510579 259.173357 
L 516.041421 257.075176 
L 511.594834 253.696829 
L 507.810345 247.176262 
L 508.87873 243.914621 
L 508.607872 239.763685 
L 506.674246 229.969867 
L 521.082391 230.893193 
L 529.012513 229.046468 
L 534.437199 224.223096 
L 520.540675 224.223096 
L 511.730263 219.192363 
L 508.502538 218.473511 
L 498.999934 221.023526 
L 497.036213 222.785963 
L 495.365921 225.369254 
L 489.572568 231.611286 
L 487.488466 233.098623 
L 487.488466 235.713829 
L 496.900784 239.91745 
L 501.663372 243.914621 
L 504.018332 250.28337 
L 500.166128 248.166528 
L 491.799623 246.885995 
L 483.237499 247.910433 
L 478.046052 250.078531 
L 475.074137 254.447656 
L 477.51186 261.731609 
L 476.631571 261.85098 
L 476.074807 262.635391 
L 475.578234 263.658457 
L 474.870994 264.596189 
L 420.699379 272.010165 
L 414.153642 267.460072 
L 407.938954 260.827757 
L 402.190744 256.699852 
L 396.051294 255.795613 
L 365.308903 267.033943 
L 357.754972 267.425983 
L 355.151725 267.255532 
L 345.649121 270.323257 
L 295.608092 258.883387 
L 291.710745 261.629289 
L 288.309972 266.863487 
L 284.886626 270.306217 
L 280.914041 267.460072 
L 283.554908 264.596189 
L 279.198607 264.613238 
L 272.246583 269.147391 
L 266.325324 271.038945 
L 262.789122 274.616729 
L 260.712543 276.047537 
L 258.726251 276.47334 
L 240.827046 274.412313 
L 236.726556 276.047537 
L 235.838743 277.222714 
L 234.868169 279.061886 
L 233.69445 280.74754 
L 232.249874 281.513667 
L 230.000247 280.236761 
L 227.186333 274.718935 
L 225.139849 273.441291 
L 226.29852 269.147391 
L 227.735573 266.454383 
L 228.856624 263.624356 
L 229.14253 258.883387 
L 228.345003 254.277018 
L 226.810141 252.229163 
L 224.823848 250.556484 
L 222.724698 247.176262 
L 225.59128 242.906915 
L 229.308054 227.592824 
L 230.98587 224.223096 
L 239.134183 224.171773 
L 240.398188 222.785963 
L 239.615709 218.422163 
L 237.73475 218.422163 
L 233.461211 221.348655 
L 229.909961 220.424579 
L 225.997567 217.395151 
L 222.837556 212.053239 
L 221.573552 204.138635 
L 224.417561 196.047207 
L 225.139849 192.616952 
L 225.335469 187.77859 
L 225.034516 178.954598 
L 225.139849 175.055508 
L 224.914134 171.653482 
L 226.020138 168.095763 
L 227.983859 165.13877 
L 230.3012 163.522424 
L 232.972162 164.51977 
L 238.592467 170.914527 
L 245.025346 175.416271 
L 250.028697 182.989736 
L 254.550522 193.200166 
L 257.055959 204.138635 
L 254.407569 204.138635 
L 257.447199 208.661919 
L 261.946452 210.049396 
L 279.988609 210.974289 
L 284.435196 209.89524 
L 287.331873 206.983025 
L 285.270342 203.881578 
L 286.368822 200.505039 
L 288.881783 197.504761 
L 291.116362 195.464134 
L 293.824943 194.109236 
L 302.605259 192.616952 
L 309.354139 187.3324 
L 311.423194 186.594432 
L 313.733011 187.521175 
L 318.525694 191.656301 
L 320.978465 192.616952 
L 325.868958 190.815667 
L 334.852417 182.886729 
L 350.291327 179.847599 
L 355.302202 176.395429 
L 359.643455 169.281789 
L 361.200889 171.705035 
L 362.404702 172.169004 
L 363.480611 171.241048 
L 364.586615 169.281789 
L 364.586615 166.686127 
L 361.396508 163.316066 
L 356.934874 160.151454 
L 352.518383 158.758067 
L 349.43361 160.633081 
L 351.359712 153.802459 
L 355.941728 150.48034 
L 361.050412 150.03273 
L 364.586615 151.960779 
L 363.12699 152.408316 
L 359.643455 155.144809 
L 362.991562 156.917165 
L 366.730908 157.398924 
L 370.387492 156.693484 
L 373.524931 155.144809 
L 373.524931 151.960779 
L 369.747966 151.960779 
L 372.373784 149.619535 
L 373.524931 149.068586 
L 362.036034 138.388841 
L 355.806299 135.045116 
L 349.43361 134.631394 
L 355.016296 130.28642 
L 382.80182 135.355399 
L 384.156111 137.061807 
L 385.09659 139.009222 
L 386.164974 140.422188 
L 391.913185 143.695478 
L 394.855004 143.419868 
L 397.6313 140.422188 
L 395.524626 140.801247 
L 393.545857 140.577259 
L 391.68747 139.52618 
L 389.94194 137.527148 
L 392.146424 134.252134 
L 393.523285 132.872908 
L 395.118339 131.734924 
L 391.326326 128.837738 
L 396.119009 127.026634 
L 402.657222 129.096444 
L 408.886957 128.941221 
L 412.77678 120.418042 
L 406.366473 124.11103 
L 402.913032 124.559632 
L 401.423313 121.746962 
L 402.702365 116.68936 
L 405.666756 114.168375 
L 411.512776 111.232298 
L 407.788477 108.848354 
L 402.190744 108.174542 
L 396.502724 109.02112 
L 392.454901 111.232298 
L 393.598524 104.009874 
L 391.49185 100.708194 
L 387.820218 99.826436 
L 382.64382 100.033914 
L 380.905814 100.656328 
L 379.273141 101.901055 
L 377.948946 103.940739 
L 371.01197 102.488797 
L 376.436655 97.75145 
L 378.234852 94.275024 
L 377.316944 87.994089 
L 388.64784 79.943341 
L 394.200431 73.5854 
L 398.263302 66.322384 
L 401.445884 57.579993 
L 403.206462 55.063611 
L 406.366473 53.102194 
L 410.384201 52.147403 
L 418.607753 53.362578 
L 422.053669 53.362578 
L 418.374514 51.765465 
L 416.771937 50.185497 
L 415.304789 50.185497 
L 422.798529 43.84612 
L 426.823781 41.900199 
L 431.202653 41.170394 
L 456.663312 47.980131 
L 460.989517 47.007554 
L 466.143345 38.511437 
L 457.829507 43.255429 
L 453.405491 41.170394 
L 453.405491 38.511437 
L 455.173593 38.598341 
L 456.67836 37.937858 
L 459.612656 35.608487 
L 459.717989 33.661195 
L 459.454655 33.139544 
L 458.965606 33.139544 
L 458.453985 32.670038 
L 459.612656 32.670038 
L 426.011207 30.53094 
L 410.2262 34.287146 
L 396.254438 47.007554 
L 395.53215 48.778973 
L 394.94529 51.123086 
L 394.065002 53.675031 
L 392.454901 56.018165 
L 390.882419 57.250291 
L 387.29355 58.51699 
L 385.532972 58.638447 
L 382.621248 59.766203 
L 374.247219 65.923568 
L 371.628925 69.235065 
L 364.722044 75.474086 
L 355.964299 74.278531 
L 339.329099 67.934851 
L 339.329099 64.761722 
L 347.093697 60.130532 
L 354.47458 53.102194 
L 360.629077 44.367295 
L 364.586615 41.865447 
L 368.589295 44.349923 
L 372.005116 40.683833 
L 380.183525 38.042147 
L 383.749823 35.608487 
L 367.2651 33.817686 
L 362.171463 35.608487 
L 358.605166 38.07691 
L 355.716013 39.032849 
L 352.894574 36.738464 
L 349.43361 29.487335 
L 351.916476 25.485989 
L 352.337811 20.351823 
L 352.413049 14.309768 
L 353.842578 7.706952 
L 355.076487 7.184143 
L 356.57373 8.438846 
L 357.837734 8.595675 
L 358.793261 1.170153 
L 359.426912 -1 
M 341.503093 -1 
L 340.600627 0.542428 
L 333.949557 0.472679 
L 332.89622 2.007068 
L 332.234123 3.57612 
L 330.669165 4.883503 
L 328.833349 5.807299 
L 327.343629 6.138453 
L 324.341619 4.726625 
L 321.00856 0.908605 
L 320.028743 -1 
L 320.028743 -1 
" clip-path="url(#pd4b73f0791)" style="fill: none; stroke: #000000"/>
   </g>
   <g id="patch_3">
    <path d="M 215.620657 315 
L 215.620657 43.2 
L 522.379343 43.2 
L 522.379343 315 
L 215.620657 315 
" style="fill: none; stroke: #000000; stroke-width: 0.8; stroke-linejoin: miter"/>
   </g>
   <g id="text_1">
    <!-- Ãsland -->
    <g transform="translate(351.149063 37.2)scale(0.12 -0.12)">
     <defs>
      <path id="DejaVuSans-cd" d="M 628 4666 
L 1259 4666 
L 1259 0 
L 628 0 
L 628 4666 
z
M 1119 5935 
L 1697 5935 
L 984 5110 
L 506 5110 
L 1119 5935 
z
" transform="scale(0.015625)"/>
      <path id="DejaVuSans-73" d="M 2834 3397 
L 2834 2853 
Q 2591 2978 2328 3040 
Q 2066 3103 1784 3103 
Q 1356 3103 1142 2972 
Q 928 2841 928 2578 
Q 928 2378 1081 2264 
Q 1234 2150 1697 2047 
L 1894 2003 
Q 2506 1872 2764 1633 
Q 3022 1394 3022 966 
Q 3022 478 2636 193 
Q 2250 -91 1575 -91 
Q 1294 -91 989 -36 
Q 684 19 347 128 
L 347 722 
Q 666 556 975 473 
Q 1284 391 1588 391 
Q 1994 391 2212 530 
Q 2431 669 2431 922 
Q 2431 1156 2273 1281 
Q 2116 1406 1581 1522 
L 1381 1569 
Q 847 1681 609 1914 
Q 372 2147 372 2553 
Q 372 3047 722 3315 
Q 1072 3584 1716 3584 
Q 2034 3584 2315 3537 
Q 2597 3491 2834 3397 
z
" transform="scale(0.015625)"/>
      <path id="DejaVuSans-6c" d="M 603 4863 
L 1178 4863 
L 1178 0 
L 603 0 
L 603 4863 
z
" transform="scale(0.015625)"/>
      <path id="DejaVuSans-61" d="M 2194 1759 
Q 1497 1759 1228 1600 
Q 959 1441 959 1056 
Q 959 750 1161 570 
Q 1363 391 1709 391 
Q 2188 391 2477 730 
Q 2766 1069 2766 1631 
L 2766 1759 
L 2194 1759 
z
M 3341 1997 
L 3341 0 
L 2766 0 
L 2766 531 
Q 2569 213 2275 61 
Q 1981 -91 1556 -91 
Q 1019 -91 701 211 
Q 384 513 384 1019 
Q 384 1609 779 1909 
Q 1175 2209 1959 2209 
L 2766 2209 
L 2766 2266 
Q 2766 2663 2505 2880 
Q 2244 3097 1772 3097 
Q 1472 3097 1187 3025 
Q 903 2953 641 2809 
L 641 3341 
Q 956 3463 1253 3523 
Q 1550 3584 1831 3584 
Q 2591 3584 2966 3190 
Q 3341 2797 3341 1997 
z
" transform="scale(0.015625)"/>
      <path id="DejaVuSans-6e" d="M 3513 2113 
L 3513 0 
L 2938 0 
L 2938 2094 
Q 2938 2591 2744 2837 
Q 2550 3084 2163 3084 
Q 1697 3084 1428 2787 
Q 1159 2491 1159 1978 
L 1159 0 
L 581 0 
L 581 3500 
L 1159 3500 
L 1159 2956 
Q 1366 3272 1645 3428 
Q 1925 3584 2291 3584 
Q 2894 3584 3203 3211 
Q 3513 2838 3513 2113 
z
" transform="scale(0.015625)"/>
      <path id="DejaVuSans-64" d="M 2906 2969 
L 2906 4863 
L 3481 4863 
L 3481 0 
L 2906 0 
L 2906 525 
Q 2725 213 2448 61 
Q 2172 -91 1784 -91 
Q 1150 -91 751 415 
Q 353 922 353 1747 
Q 353 2572 751 3078 
Q 1150 3584 1784 3584 
Q 2172 3584 2448 3432 
Q 2725 3281 2906 2969 
z
M 947 1747 
Q 947 1113 1208 752 
Q 1469 391 1925 391 
Q 2381 391 2643 752 
Q 2906 1113 2906 1747 
Q 2906 2381 2643 2742 
Q 2381 3103 1925 3103 
Q 1469 3103 1208 2742 
Q 947 2381 947 1747 
z
" transform="scale(0.015625)"/>
     </defs>
     <use xlink:href="#DejaVuSans-cd"/>
     <use xlink:href="#DejaVuSans-73" x="29.492188"/>
     <use xlink:href="#DejaVuSans-6c" x="81.591797"/>
     <use xlink:href="#DejaVuSans-61" x="109.375"/>
     <use xlink:href="#DejaVuSans-6e" x="170.654297"/>
     <use xlink:href="#DejaVuSans-64" x="234.033203"/>
    </g>
   </g>
  </g>
 </g>
 <defs>
  <clipPath id="pd4b73f0791">
   <path d="M 215.620657 315 
L 215.620657 43.2 
L 522.379343 43.2 
L 522.379343 315 
L 215.620657 315 
"/>
  </clipPath>
 </defs>
</svg>
