<svg width="256" height="174" viewBox="0 0 256 174" fill="none" xmlns="http://www.w3.org/2000/svg">
<path d="M230.685 11.1913L229.6 12.4124L225.515 14.2946L223.697 15.6994L221.58 16.2372L220.856 16.8446L220.298 17.8424L220.862 18.0586L221.14 18.3492L221.373 18.9116L222.131 20.4952L222.026 21.1681L221.552 22.5546L219.349 24.6966L218.962 24.8841L217.54 24.9743L216.933 25.5225L216.51 26.7893L217.567 27.5054L218.933 27.5955L219.226 28.0365L219.355 29.1119L219.113 29.2849L218.412 29.9214L218.889 30.288L221.486 30.3778L222.986 31.083L224.03 30.9931L225.924 29.2549L227.1 29.1119L227.614 29.3887L228.068 29.9145L228.392 30.7673L228.663 32.7154L228.986 32.9409L229.309 33.0168L229.458 33.2239L229.511 33.8724L229.771 35.7497L229.701 35.9816L229.301 36.5188V37.636L228.42 39.6435L226.929 41.5156L225.231 42.7913L224.714 43.4698L224.756 44.4493L224.304 45.2502L223.142 46.534L223.829 46.4884L224.441 45.9914L225.515 44.5817L225.16 45.7292L224.499 46.9852L224.228 47.9919L225.043 48.4085L225.869 48.1695L227.674 47.1173L232.617 45.768L234.396 44.7848L235.337 44.5406L236.075 45.3483L235.077 47.7004L234.507 48.2787L234.564 48.7567L234.936 49.5575L235.459 49.9669L236.916 50.9533L237.345 51.494L236.094 51.8801L235.423 52.4113L234.861 53.8497L233.671 55.2686L233.204 56.4574L231.455 58.5678L231.105 59.266L230.837 60.0994L230.714 61.0271L231.007 60.5915L231.498 59.3812L233.018 57.8217L233.437 56.9191L236.289 52.6156L236.789 52.257L237.405 52.4181L239.232 53.7794L238.87 53.2487L238.217 52.5294L237.96 51.9119L243.018 54.9559L243.663 55.0579L246.192 54.412L246.621 54.4755L246.891 54.7474L247.092 55.982L246.964 56.3691L246.662 56.4733V56.8218L247.385 56.7946L247.704 56.9055L247.919 57.2381L247.886 58.1337L247.775 58.7892L248.132 59.5032L248.549 59.8894L249.621 58.2965L250.212 57.8556L250.906 58.0297L251.026 58.2626L251.077 59.1305L251.221 59.1734L251.691 59.1305L252.648 60.3026L252.686 61.5279L252.358 62.2969L251.934 62.8266L251.691 63.329L252.021 65.1841L251.869 65.4001L251.077 65.9736L251.312 66.3109L251.236 67.8613L250.458 68.4294L248.362 68.1105L247.447 68.6134L248.015 69.1071L249.806 69.7442L249.88 70.6478L249.355 71.2663L248.621 71.6001L247.474 71.6091L246.988 71.7636L246.02 72.3749L244.098 72.7376L243.505 73.127L243.865 73.6415L247.517 72.2719L248.628 72.3749L250.851 71.7883L251.548 71.9988L252.689 72.7644L253.278 73.4089L253.606 74.2856L253.058 74.7192L252.123 76.2115L251.621 76.5375L248.705 77.2829H245.626L244.29 77.6242H242.876L243.584 78.1929L246.263 77.6242L249.806 78.0324L251.392 77.6242H252.257L252.487 77.8094L252.378 78.2108L252.021 78.8149L251.864 79.8687L250.992 80.274L250.216 80.352L249.492 80.648V81.0576L251.274 80.6792L251.691 81.0576V81.3936L251.268 81.6071L250.906 82.1743H251.621L251.847 82.2877L252.257 82.8879L252.487 82.7212L253.765 80.274L254.707 79.1559L254.762 81.1199L254.551 83.2946L254.979 83.6078L255.104 84.1253L254.951 84.7869L254.551 85.5325L254.084 85.9629L253.109 86.2511L252.648 86.6458L253.268 87.9L253.207 88.1347L252.849 88.3119L252.129 89.1021L251.779 89.2814L250.119 88.8764L248.689 89.1353L248.219 88.8764L248 88.3694L247.567 86.9428L247.205 86.6458L246.831 86.5239L246.068 85.9917L244.861 85.5858L243.584 84.3252L242.876 84.0409L243.022 84.6404L243.543 85.3728L243.804 85.5325L242.975 86.464L238.288 86.6458V87.0536L245.548 87.7604L246.102 88.3871L246.384 88.914L246.505 89.4496L246.702 89.7394L247.775 90.7322L250.149 91.8371L250.606 92.6188L249.649 93.3781L248.52 93.206L246.505 92.217L244.212 92.6188L242.798 92.0072L242.404 92.217L243.764 93.1993L247.061 93.9693L248.549 95.2106L248.952 96.0235L249.027 96.486L248.403 96.8624L247.83 97.6261L247.526 97.7977L245.12 96.8514L244.434 97.4588L246.929 98.486L247.348 98.8927L247.362 99.4729L246.704 99.6795L244.077 99.5696L243.346 99.2708L243.013 99.7146L242.545 100.009V100.411L243.627 101.888L243.976 102.62L243.601 102.761L242.545 103.725L237.431 104.824L236.607 104.562L236.15 104.268L235.846 103.909L235.187 101.807L234.599 101.201L233.979 99.9563L233.638 99.6729L231.83 99.2708L232.057 99.5806L232.305 99.6883L232.851 99.6729L233.167 99.9233L233.137 100.483L232.93 101.484L233.285 101.938L234.449 102.577L234.829 102.62L234.792 103.664L235.109 104.518L235.846 105.56L237.015 105.962L237.441 106.426L237.188 107.03L237.345 107.397L233.486 106.091L232.3 107.03L232.676 107.488L233.598 107.969L234.044 108.493L234.266 109.096L234.239 109.607L233.996 110.023L233.558 110.324H230.488L230.207 110.675L230.49 111.39L230.947 111.992L231.187 111.985L231.422 112.534L231.92 112.887L232.369 112.919L232.459 112.521L233.407 112.262L234.829 110.117L235.545 109.593L235.691 109.855L235.337 110.453L233.226 113.031L232.93 113.651L232.687 115.673L231.935 117.007L231.855 117.823L231.908 118.584L231.515 119.332L231.209 120.389L231.116 120.567L228.725 120.833L226.471 121.691L227.468 120.898L229.527 120.303L230.573 119.874L229.984 119.475L227.425 119.065L227.243 119.15L227.213 119.375L227.17 120.238L227.002 120.353L226.51 120.853L226.123 121.106L225.657 122.022L225.391 122.298L224.117 123.118L223.124 124.311L222.829 124.959L223.142 123.507H222.986L222.829 124.037L222.084 124.829L221.812 124.959L221.727 125.129L221.97 125.902L222.206 126.075L222.924 125.904L223.142 125.682L223.457 127.131L222.942 127.123L222.264 128.013L221.812 128.246L220.743 128.131L220.274 127.912L219.827 127.522L218.658 126.241L218.183 126.075L217.977 126.226L217.325 127.131L217.045 127.071L216.512 126.791L216.212 127.131L216.51 127.522L216.264 127.782L215.999 127.873L215.425 127.851L215.882 126.075L215.141 126.282L214.78 126.254L214.625 125.878L214.52 125.06L214.266 124.512L213.957 124.326L213.683 124.594V124.959L214.004 125.483L214.167 126.403L213.855 126.189L213.2 125.943L212.897 125.682V125.354L213.121 124.611L212.782 123.494L212.203 122.469L211.236 121.496L209.738 120.963L210.131 121.288L211.396 121.859L211.643 122.45L212.268 124.196L212.072 124.486L211.875 124.57L211.677 124.466L211.481 124.196V124.594L211.947 125.021L212.029 125.837L211.838 126.765L211.481 127.522L210.918 127.819L209.634 127.468L209.108 127.851L209.432 128.136L209.783 128.246H210.539L209.957 128.73L208.482 129.266L207.159 129.393L205.769 129.919L205.166 130.416L204.853 129.656L204.211 130.564L202.167 132.215L204.084 131.564L204.537 131.888L203.764 132.537L197.8 134.372L196.966 135.132H198.05V135.455L196.586 136.726L195.868 137.034L195.077 137.972L194.311 138.633L194.135 139.082L193.894 138.575L193.665 138.486L193.432 138.697L193.177 139.082V139.441H193.49V139.769L192.108 140.736L191.606 140.877L191.75 140.128L190.506 141.074L189.91 141.8L189.548 142.666L189.926 142.687L190.457 142.113L189.548 143.775L187.894 145.211L186.793 146.956L186.076 147.343L186.652 146.932L186.89 146.53L187.019 145.918L183.547 148.805L180.458 149.705L179.997 149.57L179.602 149.128L180.175 149.801L180.402 149.839L179.975 150.1L179.602 150.196L179.679 150.745L179.544 152.085L179.287 152.333L179.175 152.168L179.073 150.934L178.66 150.552L177.558 149.128L177.189 148.998L177.002 149.149L176.931 150.374L176.994 152.018L176.853 152.333L176.544 152.153L176.496 151.691L176.617 150.374L176.374 149.294L176.206 148.96L176.13 149.304L176.1 151.348L175.987 151.945L176.296 152.42L176.187 152.776L175.819 153.001L175.358 153.073L175.634 151.379L175.501 150.94L175.737 150.196L175.948 150.049L175.881 149.493L175.816 149.482L175.97 147.322L175.823 146.777L175.31 146.143L175.186 146.435L175.164 148.342L175.358 148.805L174.982 149.145L174.169 149.189L173.93 149.839L174.211 150.374L174.486 151.532L174.873 151.945L174.453 152.535L173.599 152.734L171.6 152.568L170.771 151.945L169.912 152.511L169.828 151.621L166.986 153.399L163.827 154.466L161.682 154.982L161.936 154.607L162.082 154.15L162.072 153.594L161.941 153.073L161.77 153.814L161.495 154.318L161.166 154.466L160.828 154.11L160.998 155.204L157.997 157.334L158.223 156.2L158.819 155.559L159.557 155.27L160.211 155.204V154.817L158.688 154.021L158.141 153.399L158.044 154.385L158.141 154.817L157.549 155.231L156.984 155.115L156.408 154.846L155.782 154.817L156.253 155.204V155.527L155.674 155.515L155.411 155.621L155.169 155.914L154.791 155.699L154.373 156.009L154.036 156.584L153.46 158.708L153.05 158.877L152.624 158.396L152.326 158.839L152.217 159.297L152.335 159.664L152.71 159.814L153.002 159.702L153.46 159.215L153.811 159.105L155.629 159.31L156.253 159.105L155.263 161.036L154.663 161.567L154.053 161.225L154.21 160.903H153.268L153.302 161.385L152.654 161.32L152.297 161.611L152.594 161.575L152.797 161.724L152.873 162.08L152.796 162.672L154.51 162.573L154.838 162.287L154.267 164.035L153.438 165.633L152.381 166.801L150.023 167.883L148.514 169.027L147.076 169.362L146.322 168.311L146.613 167.933L147.261 167.694L147.509 167.413L147.817 166.857L148.107 166.605L148.837 166.549V166.196L148.183 166.184L146.949 166.568L146.322 166.549L144.751 165.566L144.281 165.459L144.422 165.848L144.18 166.02L144.108 166.196L145.203 167.902L145.457 169.685L147.346 169.823L142.419 170.577L139.566 171.949L134.721 173.274L133.548 173.226L129.134 171.853L127.271 172.367L126.604 172.173L126.858 172.141L127.076 171.853L126.254 171.669L125.844 171.439L125.504 171.119L125.038 171.784L121.647 170.987L120.445 170.066L118.558 169.685L115.869 167.858L112.171 166.851L111.442 166.196L111.753 166.137L111.93 165.938L111.907 165.684L111.614 165.459L111.333 165.44L110.663 165.848L108.457 165.459L108.524 165.717L110.828 166.196L104.753 165.776L104.356 165.138L104.14 165.358L104.056 165.459L103.876 165.184L103.727 165.138L103.884 165.848L102.117 165.881L101.256 165.671L97.4113 162.287L97.7354 162.583L98.1064 162.71L98.4867 162.621L98.8399 162.287L98.5448 162.23L97.7242 161.933L97.8816 160.903L97.46 161.524L97.0797 161.775L96.6675 161.668L96.1533 161.225V160.903L96.9401 161.225L96.6319 160.435L95.3523 159.105L94.5111 157.29L93.9388 157.334V157.657L95.2062 159.658L95.5247 160.518L93.995 159.118L93.2924 158.196L92.8531 156.979L93.166 156.593L92.9955 156.348L92.6798 155.527L93.3252 154.779L94.054 154.347L95.6024 154.11L96.3303 154.449L97.608 155.815L98.3677 155.914L97.9846 155.413L97.1097 154.11L95.3523 153.073L96.0455 151.767L96.1533 151.265L96.0661 150.533L95.8095 150.342L95.6053 150.527L95.6812 151.265L95.4067 151.767L93.7645 153.818L93.3252 154.277L92.765 154.466L92.5833 154.669L92.5224 156.269L92.2357 156.884L91.2007 156.282L90.1852 155.392L89.4086 155.039L87.7946 153.755H89.2953L89.566 153.89L90.1196 154.428L90.4662 154.466L90.5131 154.163L90.8166 154.068L91.581 154.11V153.755H90.9384L91.0189 153.388L91.2662 153.399V153.073L89.6306 153.492L89.0517 153.399V153.073L89.8349 152.041L90.0653 150.461L89.7468 149.115L88.8803 148.805V149.128L89.5276 149.4L89.4545 150.119L89.0199 150.962L88.1609 152.128L87.611 152.556L86.9918 152.696L86.3651 152.333L86.6939 153.399L85.7637 152.399L83.687 151.004L80.7427 149.896L79.7442 149.164L79.1877 148.903L78.6341 148.482L78.1629 147.67L78.2959 147.264L78.2622 146.747L78.0215 145.528L79.8153 145.643L80.8027 145.413L81.4781 144.812H79.7479L78.651 144.186L78.2491 144.097L77.066 144.414L76.6135 144.955L75.6328 145.918V146.243L76.8046 146.767L77.3976 147.264L77.6908 148.057L77.2112 147.794L76.1695 147.634L75.1035 147.762L74.4571 148.032L74.0871 148.576L74.3906 149.482L74.281 149.497L74.0618 149.839L67.3172 150.762L66.5022 150.196L65.7285 149.37L65.0128 148.856L64.2484 148.743L60.4208 150.143L59.1562 150.17L57.9731 150.552L51.7427 149.128L51.2575 149.47L50.8341 150.121L50.4079 150.55L49.9132 150.196L50.2421 149.839L49.6997 149.841L48.8341 150.406L48.0969 150.641L47.3981 151.265L47.1508 151.318L44.9222 151.061L44.3012 151.411L44.0342 151.85L43.8543 151.945L43.5742 151.786L43.2239 151.099L42.9691 150.94L43.2923 150.07L43.4319 149.718L43.4675 149.128L43.3682 148.554L42.6684 147.67L43.0253 147.139L43.697 144.812L44.7115 144.806L44.8688 144.634L44.7714 144.09H44.5372L44.0052 144.455L43.563 144.34L43.0759 143.962L42.6825 143.297L42.5251 142.312L42.9691 140.877V138.691L42.941 138.267L43.0787 137.824L43.3232 137.456L43.6117 137.255L43.9443 137.379L44.644 138.175L45.4449 138.736L46.0679 139.679L46.6309 140.95L46.9428 142.312H46.6131L46.9915 142.875L47.5517 143.048L49.798 143.163L50.3517 143.029L50.7123 142.666L50.4556 142.28L50.5924 141.859L51.1835 141.232L51.5207 141.063L52.6139 140.877L53.7118 140.128L53.9994 140.243L54.9015 140.877L55.5103 140.653L56.6288 139.666L58.5511 139.288L59.1749 138.858L59.7154 137.972L60.0592 138.332L60.3309 137.972V137.649L59.9337 137.229L59.3782 136.835L58.8283 136.662L58.4443 136.895L58.6841 136.045L59.2545 135.631L59.8906 135.575L60.3309 135.816L60.1492 135.871L59.7154 136.212L60.1323 136.433L60.5979 136.493L61.0531 136.405L61.4438 136.212V135.816H60.9735L61.4438 135.455L60.0133 134.126L59.2377 133.709L58.4443 133.658L59.1393 133.117L62.5988 133.748L63.0175 134.379L63.7332 134.786L64.0995 134.752L64.4451 134.379L63.9365 134.398L63.4877 134.018L63.9336 133.439L64.1322 133.297L63.6601 132.937L64.2568 132.711L65.38 132.96L65.8465 132.949L66.3308 131.888L65.5327 132.348L65.1027 132.404L64.9172 132.054L65.0765 131.424L65.4456 131.11L66.1734 130.745L65.7097 130.448L65.0128 130.364L64.3046 130.469L63.8006 130.745L63.943 129.845L63.6807 129.434L63.2236 129.325L62.3627 129.428L61.9946 129.837L61.1309 129.656L61.8063 129.066L62.0302 128.633L61.9159 127.851L63.3266 126.849L64.0179 126.057L64.5238 125.153L65.1393 123.751L65.5327 123.507L66.0329 123.388L67.4858 123.54L66.6455 123.144L67.5786 122.355L68.0797 122.112L68.6249 122.022L71.7949 122.869L72.3335 122.748L72.9752 121.691L71.9401 122.281L71.3893 122.022V121.691L71.7968 121.619L72.1621 121.329L72.1424 121.022H72.0815L72.0178 120.963H72.1621L67.9785 120.697L66.0132 121.165L64.1837 122.969L64.0011 123.578L63.6048 124.024L62.5763 124.337L61.5337 125.103L61.2077 125.516L60.3477 126.293L59.2574 126.144L57.1862 125.354V124.959L58.1529 124.382L59.0719 123.507L59.8382 122.42L60.3309 122.108L60.8292 122.417L61.2545 121.961L62.2728 121.632L62.7168 121.329L60.6644 121.106L60.0302 121.329L59.2264 121.755L58.8752 121.47L58.4443 120.567L58.7534 120.069L58.9932 117.855L59.1468 117.79L59.4906 117.966L59.7351 116.611L60.0302 115.873L60.0611 115.308L60.6428 114.764L63.2339 113.422L64.6025 113.285L64.4929 112.808L64.2746 112.541L63.9861 112.456L63.6601 112.521V112.188L64.0798 111.787L64.9603 110.579L65.7322 110.233L66.3308 109.593L66.639 109.524L67.6038 109.593L67.512 110.558L67.9767 110.715L68.5677 110.728L69.1588 111.665L71.0754 111.789L70.697 111.486L69.8932 111.569L69.4895 111.456L69.1579 111.09L68.6511 110.261L68.2315 109.995L69.1748 109.593V109.264H66.8029V108.86L68.1209 108.048L68.5462 107.598L68.9275 107.495L70.7476 107.797V107.397L68.9556 107.01L68.3888 107.03L66.9163 108.413L66.3308 108.493V108.126L66.9331 107.55L67.1542 107.154L67.2891 106.629L65.8914 108.074L65.7397 109.314L64.2737 110.691L63.0765 111.148L62.7168 111.456L62.8601 112.188L62.1772 111.946L61.5318 112.127L60.1876 113.285L59.6424 113.945L59.2798 114.166L58.9145 114.012L58.6672 113.494L58.7009 112.965L59.0719 111.789L58.5941 111.946L58.3675 112.545L58.2119 114.451L57.6583 115.473L57.3445 116.963L56.5164 116.955L56.108 117.504L55.694 117.66L55.3202 117.484L54.9052 117.009L54.5474 116.312L54.3422 115.473L53.9656 115.995L53.5563 116.201L54.1671 114.691L54.2607 113.886L54.0275 113.285L54.3422 112.919L53.9797 112.575L53.5563 112.521L53.8842 111.789V111.456L52.8256 112.253L52.1727 112.567L51.6715 112.521L51.2566 111.87L51.0889 110.992L51.1722 110.143L51.4992 109.593V109.264L51.1001 109.185L50.6074 108.34L50.4856 108.126L50.1896 107.974L49.5395 107.099L49.2997 106.629L49.8739 106.885L50.4744 107.495L51.0823 107.869L51.6715 107.397H51.1835L51.324 106.787L51.5441 106.382L52.1287 105.927L51.813 105.56V105.192L54.4799 103.848L55.1432 102.989V102.62L53.7155 103.865L52.9549 104.273L52.2148 104.424L51.5872 104.829L50.88 105.593L50.2308 106.059L49.7699 105.56L50.0706 105.343L51.6715 102.989L51.4992 102.62L51.8345 102.37L52.1287 101.886L51.6135 101.278L50.9203 101.083L49.4411 101.149L49.7699 100.411H49.2997L49.8852 98.8026L50.0847 98.1672L49.8467 98.2331L49.6369 98.4465L49.2997 99.2708L49.1545 98.7696L48.9662 98.5674L48.7498 98.6289L48.5128 98.9015V99.2708L47.2426 98.9015L46.8838 99.0818L46.2037 99.8508L45.8262 100.009V100.411L46.007 100.464L46.4557 100.78L44.3349 101.195L43.7841 100.78L44.6028 100.813L44.7986 100.595L44.7321 100.292L44.2084 99.4488L44.0052 99.2708H41.5677L41.9274 99.6663L43.1405 100.411V100.78L42.5232 100.756L41.4403 99.7893L40.7809 99.6729H40.9382L38.0511 99.407H35.3065L32.1356 99.1719L30.7969 97.7493L29.5211 97.6546L27.2935 98.1672L27.2794 98.3211L26.7202 99.2708L26.22 99.6707L25.9417 99.7388L23.2635 98.9015L23.7825 98.5366L24.0701 98.4882L23.6832 98.3255L22.8027 98.8026L22.1114 99.7058L22.0064 100.78L21.5802 102.046L20.9507 102.572L19.2486 102.62L18.7503 102.761L17.7423 103.326L17.2758 103.392L15.6112 102.419L15.2562 101.899L14.9265 101.767L14.6848 101.506L14.46 100.114L13.0539 97.681L12.697 96.7722L12.0619 94.4699L12.2174 94.0663L12.682 94.5471L13.1157 94.3442L13.9616 93.3251L14.4019 93.0471L16.903 92.3274L17.392 92.3848L19.243 93.6097L21.7779 94.0663L21.9961 93.9252L22.6341 92.9897L23.5867 93.0426L23.82 92.8043L24.6593 91.4704L25.6054 91.1433L27.6925 91.5101V91.1036L27.493 90.7897L27.3647 90.3608L28.3295 90.2945L28.6443 90.5863L28.4794 91.5101L28.7829 91.7399L29.1632 91.0859L29.4208 91.1036L29.5042 91.625L29.508 92.3848L29.6279 92.7778L30.0504 92.217L30.4091 92.5614L30.825 92.3517L31.166 91.8415L31.3084 91.3047L30.9272 89.2681L30.9946 88.5045L31.6269 87.6342L32.5852 87.4613L34.4671 87.7604L34.2938 88.3827L34.0072 88.8033L33.3505 89.2814L33.5238 90.0247L33.254 90.0844L33.0601 90.2901L32.7229 91.1036L33.9959 92.9897L33.8414 91.4836L33.9444 90.9002L34.3154 90.2414L34.9374 90.0247L35.0863 89.7195L35.3383 88.6905L35.9734 87.8468L36.632 87.7803L37.2568 88.3207L37.7814 89.2814L38.1467 88.717L38.6282 88.365L40.0408 88.0151L41.4103 87.0536L41.0441 86.8165L39.3692 87.0536V86.6458L40.3368 86.4241L42.0586 84.636L42.9691 84.414L42.6684 84.7869L43.0787 84.8979L43.4675 85.1598V85.8697L43.1452 86.3443L42.4501 86.7345L42.1963 87.0536L42.5007 87.1378L42.8848 87.109L43.2801 86.9495L43.6117 86.6458L43.7654 87.7006L43.9611 88.1436L44.7264 88.5045L45.755 89.4606L46.141 89.6199V89.2814L45.8543 89.1088L45.5958 88.7679L45.0262 87.7604L45.6501 86.9229L45.993 86.6569L46.4557 86.6458L46.5007 85.9229L46.9316 85.7122L48.8538 85.8054L50.7395 85.3528L53.8532 85.9806L55.915 87.0536L56.1492 86.9096L56.715 86.2733H58.4443L58.9108 86.4906L59.4054 86.8763L59.9337 87.0137L60.3309 86.6458L60.9341 87.0558L63.4877 86.6458L64.0995 86.1248L64.1229 85.4482L63.7126 84.9068L63.0175 84.7869L63.2498 84.0631L63.5233 83.8233L63.8578 83.69L64.2737 83.2946L64.5688 82.6634L65.5327 79.8687L65.6086 77.9722L64.8723 77.1959L63.8737 77.2963L63.1599 78.0324V78.407H63.3304V78.8149L59.8588 81.8051L58.7084 82.2877L52.1446 81.0042L50.2421 79.5302L50.1296 79.5636L49.8018 79.8108L47.7035 80.1404L47.0852 79.8687L46.6487 79.3341L47.0018 79.1024L47.6754 78.8884L48.199 78.407L48.5465 78.8082L48.9699 78.8149V78.407L48.4604 78.0279L47.8777 77.9699L46.7686 78.407L47.0046 77.5952L47.4234 76.8098L48.199 75.7872L49.2697 75.2734L49.6763 74.8086L49.6144 73.9121L49.9526 73.7645L50.7844 73.9121L50.9896 73.6974L51.6715 72.3749L52.2851 71.9002L54.8537 71.1655L57.0241 69.4773L57.856 68.4271L59.3304 67.6614L59.8063 67.0121L59.7089 66.9784L59.7154 66.729L60.0611 66.7694L60.626 67.4053L60.9735 67.4503L60.6597 66.3176L62.0873 65.4811L65.0765 64.5315L66.5022 63.6759L64.2915 64.4077L63.4877 64.428L61.8456 64.0542L60.4798 64.464L60.0302 64.428L60.4826 63.57L60.9735 62.9189L60.1426 62.0962L59.8307 61.4941L59.7154 60.6479L59.0972 61.0135L58.4443 61.0271L58.5745 61.8053L58.3693 62.0556L58.0415 61.9767L57.8016 61.785L57.5899 61.2865L57.1581 59.9571L56.8574 59.51L56.9773 60.4471L56.923 61.2324L56.7188 61.9181L56.3853 62.5403L55.7445 63.2524L55.5366 63.329L54.9015 64.8398L54.0331 64.9231L53.6443 64.7656L53.0261 63.7885L51.6715 62.5403L50.7029 62.0421L50.5737 61.5527L51.027 60.6479L51.5263 60.2755L54.0753 59.7155L55.1432 58.961L55.694 58.7892L55.9488 58.5452L56.271 56.4303L56.5258 56.1314L57.0288 55.7171L56.3478 55.9073L54.657 58.3734L53.8729 59.0333L53.1235 59.388L51.4992 59.51V59.1305L52.4734 58.4254L52.7713 58.0297V57.6136L52.2935 57.6498L51.9507 57.9777L51.3549 58.7892L50.8791 58.9745L50.3207 58.4389L49.9132 58.3734V58.7892L50.1933 59.2141L50.0753 59.7133L49.74 60.131L48.4688 60.6479L48.1287 60.4719L47.8842 59.51L47.9489 57.9167L47.9433 57.2246L47.6416 56.2831L47.1957 54.3236L46.9203 53.6411L46.6328 54.1581L46.6655 55.6536L47.0327 56.8376L47.0356 57.2924L46.9053 57.7199L46.2121 59.0785L45.9236 59.1169L45.5826 58.5813L45.1461 57.5299L44.9503 57.4372L44.8051 58.8842L44.6309 59.3225L44.3817 59.5348L44.0838 59.51L43.9059 59.2728L43.7223 58.8254L43.1967 57.082L43.0965 56.1745L43.2632 55.2414L43.7841 54.1944L43.5742 53.8883L43.1405 54.1944L42.5251 53.7794L42.0052 53.8747L41.8984 54.1944L41.9124 54.514L42.9691 60.6479L42.6469 60.9932L42.2534 60.9075L41.8281 60.6908L41.4103 60.6479V60.3026L41.5415 59.842L41.4291 59.4671L41.1687 59.2231L40.8595 59.1305L40.097 59.3812L39.8441 59.3134L39.8244 58.7892L39.6361 58.8322L39.0535 58.7892V58.3734L39.6108 57.8127L40.6394 56.3963L41.2549 56.0929L41.0244 55.4815L40.6366 55.0579L39.8244 54.5389L39.698 55.7805L39.2296 56.8444L38.6469 57.3784L38.1748 57.0277L37.7842 55.1825L37.5378 54.9559L37.4778 55.332L37.2952 57.6136L36.8062 58.249L35.4226 58.5904L34.7744 58.961L33.5042 58.3304L32.8259 57.6385L32.8943 56.4733L32.2527 56.8512L31.8611 57.9506L31.8311 59.1644L32.2657 59.8894V60.3026L31.9679 60.6141L31.1379 61.785L30.7698 61.9L29.2363 61.7174L27.878 61.1918L27.2223 60.3026L26.9562 60.4064L26.7202 60.6479L26.8916 60.7969L27.0499 61.0271L26.3886 61.3046L25.1773 62.3149L22.0683 62.9505L21.362 62.5403L21.2421 63.4191L21.0865 63.4754L20.8917 63.6759L20.0261 65.1841L15.8033 66.3716L14.7372 66.2435L13.8042 65.5958V65.1841L13.9335 64.7453L13.8361 64.3424L13.3321 63.6759L13.9297 63.82L14.119 64.0542L14.1864 63.0361L13.7621 62.5223L13.2366 62.5967L13.0033 63.329L12.4525 62.502L8.91624 61.0271L2.35336 61.7309L1.51216 61.5708L1.01474 60.6479L2.0255 60.0384L2.53696 59.5258L2.75804 58.961L3.04843 58.5813L4.3936 57.7199L4.80203 57.2381L4.89571 56.3737L4.89197 55.3705L5.0231 54.5389L5.73129 54.0674L6.13409 53.5231L6.46008 53.3984L7.04556 53.5073L9.28534 54.8472L9.93169 54.9559L10.327 55.1938L11.5898 56.8218L12.4965 57.401L14.1049 57.8353L15.2178 59.51L15.9119 59.8623L16.5836 59.8149L17.8922 59.1305L16.8412 59.1711L15.8613 58.7892L15.4848 58.2897L14.8075 57.0662L14.3466 56.8218L13.2141 55.5676L12.5846 54.4664L11.8502 53.4733L11.4464 52.6746L14.919 53.3984L17.1737 54.7316L17.8922 54.9559L17.452 54.0923L16.8365 53.3644L16.1789 52.8562L15.1785 52.4862L13.9841 51.6825L12.9181 51.2896L12.4103 50.7965L11.5898 49.6235L10.6455 47.6776L10.5968 46.2901L10.5706 45.6311L10.3326 44.9696L11.3068 44.0932L12.2961 44.1617L22.0064 49.6235L22.2256 49.8986L22.6341 50.7306L23.2607 51.2191L23.4209 51.494L23.657 52.4885L23.554 53.1194L23.3104 53.6978L23.1202 54.5389L23.5334 54.7746L24.0617 54.3508L25.0059 53.0173L25.0977 53.2963L25.464 53.7794L25.7141 53.2555L26.9656 53.5731L27.5211 53.3984V53.0173L27.2242 52.779L27.0499 52.257L27.4508 52.2275L28.4794 51.494L29.5726 51.4577L29.8939 51.1124L27.1623 51.3441L25.9164 50.9397L25.0059 50.3488L24.6874 49.976L24.2781 49.3164L24.0533 48.6884L24.2837 48.4085L25.7169 47.7391L26.0289 47.8689L26.3867 48.19L28.2658 47.9327L28.8644 47.3861L29.3365 47.2608L30.3435 47.6503L30.8363 47.7004L31.3084 47.2608L30.8737 46.8712L30.6798 46.8781V46.534L31.7646 45.7702L32.0953 45.3483L30.8325 45.5308L30.1056 45.866L29.1164 46.7687L22.9113 46.616L21.6926 46.1145L20.8917 45.3483L19.6796 45.7976L19.4051 45.5581L19.0856 44.9764L17.747 43.4698L17.0079 41.9478L16.5152 40.1152L16.5948 38.4109L17.5756 37.2897L18.029 37.2622L19.3348 38.0579L21.0491 38.4453L21.48 38.7272L22.2106 39.639L22.6341 39.9824L23.0696 40.0374L24.5207 39.5977L27.3647 40.7469H28.308L29.9482 41.9638L30.8363 42.3319L31.6363 41.9341L29.7328 41.3143L29.1258 40.5478L27.2223 40.367L26.6274 40.0122L25.5474 39.0297L23.1624 38.4568L22.6341 38.0579L21.3844 36.3397L20.7531 35.9793L20.4449 35.4512L19.9475 35.2398L18.8936 34.231L17.747 32.453L17.7442 30.7074L17.8763 29.79L18.2191 29.1119L19.1681 28.7612L20.3606 29.0358L24.5338 31.5874L25.7563 31.9098L26.5797 31.4308L26.6865 32.3195L26.9694 33.0789L27.3694 33.6034L27.8358 33.7873V33.4332L27.4452 32.8305L26.7389 31.0668L26.2649 30.6959L25.7385 30.5737L24.6799 30.0436L24.1291 29.9214L23.8725 29.7277L23.1708 28.7589L21.8228 27.5331L21.0491 26.438L21.7938 25.8139L23.8003 25.615L25.3207 25.8647L27.3647 27.5655L26.8176 27.055L25.9127 25.5549L25.3919 25.238L23.1811 25.2912L22.6341 24.8841V24.4606L23.1961 23.516L23.8059 22.9809L23.9717 22.9045L24.9254 22.8558L25.287 22.5291L25.3207 21.7757L25.8434 21.5067L29.4593 22.5546L31.804 24.3009L32.4953 24.4606L32.9505 24.8285L33.5323 25.6959L33.9285 26.72L33.8376 27.5655L33.9959 28.7981L35.1313 26.9995L35.5809 26.7893L35.8282 26.9372L36.7865 28.5928L36.8334 28.8997L36.8399 29.7277L36.9982 31.1912L36.8456 31.6081L35.1088 34.978H35.2521L35.7467 34.1736L37.0057 32.6188L37.4666 31.8568L37.846 30.4677L38.0961 30.3087L38.3715 30.4862L38.5457 30.9102L38.8811 32.2436L38.7256 32.6648L39.0572 32.338L39.4225 31.7947L39.7916 31.4838L40.1392 31.8568L39.7467 33.171L39.2062 34.4931L38.5429 35.5614L37.7814 36.0987L38.7059 36.039L39.1265 35.8186L39.5106 35.3271L40.2853 33.0168L40.5382 32.8374L40.8595 34.3621L40.5017 37.2599L40.6253 38.0579L41.4103 35.3271L41.3672 34.0655L41.6558 31.2557L42.0839 29.8799L42.2103 29.79L43.77 29.9352L43.9265 30.1151L43.9808 30.8825L44.3274 31.6335L45.2079 32.575L46.1953 34.6172L45.993 36.4637L45.7288 37.4961L45.8262 37.636L44.6412 40.9575L44.3986 41.9913L44.5653 42.469L44.8651 42.3799L45.4056 40.2114L46.9334 36.0918L47.0852 34.5551L47.5779 34.4655L47.8908 35.0009L48.1568 35.8025L48.5128 36.5188L48.6795 36.5601L48.955 36.4247L49.1423 36.9043L49.0056 37.7965L48.9859 38.1771L49.2997 38.4453L49.4477 37.5925L49.6013 37.1635L49.7699 37.2897L49.7718 37.675L49.6144 39.5977L49.4233 40.2297L48.6702 41.9341V42.2839L49.5507 41.7832L50.4482 38.6447L51.1835 38.0579V37.636L50.7104 37.1176L50.4482 36.0298L50.0847 33.7873L49.7493 32.9823L49.3109 32.2229L48.8238 31.6565L48.3405 31.4308L48.5784 30.6959L48.8116 29.368L49.1423 28.7981L49.5816 28.572L50.0416 28.5443L50.4444 28.3366L50.7123 27.5655L50.2393 27.5839L49.103 28.1611L48.6702 28.5858L48.244 28.752L46.3152 27.7894L45.0262 26.438L39.5518 24.0509L37.9425 22.3275L36.9814 19.7942L38.0568 19.0974L41.474 18.1633L42.1963 18.1981L44.6412 18.9789L45.5236 19.0765L45.8262 19.7942L46.4454 20.4418L46.7714 20.5254L47.0852 20.1842L46.8173 19.7315L46.6131 18.9789L47.7503 18.9859L48.3339 18.8256L49.3456 18.0098L50.495 17.8913L51.027 17.4518L47.8983 17.954L46.9428 17.4518L46.4904 16.9703L46.5859 16.8935L46.9568 16.8516L47.3278 16.456L47.5723 16.0277L47.9095 15.6855L48.2917 15.4899L48.6702 15.5015V15.0729L48.1587 14.777L47.8533 14.8866L46.9428 15.8554L45.7737 16.5072L44.4117 16.6375L43.1405 16.2838L43.1096 15.6645L43.3091 15.25L43.7841 14.6815L43.8684 14.2737L44.0838 12.7625L44.3986 12.4148L45.4983 11.9432L44.4979 12.1534L43.7419 12.6948L41.9209 14.6792L41.4928 14.9168L40.5382 15.0729L40.2563 14.7374L40.4118 13.9869L41.0825 12.3354L40.2937 12.6645L39.9031 13.0028L39.5106 13.5113L38.409 15.2872L37.8544 15.9509L34.2086 14.9867L33.2587 14.4438L32.099 12.8675L32.4081 12.3354L33.2924 12.2724L34.4053 12.7065L35.3898 12.5595L35.8947 10.7708L35.2446 10.6726L34.5177 10.1141L33.8442 9.298L33.3505 8.41594L34.055 7.84009L34.7781 8.1772L35.5013 8.83012L36.1964 9.19975L35.9097 8.27551L35.7224 7.98758L38.409 7.62935L38.5495 7.86116L38.8811 8.80673L39.3776 8.93541L39.5855 8.49785L39.5013 7.92203L39.1247 7.62935L38.7481 7.48182L37.6099 6.44866H39.9115L40.319 6.63145L41.1331 7.44434L42.171 7.84711L43.0009 8.87224L43.4675 9.19975L44.0576 9.09683L44.9569 8.02504L45.4983 7.62935L45.355 6.84233L46.2609 6.51194L47.0046 7.11643L47.7297 7.97822L49.3184 8.76929L49.666 8.69675L49.7699 7.98758L49.6032 7.41859L48.9999 6.99696L48.8257 6.44866L49.5648 6.57755L50.2758 7.29914L50.8153 8.42998L51.027 9.78909L51.4299 10.6353L53.3034 11.6841L53.8842 12.7625L53.5563 13.334L53.8532 13.6792L54.8303 13.903V14.2946L54.4087 14.1548L54.2326 14.3995L54.2008 15.5015L54.5586 16.6236L54.2008 17.0284V17.4518L54.4996 17.8424L55.1797 17.2075L55.5609 17.0331L55.915 17.0284L56.5342 17.8471L57.056 16.7306L57.4251 16.6143L57.6368 17.0145L57.5009 17.8424L59.1412 17.668L59.5581 17.8424L59.7595 17.4843L59.9637 17.4657L60.4611 18.0563L61.2882 19.404L61.07 19.8081L59.7154 20.9593L60.0218 21.1681L60.3168 21.0103L60.626 20.7133L60.9735 20.537L61.3126 20.6228L62.388 21.5276L62.8601 22.1258L63.0877 22.1397L63.8006 21.7757L65.246 22.5546L65.0746 23.296L65.4718 23.5554L65.7013 24.2361L65.6957 24.9257L65.3893 25.238L65.7022 26.438L65.7097 26.4172L65.8643 28.4404L66.017 28.8212L66.3308 29.1119L66.6577 29.0612L67.0615 28.8074L67.4539 28.7035L67.7472 29.1119L67.7921 29.896L67.1317 31.8568L67.4258 31.7739L68.1003 31.182L68.2315 30.8894L68.2193 29.504L67.7472 28.3712L68.0329 28.055L68.8516 27.637L69.8745 27.5655L70.0469 27.7594L70.3616 28.7981L70.7869 29.0012L70.5096 29.4441L69.8043 29.9214L69.6525 30.4631L69.7546 30.8756L70.1977 31.6427L70.7822 32.1308L73.2768 31.4308L73.9382 31.6081L74.4815 31.9259L74.8974 32.5865L75.1765 33.7873L71.9354 34.0954L71.319 34.6103L68.5462 35.3271L68.9696 36.1263L69.6141 36.0367L70.9115 35.3271L73.0698 34.9343L73.7471 35.3271L73.4688 35.8048L72.4768 36.5188V36.9043L74.9555 36.1882L75.5625 36.7115L75.8979 37.847L75.97 38.8166L75.6974 39.5519L75.0061 39.9824L76.1049 40.7469V41.1656L74.548 44.5817L73.8688 45.2069L71.5326 46.1145V46.534L72.0309 46.5704L72.889 46.4063L73.2768 46.534L74.8627 47.6776L72.9752 49.9669L72.2988 50.4897L69.1748 50.3488L68.9528 50.0896L68.4675 49.2072L68.0235 48.875L67.6095 48.1353L67.3303 47.3542L67.2891 46.8781L66.7177 46.0735L66.0095 45.6813L65.2685 45.7018L64.6025 46.1145L65.0493 46.1875L66.5022 47.2608L66.55 47.4135L67.1317 48.4085L67.1186 49.5302L66.6455 50.3488L67.2076 51.0124L67.6741 52.4658L68.4675 53.2215L72.311 53.1194L72.9714 53.4664L73.2768 54.1944L73.0426 54.829L71.8529 56.7313L71.3893 57.2381V57.6136L72.5049 56.9938L73.9138 55.708L75.1213 55.4317L75.6328 57.8217L75.1466 59.851L73.9944 61.8053L72.637 63.2254L71.5326 63.6759V64.0542L73.8557 63.1488L74.7475 62.3465L75.2477 62.1616L75.7648 62.2698L76.0992 62.5719L76.7484 63.6759L77.6252 64.5157L77.8613 65.0559L77.6908 65.9736L78.0158 66.1782L78.0655 66.5941L78.0215 67.8613L78.1629 69.9326L78.0692 71.5822L78.9648 74.4734L79.2776 75.0366L79.1062 75.374L79.5662 75.8676L80.0308 76.7808L80.2744 77.8517L80.0645 79.1559L80.4392 79.4856L80.8214 79.1626L81.0031 78.4114L80.6678 77.0754L80.5367 75.7872L79.7479 73.9121L80.22 73.127L80.1376 72.6503L80.5179 71.9943L80.6912 71.6561L80.8158 70.8092L80.8036 70.0448L80.2332 64.1128L80.5282 63.329L81.2373 63.7322L81.731 64.7206L82.4345 67.0728L83.2064 68.802L83.3619 69.2014L84.1478 69.4571L84.4635 69.7442L84.6359 69.3293L84.0354 68.0611L83.493 66.3649L83.0846 64.5495L82.8092 61.6159L82.8935 59.8894L83.3788 58.7892L83.6926 56.8218L84.3951 55.4588L86.9927 53.3984L88.4091 51.494L89.6007 50.8988L89.6794 50.3488L89.9829 50.2988L90.2039 50.4693L90.736 51.1305L91.1107 51.1124V51.7484L90.9384 51.9119L90.7576 55.2686L90.9384 56.0929L90.662 57.0345L90.6479 58.0026L90.8953 58.5858L91.4095 58.3734L91.1735 57.3558L91.2138 56.4574L91.5117 56.0386L92.0512 56.4733L92.2751 57.0571L92.2639 57.3807L92.3528 58.0297L92.2086 59.1305L92.2892 59.1101L92.8531 59.51L93.4676 61.0271L93.9997 61.3723H94.5804L95.0919 61.0113L95.2933 60.42L95.6812 58.3734L95.417 58.1405L95.0638 57.3942L94.8034 57.2381L94.0109 57.306L93.6287 57.1974L93.3093 56.8218L94.0765 56.5231L95.1088 56.3556L95.743 55.8326L96.0755 55.7171L96.3678 56.2401L96.276 58.7124L96.6095 59.51L96.5251 58.6152L96.8849 57.3105L96.6095 56.4733L96.8718 55.7352L97.9677 53.9858L98.0539 53.5776L98.1963 52.257L98.4127 52.0436L98.8371 52.0504L99.312 51.9119L98.8005 51.8051L98.4858 51.1169L98.4436 50.3397L99.2783 49.1754L99.4694 47.4681L99.2867 46.0325L98.8389 44.7163L98.2694 43.6776L97.7242 43.086V42.6679L98.3368 42.0919L98.1045 40.4586L97.5087 38.631L96.4736 36.1171L96.1804 33.2377L95.9312 32.5083L95.1968 31.4308L95.549 30.8779L95.8732 30.0182L95.9799 29.0981L95.6812 28.3712L96.1448 27.9557L96.6975 27.8587L97.6539 27.9857L97.8844 27.8864L98.5242 27.2098L98.8258 27.1127L99.6389 27.2098L100.082 26.9556L100.911 25.8971L101.276 25.6612L102.655 26.1052L102.919 26.1329L103.412 25.6612L103.53 26.8748L103.836 27.5816L104.28 28.0111L104.827 28.3712L104.669 28.7981L104.909 29.0242L105.079 29.451L105.601 31.1498L106.711 33.5137L106.911 34.3161L107.185 34.5551L106.884 35.3271L107.332 36.0803L107.923 36.6978L108.349 37.4113L108.298 38.4453L108.714 38.8441L109.954 39.0503L110.876 39.6687L111.406 39.7077L111.826 40.3281L112.121 40.2732L112.244 40.367L112.45 41.1725L112.557 41.9341L113.2 43.4698L113.58 46.3243L114.077 47.0079L115.252 47.3633L115.715 48.0602L115.859 46.8667L116.022 46.4428L116.819 46.632L117.302 47.2608L117.562 47.336L118.214 47.3018L117.842 47.6161L117.773 47.8689L117.855 48.3243L118.051 48.3402L118.472 48.0602L118.717 47.7255L118.929 46.9464L119.348 43.7141L119.361 42.3045L119.21 40.9803L118.874 39.5977L118.158 37.2897L116.802 35.7497L116.792 35.3478L117.09 34.3667L117.374 34.1736L117.792 34.077L118.25 33.7873L118.686 33.3136L119.03 32.6648L118.554 31.8845L118.372 31.3248L118.149 29.9283L118.887 28.8027L120.203 28.0919L123.273 27.5655L124.351 28.3989L124.925 28.5028L124.875 27.5655L125.238 27.2005L125.661 27.2098L125.504 27.9857L125.965 28.1704L126.747 28.9919L127.219 29.1119L126.719 28.5097L126.447 27.5655H126.604V27.2098L126.132 26.7893V26.438L126.348 26.0428L126.747 24.1064L126.971 23.7592L127.769 23.0435L129.826 22.2765L130.557 22.6334L130.391 24.4606L130.831 24.2801L131.138 23.78L131.663 22.5546L131.489 21.7757L131.911 21.4371L132.535 21.5485L133.69 22.1258L133.51 22.9763L133.122 24.2129L133.049 25.0599L133.305 25.0414L134.963 23.296L135.637 23.4535L137.31 25.6428L137.043 26.5443L136.391 27.9857L136.682 28.0111L137.012 27.9211L137.324 27.7132L137.827 27.1728L138.678 27.9857L139.038 28.4104L139.693 31.4308L139.086 34.1184L139.142 34.5551L140.792 34.978L141.854 35.6579L143.562 35.9104L143.793 36.0987L144.04 36.5394L144.427 37.4617L144.959 37.8883L145.461 39.8611L145.581 40.2938L145.766 40.367L146.395 40.3487L146.552 40.5547L146.844 41.7169L146.885 43.9151L147.438 45.3483L147.509 48.0602L147.707 48.2173L148.38 49.2072L149.467 50.3488L149.343 51.0965L149.457 52.0912L149.735 52.8834L150.11 53.0173L150.4 52.3228L150.38 51.3009L149.953 49.6235L149.767 49.412L149.154 48.825L149.054 48.1922L149.309 46.7345L149.234 45.9458L149.444 45.1293L149.953 44.5817L150.088 43.5406L150.018 42.645L149.307 39.8061L149.264 38.8097L148.837 38.8303L148.086 37.3425L147.966 37.2897L147.852 37.4113L147.581 38.0579L147.269 37.847L146.322 36.5188L146.538 35.7198L146.451 34.9619L146.159 34.3965L145.495 33.9529L144.737 31.8568H144.908V31.4308L144.283 29.8499L143.995 27.2075L144.119 24.5462L144.737 22.9045L145.043 22.7678L147.109 22.9045L147.423 23.0921L147.977 23.5832L148.295 23.6827L149.278 23.5832L149.637 23.6827L149.467 24.1064L150.329 24.6156L152.6 24.0138L153.583 24.4606L153.772 24.8979L154.21 26.438L154.465 26.5674L155.396 26.438L155.799 26.6784L156.537 27.7456L157.275 28.2604L158.469 30.3087L159.103 32.697L159.842 33.2538L160.236 33.8195L160.828 34.978L161.941 38.0579L162.034 36.9846L161.841 36.1446L161.298 34.5551L161.746 34.5827L162.273 34.4379L162.787 34.1598L163.198 33.7873L161.084 33.9L160.526 33.4332L164.19 33.3688L164.458 33.6402L164.942 35.3271H165.083L165.234 34.5092L165.148 34.1207L164.942 33.7873V33.4332L165.238 33.1756L165.499 32.7522L165.641 32.1722L165.571 31.4308L166.085 30.7351L166.216 29.9837L166.201 28.3712L166.488 27.5955L167.073 26.8447L167.753 26.2716L168.327 26.0497L168.576 25.7445L168.73 24.412L168.635 24.1064L168.383 23.9351L168.496 23.5299L168.964 22.7307L169.592 22.0725L171.002 21.5345L171.243 20.537L171.85 21.1101L174.166 21.349L174.791 21.8151L175.24 22.8002L176.13 25.238V26.0497H175.816V26.438L176.374 26.8055L176.662 26.75L176.931 26.438L176.779 26.3918L176.443 26.0497L177.264 25.4254L180.164 24.6133L181.017 24.8841L180.647 24.8702L180.281 24.9951L179.932 25.2519L179.602 25.6612L179.896 25.8624L180.309 26.683L180.473 26.6114L181.214 25.0182L181.49 24.8841L182.139 25.5179L183.124 27.3853L183.876 27.5655V27.2098L183.139 26.6737L182.524 25.8555L182.344 25.1108L182.246 24.1064L181.818 23.6827L182.867 22.9207L184.438 22.397L185.385 21.7919L185.919 21.7757L183.881 22.9809L183.246 23.6827L185.266 22.8767L185.745 22.9045L186.305 23.4187L187.201 24.7938L187.804 24.8841V24.4606L186.992 23.6133L186.582 22.974L186.405 22.3414L186.495 21.4719L186.734 20.7365L187.081 20.1703L187.49 19.7942L187.546 19.181L187.903 18.1842L187.962 17.6471L187.904 16.7725L187.527 15.902L186.918 14.7234L186.776 14.6815L186.655 14.4694L186.548 13.1544L185.91 12.6365L185.753 12.1767L185.843 11.1376L185.604 11.1586L185.919 10.3408L185.643 9.93171L185.432 9.19975H185.919V8.80673L185.52 8.24742L185.078 6.41351L184.426 5.63989L184.634 4.84474L185.109 4.14304L185.604 4.05384L185.739 4.3942L185.816 5.18959L186.076 5.267L186.405 3.90829L186.705 3.65941L187.352 3.37994L187.726 3.40108L187.733 3.85664L187.616 4.49276L187.695 5.03008L187.892 5.42883L188.133 5.62582L187.962 4.48103L188.325 4.33787L189.221 3.65941L189.56 3.9576L190.089 4.76731L190.491 4.8377L190.019 5.267L190.415 5.62582L190.843 5.5414L191.433 5.267V4.8377L192.194 3.51381L192.235 3.65941L192.396 4.32143L192.663 4.42001L192.91 4.08671L193.099 2.99707L193.297 2.73158L193.807 2.47544H194.445L195.757 3.04875L197.089 2.43314L199.028 4.39185L200.122 4.8377L199.812 5.36551L199.452 5.60237L199.152 5.95876L199.008 6.84233H199.323V7.20076L198.851 7.62935L199.323 8.41594L199.053 8.93307L199.366 9.0173L200.194 8.80673L201.117 9.01963L201.522 8.80673L201.381 9.98548H203.579L203.995 10.1398L204.37 10.5371L204.583 11.0558L204.537 11.9432L204.995 13.5113L204.034 15.3245L203.491 16.0603L202.794 16.6375L203.109 17.4518L203.384 17.1401L203.665 17.3169L203.984 17.6564L204.742 17.9912L204.823 18.3957L204.537 19.7942L204.894 20.1053L206.581 20.1842L207.392 19.8081L207.664 19.8847L208.01 20.537L208.246 20.4302L208.467 20.1842L208.665 21.3049L208.895 21.6505L209.544 21.9519L210.233 22.7307L210.978 23.3215L211.427 24.1064L211.883 24.5925L212.426 24.1064L212.166 23.905L212.096 23.6827L212.501 23.384L212.802 22.7585L212.988 21.8615L213.054 20.7481L212.861 18.7907L213.012 18.2376L213.683 17.8424H216.518L218.135 17.2703L218.262 16.8283L218.412 15.8554L220.042 14.784L220.298 14.0988L220.459 13.2221L220.844 12.5221L221.741 11.586L222.355 11.1446L224.328 10.7708L224.872 10.9273L225.757 11.6911L226.299 11.9432L230.685 11.1913Z" stroke="black"/>
<path d="M157.3 156.694L156.968 156.627L156.798 156.682L156.405 156.935L155.702 157.638L155.642 158.067L156.646 157.712L156.893 157.676L157.085 157.828L157.122 158.13L157.006 158.405L156.844 158.62L156.985 158.556L157.347 158.037L157.487 157.455L157.473 157.017L157.3 156.694Z" stroke="black"/>
<path d="M151.368 0.841187L151.125 1.00352L151.178 1.94892L151.578 2.61879L152.024 2.29212L152.12 1.75848L151.943 1.62445L151.368 0.841187Z" stroke="black"/>
<path d="M99.5022 170.811L99.6155 170.554L99.5715 170.466L99.0244 170.506L98.5645 170.744L98.4961 171.32L98.6685 171.92L98.8174 172.317L98.9289 172.773L99.0956 172.965L99.3232 172.637L99.5415 172.148L99.7167 171.589L99.593 170.999L99.5022 170.811Z" stroke="black"/>
<path d="M142.82 32.4116L142.612 32.0479L142.168 31.546L142.034 31.7578L142.259 32.5612L142.393 33.2515L142.444 33.6908L142.584 34.0311L142.784 34.2448L143.057 34.3391L143.361 34.1345V33.4792L143.026 32.7269L142.82 32.4116Z" stroke="black"/>
</svg>
