<svg width="509" height="451" viewBox="0 0 509 451" fill="none" xmlns="http://www.w3.org/2000/svg">
<path d="M0.849121 450.433V1H508.088V450.433H0.849121Z" stroke="black"/>
<path d="M217.924 41.9008C218.587 41.9008 219.223 41.6373 219.692 41.1685C220.161 40.6997 220.424 40.0638 220.424 39.4008C220.424 38.7377 220.161 38.1018 219.692 37.633C219.223 37.1642 218.587 36.9008 217.924 36.9008C217.261 36.9008 216.625 37.1642 216.156 37.633C215.688 38.1018 215.424 38.7377 215.424 39.4008C215.424 40.0638 215.688 40.6997 216.156 41.1685C216.625 41.6373 217.261 41.9008 217.924 41.9008Z" fill="#C24343"/>
<path d="M290.538 98.1053C290.069 98.5741 289.433 98.8375 288.77 98.8375C288.107 98.8375 287.471 98.5741 287.002 98.1053C286.533 97.6365 286.27 97.0005 286.27 96.3375C286.27 95.6745 286.533 95.0386 287.002 94.5697C287.471 94.1009 288.107 93.8375 288.77 93.8375C289.433 93.8375 290.069 94.1009 290.538 94.5697C291.006 95.0386 291.27 95.6745 291.27 96.3375C291.27 97.0005 291.006 97.6365 290.538 98.1053Z" fill="#C24343"/>
<path d="M301.261 168.652C301.924 168.652 302.56 168.389 303.029 167.92C303.498 167.451 303.761 166.815 303.761 166.152C303.761 165.489 303.498 164.853 303.029 164.385C302.56 163.916 301.924 163.652 301.261 163.652C300.598 163.652 299.962 163.916 299.494 164.385C299.025 164.853 298.761 165.489 298.761 166.152C298.761 166.815 299.025 167.451 299.494 167.92C299.962 168.389 300.598 168.652 301.261 168.652Z" fill="#C24343"/>
<path d="M298.699 186.759C299.362 186.759 299.998 186.496 300.467 186.027C300.936 185.558 301.199 184.923 301.199 184.259C301.199 183.596 300.936 182.961 300.467 182.492C299.998 182.023 299.362 181.759 298.699 181.759C298.036 181.759 297.4 182.023 296.932 182.492C296.463 182.961 296.199 183.596 296.199 184.259C296.199 184.923 296.463 185.558 296.932 186.027C297.4 186.496 298.036 186.759 298.699 186.759Z" fill="#C24343"/>
<path d="M229.802 192.352C230.465 192.352 231.101 192.088 231.57 191.62C232.039 191.151 232.302 190.515 232.302 189.852C232.302 189.189 232.039 188.553 231.57 188.084C231.101 187.615 230.465 187.352 229.802 187.352C229.139 187.352 228.503 187.615 228.035 188.084C227.566 188.553 227.302 189.189 227.302 189.852C227.302 190.515 227.566 191.151 228.035 191.62C228.503 192.088 229.139 192.352 229.802 192.352Z" fill="#C24343"/>
<path d="M259.31 202.686C258.841 203.155 258.206 203.419 257.543 203.419C256.88 203.419 256.244 203.155 255.775 202.686C255.306 202.218 255.043 201.582 255.043 200.919C255.043 200.256 255.306 199.62 255.775 199.151C256.244 198.682 256.88 198.419 257.543 198.419C258.206 198.419 258.841 198.682 259.31 199.151C259.779 199.62 260.043 200.256 260.043 200.919C260.043 201.582 259.779 202.218 259.31 202.686Z" fill="#C24343"/>
<path d="M243.547 228.723C244.21 228.723 244.846 228.46 245.315 227.991C245.784 227.522 246.047 226.886 246.047 226.223C246.047 225.56 245.784 224.924 245.315 224.456C244.846 223.987 244.21 223.723 243.547 223.723C242.884 223.723 242.248 223.987 241.779 224.456C241.31 224.924 241.047 225.56 241.047 226.223C241.047 226.886 241.31 227.522 241.779 227.991C242.248 228.46 242.884 228.723 243.547 228.723Z" fill="#C24343"/>
<path d="M292.985 191.475C292.516 191.944 291.88 192.208 291.217 192.208C290.554 192.208 289.918 191.944 289.449 191.475C288.98 191.007 288.717 190.371 288.717 189.708C288.717 189.045 288.98 188.409 289.449 187.94C289.918 187.471 290.554 187.208 291.217 187.208C291.88 187.208 292.516 187.471 292.985 187.94C293.453 188.409 293.717 189.045 293.717 189.708C293.717 190.371 293.453 191.007 292.985 191.475Z" fill="#C24343"/>
<path d="M319.936 149.792C320.599 149.792 321.235 149.528 321.704 149.059C322.173 148.59 322.436 147.955 322.436 147.292C322.436 146.629 322.173 145.993 321.704 145.524C321.235 145.055 320.599 144.792 319.936 144.792C319.273 144.792 318.637 145.055 318.168 145.524C317.7 145.993 317.436 146.629 317.436 147.292C317.436 147.955 317.7 148.59 318.168 149.059C318.637 149.528 319.273 149.792 319.936 149.792Z" fill="#C24343"/>
<path d="M274.402 162.288C273.933 162.757 273.297 163.021 272.634 163.021C271.971 163.021 271.335 162.757 270.866 162.288C270.397 161.82 270.134 161.184 270.134 160.521C270.134 159.858 270.397 159.222 270.866 158.753C271.335 158.284 271.971 158.021 272.634 158.021C273.297 158.021 273.933 158.284 274.402 158.753C274.87 159.222 275.134 159.858 275.134 160.521C275.134 161.184 274.87 161.82 274.402 162.288Z" fill="#C24343"/>
<path d="M280.213 201.078C280.876 201.078 281.512 200.815 281.981 200.346C282.45 199.877 282.713 199.241 282.713 198.578C282.713 197.915 282.45 197.279 281.981 196.81C281.512 196.342 280.876 196.078 280.213 196.078C279.55 196.078 278.914 196.342 278.445 196.81C277.977 197.279 277.713 197.915 277.713 198.578C277.713 199.241 277.977 199.877 278.445 200.346C278.914 200.815 279.55 201.078 280.213 201.078Z" fill="#C24343"/>
<path d="M240.201 159.314C239.732 159.782 239.096 160.046 238.433 160.046C237.77 160.046 237.134 159.782 236.665 159.314C236.196 158.845 235.933 158.209 235.933 157.546C235.933 156.883 236.196 156.247 236.665 155.778C237.134 155.309 237.77 155.046 238.433 155.046C239.096 155.046 239.732 155.309 240.201 155.778C240.67 156.247 240.933 156.883 240.933 157.546C240.933 158.209 240.67 158.845 240.201 159.314Z" fill="#C24343"/>
<path d="M247.519 223.223C248.182 223.223 248.818 222.959 249.287 222.49C249.756 222.022 250.019 221.386 250.019 220.723C250.019 220.06 249.756 219.424 249.287 218.955C248.818 218.486 248.182 218.223 247.519 218.223C246.856 218.223 246.221 218.486 245.752 218.955C245.283 219.424 245.019 220.06 245.019 220.723C245.019 221.386 245.283 222.022 245.752 222.49C246.221 222.959 246.856 223.223 247.519 223.223Z" fill="#C24343"/>
<path d="M247.42 213.754C246.951 214.223 246.315 214.486 245.652 214.486C244.989 214.486 244.353 214.223 243.884 213.754C243.416 213.285 243.152 212.649 243.152 211.986C243.152 211.323 243.416 210.687 243.884 210.218C244.353 209.75 244.989 209.486 245.652 209.486C246.315 209.486 246.951 209.75 247.42 210.218C247.889 210.687 248.152 211.323 248.152 211.986C248.152 212.649 247.889 213.285 247.42 213.754Z" fill="#C24343"/>
<path d="M260.231 166.028C260.894 166.028 261.53 165.765 261.999 165.296C262.467 164.827 262.731 164.191 262.731 163.528C262.731 162.865 262.467 162.229 261.999 161.76C261.53 161.292 260.894 161.028 260.231 161.028C259.568 161.028 258.932 161.292 258.463 161.76C257.994 162.229 257.731 162.865 257.731 163.528C257.731 164.191 257.994 164.827 258.463 165.296C258.932 165.765 259.568 166.028 260.231 166.028Z" fill="#C24343"/>
<path d="M263.102 187.12C262.634 187.589 261.998 187.852 261.335 187.852C260.672 187.852 260.036 187.589 259.567 187.12C259.098 186.651 258.835 186.015 258.835 185.352C258.835 184.689 259.098 184.053 259.567 183.584C260.036 183.116 260.672 182.852 261.335 182.852C261.998 182.852 262.634 183.116 263.102 183.584C263.571 184.053 263.835 184.689 263.835 185.352C263.835 186.015 263.571 186.651 263.102 187.12Z" fill="#C24343"/>
<path d="M330.84 146.129C331.503 146.129 332.139 145.865 332.608 145.397C333.077 144.928 333.34 144.292 333.34 143.629C333.34 142.966 333.077 142.33 332.608 141.861C332.139 141.392 331.503 141.129 330.84 141.129C330.177 141.129 329.541 141.392 329.072 141.861C328.603 142.33 328.34 142.966 328.34 143.629C328.34 144.292 328.603 144.928 329.072 145.397C329.541 145.865 330.177 146.129 330.84 146.129Z" fill="#C24343"/>
<path d="M249.09 163.415C248.622 163.884 247.986 164.148 247.323 164.148C246.66 164.148 246.024 163.884 245.555 163.415C245.086 162.947 244.823 162.311 244.823 161.648C244.823 160.985 245.086 160.349 245.555 159.88C246.024 159.411 246.66 159.148 247.323 159.148C247.986 159.148 248.622 159.411 249.09 159.88C249.559 160.349 249.823 160.985 249.823 161.648C249.823 162.311 249.559 162.947 249.09 163.415Z" fill="#C24343"/>
<path d="M488.503 263.14C488.034 263.609 487.398 263.873 486.735 263.873C486.072 263.873 485.436 263.609 484.967 263.14C484.498 262.672 484.235 262.036 484.235 261.373C484.235 260.71 484.498 260.074 484.967 259.605C485.436 259.136 486.072 258.873 486.735 258.873C487.398 258.873 488.034 259.136 488.503 259.605C488.971 260.074 489.235 260.71 489.235 261.373C489.235 262.036 488.971 262.672 488.503 263.14Z" fill="#C24343"/>
<path d="M424.563 367.098C425.226 367.098 425.862 366.835 426.33 366.366C426.799 365.897 427.063 365.261 427.063 364.598C427.063 363.935 426.799 363.299 426.33 362.831C425.862 362.362 425.226 362.098 424.563 362.098C423.9 362.098 423.264 362.362 422.795 362.831C422.326 363.299 422.063 363.935 422.063 364.598C422.063 365.261 422.326 365.897 422.795 366.366C423.264 366.835 423.9 367.098 424.563 367.098Z" fill="#C24343"/>
<path d="M71.4363 273.053C70.9675 273.522 70.3316 273.785 69.6685 273.785C69.0055 273.785 68.3696 273.522 67.9008 273.053C67.432 272.584 67.1685 271.948 67.1685 271.285C67.1685 270.622 67.432 269.986 67.9008 269.518C68.3696 269.049 69.0055 268.785 69.6685 268.785C70.3316 268.785 70.9675 269.049 71.4363 269.518C71.9051 269.986 72.1685 270.622 72.1685 271.285C72.1685 271.948 71.9051 272.584 71.4363 273.053Z" fill="#C24343"/>
<path d="M64.5848 266.15C65.2478 266.15 65.8838 265.886 66.3526 265.417C66.8214 264.949 67.0848 264.313 67.0848 263.65C67.0848 262.987 66.8214 262.351 66.3526 261.882C65.8838 261.413 65.2478 261.15 64.5848 261.15C63.9218 261.15 63.2859 261.413 62.8171 261.882C62.3483 262.351 62.0848 262.987 62.0848 263.65C62.0848 264.313 62.3483 264.949 62.8171 265.417C63.2859 265.886 63.9218 266.15 64.5848 266.15Z" fill="#C24343"/>
<path d="M23.7902 240.955C23.3214 241.423 22.6855 241.687 22.0224 241.687C21.3594 241.687 20.7235 241.423 20.2547 240.955C19.7859 240.486 19.5224 239.85 19.5224 239.187C19.5224 238.524 19.7859 237.888 20.2547 237.419C20.7235 236.95 21.3594 236.687 22.0224 236.687C22.6855 236.687 23.3214 236.95 23.7902 237.419C24.259 237.888 24.5224 238.524 24.5224 239.187C24.5224 239.85 24.259 240.486 23.7902 240.955Z" fill="#C24343"/>
<path d="M104.116 373.135C104.779 373.135 105.415 372.871 105.884 372.402C106.353 371.934 106.616 371.298 106.616 370.635C106.616 369.972 106.353 369.336 105.884 368.867C105.415 368.398 104.779 368.135 104.116 368.135C103.453 368.135 102.817 368.398 102.348 368.867C101.88 369.336 101.616 369.972 101.616 370.635C101.616 371.298 101.88 371.934 102.348 372.402C102.817 372.871 103.453 373.135 104.116 373.135Z" fill="#C24343"/>
<path d="M37.4594 213.517C36.9906 213.986 36.3546 214.249 35.6916 214.249C35.0286 214.249 34.3927 213.986 33.9239 213.517C33.455 213.048 33.1916 212.412 33.1916 211.749C33.1916 211.086 33.455 210.451 33.9239 209.982C34.3927 209.513 35.0286 209.249 35.6916 209.249C36.3546 209.249 36.9906 209.513 37.4594 209.982C37.9282 210.451 38.1916 211.086 38.1916 211.749C38.1916 212.412 37.9282 213.048 37.4594 213.517Z" fill="#C24343"/>
</svg>
