<svg width="509" height="451" viewBox="0 0 509 451" fill="none" xmlns="http://www.w3.org/2000/svg">
<path d="M0.849121 450.433V1H508.088V450.433H0.849121Z" stroke="black"/>
<path d="M424.458 1H423.399L422.932 2.34335L421.443 5.11102L418.126 9.46806L415.116 12.5951L413.625 13.6235L412.08 14.1934L408.635 14.3158L405.163 13.4973L378.514 1H376.159L404.832 14.4468L408.536 15.3199L412.275 15.1871L414.089 14.5182L415.767 13.3611L418.887 10.1199L422.287 5.65398L423.851 2.74695L424.458 1Z" stroke="black"/>
<path d="M355.602 1H353.652L352.72 1.55675L347.268 15.3989L346.883 17.9296L346.882 17.9397L346.6 20.4787L346.288 25.6764L346.266 30.8829L344.172 31.0942L339.662 30.3514L324.666 25.0571L320.673 24.9437L316.726 26.0344L312.912 28.6089L310.606 31.024L295.038 52.3506L290.729 59.7613L286.984 68.3156L285.207 76.702L285.432 85.2632L287.255 93.0862L290.284 99.2733L294.397 104.032L298.827 107.343L318.556 115.176L320.184 116.939L321.657 119.633L323.013 123.281L324.57 128.465L325.963 134.414L326.749 140.697L326.492 146.906L325.408 151.044L323.778 154.163L321.857 156.525L319.905 158.354L305.265 169.042L305.855 169.85L320.545 159.125L322.59 157.208L324.618 154.716L326.346 151.407L327.486 147.055L327.751 140.656L326.949 134.237L325.536 128.207L323.966 122.979L323.961 122.963L322.569 119.216L321.002 116.351L319.136 114.33L299.319 106.462L295.082 103.296L291.126 98.7174L288.203 92.7484L286.429 85.1353L286.209 76.7938L287.941 68.6229L291.623 60.2146L295.876 52.8983L311.375 31.6669L313.561 29.3774L317.15 26.9547L320.795 25.9476L324.481 26.0523L339.413 31.3238L344.14 32.1025L347.262 31.7874L347.287 25.7087L347.596 20.5636L347.873 18.0701L347.875 18.05L348.24 15.6607L353.526 2.24043L355.602 1Z" stroke="black"/>
<path d="M277.743 1H276.599L276.162 1.78689L265.978 5.39153L244.241 4.49274L239.648 6.68326L235.099 10.3219L230.857 15.3864L227.242 21.8171L226.018 25.0559L225.139 28.738L224.786 32.7595L225.148 36.9841L226.101 40.703L227.444 43.9369L229.054 46.5583L230.82 48.4244L234.34 50.3447L238.01 51.0358L269.988 49.4654L276.947 52.6172L282.356 60.5706L284.297 75.7201L285.288 75.593L283.317 60.2061L277.616 51.8223L270.181 48.4547L238.079 50.0312L234.681 49.3912L231.437 47.6222L229.852 45.9465L228.337 43.4807L227.052 40.3853L226.137 36.8163L225.79 32.7605L226.128 28.8987L226.976 25.35L228.151 22.2412L231.683 15.9573L235.802 11.0404L240.183 7.53622L244.447 5.50214L266.13 6.39865L276.852 2.60334L277.743 1Z" stroke="black"/>
<path fill-rule="evenodd" clip-rule="evenodd" d="M508.088 284.199L506.527 283.268L493.19 272.001L478.533 263.482L479.692 259.649L478.734 259.36L477.645 262.965L454.119 249.291L420.64 244.148L417.434 242.975L414.288 241.087L411.593 238.719L413.127 233.135L412.163 232.87L410.785 237.887L400.024 225.154L394.224 219.594L387.826 216.606L383.571 216.395L371.279 218.441L367.35 218.363L363.491 217.394L359.661 215.655L336.745 199.979L318.382 191.686L311.805 186.82L299.753 175.518L312.438 172.265L312.19 171.297L298.888 174.707L298.871 174.69L298.845 174.718L280.071 179.531L272.524 184.368L271.451 185.308L270.51 186.581L269.491 189.094L268.222 194.732L267.426 197.358L266.29 200.055L263.935 204.808L260.373 210.56L255.61 216.572L247.329 225.005L217.87 248.611L170.767 273.553L130.322 287.983L96.9119 292.311L81.3205 290.565L76.2184 288.599L71.242 285.259L66.372 280.263L60.5856 272.005L55.202 262.347L46.362 243.814L39.5805 233.79L30.6306 225.822L22.2062 226.605L18.0375 242.521L19.0049 242.774L22.9961 227.536L30.2903 226.858L38.8223 234.454L45.4917 244.312L54.3131 262.806L59.7372 272.537L65.5995 280.903L70.5984 286.031L75.7543 289.492L81.0812 291.544L96.9205 293.319L130.557 288.96L171.171 274.47L218.422 249.45L248.001 225.749L252.336 221.333L254.044 225.895L255.179 230.694L255.6 235.918L255.156 241.776L252.49 259.853L251.305 279.411L250.546 285.669L249.214 291.536L247.457 296.277L245.378 300.202L243.068 303.427L240.613 306.082L230.088 315.326L225.113 321.165L220.644 329.472L219.083 333.66L217.766 338.371L216.895 343.518L216.674 348.986L217.395 354.708L218.968 359.336L221.092 362.945L223.489 365.64L230.121 369.433L237.116 370.085L321.604 355.738L324.149 355.725L326.55 356.644L328.76 359.056L330.033 361.621L333.555 370.693L338.549 377.741L344.336 381.324L350.419 382.524L376.841 379.273L395.85 372.747L403.185 367.911L422.028 349.891L427.259 343.443L428.562 341.439L428.221 346.492L429.219 346.559L429.579 341.226L429.58 341.213L429.602 339.786L430.393 338.119L442.508 333.126L457.371 334.164L472.17 340.492L508.088 367.015V365.772L472.67 339.618L457.609 333.179L442.344 332.112L431.032 336.774L431.472 335.848L432.879 330.884L433.176 328.984L433.63 325.183L433.929 323.381L434.755 320.438L435.852 317.954L437.11 315.818L438.404 313.961L442.142 309.837L446.067 307.009L454.31 302.876L462.036 296.928L469.086 287.446L475.089 274.879L478.236 264.466L492.612 272.822L505.945 284.085L508.088 285.363V284.199ZM273.127 185.17L280.475 180.46L298.605 175.812L311.164 187.589L317.873 192.553L336.253 200.854L359.168 216.53L363.159 218.342L367.216 219.361L371.352 219.442L383.629 217.399L387.58 217.595L393.652 220.431L399.294 225.84L410.464 239.056L410.136 240.249L401.657 259.113L400.587 262.648L399.763 266.466L399.278 270.539L399.23 274.835L399.88 280.508L401.182 285.971L402.949 290.756L405.042 294.465L410.267 297.514L415.893 297.086L420.908 297.702L424.996 303.537L426.284 308.306L427.211 313.671L427.843 319.303L428.537 330.268L428.538 330.288L428.665 335.72L428.633 337.763L427.247 338.334L427.629 339.259L428.616 338.852L428.606 339.538L426.449 342.854L421.292 349.212L402.559 367.126L395.406 371.842L376.615 378.293L350.456 381.512L344.708 380.378L339.248 376.997L334.442 370.216L330.949 361.217L329.593 358.485L327.128 355.794L324.332 354.724L321.517 354.738L237.078 369.077L230.43 368.457L224.127 364.853L221.904 362.354L219.881 358.917L218.374 354.482L217.677 348.944L217.891 343.622L218.744 338.59L220.035 333.97L221.557 329.886L225.944 321.733L230.802 316.029L241.312 306.799L243.844 304.06L246.23 300.729L248.371 296.687L250.175 291.822L251.532 285.84L252.301 279.502L253.486 259.956L256.151 241.887L256.603 235.915L256.169 230.538L255.002 225.604L253.268 220.969L252.36 221.309L256.361 217.234L261.193 211.135L264.81 205.294L267.192 200.486L267.199 200.472L268.368 197.698L269.19 194.987L270.449 189.394L271.39 187.074L272.191 185.989L273.127 185.17ZM411.299 239.791L413.696 241.898L417.001 243.882L420.389 245.121L453.78 250.25L477.347 263.949L474.154 274.517L468.226 286.928L461.317 296.22L453.776 302.025L445.548 306.151L441.472 309.087L437.62 313.337L436.267 315.278L434.96 317.497L433.812 320.099L432.952 323.163L432.64 325.042L432.186 328.839L432.184 328.856L431.901 330.669L430.533 335.495L429.656 337.341L429.639 337.348L429.665 335.726L429.664 335.716L429.537 330.245L429.537 330.235L428.839 319.216L428.201 313.53L427.261 308.09L425.916 303.107L421.471 296.764L415.916 296.081L410.502 296.493L405.78 293.738L403.859 290.334L402.141 285.681L400.867 280.334L400.23 274.784L400.277 270.604L400.75 266.631L401.556 262.899L402.595 259.464L411.08 240.588L411.299 239.791Z" stroke="black"/>
<path d="M508.088 65.6865V66.6896L507.819 66.7108L505.308 67.959L502.886 70.14L500.548 73.034L492.341 85.5513L492.331 85.5674L486.073 93.6812L479.289 100.02L472.258 104.667L465.065 107.874L457.778 109.904L413.236 113.428L398.72 118.837L374.993 134.83L366.778 138.341L357.776 139.434L331.191 134.393L331.377 133.411L357.81 138.423L366.516 137.365L374.513 133.948L398.259 117.941L413.018 112.442L457.603 108.915L464.725 106.931L471.776 103.788L478.668 99.2324L485.331 93.0061L491.516 84.987L499.739 72.4444L502.158 69.4499L504.741 67.1244L507.548 65.7292L508.088 65.6865Z" stroke="black"/>
<path d="M104.665 293.183L104.634 302.447L105.74 330.032L105.322 338.824L102.693 366.811L102.607 369.185L102.756 371.341L103.427 372.722L107.162 374.49L111.083 375.431L115.033 375.57L122.598 374.109L145.115 365.509L152.804 364.706L168.381 367.452L217.259 358.46L217.078 357.476L168.377 366.436L152.839 363.697L144.88 364.528L122.323 373.143L114.954 374.567L111.218 374.435L107.496 373.542L104.172 371.969L103.74 371.079L103.608 369.169L103.692 366.876L106.319 338.894L106.741 330.035L105.634 302.44L105.665 293.186L104.665 293.183Z" stroke="black"/>
</svg>
