<svg width="597" height="501" viewBox="0 0 597 501" fill="none" xmlns="http://www.w3.org/2000/svg">
<path d="M35.8491 465.866H35.4491V466.266H35.8491V465.866ZM35.8491 16.4331V16.0331H35.4491V16.4331H35.8491ZM543.088 16.4331H543.488V16.0331H543.088V16.4331ZM543.088 465.866V466.266H543.488V465.866H543.088ZM36.2491 465.866V16.4331H35.4491V465.866H36.2491ZM35.8491 16.8331H543.088V16.0331H35.8491V16.8331ZM542.688 16.4331V465.866H543.488V16.4331H542.688ZM543.088 465.466H35.8491V466.266H543.088V465.466Z" fill="black"/>
<path d="M264.802 207.785C265.465 207.785 266.101 207.521 266.57 207.053C267.039 206.584 267.302 205.948 267.302 205.285C267.302 204.622 267.039 203.986 266.57 203.517C266.101 203.048 265.465 202.785 264.802 202.785C264.139 202.785 263.503 203.048 263.035 203.517C262.566 203.986 262.302 204.622 262.302 205.285C262.302 205.948 262.566 206.584 263.035 207.053C263.503 207.521 264.139 207.785 264.802 207.785Z" stroke="#FF0000" stroke-width="5"/>
<path d="M333.699 202.193C334.362 202.193 334.998 201.929 335.467 201.46C335.936 200.991 336.199 200.356 336.199 199.693C336.199 199.03 335.936 198.394 335.467 197.925C334.998 197.456 334.362 197.193 333.699 197.193C333.036 197.193 332.4 197.456 331.932 197.925C331.463 198.394 331.199 199.03 331.199 199.693C331.199 200.356 331.463 200.991 331.932 201.46C332.4 201.929 333.036 202.193 333.699 202.193Z" stroke="#FF0000" stroke-width="5"/>
<path d="M292.543 218.852C293.206 218.852 293.842 218.588 294.31 218.119C294.779 217.651 295.043 217.015 295.043 216.352C295.043 215.689 294.779 215.053 294.31 214.584C293.842 214.115 293.206 213.852 292.543 213.852C291.88 213.852 291.244 214.115 290.775 214.584C290.306 215.053 290.043 215.689 290.043 216.352C290.043 217.015 290.306 217.651 290.775 218.119C291.244 218.588 291.88 218.852 292.543 218.852Z" stroke="#FF0000" stroke-width="5"/>
<path d="M278.547 244.156C279.21 244.156 279.846 243.893 280.315 243.424C280.784 242.955 281.047 242.319 281.047 241.656C281.047 240.993 280.784 240.357 280.315 239.889C279.846 239.42 279.21 239.156 278.547 239.156C277.884 239.156 277.248 239.42 276.779 239.889C276.31 240.357 276.047 240.993 276.047 241.656C276.047 242.319 276.31 242.955 276.779 243.424C277.248 243.893 277.884 244.156 278.547 244.156Z" stroke="#FF0000" stroke-width="5"/>
<path d="M326.217 207.641C326.88 207.641 327.516 207.377 327.985 206.909C328.453 206.44 328.717 205.804 328.717 205.141C328.717 204.478 328.453 203.842 327.985 203.373C327.516 202.904 326.88 202.641 326.217 202.641C325.554 202.641 324.918 202.904 324.449 203.373C323.98 203.842 323.717 204.478 323.717 205.141C323.717 205.804 323.98 206.44 324.449 206.909C324.918 207.377 325.554 207.641 326.217 207.641Z" stroke="#FF0000" stroke-width="5"/>
<path d="M336.261 184.085C336.924 184.085 337.56 183.822 338.029 183.353C338.498 182.884 338.761 182.248 338.761 181.585C338.761 180.922 338.498 180.286 338.029 179.818C337.56 179.349 336.924 179.085 336.261 179.085C335.598 179.085 334.962 179.349 334.494 179.818C334.025 180.286 333.761 180.922 333.761 181.585C333.761 182.248 334.025 182.884 334.494 183.353C334.962 183.822 335.598 184.085 336.261 184.085Z" stroke="#FF0000" stroke-width="5"/>
<path d="M323.77 114.271C324.433 114.271 325.069 114.007 325.538 113.538C326.006 113.069 326.27 112.434 326.27 111.771C326.27 111.108 326.006 110.472 325.538 110.003C325.069 109.534 324.433 109.271 323.77 109.271C323.107 109.271 322.471 109.534 322.002 110.003C321.533 110.472 321.27 111.108 321.27 111.771C321.27 112.434 321.533 113.069 322.002 113.538C322.471 114.007 323.107 114.271 323.77 114.271Z" stroke="#FF0000" stroke-width="5"/>
<path d="M354.936 165.225C355.599 165.225 356.235 164.961 356.704 164.492C357.173 164.024 357.436 163.388 357.436 162.725C357.436 162.062 357.173 161.426 356.704 160.957C356.235 160.488 355.599 160.225 354.936 160.225C354.273 160.225 353.637 160.488 353.168 160.957C352.7 161.426 352.436 162.062 352.436 162.725C352.436 163.388 352.7 164.024 353.168 164.492C353.637 164.961 354.273 165.225 354.936 165.225Z" stroke="#FF0000" stroke-width="5"/>
<path d="M307.634 178.454C308.297 178.454 308.933 178.19 309.402 177.721C309.87 177.253 310.134 176.617 310.134 175.954C310.134 175.291 309.87 174.655 309.402 174.186C308.933 173.717 308.297 173.454 307.634 173.454C306.971 173.454 306.335 173.717 305.866 174.186C305.397 174.655 305.134 175.291 305.134 175.954C305.134 176.617 305.397 177.253 305.866 177.721C306.335 178.19 306.971 178.454 307.634 178.454Z" stroke="#FF0000" stroke-width="5"/>
<path d="M315.213 216.511C315.876 216.511 316.512 216.248 316.981 215.779C317.45 215.31 317.713 214.674 317.713 214.011C317.713 213.348 317.45 212.712 316.981 212.243C316.512 211.775 315.876 211.511 315.213 211.511C314.55 211.511 313.914 211.775 313.445 212.243C312.977 212.712 312.713 213.348 312.713 214.011C312.713 214.674 312.977 215.31 313.445 215.779C313.914 216.248 314.55 216.511 315.213 216.511Z" stroke="#FF0000" stroke-width="5"/>
<path d="M273.433 175.479C274.096 175.479 274.732 175.216 275.201 174.747C275.67 174.278 275.933 173.642 275.933 172.979C275.933 172.316 275.67 171.68 275.201 171.211C274.732 170.742 274.096 170.479 273.433 170.479C272.77 170.479 272.134 170.742 271.665 171.211C271.196 171.68 270.933 172.316 270.933 172.979C270.933 173.642 271.196 174.278 271.665 174.747C272.134 175.216 272.77 175.479 273.433 175.479Z" stroke="#FF0000" stroke-width="5"/>
<path d="M282.519 238.656C283.182 238.656 283.818 238.392 284.287 237.924C284.756 237.455 285.019 236.819 285.019 236.156C285.019 235.493 284.756 234.857 284.287 234.388C283.818 233.919 283.182 233.656 282.519 233.656C281.856 233.656 281.221 233.919 280.752 234.388C280.283 234.857 280.019 235.493 280.019 236.156C280.019 236.819 280.283 237.455 280.752 237.924C281.221 238.392 281.856 238.656 282.519 238.656Z" stroke="#FF0000" stroke-width="5"/>
<path d="M280.652 229.919C281.315 229.919 281.951 229.656 282.42 229.187C282.889 228.718 283.152 228.082 283.152 227.419C283.152 226.756 282.889 226.12 282.42 225.651C281.951 225.183 281.315 224.919 280.652 224.919C279.989 224.919 279.353 225.183 278.884 225.651C278.416 226.12 278.152 226.756 278.152 227.419C278.152 228.082 278.416 228.718 278.884 229.187C279.353 229.656 279.989 229.919 280.652 229.919Z" stroke="#FF0000" stroke-width="5"/>
<path d="M295.231 181.461C295.894 181.461 296.53 181.198 296.999 180.729C297.467 180.26 297.731 179.624 297.731 178.961C297.731 178.298 297.467 177.662 296.999 177.193C296.53 176.725 295.894 176.461 295.231 176.461C294.568 176.461 293.932 176.725 293.463 177.193C292.994 177.662 292.731 178.298 292.731 178.961C292.731 179.624 292.994 180.26 293.463 180.729C293.932 181.198 294.568 181.461 295.231 181.461Z" stroke="#FF0000" stroke-width="5"/>
<path d="M296.335 203.285C296.998 203.285 297.634 203.022 298.102 202.553C298.571 202.084 298.835 201.448 298.835 200.785C298.835 200.122 298.571 199.486 298.102 199.017C297.634 198.549 296.998 198.285 296.335 198.285C295.672 198.285 295.036 198.549 294.567 199.017C294.098 199.486 293.835 200.122 293.835 200.785C293.835 201.448 294.098 202.084 294.567 202.553C295.036 203.022 295.672 203.285 296.335 203.285Z" stroke="#FF0000" stroke-width="5"/>
<path d="M365.84 161.562C366.503 161.562 367.139 161.298 367.608 160.83C368.077 160.361 368.34 159.725 368.34 159.062C368.34 158.399 368.077 157.763 367.608 157.294C367.139 156.825 366.503 156.562 365.84 156.562C365.177 156.562 364.541 156.825 364.072 157.294C363.604 157.763 363.34 158.399 363.34 159.062C363.34 159.725 363.604 160.361 364.072 160.83C364.541 161.298 365.177 161.562 365.84 161.562Z" stroke="#FF0000" stroke-width="5"/>
<path d="M282.323 179.581C282.986 179.581 283.622 179.317 284.09 178.848C284.559 178.38 284.823 177.744 284.823 177.081C284.823 176.418 284.559 175.782 284.09 175.313C283.622 174.844 282.986 174.581 282.323 174.581C281.66 174.581 281.024 174.844 280.555 175.313C280.086 175.782 279.823 176.418 279.823 177.081C279.823 177.744 280.086 178.38 280.555 178.848C281.024 179.317 281.66 179.581 282.323 179.581Z" stroke="#FF0000" stroke-width="5"/>
<path d="M252.924 57.3338C253.587 57.3338 254.223 57.0704 254.692 56.6016C255.161 56.1328 255.424 55.4968 255.424 54.8338C255.424 54.1708 255.161 53.5349 254.692 53.066C254.223 52.5972 253.587 52.3338 252.924 52.3338C252.261 52.3338 251.625 52.5972 251.157 53.066C250.688 53.5349 250.424 54.1708 250.424 54.8338C250.424 55.4968 250.688 56.1328 251.157 56.6016C251.625 57.0704 252.261 57.3338 252.924 57.3338Z" stroke="#FF0000" stroke-width="5"/>
<path d="M521.735 279.306C522.398 279.306 523.034 279.042 523.503 278.573C523.971 278.105 524.235 277.469 524.235 276.806C524.235 276.143 523.971 275.507 523.503 275.038C523.034 274.569 522.398 274.306 521.735 274.306C521.072 274.306 520.436 274.569 519.967 275.038C519.498 275.507 519.235 276.143 519.235 276.806C519.235 277.469 519.498 278.105 519.967 278.573C520.436 279.042 521.072 279.306 521.735 279.306Z" stroke="#FF0000" stroke-width="5"/>
<path d="M459.563 382.531C460.226 382.531 460.862 382.268 461.33 381.799C461.799 381.33 462.063 380.694 462.063 380.031C462.063 379.368 461.799 378.733 461.33 378.264C460.862 377.795 460.226 377.531 459.563 377.531C458.9 377.531 458.264 377.795 457.795 378.264C457.326 378.733 457.063 379.368 457.063 380.031C457.063 380.694 457.326 381.33 457.795 381.799C458.264 382.268 458.9 382.531 459.563 382.531Z" stroke="#FF0000" stroke-width="5"/>
<path d="M104.669 289.218C105.332 289.218 105.968 288.955 106.436 288.486C106.905 288.017 107.169 287.381 107.169 286.718C107.169 286.055 106.905 285.419 106.436 284.951C105.968 284.482 105.332 284.218 104.669 284.218C104.006 284.218 103.37 284.482 102.901 284.951C102.432 285.419 102.169 286.055 102.169 286.718C102.169 287.381 102.432 288.017 102.901 288.486C103.37 288.955 104.006 289.218 104.669 289.218Z" stroke="#FF0000" stroke-width="5"/>
<path d="M99.5849 281.583C100.248 281.583 100.884 281.319 101.353 280.85C101.821 280.382 102.085 279.746 102.085 279.083C102.085 278.42 101.821 277.784 101.353 277.315C100.884 276.846 100.248 276.583 99.5849 276.583C98.9218 276.583 98.2859 276.846 97.8171 277.315C97.3483 277.784 97.0849 278.42 97.0849 279.083C97.0849 279.746 97.3483 280.382 97.8171 280.85C98.2859 281.319 98.9218 281.583 99.5849 281.583Z" stroke="#FF0000" stroke-width="5"/>
<path d="M57.0225 257.12C57.6855 257.12 58.3214 256.857 58.7902 256.388C59.259 255.919 59.5225 255.283 59.5225 254.62C59.5225 253.957 59.259 253.321 58.7902 252.852C58.3214 252.383 57.6855 252.12 57.0225 252.12C56.3595 252.12 55.7235 252.383 55.2547 252.852C54.7859 253.321 54.5225 253.957 54.5225 254.62C54.5225 255.283 54.7859 255.919 55.2547 256.388C55.7235 256.857 56.3595 257.12 57.0225 257.12Z" stroke="#FF0000" stroke-width="5"/>
<path d="M139.116 388.568C139.779 388.568 140.415 388.304 140.884 387.835C141.353 387.367 141.616 386.731 141.616 386.068C141.616 385.405 141.353 384.769 140.884 384.3C140.415 383.831 139.779 383.568 139.116 383.568C138.453 383.568 137.817 383.831 137.348 384.3C136.88 384.769 136.616 385.405 136.616 386.068C136.616 386.731 136.88 387.367 137.348 387.835C137.817 388.304 138.453 388.568 139.116 388.568Z" stroke="#FF0000" stroke-width="5"/>
<path d="M70.6916 229.682C71.3546 229.682 71.9906 229.419 72.4594 228.95C72.9282 228.481 73.1916 227.846 73.1916 227.182C73.1916 226.519 72.9282 225.884 72.4594 225.415C71.9906 224.946 71.3546 224.682 70.6916 224.682C70.0286 224.682 69.3927 224.946 68.9239 225.415C68.4551 225.884 68.1916 226.519 68.1916 227.182C68.1916 227.846 68.4551 228.481 68.9239 228.95C69.3927 229.419 70.0286 229.682 70.6916 229.682Z" stroke="#FF0000" stroke-width="5"/>
</svg>
