<svg width="597" height="501" viewBox="0 0 597 501" fill="none" xmlns="http://www.w3.org/2000/svg">
<path d="M35.8491 465.866H35.4491V466.266H35.8491V465.866ZM35.8491 16.4331V16.0331H35.4491V16.4331H35.8491ZM543.088 16.4331H543.488V16.0331H543.088V16.4331ZM543.088 465.866V466.266H543.488V465.866H543.088ZM36.2491 465.866V16.4331H35.4491V465.866H36.2491ZM35.8491 16.8331H543.088V16.0331H35.8491V16.8331ZM542.688 16.4331V465.866H543.488V16.4331H542.688ZM543.088 465.466H35.8491V466.266H543.088V465.466Z" fill="black"/>
<path d="M459.987 16.4331H457.87L457.473 17.5747L456.022 20.2723L452.746 24.5752L449.791 27.6451L448.393 28.6092L446.982 29.1296L443.684 29.2467L440.328 28.4556L414.692 16.4331H409.981L439.667 30.3546L443.487 31.255L447.373 31.117L449.322 30.3985L451.092 29.1771L454.267 25.8789L457.708 21.3586L459.31 18.3818L459.987 16.4331Z" stroke="black" stroke-width="2"/>
<path d="M391.577 16.4331H387.677L387.317 16.6479L381.782 30.7011L381.387 33.2974L381.101 35.8692L380.788 41.0935L380.768 45.8637L379.187 46.0231L374.787 45.2983L359.759 39.9926L355.613 39.8749L351.514 41.0073L347.587 43.6577L345.222 46.1357L329.618 67.5099L325.283 74.9677L321.505 83.5949L320.468 88.4912L318.798 75.4569L312.95 66.8579L305.277 63.3824L273.114 64.962L269.851 64.3475L266.746 62.6542L265.25 61.0736L263.784 58.6856L262.527 55.6597L261.632 52.1652L261.292 48.1941L261.623 44.4121L262.455 40.9301L263.605 37.8864L267.097 31.6758L271.153 26.8328L275.45 23.3957L279.551 21.4399L301.206 22.3353L312.197 18.4446L313.315 16.4331H311.027L310.816 16.8117L300.903 20.321L279.137 19.4211L274.381 21.6898L269.748 25.3956L265.444 30.5339L261.788 37.038L260.539 40.3419L259.644 44.0907L259.284 48.192L259.653 52.5011L260.625 56.2948L261.997 59.5981L263.655 62.2973L265.511 64.2585L269.17 66.2545L272.976 66.9711L304.892 65.4037L311.613 68.4477L316.875 76.1858L318.801 91.2167L319.921 91.0732L319.705 92.0891L319.933 100.76L321.781 108.688L324.864 114.984L329.054 119.833L333.581 123.216L353.266 131.032L354.775 132.666L356.2 135.274L357.539 138.874L359.086 144.027L360.47 149.935L361.247 156.151L360.994 162.265L359.938 166.295L358.358 169.32L356.49 171.616L354.586 173.401L339.97 184.071L341.149 185.687L355.864 174.944L357.956 172.983L360.037 170.425L361.816 167.021L362.984 162.563L363.252 156.068L362.441 149.582L361.02 143.511L359.436 138.237L358.025 134.441L356.411 131.49L354.427 129.341L334.565 121.455L330.425 118.361L326.546 113.872L323.677 108.013L321.927 100.504L321.711 92.2726L323.42 84.2097L327.069 75.8744L331.295 68.605L346.76 47.4213L348.885 45.1947L352.362 42.8479L355.856 41.8826L359.388 41.9829L374.288 47.243L379.124 48.0397L382.761 47.6728L382.787 41.1574L383.095 36.0396L383.37 33.5587L383.726 31.2246L388.928 18.0153L391.577 16.4331Z" stroke="black" stroke-width="2"/>
<path fill-rule="evenodd" clip-rule="evenodd" d="M543.088 299.05L541.819 298.293L528.479 287.024L514.126 278.681L515.17 275.227L513.256 274.648L512.349 277.648L489.288 264.244L455.765 259.094L452.65 257.955L449.584 256.114L447.158 253.982L448.609 248.701L446.681 248.171L445.554 252.272L435.389 240.245L429.511 234.609L422.948 231.545L418.542 231.326L406.243 233.373L402.416 233.297L398.656 232.353L394.907 230.651L371.991 214.975L353.636 206.685L347.126 201.868L335.759 191.209L347.562 188.183L347.066 186.246L314.869 194.5L307.223 199.401L306.081 200.4L305.071 201.768L304.012 204.378L302.739 210.038L301.955 212.621L300.835 215.281L298.497 219.998L294.963 225.705L290.235 231.673L281.993 240.067L252.594 263.624L205.565 288.527L165.205 302.927L131.908 307.241L116.44 305.508L111.451 303.586L106.564 300.306L101.758 295.376L96.0099 287.173L90.6464 277.55L81.7972 258.998L74.9596 248.891L65.8007 240.737L56.8113 241.573L52.5538 257.827L54.4885 258.334L58.3911 243.434L65.1201 242.809L73.4431 250.219L80.0566 259.994L88.8686 278.469L94.3129 288.236L100.213 296.656L105.277 301.85L110.522 305.372L115.962 307.467L131.925 309.255L165.675 304.882L206.373 290.362L253.697 265.303L283.337 241.553L287.143 237.676L288.564 241.474L289.683 246.205L290.098 251.352L289.659 257.154L286.992 275.234L285.806 294.799L285.052 301.016L283.734 306.827L281.999 311.506L279.952 315.371L277.679 318.544L275.263 321.156L264.731 330.407L259.698 336.315L255.188 344.699L253.607 348.938L252.278 353.695L251.396 358.899L251.173 364.441L251.905 370.254L253.511 374.978L255.686 378.674L258.17 381.467L264.967 385.353L272.135 386.022L356.648 371.671L359.058 371.658L361.261 372.501L363.343 374.775L364.575 377.256L368.111 386.364L373.2 393.546L379.151 397.23L385.401 398.463L411.954 395.195L431.072 388.632L438.498 383.736L457.397 365.664L462.664 359.171L462.934 358.756L462.722 361.891L464.717 362.026L465.079 356.667L465.1 355.335L465.762 353.941L477.591 349.066L492.251 350.09L506.92 356.362L543.088 383.069V380.583L507.92 354.614L492.728 348.119L477.262 347.038L466.995 351.27L468.369 346.424L468.671 344.485L469.125 340.688L469.418 338.923L470.227 336.04L471.297 333.616L472.531 331.521L473.796 329.706L477.477 325.645L481.327 322.871L489.577 318.734L497.396 312.715L504.517 303.139L510.557 290.493L513.532 280.649L527.323 288.665L540.653 299.926L543.088 301.378V299.05ZM308.428 201.004L315.677 196.357L333.463 191.797L345.843 203.407L352.618 208.42L371.007 216.725L393.922 232.4L397.994 234.249L402.15 235.293L406.389 235.376L418.658 233.334L422.457 233.523L428.365 236.282L433.93 241.616L444.912 254.61L444.664 255.512L436.187 274.371L435.102 277.956L434.269 281.816L433.778 285.94L433.729 290.294L434.387 296.027L435.703 301.549L437.493 306.4L439.674 310.261L445.149 313.457L450.881 313.021L455.626 313.604L459.537 319.185L460.795 323.846L461.716 329.175L462.345 334.78L463.038 345.733L463.164 351.165L463.138 352.859L462.057 353.305L462.819 355.154L462.916 355.114L461.044 357.993L455.923 364.306L437.246 382.166L430.183 386.823L411.502 393.236L385.474 396.439L379.894 395.338L374.598 392.058L369.886 385.41L366.407 376.448L365.009 373.632L362.417 370.802L359.423 369.656L356.474 369.672L272.059 384.007L265.584 383.402L259.446 379.893L257.31 377.491L255.338 374.141L253.864 369.803L253.178 364.355L253.39 359.107L254.232 354.132L255.51 349.558L257.014 345.526L261.359 337.45L266.159 331.814L276.661 322.59L279.233 319.81L281.656 316.426L283.828 312.325L285.655 307.398L287.026 301.359L287.799 294.98L288.983 275.441L291.648 257.376L292.104 251.347L291.665 245.893L290.482 240.891L288.736 236.227L288.468 236.328L291.736 232.999L296.603 226.856L300.248 220.97L302.654 216.113L303.839 213.302L304.674 210.548L305.927 204.977L306.829 202.753L307.561 201.763L308.428 201.004ZM446.551 256.191L446.569 256.127L448.4 257.736L451.784 259.768L455.264 261.041L488.61 266.163L511.754 279.616L508.686 289.769L502.796 302.101L495.957 311.299L488.509 317.032L480.288 321.155L476.137 324.146L472.228 328.458L470.846 330.44L469.515 332.702L468.34 335.362L467.463 338.487L467.145 340.405L466.69 344.212L466.411 345.995L465.148 350.451L465.036 345.646L464.338 334.605L463.697 328.893L462.75 323.415L461.376 318.325L456.753 311.728L450.928 311.012L445.619 311.416L441.149 308.807L439.314 305.556L437.62 300.969L436.36 295.68L435.731 290.191L435.777 286.07L436.244 282.146L437.04 278.457L438.064 275.073L446.551 256.191Z" stroke="black" stroke-width="2"/>
<path d="M543.088 80.618V82.6242L542.955 82.6347L540.592 83.8093L538.25 85.9179L535.953 88.7622L527.738 101.291L521.444 109.452L514.6 115.847L507.499 120.54L500.235 123.779L492.866 125.832L448.345 129.354L433.95 134.717L410.233 150.704L401.909 154.261L392.759 155.373L366.098 150.317L366.471 148.352L392.827 153.35L401.385 152.31L409.273 148.939L433.029 132.926L447.909 127.382L492.516 123.853L499.556 121.892L506.534 118.781L513.357 114.271L519.96 108.102L526.108 100.13L534.335 87.5826L536.794 84.5379L539.457 82.1401L542.412 80.6713L543.088 80.618Z" stroke="black" stroke-width="2"/>
<path d="M139.165 308.614L139.134 317.89L140.239 345.463L139.823 354.221L137.194 382.211L137.106 384.627L137.264 386.905L138.054 388.532L141.995 390.397L146.015 391.362L150.072 391.505L157.736 390.024L180.232 381.432L187.786 380.644L203.383 383.393L252.349 374.384L251.987 372.417L203.375 381.361L187.857 378.626L179.763 379.47L157.185 388.094L149.915 389.498L146.286 389.37L142.664 388.501L139.545 387.025L139.232 386.38L139.109 384.594L139.191 382.341L141.818 354.363L142.241 345.47L141.134 317.853L141.165 308.621L139.165 308.614Z" stroke="black" stroke-width="2"/>
</svg>
