<svg xmlns:inkscape="http://www.inkscape.org/namespaces/inkscape" xmlns:sodipodi="http://sodipodi.sourceforge.net/DTD/sodipodi-0.dtd" xmlns:xlink="http://www.w3.org/1999/xlink" xmlns="http://www.w3.org/2000/svg" xmlns:svg="http://www.w3.org/2000/svg" xmlns:rdf="http://www.w3.org/1999/02/22-rdf-syntax-ns#" xmlns:cc="http://creativecommons.org/ns#" xmlns:dc="http://purl.org/dc/elements/1.1/" width="841.889764pt" height="595.275591pt" viewBox="0 0 841.889764 595.275591" version="1.1" id="svg9771" sodipodi:docname="inkis2.tar" inkscape:version="1.1.2 (b8e25be8, 2022-02-05)">
  <sodipodi:namedview id="namedview9773" pagecolor="#ffffff" bordercolor="#111111" borderopacity="1" inkscape:pageshadow="0" inkscape:pageopacity="0" inkscape:pagecheckerboard="1" inkscape:document-units="pt" showgrid="false" inkscape:zoom="0.48545287" inkscape:cx="281.18074" inkscape:cy="307.95986" inkscape:window-width="1680" inkscape:window-height="969" inkscape:window-x="0" inkscape:window-y="25" inkscape:window-maximized="0" inkscape:current-layer="layer3"/>
  <metadata id="metadata2">
    <rdf:RDF>
      <cc:Work>
        <dc:type rdf:resource="http://purl.org/dc/dcmitype/StillImage"/>
        <dc:date>2022-02-11T10:36:30.482636</dc:date>
        <dc:format>image/svg+xml</dc:format>
        <dc:creator>
          <cc:Agent>
            <dc:title>Matplotlib v3.5.1, https://matplotlib.org/</dc:title>
          </cc:Agent>
        </dc:creator>
      </cc:Work>
    </rdf:RDF>
  </metadata>
  <defs id="defs6">
    <style type="text/css" id="style4">*{stroke-linejoin: round; stroke-linecap: butt}</style>
  </defs>
  <g inkscape:label="lol" inkscape:groupmode="lol" id="lol">
    <g inkscape:label="axes_1" inkscape:groupmode="axes_1" id="axes_1"/>
  </g>
  <defs id="defs9769">
    <clipPath id="pb9a94d4c1e">
      <path d="M 84.162836 595.275591  L 84.162836 0  L 757.726928 0  L 757.726928 595.275591  L 84.162836 595.275591  " id="path9766"/>
    </clipPath>
  </defs>
<g inkscape:groupmode="layer" id="layer1" inkscape:label="F.SilkS" style="display:inline">
    <path d="m 242.70743,159.60595 0.42878,0.37595 2.39628,-0.83325 0.48623,0.0406 0.38365,0.63003 -0.14361,0.16765 -0.18465,0.96 0.26466,3.00001 0.16618,0.81676 0.30364,1.11574 0.39185,1.14068 0.41853,0.88185 0.4411,0.4003 0.98477,0.10133 0.49648,0.28878 0.13336,0.27356 0.33851,0.94713 0.16824,0.35954 0.9068,1.4276 0.48829,0.95643 0.21336,0.78922 -0.9027,2.35636 -2.06802,1.77874 -2.4291,0.69707 -1.97159,-0.88905 -0.40622,-0.75791 -1.0217,-2.35068 -0.49854,-0.83453 -0.75909,-0.54636 -1.81362,-0.50598 -0.954,-0.53642 -7.14164,-8.9403 -0.22978,-0.55834 0.54983,-1.70103 1.29251,-1.4631 2.32858,-1.59088 2.91738,-0.78812 1.49152,0.12204 1.35816,0.66608 0.44314,0.56935 z" clip-path="url(#pb9a94d4c1e)" style="fill:#ffffff" id="path29318"/>
    <path d="m 413.48919,233.97743 -0.1949,0.50116 -0.74063,-0.14885 -2.73068,-1.44421 -0.6955,-0.74469 0.34057,-1.22168 1.00939,-1.05818 0.5765,-1.47608 -0.96631,-2.44674 -1.17352,-1.49285 -0.11489,-0.88111 0.96836,-0.73195 0.58471,-0.11952 4.06013,0.0697 0.82884,0.85643 -0.0205,2.29928 -0.1231,0.20894 -0.42263,0.4079 -0.0985,0.15916 -0.10052,1.57131 -0.002,1.17301 -0.11079,0.95399 -0.42879,0.96363 -0.53547,0.60088 -0.10463,0.16386 0.0431,0.42698 0.11489,0.68999 z" clip-path="url(#pb9a94d4c1e)" style="fill:#ffffff" id="path29315"/>
    <path d="m 417.66216,311.67427 0.74063,0.91503 0.91296,0.70667 1.34996,0.01 1.09556,-0.65826 0.93143,-0.87144 1.03811,-0.47939 1.41766,0.49876 1.2802,0.75525 0.27696,0.60505 0.84321,2.27877 0.48623,0.88977 0.25235,0.25625 3.05895,1.77383 0.72216,1.12565 -0.5088,2.12944 -0.37339,0.64676 -0.18875,0.41018 -0.0759,0.45839 0.318,1.775 0.72832,0.83893 0.7632,0.48204 0.42878,0.66991 -0.0533,1.06483 -0.86577,1.91193 -0.35903,1.53546 -0.0185,0.88532 0.0944,2.05838 -0.0759,0.81721 -0.82475,2.12377 -1.37663,2.64551 -1.55922,2.30763 -1.37047,1.16038 -0.90065,-0.13424 -2.17881,-1.13165 -0.76115,-0.22062 -2.14392,1.67347 -0.42468,0.56083 0.08,1.1501 0.65241,0.53657 0.77345,0.45506 0.42058,0.84767 -0.11078,0.77564 -0.39186,0.88074 -0.61959,0.81351 -0.80422,0.53106 -0.8945,-0.0287 -0.72217,-0.53106 -0.55393,-0.62209 -0.38981,-0.31108 -0.11078,0.14837 -1.09966,0.57426 -0.38981,0.0239 -0.67293,-0.64605 -0.28722,-0.47386 -0.32415,-1.13466 -0.46367,-1.05363 -0.61138,-0.86233 -0.79807,-0.26833 -1.01144,0.68994 -0.60728,1.11125 -0.42468,1.34543 -0.47392,1.23481 -0.73858,0.80381 -1.37252,0.50227 -1.20635,-0.0143 -1.12017,-0.63623 -1.10787,-1.34463 -0.3816,-0.82812 -0.76114,-2.11675 -0.45751,-0.80493 -0.75294,-0.49839 -1.6618,-0.34508 -0.79192,-0.65193 -0.36313,-0.63288 -0.30774,-0.73852 -0.28518,-0.87302 -0.63189,0.0384 -1.17762,0.79627 -0.43905,-0.0767 -1.33149,-4.52134 -0.27081,-1.48932 0.13746,-1.76407 0.42263,-1.60148 0.46366,-1.42422 0.2585,-1.21783 -0.0636,-2.26842 -0.517,-3.10425 0.26055,-1.39886 0.71191,-0.52112 2.50501,0.14477 1.27199,-0.38605 0.36519,-0.34749 0.20926,-0.37648 0.16003,-0.39584 0.22773,-0.37657 1.07709,-1.03822 0.23799,-0.64243 -0.0369,-1.34322 0.18054,-3.81533 1.32944,-1.96022 2.09674,-0.77475 2.48244,-0.24214 6.09327,0.74575 0.3816,-0.13558 0.83295,-0.56658 0.3816,-0.0436 z" clip-path="url(#pb9a94d4c1e)" style="fill:#ffffff" id="path29312"/>
    <path d="m 365.98223,334.21184 -0.47598,0.82205 -0.53752,0.68729 -0.38365,0.93216 -0.0862,1.18162 0.30569,1.11398 -0.21952,0.71044 -0.24619,0.20158 -1.03401,0.54709 -1.92646,2.24495 -0.79397,0.58496 -0.16207,0.163 -0.15182,0.93471 -0.0451,2.76417 -0.12309,1.54632 -0.26671,1.27765 -0.31595,0.96628 -0.26466,0.5978 -0.11694,0.14345 0.29954,1.3147 0.96835,2.18837 0.0164,0.98379 -0.53958,0.94531 -0.7037,0.11456 -1.04221,-0.0382 -1.56538,0.45822 -1.13043,0.84944 -2.39012,2.88068 -1.16326,0.46715 -2.45577,0.34793 -1.19404,0.67193 -0.34261,0.49552 -0.59497,1.30512 -0.34057,0.42858 -0.45135,0.0857 -1.00118,-0.24285 -0.46777,0.15714 -1.89568,2.98414 -1.32944,1.19858 -1.58794,-0.4613 -0.72832,-1.98866 -0.25235,-2.75191 -0.48008,-2.249 -1.4156,-0.44808 -0.96426,0.74359 -0.26055,1.40092 0.0964,1.5622 0.17644,1.38057 -0.0123,0.86613 -1.09145,1.9503 -1.05248,0.90339 -0.94784,0.20917 -0.75704,-0.0903 -0.48623,-0.27098 -1.43818,-1.95936 -1.57153,-1.63689 -0.34467,-0.59976 -0.2585,-1.17131 -0.37544,-2.98734 -0.33031,-1.05362 -0.35698,-0.41963 -0.73447,0.0715 -0.8309,-0.39584 -0.68934,-0.63916 -0.49239,-0.74427 -0.41853,-0.84944 -1.05862,1.3838 -0.54163,2.27004 -0.70165,2.12074 -1.54486,0.9384 -3.05689,0.17621 -1.74386,-0.39531 -0.96836,-1.27675 0.35288,-1.90178 1.35406,-1.6644 1.70283,-1.1928 1.39919,-0.45815 0.59702,0.27681 0.43084,0.52014 0.3939,0.31491 0.50265,-0.36739 0.48828,-1.23133 -0.88219,-1.91952 0.0739,-2.06884 0.27286,-0.4015 1.64744,-1.09004 2.76556,-4.1628 1.94903,-2.26551 2.5563,-2.26233 4.0909,-2.1104 2.09674,-0.42225 3.20461,0.98836 1.27199,-0.27825 0.64831,-2.20762 -0.0451,-0.44171 -0.10874,-0.509 -0.0267,-0.59554 0.18054,-0.71095 0.52521,-0.54773 2.25677,-1.38898 1.06683,-0.31248 0.6996,0.1923 0.65241,0.34611 0.69549,0.0769 0.8309,-0.61532 0.99503,-2.0391 1.13454,-5.46969 0.76114,-2.26092 0.27902,-0.33277 0.66883,-0.23151 0.32825,-0.19293 2.20753,-3.03549 0.67703,-0.72914 0.67293,-0.34773 4.27554,-1.14005 2.78608,-0.13528 2.44962,1.24635 1.35406,3.38877 0.32005,3.76588 -0.37339,0.86249 -1.16942,1.05972 -0.37955,1.08344 0.0492,0.96756 0.72832,1.14048 0.18465,0.89958 z" clip-path="url(#pb9a94d4c1e)" style="fill:#ffffff" id="path29309"/>
    <path d="m 335.74567,337.40271 -2.0393,0.20173 -1.42176,-1.39312 0.5724,-3.30751 0.29133,-0.51951 0.33646,-0.41375 0.34057,-0.34162 0.31594,-0.22617 0.74063,-0.6834 0.40417,-0.21179 0.45751,0.13959 0.41237,0.81335 0.47392,1.5395 0.35493,1.68778 0.0451,1.216 z" clip-path="url(#pb9a94d4c1e)" style="fill:#ffffff" id="path29306"/>
    <path d="m 465.52611,332.90381 0.004,2.07721 -0.75909,1.13419 -1.18583,0.82637 -1.25969,1.21033 -0.31594,0.68181 -0.62369,1.79506 -0.34262,0.52776 -1.5387,0.51808 -1.63103,-0.12471 -1.32944,-0.50851 -0.63189,-0.63335 -0.0574,-1.82879 0.39391,-2.03162 0.63189,-1.80216 0.6319,-1.09141 0.43083,-0.13465 2.45988,0.13465 3.67442,-0.89937 0.81244,0.14911 0.14771,-0.14911 0.15388,-0.34154 0.15797,-0.0962 z" clip-path="url(#pb9a94d4c1e)" style="fill:#ffffff" id="path29303"/>
    <path d="m 614.53829,344.14875 -1.55922,2.54404 -2.33678,-0.79988 -1.58999,-2.78919 0.67908,-3.44434 1.42587,-0.73444 1.7254,0.65764 1.35406,1.81862 z" clip-path="url(#pb9a94d4c1e)" style="fill:#ffffff" id="path29300"/>
    <path d="m 375.4114,450.111 -0.57034,0.0695 -0.80833,-0.43122 -0.80629,-0.83016 -0.56008,-1.09484 -0.0698,-1.27623 0.24619,-0.58492 0.43494,-0.27857 1.56333,-0.58044 0.95194,-0.65021 0.59907,-0.21366 0.68934,0.1347 1.60435,2.25665 0.31595,0.64048 -0.14771,0.95121 -0.35698,0.23196 h -0.58266 l -0.83295,0.26441 z" clip-path="url(#pb9a94d4c1e)" style="fill:#ffffff" id="path29297"/>
    <path d="m 520.35731,327.90719 2.74094,2.55224 1.07094,3.94472 -0.10053,1.23533 -0.21542,0.7352 -1.06683,1.61396 -0.73448,0.48979 -2.90712,3.42643 -0.42468,0.74814 0.517,1.80248 1.14069,0.2492 1.27815,-0.77162 0.91091,-1.28006 0.65447,-3.13761 0.31184,-0.60485 0.52316,0.10561 0.60112,0.55684 1.11607,1.58355 1.4033,2.97304 0.19696,0.0192 0.0554,1.12135 -0.0862,0.51742 -0.23388,0.44548 -0.37545,0.90515 -0.58265,1.85259 -0.0575,0.40198 1.00324,0.47368 1.49152,-0.81823 2.6322,-2.65711 0.22773,-0.43109 0.44725,-1.27445 0.28518,-0.53677 0.31799,-0.27321 0.636,-0.19653 0.32621,-0.27805 1.58794,-2.54667 0.33441,-0.44624 0.75499,-0.41751 1.81362,-0.33116 0.39391,-0.3552 0.60522,-0.88337 0.28312,-0.2689 0.39186,-0.048 0.82064,0.15847 0.38776,-0.11045 0.51085,-0.52346 1.73155,-2.46478 0.3857,-0.24995 0.85347,-0.24997 0.36519,-0.2596 0.67087,-1.22138 0.28928,-0.27896 1.60846,-0.56762 1.5982,-0.18763 1.32328,0.46183 2.84353,2.55328 2.61784,-0.41819 1.22686,0.41819 0.29544,0.50464 0.6483,1.90251 0.33236,0.58109 0.3775,0.0672 0.88219,-0.24491 0.34672,0.17768 0.35698,0.88345 0.25645,1.66059 0.34672,0.46059 1.2166,0.0863 2.81891,-0.89243 1.4115,0.0576 1.28431,0.74849 0.43904,0.93537 0.70986,2.68945 0.4534,0.86244 0.97246,0.56525 1.12223,0.24907 1.74592,-0.0671 0.61753,-0.41672 1.20634,-1.71056 0.74268,-0.86282 0.22773,-0.0671 0.50675,0.14383 0.22978,-0.0767 1.89979,-2.54188 0.66266,-0.45103 2.41064,0.50381 0.46982,0.24468 0.34467,1.09363 -0.94169,1.89858 -0.0431,1.49505 0.35698,1.27886 0.20721,-0.24423 0.32415,-0.76157 0.71396,-0.27306 0.40211,0.31617 0.78987,1.00579 0.41237,0.17239 0.53342,-0.30647 0.58676,-0.59868 0.75089,-0.51255 1.01349,-0.0767 0.32005,0.19162 1.2802,1.30273 0.49239,0.25857 1.01144,0.24897 0.42058,0.25373 0.28722,0.41647 0.63395,1.26344 0.35903,0.55977 2.01468,1.89388 1.00118,1.72551 0.19285,2.35971 -0.34467,0.14325 -1.34995,-0.0573 -0.22978,-0.086 -1.31098,2.83508 -0.29338,0.87769 -0.002,0.46737 0.0431,1.3874 -0.041,0.38607 -0.53342,0.35743 -0.65651,-0.0429 -0.61958,0.18109 -0.43495,1.00056 0.12515,0.97644 0.42468,1.02851 0.31185,0.95678 -0.21952,0.7519 -0.46161,0.01 -1.55717,-1.06603 -1.18378,-0.43793 -0.55188,0.0666 -2.01263,0.67591 -0.82064,-0.11423 -1.36431,-0.56168 -0.3816,-0.0666 -0.74884,0.78538 -0.40211,1.29904 0.17233,1.3841 0.97862,0.99847 0.77755,-0.25197 0.57651,-0.0571 0.57239,0.30902 1.04222,2.20978 0.65036,1.70024 0.23183,1.27222 -0.58266,1.42827 -1.07504,0.46013 -1.29251,-0.28935 -1.2207,-0.85399 -0.48008,-0.60268 -2.78403,-4.6544 -0.91501,-1.11236 -0.94374,-0.3043 -0.54983,0.57054 -0.23389,1.03148 0.16003,1.16417 0.62369,0.94527 0.34056,0.057 0.48418,-0.0238 0.38981,0.16147 0.0677,0.54611 -0.48623,1.6947 -0.37544,-0.28476 -0.67088,-0.81171 -1.35406,0.13768 -0.92322,0.88761 -0.59496,1.12458 -0.31595,1.04356 -0.0923,0.66391 0.4493,1.07145 3.08151,2.62494 0.14977,0.28416 0.36313,0.94702 0.12925,0.24618 1.52024,0.66269 0.59497,0.74774 0.12514,1.54224 -2.0434,1.9102 -0.8391,0.30251 -0.16003,-0.29305 -0.30363,-0.69965 -0.54983,-0.94571 -0.91092,-1.01221 -0.48418,-0.25547 -1.0217,-0.22711 -0.41852,-0.26497 -0.3734,-0.6436 -0.79191,-1.79897 -0.43495,-0.502 -0.58265,-0.0142 -1.52434,0.62986 -0.77756,0.12312 -0.42879,-0.23677 -0.79807,-0.9425 -0.3775,-0.30791 -0.30774,0.0237 -0.20926,0.26054 -0.19285,0.30315 -0.2544,0.16103 -1.25764,-0.46892 -0.66266,0.14211 -0.32005,1.06558 0.27081,1.64739 0.78781,0.66724 2.14598,0.63872 2.24651,2.21322 4.13399,1.07768 0.66882,1.134 -0.004,1.02971 -0.22568,1.3504 -0.34467,1.26489 -0.3857,0.78323 -0.43289,0.0896 -1.17557,-0.66524 -0.6319,-0.15571 -1.23916,0.50958 -2.9297,2.43355 -0.52521,-0.30645 -1.0935,-1.47609 -0.62164,-0.42927 -1.15095,0.40097 -1.20019,1.08946 -1.30892,0.89109 -1.46895,-0.16971 -0.21953,-0.28288 -0.45545,-0.90537 -0.28312,-0.28298 -0.45546,-0.0849 -0.97246,0.11792 -0.49854,-0.033 -3.34822,-1.52381 -1.45869,0.0519 -0.59086,0.29727 -0.17029,0.37744 -0.11078,0.40569 -0.41032,0.3915 -1.34586,-0.12735 -0.25234,0.12735 -0.14567,1.18364 0.21952,0.63172 1.20019,1.12642 1.34996,0.95644 0.25645,0.51814 -0.0226,1.52569 -0.34467,1.78846 -0.55803,1.59466 -0.68114,0.97333 -0.7078,0.25386 -0.80013,-0.009 -1.04837,-0.24446 -0.80012,-0.71939 -0.636,-1.22758 -0.55599,-1.35511 -0.57239,-1.11086 -0.98067,-0.65446 -0.48418,1.06872 0.008,2.13639 0.49238,2.59562 0.29954,0.80365 0.32825,0.27724 1.29662,0.38527 0.26466,0.28188 0.50469,0.91123 0.1949,0.27238 0.82885,0.2254 0.62779,-0.10331 0.46366,0.37565 0.32211,1.69923 -0.0862,1.72648 -0.51495,1.67866 -0.85758,1.4482 -1.10376,1.00726 -1.27199,0.31851 -3.00971,-0.37004 -2.40038,0.25763 -1.77053,0.69782 -0.52521,0.55721 -0.32826,1.39495 0.1272,2.63843 -0.43904,1.08001 -3.73392,0.38797 -2.09675,0.87392 -0.5765,2.38688 0.17849,0.73765 0.20311,-0.028 0.41237,-0.20541 0.80834,0.23342 0.52726,0.58814 0.3139,0.47603 0.12309,0.39197 -0.60727,1.37153 -1.0135,-0.4058 -1.90799,-1.69372 -0.59086,0.15868 -0.46572,0.43866 -0.41852,0.50391 -0.4493,0.36389 -3.52056,0.71833 -0.48007,-0.19589 -0.92938,-0.93765 -0.51701,-0.32194 -0.59701,0.0373 -0.64831,0.23329 -0.74884,0.10731 -0.89244,-0.37793 -3.20051,-2.92228 0.12925,-0.78938 0.3221,-1.38773 0.26261,-1.38832 -0.0739,-0.80897 -0.33236,0.0187 -1.59204,1.43541 -1.10377,0.37862 -0.91912,-0.18696 -0.14771,-0.83681 1.21045,-1.53862 1.49356,-0.36489 0.43084,-0.3696 0.40006,-0.84698 0.0985,-0.66464 -0.23593,-1.66221 0.0205,-1.22262 0.3857,-0.40764 0.51291,-0.1687 0.42263,-0.47802 -0.25646,-0.3984 -0.33851,-0.13125 -0.68934,0.13125 -0.56009,0.35622 -0.54778,0.68421 -2.32652,3.90563 -0.41442,0.90315 -0.2503,1.2303 -0.0697,0.23384 -0.81244,0.63597 -0.74883,0.15897 -0.60933,-0.4068 -0.3898,-1.11779 0.18669,-1.45979 0.68729,-1.80696 1.36637,-2.58112 0.57445,-0.58584 0.30158,-0.42187 0.0862,-0.45475 -0.52316,-0.49233 -2.02493,1.3127 -0.97862,-0.0937 -0.44314,-0.89073 1.26789,-1.39754 0.13951,-1.37938 -0.5047,-0.54441 -1.10581,-0.35673 -1.50178,-0.0986 -1.69668,0.26756 -0.45135,0.28162 -0.98887,0.91509 -0.48008,0.26744 -0.38365,-0.0845 -0.82474,-0.57715 -0.39391,-0.0704 -0.24004,0.21586 -0.58676,0.86799 -0.4534,0.37996 -1.04632,0.24391 -1.45869,-0.22514 -0.3816,0.72695 -0.0533,0.77368 0.18259,0.35161 0.51085,0.33283 0.18464,0.35622 0.29954,0.77324 0.16002,0.33267 0.21132,0.21552 0.51905,0.26234 0.23184,0.25296 0.0738,0.28572 0.17439,0.9413 0.0718,0.23411 1.04016,0.42604 0.94784,-0.56182 0.25235,0.87078 -0.0308,1.26361 -0.38571,1.42682 -0.65446,1.35605 -0.84936,1.06574 -0.78166,0.40189 -3.06921,0.32709 -4.10731,1.28466 -1.77874,0.0794 -2.44346,-0.6259 -3.84471,-2.20097 0.17644,-1.34656 0.75909,-1.11789 0.93348,-0.97321 1.70489,-2.48583 0.27081,-0.65103 0.078,-0.78236 -0.078,-2.86871 0.12925,-1.08346 0.40006,-1.8019 0.11079,-0.77926 -0.0205,-1.26318 -0.10873,-1.17911 -0.0431,-1.24534 0.17234,-1.46214 0.25029,-0.95004 0.10053,-0.63508 -0.0308,-0.6211 -0.83706,-1.78396 -1.48536,-1.22441 -1.84439,-0.63593 -1.9203,-0.0283 -0.46572,0.24026 -0.99297,0.92318 -0.46777,0.3108 -2.40653,0.24957 -0.78987,0.48495 -0.24414,0.32012 -0.54163,0.9131 -0.17849,0.23059 -1.20224,0.53641 -1.19813,0.23994 -1.76644,-0.0376 -1.48741,-1.61881 -0.98067,-0.60255 -0.73447,0.75317 0.21131,1.43055 0.96631,1.27942 0.77551,1.58915 -0.35288,2.3118 -0.21337,0.25363 -0.54162,0.22543 -0.20516,0.2536 -0.37955,1.13623 -0.3262,1.23906 -0.36929,1.13539 -0.52521,0.89582 -2.89072,1.45812 -2.1152,0.13124 -2.2978,-0.46407 -3.91856,-1.87101 -2.37781,-2.13964 -0.98477,-1.22061 -0.47803,-1.03319 -0.0205,-1.47992 0.54983,-1.79092 -0.20927,-1.13805 -0.44725,-0.4704 -1.41355,-0.35754 -0.7037,-0.64462 -0.32005,-1.06837 -0.28107,-2.9764 -0.36314,-1.09801 -0.5129,-0.22153 -1.47716,0.31108 -0.57034,-0.0895 -0.53547,-0.90508 -2.25061,-6.7396 0.1272,-1.51696 0.65856,-1.54132 2.77993,-4.87471 0.50469,-0.66316 0.79603,-0.54484 2.40653,-0.93355 0.32005,-0.3223 0.32005,-0.41715 0.80628,-1.51262 1.73156,-4.45666 2.12546,-4.46766 0.45956,-0.68496 0.82885,-0.48527 0.1354,-0.25693 -0.0739,-1.39449 -0.36313,-0.54748 -0.54778,-0.32378 -0.61958,-0.7048 -1.1448,-2.79695 -0.13746,-0.18591 0.48623,-1.44478 3.04048,-5.26971 3.7093,-3.61364 1.62488,-1.0093 1.84234,-0.38275 2.12136,0.53106 1.79925,1.38226 0.4411,0.10998 0.71806,-0.5882 0.44725,-1.03321 0.34467,-1.16754 0.41237,-0.94297 0.14567,0.10054 0.24824,0.33508 0.28928,0.30633 0.27696,0.005 0.64216,-1.50801 0.35492,-0.6513 1.56948,-2.3381 1.75413,-3.77909 0.48623,-0.71028 0.43699,0.0144 0.73858,1.20929 0.43083,0.27347 0.61548,-0.49897 1.03401,-2.22235 0.59087,-1.03251 0.38365,-0.30741 0.53957,-0.29784 3.896,-3.01837 1.6064,-0.70694 1.908,-0.16834 4.09705,1.75033 1.6659,-0.24999 0.65242,-0.67314 1.05042,-2.23201 0.54572,-0.85184 0.64421,-0.34658 1.5387,-0.15886 0.6996,-0.24553 0.62984,-0.56334 1.09146,-1.30041 0.51905,-0.39022 0.67908,-0.12045 2.20753,0.12045 1.86491,-0.54447 1.09556,0.01 1.20429,0.53483 0.34877,0.4673 0.84526,1.46408 0.40827,0.32259 0.46777,-0.27444 0.67703,-1.43034 0.45751,-0.54919 3.04458,-0.72276 z m 8.30079,68.22632 0.0267,1.37191 0.26056,1.79061 0.44109,1.68602 0.55393,1.03566 1.07299,0.36711 0.93143,-0.5648 0.80423,-0.82855 0.71191,-0.44262 0.83911,0.42378 0.61137,0.80032 0.4452,0.36714 0.35083,-0.85672 -0.17234,-2.27943 -1.12018,-1.41368 -2.55424,-1.45675 -0.0144,-0.2405 0.0328,-0.99047 -0.0185,-0.24531 -0.77551,-0.39631 -0.71396,-0.11324 -0.60933,0.13211 -0.91706,0.77841 -0.0862,0.26886 z" clip-path="url(#pb9a94d4c1e)" style="fill:#ffffff" id="path29294"/>
    <path d="m 382.79103,465.08478 0.0246,2.44505 -0.55189,0.22596 -0.43288,0.70544 -0.48623,0.95416 -0.73858,0.98154 -0.29543,0.11057 -0.67703,-0.17508 -0.30774,0.0645 -0.14157,0.258 -0.3939,0.95813 -0.10874,0.22106 -0.45751,-0.13816 -1.15095,-1.00878 -0.62779,-0.29025 -0.60932,0.15665 -1.24943,0.99039 -0.70781,0.29015 -1.0217,-0.15659 -1.07709,-0.54811 -2.66709,-2.33628 -0.33236,-0.461 -0.35492,-0.82076 -0.58471,-1.66982 -0.14361,-0.92292 0.0944,-1.01091 0.49239,-1.14977 0.51085,0.19396 0.57239,0.66494 0.66473,0.29087 1.10376,-0.58176 2.42294,-2.305 0.33236,0.15711 0.75089,0.97943 0.51906,0.30947 0.39391,-0.0877 0.84115,-0.56356 0.36929,-0.0693 0.35698,0.2356 0.80833,0.88682 0.43495,0.31865 1.05247,0.18932 1.94697,-0.0646 0.84731,0.59561 z" clip-path="url(#pb9a94d4c1e)" style="fill:#ffffff" id="path29291"/>
    <path d="m 382.81565,467.52983 -0.0246,-2.44505 0.0185,0.0415 0.0431,0.22151 0.24004,-0.2169 0.14772,-0.44307 0.11489,-0.47544 0.13951,-0.30469 0.73857,-0.42939 0.60728,-0.12467 0.5724,-0.40175 0.64215,-1.20555 0.0985,-0.33727 0.1313,-0.73009 0.0903,-0.37898 0.28723,-0.75809 0.26465,-0.18492 0.39186,-0.0786 0.65651,-0.42076 0.0657,-0.25895 0.0246,-0.44397 0.0616,-0.45792 0.16823,-0.29143 0.72627,-0.87445 -0.22978,-0.86543 -0.55804,-0.71752 -0.2585,-0.43058 0.0964,-0.50937 0.0923,-1.26915 0.1313,-0.38918 0.6319,-0.36143 1.35406,0.0834 0.9027,-0.44487 0.62985,-0.76014 1.24942,-2.09595 0.68114,-0.7701 0.88629,-0.36655 6.74773,-1.2531 0.86373,-0.50138 0.47597,-0.0511 0.52931,0.24606 1.07915,0.8773 0.63394,0.32023 0.59702,0.0418 1.25558,-0.21348 0.70986,0.17171 1.0217,0.58468 0.87398,0.70983 3.80778,4.9088 0.7078,1.61145 v 1.59676 l -0.64215,0.50895 -2.1029,0.36084 -0.46161,0.58743 0.49239,1.5259 2.46808,0.13406 0.88834,1.22015 -0.24824,1.09034 -0.78782,1.27469 -0.8309,0.99722 -0.37749,0.24464 0.039,0.37385 0.14156,0.84447 0.29543,0.95494 0.48623,0.71026 2.09879,0.7931 0.97862,0.88968 0.4452,1.91223 -0.0862,1.08693 -0.30364,0.91163 -0.51085,0.82853 -0.69549,0.7731 -1.7295,0.89712 -5.96812,-0.89712 -0.40212,0.22086 -0.80012,0.88325 -0.39391,0.33116 -0.38981,0.092 -0.82064,-0.12877 -0.39596,0.0368 -0.54778,0.33113 -0.96015,0.90122 -0.41853,0.20228 -0.75704,-0.1655 -2.75941,-1.26913 -0.43494,0.0644 -0.30158,0.24834 -0.25235,0.26672 -0.29543,0.13795 -0.36108,-0.12416 -0.55394,-0.55185 -0.36929,-0.0414 -0.86988,0.51047 -1.50177,1.44819 -0.51085,0.20224 -0.19696,-0.524 0.006,-1.02067 -0.0554,-1.14978 -0.39596,-0.90172 -0.41648,-0.23467 -0.5765,-0.069 -0.6401,0.0828 -0.60728,0.22086 -0.29953,0.23466 -2.17881,3.20523 -0.36108,0.28497 -0.36929,-0.12869 -0.039,-0.0735 -0.14976,-0.41828 -0.0595,-0.89651 0.24824,-1.49012 0.22568,-0.30363 0.37544,-0.39568 0.32005,-0.58441 0.039,-0.86991 -0.38365,-0.59388 -5.05926,-5.16541 z" clip-path="url(#pb9a94d4c1e)" style="fill:#ffffff" id="path29288"/>
  </g>
  </svg>