<svg xmlns:inkscape="http://www.inkscape.org/namespaces/inkscape" xmlns:sodipodi="http://sodipodi.sourceforge.net/DTD/sodipodi-0.dtd" xmlns:xlink="http://www.w3.org/1999/xlink" xmlns="http://www.w3.org/2000/svg" xmlns:svg="http://www.w3.org/2000/svg" xmlns:rdf="http://www.w3.org/1999/02/22-rdf-syntax-ns#" xmlns:cc="http://creativecommons.org/ns#" xmlns:dc="http://purl.org/dc/elements/1.1/" width="841.889764pt" height="595.275591pt" viewBox="0 0 841.889764 595.275591" version="1.1" id="svg9771" sodipodi:docname="inkis2.tar" inkscape:version="1.1.2 (b8e25be8, 2022-02-05)">
  <sodipodi:namedview id="namedview9773" pagecolor="#ffffff" bordercolor="#111111" borderopacity="1" inkscape:pageshadow="0" inkscape:pageopacity="0" inkscape:pagecheckerboard="1" inkscape:document-units="pt" showgrid="false" inkscape:zoom="0.48545287" inkscape:cx="281.18074" inkscape:cy="307.95986" inkscape:window-width="1680" inkscape:window-height="969" inkscape:window-x="0" inkscape:window-y="25" inkscape:window-maximized="0" inkscape:current-layer="layer3"/>
  <metadata id="metadata2">
    <rdf:RDF>
      <cc:Work>
        <dc:type rdf:resource="http://purl.org/dc/dcmitype/StillImage"/>
        <dc:date>2022-02-11T10:36:30.482636</dc:date>
        <dc:format>image/svg+xml</dc:format>
        <dc:creator>
          <cc:Agent>
            <dc:title>Matplotlib v3.5.1, https://matplotlib.org/</dc:title>
          </cc:Agent>
        </dc:creator>
      </cc:Work>
    </rdf:RDF>
  </metadata>
  <defs id="defs6">
    <style type="text/css" id="style4">*{stroke-linejoin: round; stroke-linecap: butt}</style>
  </defs>
  <g inkscape:label="lol" inkscape:groupmode="lol" id="lol">
    <g inkscape:label="axes_1" inkscape:groupmode="axes_1" id="axes_1"/>
  </g>
  <defs id="defs9769">
    <clipPath id="pb9a94d4c1e">
      <path d="M 84.162836 595.275591  L 84.162836 0  L 757.726928 0  L 757.726928 595.275591  L 84.162836 595.275591  " id="path9766"/>
    </clipPath>
  </defs>
<g inkscape:groupmode="layer" id="layer4" inkscape:label="island utlinur" style="display:none">
    <g inkscape:label="PathCollection_3" id="PathCollection_3">
      <path d="m 628.31687,137.95879 -2.37576,2.67444 -8.94705,4.12227 -3.98216,3.07668 -4.63663,1.17783 -1.58589,1.33027 -1.22071,2.18531 1.23507,0.47354 0.60728,0.63636 0.25439,0.98738 0.25646,0.24426 1.65974,3.46837 -0.22978,1.47367 -0.62368,2.09751 -0.41443,0.93911 -4.82332,4.69136 -0.84937,0.41048 -3.11433,0.19761 -1.32944,1.20065 -0.92528,2.77442 1.55102,1.22443 0.76319,0.34396 2.99124,0.19726 0.64216,0.96588 0.28312,2.35531 -0.52932,0.37891 -0.92527,0.96475 -0.61138,0.42924 1.04632,0.80278 5.68705,0.19688 3.28462,1.5443 2.28754,-0.19678 4.14834,-3.80684 2.57477,-0.31324 1.12633,0.60623 0.99298,1.15152 0.70985,1.8678 0.27081,2.80971 0.32211,1.45683 0.7078,0.49386 0.7078,0.16628 0.32621,0.45346 0.11694,1.42039 0.49854,2.76341 0.0698,1.3481 -0.15182,0.50791 -0.64421,0.66367 -0.23388,0.51274 -0.0308,0.56794 0.0308,1.87901 -1.16326,3.0372 -0.18259,0.83785 -0.58266,0.52166 -3.26616,4.10009 -3.7175,2.79382 -1.13249,1.48603 0.0923,2.14525 -0.99092,1.75412 -2.54399,2.81155 1.50382,-0.0998 1.3397,-1.08841 2.35319,-3.08751 -0.77756,2.51321 -1.44843,2.75074 -0.59291,2.20485 1.78489,0.91242 1.80952,-0.52349 3.95344,-2.30437 10.82427,-2.95525 3.896,-2.15328 2.06186,-0.5348 1.61667,1.76899 -2.18701,5.15143 -1.24738,1.2666 0.12515,1.04681 0.5806,1.44502 0.23389,0.30885 1.14479,0.89649 3.1923,2.16049 0.93963,1.18415 -2.74094,0.84556 -1.46895,1.16351 -1.23096,3.15027 -2.60554,3.10744 -1.02375,2.60373 -3.83035,4.62191 -0.7673,1.52925 -0.58676,1.82521 -0.26876,2.03172 0.64215,-0.9539 1.07504,-2.65071 0.53753,-0.54921 0.57855,-0.3266 1.69052,-1.7375 0.52111,-0.80224 0.91912,-1.97677 6.24508,-9.42521 1.09556,-0.78546 1.34996,0.35299 4.00063,2.98139 -0.79192,-1.16241 -1.43202,-1.5754 -0.56214,-1.35239 11.07866,6.66684 1.41151,0.22331 5.53933,-1.41456 0.93964,0.139 0.59086,0.59566 0.37339,1.45888 0.0677,1.24497 -0.28107,0.84789 -0.66062,0.22804 v 0.76335 l 1.58384,-0.0595 0.69754,0.24285 0.47187,0.72844 0.0533,0.84715 -0.36928,2.54999 0.34467,0.89077 0.43699,0.67286 0.91296,0.84583 2.34704,-3.48863 1.29456,-0.96561 1.52024,0.38133 0.26261,0.51002 0.11283,1.9007 0.3139,0.094 0.72627,-0.22762 0.30363,0.1336 1.77669,2.00342 0.32006,0.56369 0.0821,2.6836 -0.71806,1.68411 -0.92733,1.16009 -0.53342,1.10045 0.1272,0.70547 0.57856,2.30771 0.0185,1.04975 -0.33441,0.47301 -1.73361,1.2561 0.51496,0.73865 -0.0103,0.9206 -0.17849,1.11717 0.0205,1.35779 -1.70283,1.24412 -4.59149,-0.69822 -2.00237,1.10135 1.24328,1.08132 3.92267,1.39533 0.16207,1.97895 -1.15095,1.35459 -1.6064,0.73104 -2.51117,0.0196 -1.06478,0.33847 -2.12136,1.33884 -4.2099,0.79421 -1.29661,0.85282 0.78782,1.12694 7.99715,-2.99952 2.43321,0.22555 4.87051,-1.28488 1.52639,0.46105 2.49886,1.67686 1.2884,1.41141 0.72012,1.92008 -1.20019,0.94981 -2.04955,3.26831 -1.09761,0.71388 -6.38665,1.63253 h -6.74363 l -2.92559,0.74755 h -3.09792 l 1.55101,1.24553 5.86759,-1.24553 7.75918,0.8939 3.47336,-0.8939 h 1.89363 l 0.5047,0.40546 -0.23799,0.87914 -0.78166,1.32313 -0.13335,0.75652 0.0451,1.01492 -0.25645,0.5366 -1.91004,0.88764 -1.69873,0.17068 -1.58589,0.64846 v 0.89691 l 3.90215,-0.82865 0.91296,0.82865 v 0.73586 l -0.48212,0.13157 -0.44315,0.33618 -0.41237,0.52613 -0.3816,0.71598 h 1.56743 l 0.49443,0.24836 0.89655,1.31454 0.5047,-0.36509 0.80833,-1.63615 0.42263,-0.3702 0.10258,-0.46768 1.46485,-2.88555 2.06391,-2.44892 0.13951,1.75639 -0.0205,2.54505 -0.16413,2.44074 -0.29748,1.43141 v 0.89066 l 0.93758,0.68608 0.27492,1.1334 -0.33647,1.44899 -0.87603,1.63298 -1.0217,0.94246 -2.13572,0.6314 -1.00939,0.86431 0.8986,1.62603 0.45956,1.12075 -0.13336,0.51415 -0.78576,0.38798 -1.57563,1.7308 -0.7673,0.39257 -3.63545,-0.88699 -3.1328,0.56712 -1.02785,-0.56712 -0.48008,-1.11029 -0.41853,-1.64919 -0.52931,-1.47529 -0.79397,-0.65052 -0.81859,-0.26704 -1.67001,-1.16552 -2.64452,-0.889 -2.79634,-2.7609 -1.55101,-0.6225 0.32005,1.31295 0.52521,0.96249 0.61548,0.64149 0.5724,0.34986 -1.81567,2.04003 -10.26623,0.39814 v 0.89321 l 15.89994,1.54795 0.51495,0.46569 0.6996,0.90694 0.61753,1.15391 0.26466,1.17287 0.43084,0.63472 2.35114,2.17454 5.19876,2.41977 1.00119,1.7121 -2.09674,1.66284 -2.47219,-0.37697 -4.413,-2.16599 -5.02233,0.88012 -3.09587,-1.33961 -0.86373,0.45949 2.97893,2.15149 7.22165,1.68633 3.25795,2.71848 0.40212,0.69493 0.48007,1.08554 0.16413,1.01283 -0.54368,0.44362 -0.82269,0.38088 -1.25558,1.67244 -0.66472,0.37582 -5.26852,-2.07237 -1.50383,1.33033 5.46548,2.24968 0.91706,0.89077 0.0308,1.27071 -1.44023,0.45232 -5.75475,-0.24059 -1.60025,-0.6545 -0.3139,0.56307 -0.41647,0.40901 -1.02376,0.64468 v 0.88021 l 1.55102,1.93272 0.81859,1.30225 0.76319,1.60424 -0.82064,0.30731 -2.31216,2.11194 -11.20176,2.40782 -1.80336,-0.57541 -1.00118,-0.64266 -0.66678,-0.78672 -1.44227,-4.60429 -1.28841,-1.32635 -1.35817,-2.72652 -0.74678,-0.62064 -3.9596,-0.88066 0.49854,0.67856 0.54163,0.23578 1.19608,-0.0337 0.69345,0.54848 -0.0677,1.22653 -0.4534,2.19214 0.77961,0.99462 2.54809,1.39771 0.83295,0.096 -0.0821,2.28489 0.69549,1.87086 0.94784,1.60614 0.66472,0.67577 2.56041,0.88165 0.93348,1.01551 -0.55393,1.32159 0.34466,0.80418 -8.45261,-2.85863 -2.59733,2.05445 0.82269,1.00519 2.02083,1.05272 0.97657,1.14802 0.48623,1.31971 -0.0595,1.11846 -0.53342,0.91264 -0.9581,0.65923 H 627.886 l -0.61548,0.76893 0.61959,1.56595 1.00118,1.31708 0.52521,-0.0143 0.51495,1.20209 1.08941,0.77253 0.98477,0.0715 0.19695,-0.87266 2.07623,-0.56761 3.11433,-4.69732 1.56743,-1.14674 0.32005,0.57342 -0.77551,1.30892 -4.62226,5.64515 -0.65036,1.3585 -0.17439,1.08638 -0.14977,2.41444 -0.20721,0.92815 -1.64744,2.9207 -0.22978,1.06487 0.17234,2.3899 -0.25235,0.36569 -0.28107,0.2042 -0.22978,0.34189 -0.21337,1.22953 -0.75909,2.20154 -5.2357,0.58335 -4.93821,1.87735 2.18496,-1.73509 4.50943,-1.30431 2.28959,-0.93944 -1.28841,-0.87325 -5.60498,-0.89724 -0.39802,0.18516 -0.0657,0.49372 0.0964,1.55662 -0.1908,0.33211 -0.36929,0.25143 -1.07709,1.09562 -0.61548,0.24184 -0.23184,0.31294 -1.0217,2.00494 -0.58265,0.60645 -2.79018,1.79498 -1.1448,1.20714 -1.02991,1.40538 -0.64625,1.41895 0.44315,-1.89681 0.24414,-0.48739 v -0.79513 h -0.34262 l -0.34467,1.1595 -0.77756,1.01244 -0.85347,0.72365 -0.59496,0.28374 -0.1867,0.37355 0.14772,0.84625 0.38365,0.84601 0.517,0.37804 1.09146,-0.12286 0.48212,-0.25045 0.47803,-0.48679 0.24619,1.63493 0.44315,1.53966 -1.12839,-0.0189 -1.48536,1.9495 -0.98887,0.5096 -2.34088,-0.25007 -1.02786,-0.48133 -0.97861,-0.85429 -1.5941,-1.94071 -0.96631,-0.86449 -1.04016,-0.36382 -0.45135,0.33074 -0.94579,1.52099 -0.48213,0.46276 -0.61343,-0.13221 -0.5765,-0.45334 -0.59086,-0.16057 -0.65652,0.74612 0.65241,0.85453 -0.53957,0.57113 -0.5806,0.19821 -1.25559,-0.0472 1.00119,-3.17303 v -0.71814 l -1.62487,0.45358 -0.78987,-0.0614 -0.33852,-0.82219 -0.22978,-1.79158 -0.55803,-1.20126 -0.67703,-0.40683 -0.59907,0.58657 v 0.79927 l 0.41442,0.56268 0.28928,0.58621 0.20311,0.80823 0.15387,1.20487 -0.68319,-0.46772 -1.43612,-0.53867 -0.66267,-0.57185 v -0.7185 l 0.49034,-1.62668 -0.74269,-2.4463 -1.26789,-2.24449 -1.07914,-0.98068 -1.03811,-1.15162 -1.99416,-0.79643 -1.28636,-0.36983 0.85962,0.71118 2.77172,1.2513 0.53957,1.29345 0.92323,2.85036 0.44519,0.97479 -0.42878,0.63393 -0.43084,0.18447 -0.43289,-0.22705 -0.43083,-0.59135 v 0.87043 l 1.02169,0.9364 0.17849,1.78691 -0.41852,2.03151 -0.78166,1.65732 -1.23302,0.65136 -2.8107,-0.76938 -1.153,0.84017 0.70985,0.6229 0.76936,0.24064 h 1.65564 l -1.2761,1.0614 -3.22922,1.17422 -2.89687,0.27816 -3.04458,1.15011 -1.32123,1.08846 -0.68524,-1.66346 -1.4074,1.98851 -4.47661,3.61574 4.19964,-1.42603 0.99093,0.71074 -1.69258,1.42101 -13.06052,4.01964 -1.82798,1.66279 h 2.37576 v 0.70901 l -3.20666,2.78286 -1.08324,0.37056 -0.49034,0.30485 -1.73155,2.05348 -1.19404,0.88569 -0.48418,0.56221 -0.3857,0.98363 -0.52726,-1.11012 -0.50264,-0.19677 -0.5088,0.4638 -0.55804,0.84309 v 0.78669 h 0.68524 v 0.71629 l -3.02817,2.11981 -1.09966,0.30873 0.31595,-1.64222 -2.72454,2.07252 -1.30482,1.58975 -0.79192,1.8973 0.8268,0.0467 0.65857,-0.61205 0.50469,-0.64489 -1.30482,2.66282 -0.68524,0.97581 -3.62313,3.14485 -2.41269,3.82192 -1.56948,0.84767 0.6278,-0.34463 0.63394,-0.55427 0.52111,-0.88052 0.28312,-1.34221 -7.6053,6.32395 -6.76414,1.97194 -1.00939,-0.29757 -0.86578,-0.96731 0.3857,0.69296 0.41853,0.48823 0.45135,0.2929 0.49649,0.0837 -0.93553,0.57177 -0.81654,0.20916 0.16823,1.20355 -0.0287,1.58392 -0.26671,1.35105 -0.56214,0.54304 -0.24619,-0.36201 -0.0944,-0.77988 v -1.56032 l -0.12925,-0.36232 -0.90475,-0.83629 -1.89569,-2.61715 -0.517,-0.50229 -0.80833,-0.28373 -0.41032,0.33024 -0.13952,0.99519 -0.0144,1.68739 0.16618,2.11844 -0.0287,1.48115 -0.30979,0.69158 -0.67498,-0.39451 -0.10668,-1.01202 0.26466,-2.88464 -0.16618,-1.03185 -0.36519,-1.33446 -0.36724,-0.73024 -0.16618,0.75349 -0.0677,4.47543 -0.24619,1.30938 0.67703,1.0397 -0.24004,0.77955 -0.80423,0.49176 -1.01144,0.15772 0.56829,-2.58014 0.0369,-1.12831 -0.29133,-0.96146 0.34467,-1.44041 0.17234,-0.19055 0.46161,-0.32071 0.0267,-0.65548 -0.17234,-0.5626 -0.14361,-0.0233 0.33852,-4.73261 -0.32211,-1.1924 -0.54572,-0.87595 -0.57855,-0.51263 -0.27082,0.63845 -0.1354,2.96689 0.0862,1.21019 0.42469,1.01434 -0.8227,0.74427 -0.94373,-0.0698 -0.83706,0.16744 -0.52316,1.42289 0.61548,1.17132 0.60317,2.53639 0.84732,0.90536 -0.92117,1.29029 -1.86902,0.43617 -3.60877,-0.10208 -0.76935,-0.25984 -1.81567,-1.36454 -0.68319,0.48741 -0.68318,0.77968 -0.51495,-0.0278 -0.18465,-1.94959 -6.22457,3.89335 -6.91801,2.33652 -4.69818,1.13056 0.55599,-0.82008 0.32005,-1.00106 -0.0226,-1.21931 -0.28517,-1.14091 -0.37545,1.62313 -0.60317,1.10325 -0.72011,0.32442 -0.74063,-0.77865 0.37339,2.3956 -6.57334,4.6656 0.49649,-2.4847 1.30482,-1.40283 1.61666,-0.63448 1.43202,-0.14359 v -0.84775 l -3.33591,-1.74254 -1.19813,-1.36318 -0.25851,1.53933 0.0451,0.62108 0.21337,0.94531 -1.29662,0.90797 -1.23712,-0.25477 -1.26173,-0.58834 -1.37047,-0.0649 1.03195,0.84775 v 0.70861 l -1.26994,-0.0278 -0.57445,0.23154 -0.53137,0.64359 -0.82679,-0.47226 -0.91502,0.68059 -0.73858,1.25895 -0.30774,1.25383 -0.27081,2.01157 -0.68318,1.38656 -0.89861,0.36965 -0.93348,-1.05361 -0.65241,0.97044 -0.23798,1.00249 0.2585,0.8036 0.82064,0.32785 0.6401,-0.24473 1.00324,-1.06687 0.76935,-0.24021 3.98011,0.44807 1.36842,-0.44807 -2.16854,4.22878 -1.31508,1.1624 -1.3356,-0.74721 0.25235,-0.26756 0.0923,-0.43829 h -2.06391 l 0.0738,1.05642 -1.41971,-0.14299 -0.78166,0.63648 0.65036,-0.0784 0.4452,0.32743 0.16618,0.77922 -0.16823,1.29522 3.75443,-0.2166 0.71807,-0.62684 -1.25148,3.8283 -1.81567,3.50182 -2.31421,2.55608 -5.16389,2.37038 -3.30514,2.50629 -3.14921,0.73407 -1.65155,-2.30372 0.63805,-0.82643 1.41766,-0.52352 0.54368,-0.61548 0.67498,-1.21751 0.63394,-0.55148 1.60025,-0.1241 v -0.77226 l -1.43202,-0.0276 -2.70401,0.84121 -1.37253,-0.0414 -3.44054,-2.15176 -1.0299,-0.23457 0.30979,0.85082 -0.37544,0.17474 -0.3139,0.58851 0.48623,0.68953 1.42382,2.32951 0.48828,0.71643 0.55803,3.90542 4.13604,0.30269 -10.79144,1.65053 -6.24714,3.00546 -10.6109,2.90201 -2.57067,-0.10523 -9.66716,-3.00743 -4.07859,1.12639 -1.46074,-0.42578 0.55598,-0.0687 0.22773,-0.174 0.2503,-0.45793 -1.80131,-0.40304 -0.8986,-0.50387 -0.74474,-0.70096 -1.01965,1.45673 -6.78671,-1.45673 -0.6401,-0.28867 -2.63221,-2.01687 -4.13398,-0.83462 -5.88811,-4.00186 -8.09973,-2.20498 -1.59615,-1.43405 0.68113,-0.12872 0.38775,-0.4368 -0.0513,-0.55642 -0.6401,-0.49213 -0.61548,-0.0414 -0.84731,0.68989 -0.62164,0.20233 -4.83153,-0.85082 0.14772,0.56571 5.04695,1.04836 -13.30671,-0.9196 -0.86783,-1.39829 -0.35083,0.27603 -0.30774,0.42779 -0.39391,-0.60261 -0.3262,-0.10121 0.34467,1.55464 -3.87138,0.0736 -1.88543,-0.45987 -7.66479,-6.4819 -0.75499,-0.931 0.70985,0.64988 0.81244,0.27651 0.83295,-0.19355 0.77345,-0.73284 -0.64625,-0.12446 -1.1489,-0.52556 -0.64831,-0.12449 0.34467,-2.25543 -0.92322,1.36083 -0.83295,0.54878 -0.90271,-0.23518 -1.12633,-0.96858 v -0.70585 l 1.72335,0.70585 -0.67498,-1.73032 -0.91912,-1.01093 -0.99298,-0.80344 -0.89039,-1.09928 -0.81244,-1.91309 -0.43904,-1.36852 -0.59086,-0.69372 -1.25354,0.0971 v 0.70757 l 1.75823,2.51458 1.0176,1.86616 0.69754,1.88354 -3.35027,-3.06593 -1.5387,-2.0194 -0.96221,-2.66365 0.19286,-0.18969 0.49238,-0.65704 -0.37339,-0.53684 -0.69139,-1.79629 1.41355,-1.63976 1.59615,-0.94533 3.39131,-0.51912 1.59409,0.74158 2.79839,2.99237 1.66385,0.2176 -0.8391,-1.09742 -1.23096,-2.12182 -0.68524,-0.73231 -3.84881,-2.27215 1.51818,-2.8587 0.23594,-1.10053 -0.1908,-1.60272 -0.56214,-0.41824 -0.44725,0.40429 0.16618,0.90599 v 0.71068 l -0.60112,1.10053 -2.18086,2.8587 -2.37781,2.63832 -1.22686,0.41248 -0.39801,0.44486 -0.13335,3.50574 -0.38365,1.11066 -0.24414,0.23597 -2.26703,-1.31886 -2.22394,-1.9492 -1.70078,-0.77353 -3.53491,-2.81313 h 3.28667 l 0.59291,0.29672 1.2125,1.17735 0.75909,0.0834 0.10258,-0.66277 0.66472,-0.20859 1.67412,0.0927 v -0.77884 h -1.40741 v -0.77903 h 0.71807 v -0.71428 l -3.58211,0.91833 -1.26789,-0.20405 v -0.71428 l 1.71514,-2.25983 0.5047,-3.46012 -0.69755,-2.94752 -1.89773,-0.67916 v 0.70706 l 1.41766,0.5953 -0.16003,1.57607 -0.95194,1.84475 -1.88132,2.55393 -1.2043,0.93749 -1.35611,0.30624 -1.37252,-0.79352 0.72011,2.33359 -2.03724,-2.18972 -4.54841,-3.05511 -6.4482,-2.42573 -2.18701,-1.60422 -1.21865,-0.57213 -1.2125,-0.92121 -1.03196,-1.77803 0.29133,-0.88939 -0.0739,-1.13188 -0.52726,-2.67059 3.92882,0.25178 2.1624,-0.50357 1.4792,-1.31524 h -3.78931 l -2.40243,-1.37179 -0.88014,-0.19601 -2.59118,0.69534 -0.53546,0.48058 -0.45546,0.70441 -1.57974,1.70209 -0.56829,0.40556 v 0.71312 l 2.56656,1.14625 1.29866,1.08995 0.64215,1.73663 -1.05042,-0.57722 -2.28138,-0.34918 -2.33473,0.27935 -1.41561,0.5912 -0.81038,1.19137 0.66472,1.9862 -0.24004,0.0326 -0.48007,0.74856 -14.77156,2.02165 -1.7849,-1.24072 -1.69462,-1.8085 -1.56743,-1.1256 -1.67411,-0.24657 -8.38286,3.06447 -2.76967,0.0604 -2.59117,0.83651 -13.64523,-3.11944 -1.06273,0.74876 -0.92733,1.42726 -0.93348,0.93877 -1.08324,-0.77609 0.72011,-0.78093 -1.18788,0.005 -1.89568,1.23638 -1.61462,0.51579 -0.96425,0.97559 -0.56624,0.39016 -0.54163,0.1161 -4.88076,-0.562 -1.11813,0.4459 -0.50675,0.82195 -0.32005,0.45965 -0.39391,0.2089 -0.61343,-0.34818 -0.7673,-1.50461 -0.55803,-0.34839 0.31594,-1.17086 0.69755,-1.50603 0.078,-1.29277 -0.21747,-1.25606 -0.41853,-0.55842 -0.54162,-0.4561 -0.5724,-0.92172 0.78166,-1.16417 1.0135,-4.17586 0.4575,-0.91886 2.22189,-0.014 0.34467,-0.37788 -0.21336,-1.18992 h -0.51291 l -1.16531,0.79799 -0.96835,-0.25197 -1.06684,-0.82607 -0.86167,-1.45664 -0.34467,-2.15816 0.7755,-2.20637 0.19696,-0.93537 0.0533,-1.31933 -0.11489,-4.397 0.30159,-0.97013 0.53546,-0.80631 0.6319,-0.44075 0.72832,0.27196 1.53255,1.74373 1.75412,1.22754 1.36432,2.06514 1.23301,2.78418 0.68319,2.98271 h -0.72217 l 0.82885,1.23341 1.22686,0.37834 4.91975,0.2522 1.2125,-0.29423 0.78987,-0.79411 -0.56214,-0.8457 0.29953,-0.92072 1.29456,-1.37456 0.73858,-0.36945 2.39422,-0.40692 1.84029,-1.44099 0.5642,-0.20123 0.62984,0.2527 1.30687,1.12757 0.66882,0.26195 1.33355,-0.49117 2.44961,-2.16207 4.2099,-0.82872 1.36637,-0.94133 1.18377,-1.93976 0.42469,0.66077 0.32825,0.12652 0.29338,-0.25304 0.30159,-0.53425 v -0.70779 l -0.86988,-0.91895 -1.2166,-0.86293 -1.2043,-0.37994 -0.84116,0.51128 0.52522,-1.86258 1.24942,-0.90588 1.39304,-0.12206 0.96426,0.52574 -0.39801,0.12204 -0.9499,0.74619 0.91297,0.48329 1.01964,0.13136 0.99709,-0.19236 0.85551,-0.42229 v -0.86823 h -1.0299 l 1.0299,-0.78864 -3.1328,-2.91216 -1.69873,-0.91177 -1.73771,-0.11281 1.5223,-1.1848 7.57657,1.38222 0.36929,0.4653 0.54778,0.91631 1.56743,0.89257 0.80217,-0.0752 0.75705,-0.81741 -0.57445,0.10337 -0.53957,-0.0611 -0.50675,-0.28661 -0.47597,-0.5451 0.97656,-1.26912 0.43494,-0.31031 -1.03401,-0.79 1.30687,-0.49386 1.78285,0.5644 1.69873,-0.0423 1.06068,-2.3241 -1.74797,1.007 -0.94169,0.12233 -0.40621,-0.76696 0.34877,-1.37911 0.80833,-0.68743 1.5941,-0.80061 -1.01554,-0.65005 -1.5264,-0.18374 -1.55101,0.23085 -1.10377,0.60294 0.31185,-1.96941 -0.57445,-0.90031 -1.00119,-0.24044 -1.4115,0.0566 -0.47392,0.16972 -0.4452,0.33941 -0.36108,0.55619 -1.89158,-0.39592 1.47921,-1.29178 0.49033,-0.94796 -0.2503,-1.71269 3.08972,-2.19528 1.51409,-1.73369 1.10786,-1.98049 0.86783,-2.38388 0.48008,-0.68617 0.86167,-0.53484 1.09556,-0.26035 2.2424,0.33135 h 0.93964 l -1.00324,-0.4355 -0.43699,-0.43083 h -0.40006 l 2.0434,-1.72862 1.09761,-0.53062 1.19403,-0.199 6.94263,1.85688 1.17967,-0.2652 1.40535,-2.31673 -2.26702,1.2936 -1.20634,-0.56855 v -0.72505 l 0.48212,0.0237 0.41032,-0.1801 0.80013,-0.63518 -0.0431,-0.67323 h -0.13336 l -0.13951,-0.12802 h 0.31595 l -9.16247,-0.5833 -4.30426,1.02425 -3.80984,3.46861 -0.35697,1.12223 -0.24004,0.69586 -0.43905,0.63893 -0.42878,0.33598 -0.97862,0.3454 -0.48007,0.0331 -0.79398,0.30752 -2.28343,1.67899 -0.71396,0.90299 -1.88337,1.70126 -2.38807,-0.32601 -4.5361,-1.7298 v -0.86525 l 2.11726,-1.26284 2.01262,-1.91649 1.67821,-2.38184 1.07915,-0.6822 1.09145,0.67747 0.93143,-0.99968 2.23009,-0.72033 0.97247,-0.66362 -4.49507,-0.48831 -1.38894,0.48831 -0.97246,0.6731 -0.78782,0.26066 -0.76935,-0.62563 -0.94374,-1.97725 0.67703,-1.09109 0.11489,-1.39998 0.0205,-1.64756 0.38981,-1.80046 0.33646,-0.14256 0.40827,0.34214 0.34467,0.0428 0.26055,-2.0248 0.27492,-0.94154 0.64625,-1.61743 0.0677,-1.23742 1.27404,-1.19028 5.67474,-2.9395 2.9974,-0.3003 -0.24004,-1.0441 -0.47803,-0.58657 -0.63189,-0.18601 -0.71396,0.14309 v -0.7298 l 0.91912,-0.87788 1.92851,-2.64464 1.69052,-0.75943 0.81859,-1.00807 0.49239,-0.39185 0.67498,-0.15293 2.11315,0.15293 -0.20106,2.11159 1.0176,0.34384 1.29456,0.0286 0.6401,1.19358 0.65446,0.8591 4.19759,0.272 -0.82885,-0.66334 -1.76028,0.18136 -0.88424,-0.24818 -0.72627,-0.80193 -1.10992,-1.81465 -0.91911,-0.58282 2.06596,-0.8792 v -0.72171 h -5.19466 v -0.88442 l 2.88661,-1.77917 0.93142,-0.98566 0.83501,-0.22492 3.98627,0.66038 v -0.87575 l -3.92472,-0.84727 -1.24123,0.0431 -3.22512,3.02897 -1.28225,0.17696 v -0.80357 l 1.31918,-1.26317 0.48418,-0.86632 0.29543,-1.14908 -2.01262,2.21161 -0.58471,0.34453 -0.46366,0.60761 -0.33236,2.71612 -0.61343,0.61177 -0.49854,0.32495 -2.0988,2.07795 -2.62195,1.00266 -0.78781,0.67304 0.31389,1.60327 -1.49562,-0.52956 -1.41355,0.39599 -2.94406,2.53696 -1.19403,1.44403 -0.79397,0.48596 -0.80013,-0.33826 -0.54162,-1.13414 0.0739,-1.15839 0.81244,-2.5757 -1.04632,0.34355 -0.49649,1.31182 -0.14361,1.79273 -0.004,1.82032 -0.19285,0.56208 -1.2125,2.23784 -0.21132,1.05647 -0.0697,1.51272 -0.40622,0.69427 -1.81362,-0.019 -0.8945,1.20274 -0.90681,0.3422 -0.81859,-0.38498 -0.90886,-1.0411 -0.78371,-1.52661 -0.4493,-1.8367 -0.82475,1.14212 -0.40417,0.2807 -0.49238,0.17127 0.71806,-1.48462 0.61959,-1.82342 0.20516,-1.76251 -0.51085,-1.31538 0.21541,-0.18114 0.47393,-0.61979 -0.38776,-0.45776 -0.40622,-0.29567 -0.44314,-0.14308 -0.48418,0.0238 0.21337,-0.38635 0.50469,-1.21656 v -0.73016 l -2.31831,1.74638 -1.42997,0.68684 -1.09761,-0.10015 -0.90886,-1.42636 -0.36724,-1.92348 0.18259,-1.85777 0.71601,-1.20406 v -0.72171 l -0.87398,-0.17208 -0.6401,-0.87491 -0.70575,-1.44437 -0.64831,-0.33489 -0.72832,-0.84692 -0.69549,-1.06736 -0.52521,-1.0294 1.25763,0.56023 1.31508,1.33553 1.33149,0.81827 1.29046,-1.03364 h -1.06889 l 0.30774,-1.33562 0.48213,-0.88594 0.60317,-0.57958 0.67703,-0.41679 -0.69139,-0.805 v -0.80519 l 5.84092,-2.94453 1.45254,-1.88132 v -0.80662 l -3.12665,2.72632 -1.6659,0.89227 -1.62077,0.33094 -1.37458,0.88713 -1.54896,1.67289 -1.42176,1.02055 -1.00939,-1.09244 0.65857,-0.47446 1.40535,-2.01367 1.0258,-1.06968 0.58471,-0.85888 0.49033,-1.21435 -0.3775,-0.80662 0.45341,-0.21129 0.28107,-0.33617 0.6442,-1.06159 -1.12838,-1.33108 -1.51819,-0.4278 -3.23948,0.14421 0.72011,-1.61549 h -1.0299 l 0.35287,-1.19772 1.36637,-3.7163 -0.52111,0.1445 -0.45956,0.46716 -0.39801,0.77524 -0.34056,1.03015 -0.318,-1.09755 -0.41238,-0.44298 -0.47392,0.13482 -0.51905,0.59702 v 0.80869 l -2.78198,-0.80869 -0.78576,0.39475 -1.48947,1.68432 -0.8268,0.34638 v 0.88021 l 0.39596,0.11542 0.98272,0.69243 -4.64483,0.90858 -1.20635,-0.90858 1.18788,0.16827 0.60523,-0.0962 0.42878,-0.47602 -0.14566,-0.66366 -0.51906,-0.96688 -0.62779,-0.88055 -0.4452,-0.38983 h -5.33827 l 0.78781,0.86622 2.65683,1.63075 v 0.80785 l -1.35201,-0.0529 -2.37165,-2.11626 -1.44433,-0.25501 h 0.34467 l -6.32305,-0.58227 h -6.0112 l -6.94469,-0.51498 -2.93174,-3.11575 -2.79429,-0.20719 -4.87871,1.12248 -0.0308,0.33715 -1.22481,2.0799 -0.53341,0.50533 -0.56214,0.37052 -0.60933,0.14915 -5.86554,-1.83369 0.54163,-0.50072 0.59496,-0.29854 0.62984,-0.10594 -0.84731,-0.35638 -1.92851,1.04493 -1.51408,1.97817 -0.22978,2.35199 -0.93348,2.77301 -1.37868,1.15271 -3.72777,0.10564 -1.09145,0.30731 -2.20753,1.23853 -1.0217,0.14399 -3.6457,-2.13164 -0.77756,-1.13841 -0.72216,-0.28827 -0.52932,-0.57182 -0.20926,-1.99495 -0.28312,-1.05326 -2.15624,-3.45561 -0.92322,-1.87376 -0.78166,-1.99057 -1.39099,-5.04225 0.34056,-0.88382 1.0176,1.05283 0.94989,-0.44427 1.8526,-2.23195 0.96426,-0.60898 5.47778,-1.57617 1.07094,0.12573 4.05397,2.68279 5.55165,1.00002 0.47802,-0.30915 0.92117,-1.50755 0.47597,-0.54135 2.08649,0.11601 0.51085,-0.52208 1.83823,-2.92138 2.07212,-0.71624 4.57098,0.80334 v -0.89046 l -0.43699,-0.68738 -0.28107,-0.93933 2.11315,-0.14529 0.68934,0.6392 -0.36108,2.02326 0.66472,0.5032 0.43494,-0.63385 0.39801,-0.79853 0.56419,0.0387 0.1826,1.14207 0.008,1.66398 0.26261,0.86067 0.92527,-1.22822 0.78577,0.7544 0.91091,-0.45939 0.74678,-1.11731 0.31185,-1.17578 -0.18875,-1.21494 -0.3816,-1.54477 -0.26466,-1.70059 0.14772,-1.67241 1.38483,-1.90617 2.09879,-0.37846 4.12168,0.655 -0.37955,1.36293 -0.62779,0.92123 -1.43817,1.04696 0.14566,0.4652 0.23388,1.16272 -0.59086,0.13078 -0.42468,0.45042 -0.73858,1.78168 2.78813,4.13081 -0.30158,-1.80355 -0.0369,-1.49486 0.22567,-1.27773 0.48829,-1.18138 0.32415,-0.26152 0.95605,-0.18404 0.40622,-0.29061 0.3262,-0.66851 0.55188,-2.25362 1.39099,-1.84771 1.44228,-0.14554 1.36842,1.18349 1.1489,2.10397 0.80012,-1.23603 1.05453,-0.77095 3.09382,-0.76628 2.99945,-2.10581 -0.80218,-0.51939 -3.66827,0.51939 v -0.89321 l 2.11931,-0.48554 3.77085,-3.91619 1.99416,-0.48622 -0.28928,0.48136 -0.36929,0.33544 0.89861,0.24306 0.85141,0.57354 -0.0821,1.08846 0.0821,0.46637 -0.70575,1.03937 -1.52229,0.85455 -0.55599,0.69901 0.66678,0.18444 0.84115,-0.0631 0.86578,-0.34947 0.72627,-0.66508 0.33646,2.31017 0.42879,0.97016 1.67616,0.79046 2.25266,2.09401 0.84526,0.34887 v -0.74139 l -0.62779,-0.37803 -0.56624,-0.7465 -1.24738,-2.20659 1.36637,-1.83433 0.75089,-0.58255 1.01349,-0.0243 0.0985,-1.58314 0.94374,-0.4615 4.20989,0.20404 4.12988,-0.99116 6.81954,1.37491 4.51558,2.35006 0.5129,-0.31551 0.77141,-1.07295 0.46776,-0.3205 h 3.78726 l 1.0217,0.47588 1.08325,0.84476 1.06068,0.39317 0.96631,-0.89806 1.32123,0.89806 5.59268,-0.89806 1.33969,-1.14114 0.0513,-1.48167 -0.8986,-1.18584 -1.52229,-0.2625 0.5088,-1.58517 0.59907,-0.52533 0.73242,-0.29188 0.91091,-0.86609 0.64626,-1.38233 2.1111,-6.12064 0.16618,-4.15374 -1.61256,-1.70016 -2.18701,0.2199 -1.56332,1.61213 v 0.82041 h 0.37339 v 0.89342 l -7.60325,6.54891 -2.51937,1.0569 -14.3756,-2.81105 -3.61903,-2.97941 -0.54778,-0.24882 -0.24619,0.0732 -0.71806,0.54151 -4.5956,0.72186 -1.35406,-0.59504 -0.95605,-1.17089 0.77346,-0.50752 1.4751,-0.46855 1.14685,-1.0545 0.38365,0.62493 0.37749,0.25384 0.92733,0.0147 v -0.89342 l -1.11607,-0.83018 -1.2761,-0.12698 -2.4291,0.95716 0.517,-1.77782 0.91707,-1.72016 1.69873,-2.23956 2.34498,-1.12526 0.8904,-1.01798 -0.13541,-1.96346 0.74063,-0.32328 1.82183,0.32328 0.4493,-0.47024 1.49357,-2.89643 1.3438,-1.03963 5.6255,-1.60917 4.75357,-3.69731 1.82183,-2.3001 3.22922,-1.67698 1.15711,-1.28908 -0.11489,-0.13288 -0.12515,0.0295 -0.0882,-0.10335 0.0144,-0.54633 0.75705,0.0886 1.23711,1.39267 0.76115,0.0984 -0.68729,-2.48058 3.12665,-1.83215 6.54667,-2.0797 3.12254,-1.87388 -4.84179,1.60273 -1.76027,0.0444 -3.59647,-0.81851 -2.99124,0.89739 -0.98477,-0.0789 0.99093,-1.87895 1.07504,-1.42598 -1.81978,-1.8019 -0.68318,-1.31875 -0.25235,-1.85311 -0.65856,0.49921 -0.6955,0.30146 -0.71601,0.1186 -0.71396,-0.089 0.28518,1.70446 -0.4493,0.54819 -0.71807,-0.17284 -0.52521,-0.41981 -0.46366,-1.09174 -0.94579,-2.91153 -0.65856,-0.97935 0.2626,2.05233 -0.11899,1.71996 -0.44725,1.50173 -0.73037,1.3628 -0.8904,1.12534 -0.5129,0.43424 -0.45546,0.16776 -0.90681,2.79136 -0.48418,0.51756 -1.90183,0.18236 -0.85142,-0.34501 -1.35406,-2.13991 -2.96662,-2.7337 -2.12136,-1.09118 -0.28312,-1.07179 0.99298,-1.98155 1.0935,-0.81572 5.58242,-1.22643 2.33883,-1.65249 1.20634,-0.37613 0.55804,-0.53459 0.14977,-1.24771 0.12104,-2.52665 0.43494,-0.85754 0.55804,-0.65446 1.10171,-0.90755 -1.49152,0.41661 -3.70314,5.40106 -1.7172,1.44532 -1.64128,0.77684 -3.55749,0.26714 v -0.8312 l 2.13367,-1.54423 0.65241,-0.86649 v -0.91131 l -1.04631,0.0793 -0.75089,0.71816 -1.30482,1.77735 -1.04222,0.40582 -0.63805,-0.49491 -0.58471,-0.67817 -0.89244,-0.14357 v 0.91083 l 0.61343,0.93035 -0.25851,1.09332 -0.73447,0.91493 -2.78403,1.13217 -0.74473,-0.38559 -0.53547,-2.10671 -0.0513,-1.99425 0.19285,-1.49529 -0.0123,-1.5158 -0.66062,-2.06187 -0.97656,-4.29162 -0.60317,-1.49475 -0.62984,1.1323 0.0718,3.27543 0.80423,2.59312 0.006,0.99603 -0.28518,0.93627 -0.96836,2.14397 -0.54983,0.83145 -0.63189,0.0841 -0.74678,-1.17297 -0.95605,-2.30265 -0.42879,-0.20312 -0.318,3.16903 -0.38159,0.95998 -0.54573,0.46504 -0.65241,-0.0544 -0.38981,-0.51947 -0.40211,-0.97981 -1.15095,-3.81823 -0.21952,-1.9877 0.36518,-2.04353 1.14069,-2.29309 -0.45956,-0.67038 -0.25439,0.17381 -0.2503,0.41712 -0.4452,0.0795 -1.3479,-0.90877 h -0.84937 l -0.28927,0.20859 -0.23389,0.70018 0.0308,0.70001 0.45135,2.63485 0.48418,1.50748 1.37868,9.29179 -0.70575,0.7562 -0.86168,-0.1878 -0.93143,-0.47449 -0.91501,-0.0939 v -0.75639 l 0.28722,-1.00878 -0.24619,-0.82112 -0.57035,-0.53433 -0.67703,-0.20288 -1.67,0.54921 -0.55394,-0.14842 -0.0431,-1.14806 -0.41237,0.094 -1.2761,-0.094 v -0.91083 l 1.2207,-1.22806 2.25267,-3.10196 1.3479,-0.6644 -0.50469,-1.33913 -0.84937,-0.9278 -1.77874,-1.13656 -0.27697,2.71912 -1.0258,2.33023 -1.2761,1.16943 -1.03401,-0.76801 -0.3262,-1.33826 -0.22773,-1.48763 -0.30159,-1.21541 -0.53957,-0.49622 -0.1313,0.82368 -0.40006,4.99705 -1.07094,1.39162 -3.03022,0.74756 -1.41971,0.81171 -2.78198,-1.38103 -1.48536,-1.51537 0.14976,-2.55203 -1.40535,0.82778 -0.85757,2.40774 -0.0657,2.65828 0.95195,1.58796 v 0.90492 l -0.65241,0.68224 -1.1448,1.88279 -0.67293,0.68168 -0.80628,0.25189 -3.35847,-0.40006 -1.38073,-0.62243 -0.81039,-0.1334 -0.78371,-0.39527 -0.59907,-0.89943 -0.55393,-1.07767 -0.62369,0.089 -0.24209,0.1681 -0.51701,0.52896 0.37545,0.32622 0.34672,0.5041 -1.44843,0.60778 -2.65273,2.21272 -6.80928,1.39203 -1.54691,-0.89833 -0.0451,1.45596 -0.21747,0.46873 -0.34057,0.12334 -0.42673,0.43904 -1.89569,3.3032 -9.24863,2.6007 -2.33473,-0.28066 -2.0434,-1.41842 v -0.90162 l 0.28312,-0.96102 -0.21336,-0.88243 -0.50675,-0.78897 -0.59702,-0.67078 0.91912,0.0641 0.38981,0.25156 0.41442,0.51291 0.14772,-2.22979 -0.92938,-1.12536 -1.15095,0.1629 -0.51085,1.60393 -1.20634,-1.81126 -7.74481,-3.23028 -14.37355,1.54146 -1.84234,-0.35071 -1.0894,-2.02107 2.21368,-1.33492 1.12018,-1.12275 0.48418,-1.23697 0.63599,-0.83152 2.94611,-1.88657 0.8945,-1.05518 0.20516,-1.89329 -0.008,-2.19704 0.28723,-1.82127 1.55101,-1.03269 0.88219,-1.19198 0.71396,-0.27323 1.28225,0.23846 4.90539,2.93448 1.41561,0.23821 0.86578,0.52103 2.76556,3.56551 1.98595,1.26853 3.52261,0.95106 0.83705,1.15872 0.73243,1.36616 0.86783,1.14295 1.52023,0.77164 1.47101,-0.10387 2.86609,-1.49897 -2.3019,0.0891 -1.19199,-0.32659 -0.95399,-0.50975 -0.82475,-1.09402 -0.7078,-1.43121 -0.77551,-1.2485 -1.00939,-0.53522 -2.48039,-2.74692 -1.37868,-2.41172 -1.60845,-2.17511 -0.88425,-1.74911 7.6053,1.58517 4.93822,2.91981 1.57358,0.49134 -0.96426,-1.89132 -1.3479,-1.59435 -1.44023,-1.11304 -2.19111,-0.81019 -2.6158,-1.76026 -2.33473,-0.86059 -1.11197,-1.07981 -1.7972,-2.56914 -2.06802,-4.26161 -0.16618,-1.55654 0.0595,-1.48243 -0.0574,-1.44316 -0.52111,-1.44882 2.13367,-1.91947 2.1665,0.15 21.26694,11.96203 0.48007,0.60264 0.8945,1.82216 1.37253,1.06991 0.35082,0.60197 0.51701,2.17809 -0.22568,1.38166 -0.53342,1.26683 -0.41647,1.84219 0.90475,0.51622 1.15711,-0.92826 2.06802,-2.92058 0.20105,0.61116 0.80218,1.05807 0.54778,-1.1475 2.74095,0.6955 1.2166,-0.38251 v -0.83472 l -0.44315,-0.24351 -0.20721,-0.27831 -0.3816,-1.14333 0.87809,-0.0646 2.25266,-1.60637 0.81654,-0.0995 0.80833,0.11939 0.76935,-0.0995 0.7037,-0.75624 -5.98248,0.5075 -2.72863,-0.88568 -1.99416,-1.29414 -0.69755,-0.81657 -0.89655,-1.44446 -0.49238,-1.37535 0.50469,-0.61311 3.13896,-1.46598 0.68318,0.28427 0.78371,0.70309 4.11552,-0.56346 1.31098,-1.19706 1.03401,-0.27439 2.20547,0.85303 1.07915,0.10973 1.03401,-0.96276 -0.95195,-0.85326 -0.42468,0.015 v -0.75365 l 2.37576,-1.67265 0.72422,-0.92408 -2.76557,0.39964 -1.59204,0.7342 -2.1665,1.97699 -13.58983,-0.3344 -2.66914,-1.0983 -1.75412,-1.67813 -2.65478,0.98402 -0.60112,-0.52444 -0.6996,-1.27399 -2.93174,-3.29978 -1.61872,-3.33328 -1.07914,-4.01362 0.17439,-3.73258 2.14803,-2.45567 0.99297,-0.0603 2.85994,1.74281 3.75444,0.84845 0.94374,0.61737 1.60025,1.99684 0.92732,0.75225 0.954,0.12035 3.17794,-0.96288 6.22867,2.5169 h 2.06597 l 3.59236,2.66512 1.94492,0.80611 1.75207,-0.87121 -4.16886,-1.35735 -1.32944,-1.67872 -4.16886,-0.39601 -1.30277,-0.77712 -2.3655,-2.15187 -5.22339,-1.25468 -1.15711,-0.87355 -2.73684,-3.76306 -1.38278,-0.78935 -0.67498,-1.15674 -1.0894,-0.46281 -2.30806,-2.20936 -2.06186,-2.88608 -0.4493,-1.00798 -0.006,-3.82316 0.28928,-2.00928 0.75089,-1.48506 2.07827,-0.76806 2.6117,0.60133 9.1399,5.58836 2.67734,0.70604 1.80336,-1.04903 0.23389,1.94649 0.61958,1.66315 0.87604,1.14857 1.0217,0.4029 v -0.77564 l -0.85552,-1.32004 -1.54691,-3.86253 -1.03812,-0.81244 -1.153,-0.26749 -2.31831,-1.16109 -1.20634,-0.26762 -0.56214,-0.42419 -1.53666,-2.12182 -2.95226,-2.68464 -1.69462,-2.39839 1.63102,-1.36699 4.39454,-0.43554 3.32976,0.54695 4.4766,3.72478 -1.19814,-1.11798 -1.98185,-3.28543 -1.14069,-0.69397 -4.84179,0.11651 -1.19814,-0.89171 v -0.92746 l 0.49649,-0.94293 0.73448,-1.12581 0.84936,-0.94356 0.84937,-0.39577 2.08853,-0.10656 0.79192,-0.71558 0.0739,-1.65 1.14479,-0.58914 7.9192,2.29497 5.13517,3.82462 1.51408,0.34976 0.99708,0.80584 1.27405,1.89973 0.86783,2.24275 -0.19901,1.85172 0.34672,2.69974 2.48655,-3.93916 0.98477,-0.46048 0.54162,0.32386 0.47803,0.75892 0.70164,1.53751 0.91912,1.32955 0.10258,0.67215 0.0144,1.81356 0.34672,3.20528 -0.33442,0.91303 -3.80367,7.38032 h 0.31389 l 1.08325,-1.76165 2.75736,-3.40528 1.00939,-1.66872 0.8309,-3.04227 0.54778,-0.3483 0.60317,0.38869 0.3816,0.92861 0.73447,2.92035 -0.34056,0.92244 0.72626,-0.71575 0.80013,-1.18993 0.80833,-0.68087 0.76115,0.81703 -0.85962,2.87812 -1.18378,2.89563 -1.45254,2.33973 -1.66795,1.17676 2.02493,-0.13073 0.92117,-0.48274 0.84116,-1.07637 0.96426,-3.1709 0.73242,-1.88896 0.55393,-0.39304 0.7037,3.33932 -0.3221,3.44139 -0.46161,2.90515 0.27081,1.74783 1.71925,-5.98079 -0.0944,-2.76304 0.20927,-3.1888 0.42263,-2.965 0.53136,-2.07413 0.40622,-0.93911 0.27697,-0.19695 3.41592,0.31814 0.34262,0.39384 0.11899,1.68083 0.32005,1.01917 0.43905,0.62546 1.9285,2.06215 2.11726,3.91386 0.0451,0.55873 -0.44315,4.04403 -0.30774,1.20115 -0.40006,0.60794 0.12925,0.45211 0.21336,0.30639 -2.59528,7.27435 -0.53136,2.26416 0.36518,1.04638 0.65652,-0.19523 1.18377,-4.74933 3.34617,-9.02234 0.33236,-2.43951 v -0.926 l 1.07915,-0.19631 0.68523,1.17263 0.58266,1.7556 0.77961,1.56865 0.36518,0.0905 0.29133,-0.3016 0.31184,0.005 0.41033,1.05043 -0.0287,0.99482 -0.27081,0.95935 -0.0431,0.83354 0.68729,0.58737 0.32415,-1.8679 0.33646,-0.93939 0.36929,0.27632 0.004,0.84388 -0.34467,4.21102 -0.41852,1.38404 -1.16531,2.36551 -0.48418,1.36737 v 0.76607 l 1.92851,-1.09659 1.96543,-6.87364 1.61051,-1.28514 v -0.92402 l -1.03606,-1.13531 -0.57445,-2.38246 -0.36518,-2.73149 -0.43084,-2.17985 -0.73447,-1.7631 -0.96016,-1.66326 -1.06683,-1.24045 -1.05863,-0.4943 0.52111,-1.60954 0.51085,-2.90833 0.72422,-1.24797 0.9622,-0.49529 1.00734,-0.0607 0.88219,-0.45493 0.58676,-1.68887 -1.03606,0.0405 -2.4886,1.2642 -0.94784,0.93012 -0.93348,0.36389 -4.22426,-2.1081 -2.82301,-2.95977 -11.98958,-5.22814 -3.52466,-3.77452 -2.10494,-5.54822 2.35524,-1.52596 7.48426,-2.04594 1.58178,0.0764 5.35469,1.71009 h 1.39099 l 0.54162,0.21369 0.27082,0.51383 0.39185,1.05792 1.35611,1.41847 0.71396,0.18298 0.68729,-0.74724 -0.34057,-0.42708 -0.24619,-0.56444 -0.44725,-1.64813 2.49065,0.0153 1.27815,-0.3511 2.21573,-1.78664 2.51732,-0.25969 1.16532,-0.96253 -6.85237,1.10002 -2.09263,-1.10002 -0.99093,-1.05455 0.20927,-0.16815 0.81243,-0.0917 0.81244,-0.86639 0.53547,-0.93801 0.73857,-0.74959 0.83706,-0.42841 0.82885,0.0255 v -0.93863 l -1.12018,-0.64803 -0.66882,0.23984 -1.99416,2.122 -2.56041,1.42746 -2.98303,0.28542 -2.35935,-0.4944 -0.42468,-0.28036 -0.0677,-1.35629 0.43699,-0.90791 1.04016,-1.24499 0.18465,-0.89322 0.27081,-2.51771 0.20106,-0.79199 0.68934,-0.76152 2.40858,-1.03268 -2.19111,0.46015 -1.65565,1.18585 -3.98832,4.34602 -0.93758,0.5205 -2.09059,0.34186 -0.61753,-0.73478 0.34057,-1.64366 0.77961,-1.72627 0.68933,-0.95547 v -0.93531 l -1.72745,0.72068 -0.85552,0.74094 -0.85962,1.11365 -2.01057,3.62939 -0.40212,0.26018 -1.21455,1.45352 -7.98484,-2.11165 -2.08033,-1.18907 -1.37047,-1.81764 -0.82475,-0.81726 -0.34467,-0.81747 0.67703,-1.16527 1.93672,-0.13802 2.4373,0.95068 2.15624,-0.32197 1.10582,-3.91744 -1.42382,-0.21493 -1.59204,-1.22337 -1.47511,-1.78728 -1.08119,-1.93181 1.5428,-1.26118 1.58384,0.73831 1.58384,1.43 1.52229,0.80953 -0.62779,-2.02422 -0.41032,-0.63059 5.52497,-0.9333 0.35903,0.14873 0.30774,0.50769 0.42264,1.53794 0.30363,0.53298 1.08735,0.28182 0.45546,-0.95831 -0.18464,-1.26112 -0.82475,-0.641 -0.82475,-0.32312 -2.4927,-2.26274 h 5.0408 l 0.89245,0.40034 1.78284,1.78034 2.27318,0.8821 1.81772,2.24516 1.0217,0.7173 1.29251,-0.22542 1.96954,-2.34735 1.18583,-0.86661 -0.31389,-1.72367 1.9839,-0.7236 1.62897,1.32392 1.58794,1.88741 3.47953,1.73255 0.76114,-0.15886 0.22773,-1.55318 -0.36518,-1.24617 -1.32124,-0.92342 -0.3816,-1.20084 1.61872,0.28229 1.55717,1.58036 1.18172,2.47669 0.46367,2.97661 0.88219,1.8532 4.10321,2.29706 1.27199,2.36182 -0.71806,1.25176 0.65036,0.75593 2.13982,0.49023 v 0.85772 l -0.92322,-0.3063 -0.3857,0.53601 -0.0698,2.41346 0.69345,1.51958 0.0903,0.9379 -0.78372,0.88667 v 0.92717 l 0.65447,0.8556 0.68728,-0.76392 0.80218,-0.62655 0.835,-0.38211 0.77551,-0.0102 0.46366,0.56041 0.40622,0.8557 0.48623,0.37684 1.14275,-2.44519 0.80833,-0.25482 0.46366,0.87649 -0.29748,1.81334 3.59236,-0.38194 0.91296,0.38194 0.4411,-0.7843 0.44725,-0.0407 0.80423,0.82504 2.09674,3.42009 -0.47803,0.88496 -2.96662,2.52126 0.67088,0.45727 0.64625,-0.34549 0.67703,-0.65043 0.76115,-0.38626 0.74268,0.18806 2.35524,1.98149 0.63395,0.95981 0.40006,0.35033 0.49854,0.0305 1.0217,-0.65499 0.53957,-0.14219 3.16563,1.70583 -0.14977,0.44662 -0.22567,1.17713 0.86988,0.56811 0.50264,1.49081 -0.0123,1.51038 -0.67087,0.68399 0.68523,2.62818 0.0164,-0.0456 0.0821,2.03929 0.25645,2.39181 0.33441,0.83393 0.68729,0.63667 0.71601,-0.11115 0.88424,-0.55584 0.85962,-0.22741 0.64216,0.8944 0.0985,1.71736 -0.44314,1.55491 -0.60318,1.42298 -0.40006,1.31644 0.6442,-0.18154 0.80013,-0.57497 0.67703,-0.72137 0.28723,-0.6408 -0.0267,-3.03421 -1.034,-2.48104 0.62573,-0.69262 1.79311,-0.91529 2.24035,-0.15679 0.3775,0.42483 0.68934,2.27491 0.93142,0.44468 -0.60727,0.96999 -1.07504,0.87879 -0.46982,0.16664 -0.33236,1.18643 0.22363,0.9034 0.9704,1.67995 1.28021,1.06905 5.46342,-1.53309 1.44843,0.38838 1.18994,0.69595 0.91091,1.44688 0.61138,2.6299 -7.09856,0.67476 -1.34995,1.12763 -5.32187,1.58504 -0.75089,-0.0151 0.92733,1.75018 1.41151,-0.1961 2.84147,-1.55408 4.7269,-0.86036 1.48331,0.86036 -0.60933,1.0462 -2.17265,1.56362 v 0.84434 l 5.42855,-1.56824 1.32944,1.1461 0.73447,2.48679 0.15798,2.12353 -0.59702,1.61051 -1.51409,0.94285 2.40654,1.67437 v 0.91701 l -2.50091,5.88661 -0.90886,1.5949 -1.48742,1.36927 -5.1167,1.98788 v 0.9186 l 1.09146,0.0799 1.87927,-0.35941 0.84936,0.27954 2.6794,1.72664 0.79397,0.77818 -4.13399,5.01365 -1.48126,1.14514 -6.8421,-0.30865 -0.48623,-0.5676 -1.06273,-1.93258 -0.97246,-0.72752 -0.90681,-1.62007 -0.61138,-1.7107 -0.0903,-1.04284 -1.25148,-1.76212 -1.55101,-0.85896 -1.62282,0.045 -1.45869,0.90388 0.97861,0.15978 2.37371,1.56737 0.80833,0.78339 0.10463,0.33426 1.27405,2.17927 0.12925,1.48025 -0.15797,0.97648 -0.40622,0.81683 -0.62984,0.97593 0.81243,0.83627 0.41853,0.61711 0.17849,0.63689 0.26466,1.62149 0.57855,0.92477 0.84321,0.83505 0.8945,0.81992 8.41774,-0.2236 1.44638,0.76016 0.66882,1.59424 -0.5129,1.38995 -2.60554,4.1662 -1.01554,1.11007 v 0.82238 l 2.44346,-1.35754 3.08561,-2.81604 2.64452,-0.60518 1.12018,5.23445 -1.06478,4.44445 -2.52348,4.28017 -2.97278,3.11011 -2.41884,0.9867 v 0.82859 l 5.08798,-1.98306 1.95313,-1.75718 1.09556,-0.40488 1.13248,0.23701 0.73243,0.66156 1.42176,2.41796 1.9203,1.83937 0.51701,1.18295 -0.3734,2.00999 0.71191,0.44813 0.10874,0.91085 -0.12105,1.25506 0.0246,1.52017 0.30159,2.6696 0.008,1.86689 -0.22978,2.42041 0.0246,1.19234 1.96134,6.33199 0.68523,1.23356 -0.26465,0.4013 -0.11079,0.33763 1.00734,1.08117 1.01759,1.99992 0.53342,2.34548 -0.45956,2.10946 v 0.74676 l 0.82064,0.72219 0.83706,-0.70755 0.39801,-1.64506 -0.73448,-2.9261 -0.28722,-2.8212 -0.44315,-1.22802 -1.2843,-2.87868 1.03401,-1.71964 -0.18054,-1.044 0.32415,-0.76483 0.5088,-0.67184 0.37955,-0.74066 0.27286,-1.85485 -0.0267,-1.67422 -1.04632,-9.15266 -0.20311,-3.83911 0.64626,-1.71653 1.55306,0.88305 1.0812,2.16464 1.54075,5.15171 1.47305,2.95131 0.55804,1.7105 1.7213,0.56014 0.69139,0.6288 0.3775,-0.90886 -1.31508,-2.77733 -1.18788,-3.7151 -0.8945,-3.97581 -0.41853,-3.57115 -0.20106,-4.82548 0.20106,-1.80959 0.22362,-0.66774 0.83911,-1.74172 0.68729,-4.30895 1.5387,-2.98504 5.6891,-4.51265 3.10203,-4.17087 0.93348,-0.51739 0.96631,-0.27863 0.70985,-0.50757 0.17234,-1.20456 0.66472,-0.10953 0.48418,0.37338 0.94784,1.40847 0.21747,0.0398 0.6483,-0.14928 0.17234,0.10947 0.14771,1.05471 -0.14771,0.33822 -0.24619,0.0696 -0.13131,0.28845 -0.35287,4.88973 -0.0431,2.46187 0.39596,1.80548 -0.60522,2.06215 -0.0308,2.12022 0.54162,1.2774 1.12633,-0.46535 -0.517,-2.22868 0.0882,-1.96749 0.65241,-0.91726 1.18172,0.95196 0.4411,0.79309 0.21952,2.61576 -0.318,1.74264 0.002,0.66808 0.17644,-0.0445 0.94168,0.56406 0.29338,0.31167 0.78987,2.56644 0.55599,0.75618 0.56214,0.45955 0.60317,0.29645 0.63189,0.1087 0.80834,-0.22727 0.95194,-0.67202 0.4411,-1.29502 0.2585,-1.87923 0.59086,-2.60308 -0.57855,-0.50998 -0.77346,-1.63447 -0.57034,-0.34186 -1.73566,0.14864 -0.83706,-0.23783 -0.69959,-0.82262 1.68026,-0.65429 1.59205,-0.10906 0.66882,-0.25779 1.38894,-1.14546 0.72832,-0.25295 0.6401,1.14555 -0.20106,5.41466 0.73037,1.74676 -0.18464,-1.9596 0.46571,-1.45565 0.3221,-1.40182 -0.60317,-1.8337 0.57445,-1.61652 1.62077,-2.37669 0.77961,-1.45469 0.18875,-0.89399 0.0595,-1.98756 0.25235,-0.90476 0.47392,-0.46739 0.92938,0.0149 1.04016,-0.30335 -1.12017,-0.23374 -0.68934,-1.50731 -0.0923,-1.70219 0.68319,-0.81658 0.65446,-0.4781 0.49033,-1.25535 0.30774,-1.74436 0.11079,-1.99474 -0.40006,-3.14427 -0.98067,-2.88251 -1.24737,-2.27489 -1.19404,-1.29567 v -0.91579 l 1.34175,-1.26153 -0.5088,-3.57707 -1.30482,-4.00272 -1.91209,-4.35457 -0.35493,-1.15118 -0.32621,-4.25646 -0.31594,-2.04978 -0.54573,-1.59743 -0.73242,-1.27551 -0.87604,-1.08433 0.7714,-1.21086 0.70986,-1.8828 0.23388,-2.01529 -0.65446,-1.59193 1.01554,-0.91004 1.21045,-0.21238 2.09469,0.27811 0.5047,-0.21743 1.40124,-1.48197 0.66062,-0.21249 1.78079,0.21249 0.97041,-0.55655 1.81567,-2.31833 0.80013,-0.51654 2.47013,0.91149 1.12838,0.12151 1.07915,-1.033 0.2585,2.65777 0.66882,1.54806 0.97246,0.94061 1.19814,0.78869 -0.34467,0.93504 0.52521,0.4952 0.37134,0.93462 0.48008,1.8785 0.66472,1.84206 2.12341,4.08401 0.74473,2.85064 0.60112,0.52351 -0.66061,1.69075 0.98066,1.64962 1.29457,1.35224 0.93348,1.56266 -0.11079,2.26472 0.91091,0.87332 2.71633,0.45162 2.01878,1.35447 0.60727,-0.0301 0.55394,0.11536 0.91912,1.35887 0.64625,-0.12032 0.26876,0.20554 0.31595,0.8922 0.36929,2.53988 1.40945,3.36333 0.21952,1.52532 0.27902,3.31817 0.33236,1.40817 1.0894,1.49736 2.57271,0.77834 1.01555,1.5262 0.3139,-2.61394 0.35697,-0.92837 1.55102,0.19967 0.1949,0.21464 0.69344,1.03303 0.36519,0.34427 0.56829,0.16464 1.42792,-0.0748 -0.4452,0.2694 -0.36929,0.41901 -0.15182,0.55361 0.18055,0.99725 0.42878,0.0349 0.92322,-0.61327 0.53547,-0.73308 0.46367,-1.7062 0.56624,-3.50009 0.35287,-3.57899 0.0287,-3.0874 -0.33236,-2.9 -0.73448,-3.02805 -1.43407,-4.27631 -0.13541,-0.77859 -2.96867,-3.37277 -0.0226,-0.88023 0.22158,-1.16227 0.43083,-0.98651 0.62164,-0.42289 0.91707,-0.21146 1.00323,-0.63448 0.954,-1.03759 0.75294,-1.42095 -0.55393,-0.71071 -0.48829,-0.99829 -0.39801,-1.22562 -0.48828,-3.05854 0.21747,-0.33329 0.49033,-0.98997 0.90886,-1.14189 2.88046,-1.55686 6.72516,-1.15298 2.3614,1.82536 1.25558,0.22746 -0.10874,-2.05282 0.39391,-0.49571 0.40212,-0.30353 0.43904,-0.10625 0.48623,0.12648 -0.14156,0.48058 -0.20311,1.21882 1.01144,0.40449 1.71104,1.79932 1.03401,0.26274 -0.636,-0.60635 -0.45956,-0.71261 -0.33236,-0.90489 -0.2626,-1.16309 h 0.34467 v -0.77901 l -0.28107,-0.20237 -0.75294,-0.71852 v -0.7693 l 0.47187,-0.86569 0.87398,-4.24077 0.49239,-0.76059 1.74591,-1.56741 4.50533,-1.67988 1.6023,0.78169 -0.36518,4.00181 0.96425,-0.39539 0.67293,-1.09518 1.1489,-2.68381 -0.37955,-1.70583 0.92322,-0.74152 1.36637,0.24381 2.52963,1.26443 -0.39391,1.86272 -0.84936,2.70837 -0.16003,1.85495 0.56009,-0.0405 3.63134,-3.82264 1.47716,0.34494 1.2166,1.50105 1.03606,1.6321 0.93348,0.7752 0.47597,0.88643 -0.58471,1.97458 -1.42791,3.15676 0.63805,0.0556 0.72216,-0.1972 0.68524,-0.45512 0.50879,-0.71317 0.59087,-0.47047 0.65856,0.52611 0.64216,0.82441 0.56419,0.42982 0.78781,0.93024 0.49034,2.17285 0.40211,2.51459 0.54162,1.92751 -0.93142,3.7104 -0.39802,2.17582 0.1231,0.95648 3.61493,0.926 2.32447,1.48908 3.74213,0.55319 0.50469,0.41232 0.54162,0.96522 0.84732,2.01997 1.16531,0.93417 0.3898,1.26522 0.26261,1.43028 0.70985,2.57289 0.40417,0.16042 0.92322,-0.14037 0.45546,0.10026 0.34262,0.45115 0.50469,1.53343 0.13541,1.01185 -0.10874,3.41887 0.19901,1.39551 1.21045,3.1389 -0.008,5.14644 0.16413,0.79293 0.43494,0.34405 1.47305,2.16809 2.37986,2.50018 -0.27081,1.63749 0.2503,2.17869 0.60727,1.73491 0.8227,0.29321 0.63394,-1.52097 -0.0431,-2.23804 -0.42879,-2.21473 -0.50674,-1.45909 -0.40622,-0.46327 -1.04632,-0.80713 -0.29748,-0.47841 -0.21953,-1.38578 0.14772,-0.78787 0.27081,-0.5636 0.17234,-0.68843 -0.14772,-2.00128 -0.0472,-0.87877 0.19491,-1.30862 0.26465,-0.47963 0.86578,-0.79954 0.24825,-0.39985 0.29543,-2.28011 -0.15387,-1.9614 -1.55717,-6.21751 0.0369,-1.7156 -0.12925,-0.46669 -0.30774,0.0201 -0.35698,0.14051 -0.27082,-0.11542 -0.99297,-2.19381 -0.43494,-0.54744 -0.21747,-0.51739 -0.26261,-0.11554 -0.25029,0.26625 -0.59292,1.41627 -0.68318,-0.46198 -1.55922,-2.00435 -0.51496,-0.90464 0.47392,-1.7497 -0.19079,-1.6601 -0.64011,-1.23809 -1.45458,-0.97169 -1.0176,-2.55905 -0.64215,-1.18451 v -0.84708 h 0.37544 v -0.93305 l -1.37047,-3.46228 -0.62984,-5.78737 0.27081,-5.82843 1.35406,-3.59561 0.67087,-0.29939 4.52379,0.29939 0.68729,0.41099 1.21455,1.07543 0.6955,0.21808 2.15418,-0.21808 0.78577,0.21808 -0.13541,0.70486 -0.23799,0.22309 1.88953,1.11521 4.97309,-1.31801 2.15214,0.97842 0.41442,0.95786 0.52316,2.45159 0.43699,0.92139 0.55804,0.28345 2.03929,-0.28345 0.88219,0.52638 1.61667,2.33731 0.94169,0.5259 0.67497,0.60166 1.97775,3.11764 0.636,1.36837 0.81243,3.57211 0.57651,1.65854 1.61871,1.21941 0.86168,1.23908 1.29661,2.53708 1.71309,5.13837 0.72627,1.60717 0.20311,-2.35076 -0.42263,-1.83963 -0.66062,-1.65961 -0.52931,-1.82154 0.98066,0.0604 1.15506,-0.31711 1.12633,-0.60914 0.8986,-0.81574 -4.62842,0.24676 -1.22276,-1.0224 8.02383,-0.14105 0.58881,0.59437 0.33646,1.40992 0.72217,2.28474 h 0.30979 l 0.27081,-0.87546 0.0595,-0.91596 -0.18875,-0.85078 -0.45135,-0.73014 v -0.77564 l 0.64831,-0.56422 0.57239,-0.92716 0.3098,-1.27025 -0.15182,-1.62384 0.80218,-0.91315 0.3221,-0.61059 0.2544,-0.93378 0.0328,-0.71188 -0.11694,-1.9244 0.0841,-1.60708 0.62984,-1.69895 1.2802,-1.6442 1.48947,-1.25522 1.25763,-0.48603 0.54573,-0.66841 0.28927,-1.45885 0.0472,-1.45952 -0.20721,-0.66918 -0.55393,-0.3752 0.24824,-0.88749 1.0258,-1.75035 1.37458,-1.4416 3.08766,-1.17814 0.52932,-2.18478 1.32944,1.25517 5.07157,0.52326 1.36842,1.02087 0.98271,2.15746 1.95108,5.33908 -0.0308,1.18016 0.0308,0.59752 h -0.68934 v 0.8505 l 0.59086,0.53145 0.6319,0.27328 0.62984,-0.12146 0.59086,-0.68327 -0.33441,-0.10124 -0.73447,-0.74926 1.7972,-1.36736 6.35177,-1.77845 1.86902,0.59293 -0.81244,-0.0304 -0.80013,0.27363 -0.76525,0.56237 -0.72216,0.89656 0.6442,0.44058 0.90476,1.79716 0.35903,-0.1569 1.0217,-2.48603 0.60112,-1.00308 0.60317,-0.29388 1.42177,1.38813 1.04221,2.20759 1.11608,1.88232 1.64538,0.39454 v -0.77901 l -1.61256,-1.17393 -0.80423,-0.89086 -0.54367,-0.90124 -0.39391,-1.63099 -0.0144,-1.22633 -0.20106,-0.9733 -0.93553,-0.92795 2.29574,-1.66898 3.44055,-1.14698 2.07417,-1.32513 1.16941,-0.0356 -4.46224,2.63959 -1.39099,1.53705 4.42327,-1.76539 1.05042,0.0609 1.22686,1.12629 1.96133,3.01161 1.32124,0.19763 v -0.92746 l -1.77875,-1.85572 -0.8986,-1.40012 -0.38775,-1.38552 0.19695,-1.90418 0.52316,-1.61056 0.76115,-1.24024 0.8945,-0.8237 0.12309,-1.3428 0.44315,-0.97695 0.33851,-1.20633 0.12925,-1.17623 -0.1272,-1.91551 -0.33646,-1.04995 -0.48828,-0.85653 -1.04837,-2.31073 -0.28517,-0.27046 -0.31185,-0.0919 -0.26466,-0.46444 -0.23388,-2.88007 -1.39714,-1.13437 -0.34467,-1.00697 0.36313,-2.22976 -0.16618,-0.0461 -0.52315,0.0461 0.68933,-1.7911 -0.35697,-0.35834 -0.2462,-0.53759 -0.46161,-1.60307 h 1.06478 v -0.86077 l -0.87398,-1.22496 -0.96631,-4.0165 -1.42791,-1.69432 0.45545,-1.74147 1.04017,-1.5368 1.08325,-0.19536 0.29543,0.74541 0.17028,1.74202 0.56829,0.16953 0.72012,-2.97574 0.65856,-0.54509 1.41561,-0.61205 0.81859,0.0463 0.0164,0.99772 -0.25645,1.39319 0.17234,1.1768 0.43289,0.87331 0.52726,0.43143 -0.37545,-2.50723 0.79603,-0.31355 1.48741,-1.28021 0.47392,-0.2057 0.74268,0.65306 0.55394,0.97164 0.60522,0.80175 0.88014,0.15416 -0.7078,0.77069 -0.32621,0.16953 0.86783,0.78586 0.93758,-0.18489 1.29251,-0.60097 v -0.94022 l 0.55804,-0.89423 0.517,-1.21328 0.59087,-0.79197 0.44314,1.7688 0.58471,0.21589 0.54163,-0.72997 0.41237,-2.38645 0.43494,-0.58145 1.11607,-0.56098 h 1.39714 l 2.8743,1.25562 0.57445,-0.319 2.34294,-1.02927 4.24682,4.28982 2.39422,0.97647 -0.67908,1.15596 -0.78782,0.51876 -0.65651,0.78055 -0.31595,1.93512 h 0.68934 v 0.785 l -1.03196,0.93867 0.27082,0.35385 0.76114,1.36887 -0.59086,1.13259 0.68524,0.18445 1.81361,-0.46115 2.02289,0.46628 0.88629,-0.46628 -0.22568,1.97737 -0.0841,0.60424 h 4.81512 l 0.91091,0.33791 0.82064,0.87021 0.46777,1.13603 -0.10258,1.9436 1.00323,3.43416 -2.10495,3.97119 -1.18787,1.61154 -1.5264,1.26418 0.68934,1.78326 0.60317,-0.68262 0.61548,0.38717 0.69755,0.74365 1.65975,0.73328 0.17849,0.88583 -0.22158,1.35371 -0.40621,1.70912 0.78371,0.68135 3.69289,0.17286 1.77669,-0.8237 0.59702,0.1678 0.75704,1.42855 0.21747,-0.0102 0.29953,-0.22365 0.48418,-0.53884 0.11284,1.3571 0.32005,1.09746 0.50469,0.75682 1.42177,0.66016 1.50793,1.70563 1.63102,1.29383 0.98477,1.71921 0.99708,1.06453 1.18993,-1.06453 -0.40621,-0.19773 -0.16208,-0.24339 -0.15387,-0.48683 0.88629,-0.6543 0.65857,-1.36989 0.40827,-1.96456 0.14566,-2.43837 -0.42468,-4.28696 0.33236,-1.21138 1.46895,-0.86555 h 6.20816 l 3.54312,-1.25293 0.27696,-0.96805 0.0492,-1.15696 0.27902,-0.9738 3.56979,-2.34653 0.56214,-1.50065 0.35288,-1.92025 0.84116,-1.53296 1.96544,-2.05021 1.34585,-0.96678 4.32068,-0.81867 1.18993,0.34285 1.93877,1.67274 1.18788,0.55227 9.60561,-1.64687 v 0" clip-path="url(#pb9a94d4c1e)" style="fill:none;stroke:#000000" id="path29"/>
      <path d="m 467.59413,456.62811 -0.72627,-0.14807 -0.3734,0.12031 -0.85962,0.55522 -1.54075,1.54025 -0.13131,0.93858 2.19932,-0.77674 0.54163,-0.0786 0.42058,0.33292 0.08,0.66111 -0.2544,0.6009 -0.35493,0.47139 0.3098,-0.13864 0.79192,-1.13705 0.30774,-1.2762 -0.0308,-0.95748 -0.37954,-0.70789" clip-path="url(#pb9a94d4c1e)" style="fill:none;stroke:#000000" id="path31"/>
      <path d="m 454.60336,115.29077 -0.53342,0.35553 0.11695,2.07055 0.87603,1.46709 0.97657,-0.71544 0.20926,-1.16874 -0.38775,-0.29355 -1.25764,-1.71544" clip-path="url(#pb9a94d4c1e)" style="fill:none;stroke:#000000" id="path33"/>
      <path d="m 341.01009,487.546 0.24824,-0.56375 -0.0964,-0.19252 -1.19814,0.0871 -1.00734,0.52252 -0.14977,1.26011 0.3775,1.31457 0.3262,0.86998 0.24415,0.9979 0.36518,0.42103 0.49854,-0.71854 0.47803,-1.07125 0.38365,-1.22275 -0.27082,-1.29196 -0.199,-0.41243" clip-path="url(#pb9a94d4c1e)" style="fill:none;stroke:#000000" id="path35"/>
      <path d="m 435.88247,184.43392 -0.45751,-0.79655 -0.97041,-1.09938 -0.29543,0.46401 0.49443,1.75956 0.29338,1.51173 0.11079,0.96209 0.30774,0.7453 0.43699,0.46823 0.59907,0.20641 0.66472,-0.44807 V 186.772 l -0.73447,-1.64756 -0.4493,-0.69052" clip-path="url(#pb9a94d4c1e)" style="fill:none;stroke:#000000" id="path37"/>
    </g>
    <g inkscape:label="line2d_1" id="line2d_1">
      <defs id="defs9425">
        <path inkscape:label="md315714d41" inkscape:groupmode="md315714d41" id="md315714d41" d="M 0,2.5 C 0.663008,2.5 1.29895,2.236584 1.767767,1.767767 2.236584,1.29895 2.5,0.663008 2.5,0 2.5,-0.663008 2.236584,-1.29895 1.767767,-1.767767 1.29895,-2.236584 0.663008,-2.5 0,-2.5 c -0.663008,0 -1.29895,0.263416 -1.767767,0.732233 C -2.236584,-1.29895 -2.5,-0.663008 -2.5,0 c 0,0.663008 0.263416,1.29895 0.732233,1.767767 C -1.29895,2.236584 -0.663008,2.5 0,2.5 Z" style="stroke:#ff0000"/>
      </defs>
      <g clip-path="url(#pb9a94d4c1e)" id="g9597">
        <use xlink:href="#md315714d41" x="252.356" y="412.38721" style="fill:#ff0000;stroke:#ff0000" id="use9427" width="100%" height="100%"/>
        <use xlink:href="#md315714d41" x="263.71759" y="411.465" style="fill:#ff0000;stroke:#ff0000" id="use9429" width="100%" height="100%"/>
        <use xlink:href="#md315714d41" x="256.93054" y="414.21219" style="fill:#ff0000;stroke:#ff0000" id="use9431" width="100%" height="100%"/>
        <use xlink:href="#md315714d41" x="254.62257" y="418.3851" style="fill:#ff0000;stroke:#ff0000" id="use9433" width="100%" height="100%"/>
        <use xlink:href="#md315714d41" x="262.48367" y="412.36343" style="fill:#ff0000;stroke:#ff0000" id="use9435" width="100%" height="100%"/>
        <use xlink:href="#md315714d41" x="264.14008" y="408.479" style="fill:#ff0000;stroke:#ff0000" id="use9437" width="100%" height="100%"/>
        <use xlink:href="#md315714d41" x="262.08014" y="396.96603" style="fill:#ff0000;stroke:#ff0000" id="use9439" width="100%" height="100%"/>
        <use xlink:href="#md315714d41" x="267.2197" y="405.36871" style="fill:#ff0000;stroke:#ff0000" id="use9441" width="100%" height="100%"/>
        <use xlink:href="#md315714d41" x="259.41919" y="407.55029" style="fill:#ff0000;stroke:#ff0000" id="use9443" width="100%" height="100%"/>
        <use xlink:href="#md315714d41" x="260.66907" y="413.82623" style="fill:#ff0000;stroke:#ff0000" id="use9445" width="100%" height="100%"/>
        <use xlink:href="#md315714d41" x="253.77924" y="407.05972" style="fill:#ff0000;stroke:#ff0000" id="use9447" width="100%" height="100%"/>
        <use xlink:href="#md315714d41" x="255.27766" y="417.47803" style="fill:#ff0000;stroke:#ff0000" id="use9449" width="100%" height="100%"/>
        <use xlink:href="#md315714d41" x="254.96974" y="416.03729" style="fill:#ff0000;stroke:#ff0000" id="use9451" width="100%" height="100%"/>
        <use xlink:href="#md315714d41" x="257.37384" y="408.04623" style="fill:#ff0000;stroke:#ff0000" id="use9453" width="100%" height="100%"/>
        <use xlink:href="#md315714d41" x="257.55588" y="411.64517" style="fill:#ff0000;stroke:#ff0000" id="use9455" width="100%" height="100%"/>
        <use xlink:href="#md315714d41" x="269.01782" y="404.76471" style="fill:#ff0000;stroke:#ff0000" id="use9457" width="100%" height="100%"/>
        <use xlink:href="#md315714d41" x="255.24521" y="407.73615" style="fill:#ff0000;stroke:#ff0000" id="use9459" width="100%" height="100%"/>
        <use xlink:href="#md315714d41" x="257.26837" y="361.69559" style="fill:#ff0000;stroke:#ff0000" id="use9461" width="100%" height="100%"/>
        <use xlink:href="#md315714d41" x="283.52396" y="348.13022" style="fill:#ff0000;stroke:#ff0000" id="use9463" width="100%" height="100%"/>
        <use xlink:href="#md315714d41" x="273.90939" y="344.01266" style="fill:#ff0000;stroke:#ff0000" id="use9465" width="100%" height="100%"/>
        <use xlink:href="#md315714d41" x="250.39722" y="387.57678" style="fill:#ff0000;stroke:#ff0000" id="use9467" width="100%" height="100%"/>
        <use xlink:href="#md315714d41" x="192.02855" y="325.21817" style="fill:#ff0000;stroke:#ff0000" id="use9469" width="100%" height="100%"/>
        <use xlink:href="#md315714d41" x="166.98912" y="319.65103" style="fill:#ff0000;stroke:#ff0000" id="use9471" width="100%" height="100%"/>
        <use xlink:href="#md315714d41" x="216.62675" y="298.67282" style="fill:#ff0000;stroke:#ff0000" id="use9473" width="100%" height="100%"/>
        <use xlink:href="#md315714d41" x="273.02182" y="376.80545" style="fill:#ff0000;stroke:#ff0000" id="use9475" width="100%" height="100%"/>
        <use xlink:href="#md315714d41" x="310.29666" y="343.03101" style="fill:#ff0000;stroke:#ff0000" id="use9477" width="100%" height="100%"/>
        <use xlink:href="#md315714d41" x="190.21593" y="166.58701" style="fill:#ff0000;stroke:#ff0000" id="use9479" width="100%" height="100%"/>
        <use xlink:href="#md315714d41" x="176.87662" y="179.52846" style="fill:#ff0000;stroke:#ff0000" id="use9481" width="100%" height="100%"/>
        <use xlink:href="#md315714d41" x="153.14079" y="235.52496" style="fill:#ff0000;stroke:#ff0000" id="use9483" width="100%" height="100%"/>
        <use xlink:href="#md315714d41" x="176.56125" y="169.99179" style="fill:#ff0000;stroke:#ff0000" id="use9485" width="100%" height="100%"/>
        <use xlink:href="#md315714d41" x="196.98972" y="176.80034" style="fill:#ff0000;stroke:#ff0000" id="use9487" width="100%" height="100%"/>
        <use xlink:href="#md315714d41" x="178.03549" y="200.65115" style="fill:#ff0000;stroke:#ff0000" id="use9489" width="100%" height="100%"/>
        <use xlink:href="#md315714d41" x="160.32657" y="231.50366" style="fill:#ff0000;stroke:#ff0000" id="use9491" width="100%" height="100%"/>
        <use xlink:href="#md315714d41" x="384.60165" y="199.33926" style="fill:#ff0000;stroke:#ff0000" id="use9493" width="100%" height="100%"/>
        <use xlink:href="#md315714d41" x="372.03375" y="217.1931" style="fill:#ff0000;stroke:#ff0000" id="use9495" width="100%" height="100%"/>
        <use xlink:href="#md315714d41" x="338.05447" y="207.30328" style="fill:#ff0000;stroke:#ff0000" id="use9497" width="100%" height="100%"/>
        <use xlink:href="#md315714d41" x="398.54086" y="179.47443" style="fill:#ff0000;stroke:#ff0000" id="use9499" width="100%" height="100%"/>
        <use xlink:href="#md315714d41" x="339.92291" y="227.81607" style="fill:#ff0000;stroke:#ff0000" id="use9501" width="100%" height="100%"/>
        <use xlink:href="#md315714d41" x="306.64526" y="259.41162" style="fill:#ff0000;stroke:#ff0000" id="use9503" width="100%" height="100%"/>
        <use xlink:href="#md315714d41" x="381.88187" y="240.73724" style="fill:#ff0000;stroke:#ff0000" id="use9505" width="100%" height="100%"/>
        <use xlink:href="#md315714d41" x="427.92746" y="189.98744" style="fill:#ff0000;stroke:#ff0000" id="use9507" width="100%" height="100%"/>
        <use xlink:href="#md315714d41" x="449.0997" y="224.22185" style="fill:#ff0000;stroke:#ff0000" id="use9509" width="100%" height="100%"/>
        <use xlink:href="#md315714d41" x="446.3782" y="192.27527" style="fill:#ff0000;stroke:#ff0000" id="use9511" width="100%" height="100%"/>
        <use xlink:href="#md315714d41" x="489.34879" y="199.69177" style="fill:#ff0000;stroke:#ff0000" id="use9513" width="100%" height="100%"/>
        <use xlink:href="#md315714d41" x="436.24161" y="188.59146" style="fill:#ff0000;stroke:#ff0000" id="use9515" width="100%" height="100%"/>
        <use xlink:href="#md315714d41" x="450.44507" y="238.36493" style="fill:#ff0000;stroke:#ff0000" id="use9517" width="100%" height="100%"/>
        <use xlink:href="#md315714d41" x="422.34052" y="177.22441" style="fill:#ff0000;stroke:#ff0000" id="use9519" width="100%" height="100%"/>
        <use xlink:href="#md315714d41" x="409.33173" y="166.47731" style="fill:#ff0000;stroke:#ff0000" id="use9521" width="100%" height="100%"/>
        <use xlink:href="#md315714d41" x="450.13239" y="225.4151" style="fill:#ff0000;stroke:#ff0000" id="use9523" width="100%" height="100%"/>
        <use xlink:href="#md315714d41" x="454.38858" y="118.43081" style="fill:#ff0000;stroke:#ff0000" id="use9525" width="100%" height="100%"/>
        <use xlink:href="#md315714d41" x="488.04221" y="179.83646" style="fill:#ff0000;stroke:#ff0000" id="use9527" width="100%" height="100%"/>
        <use xlink:href="#md315714d41" x="589.86859" y="161.38344" style="fill:#ff0000;stroke:#ff0000" id="use9529" width="100%" height="100%"/>
        <use xlink:href="#md315714d41" x="487.31302" y="220.2422" style="fill:#ff0000;stroke:#ff0000" id="use9531" width="100%" height="100%"/>
        <use xlink:href="#md315714d41" x="440.85773" y="217.68291" style="fill:#ff0000;stroke:#ff0000" id="use9533" width="100%" height="100%"/>
        <use xlink:href="#md315714d41" x="654.83026" y="298.14603" style="fill:#ff0000;stroke:#ff0000" id="use9535" width="100%" height="100%"/>
        <use xlink:href="#md315714d41" x="656.25751" y="315.71722" style="fill:#ff0000;stroke:#ff0000" id="use9537" width="100%" height="100%"/>
        <use xlink:href="#md315714d41" x="672.41968" y="289.70898" style="fill:#ff0000;stroke:#ff0000" id="use9539" width="100%" height="100%"/>
        <use xlink:href="#md315714d41" x="663.10974" y="327.10071" style="fill:#ff0000;stroke:#ff0000" id="use9541" width="100%" height="100%"/>
        <use xlink:href="#md315714d41" x="656.45563" y="276.35263" style="fill:#ff0000;stroke:#ff0000" id="use9543" width="100%" height="100%"/>
        <use xlink:href="#md315714d41" x="642.63666" y="348.24918" style="fill:#ff0000;stroke:#ff0000" id="use9545" width="100%" height="100%"/>
        <use xlink:href="#md315714d41" x="656.56061" y="332.2189" style="fill:#ff0000;stroke:#ff0000" id="use9547" width="100%" height="100%"/>
        <use xlink:href="#md315714d41" x="636.76575" y="275.44135" style="fill:#ff0000;stroke:#ff0000" id="use9549" width="100%" height="100%"/>
        <use xlink:href="#md315714d41" x="610.80121" y="210.30434" style="fill:#ff0000;stroke:#ff0000" id="use9551" width="100%" height="100%"/>
        <use xlink:href="#md315714d41" x="315.49683" y="415.80487" style="fill:#ff0000;stroke:#ff0000" id="use9553" width="100%" height="100%"/>
        <use xlink:href="#md315714d41" x="337.97321" y="408.83478" style="fill:#ff0000;stroke:#ff0000" id="use9555" width="100%" height="100%"/>
        <use xlink:href="#md315714d41" x="334.01627" y="443.03583" style="fill:#ff0000;stroke:#ff0000" id="use9557" width="100%" height="100%"/>
        <use xlink:href="#md315714d41" x="342.5936" y="452.53461" style="fill:#ff0000;stroke:#ff0000" id="use9559" width="100%" height="100%"/>
        <use xlink:href="#md315714d41" x="452.36002" y="448.73566" style="fill:#ff0000;stroke:#ff0000" id="use9561" width="100%" height="100%"/>
        <use xlink:href="#md315714d41" x="317.31497" y="399.65332" style="fill:#ff0000;stroke:#ff0000" id="use9563" width="100%" height="100%"/>
        <use xlink:href="#md315714d41" x="341.5885" y="419.40781" style="fill:#ff0000;stroke:#ff0000" id="use9565" width="100%" height="100%"/>
        <use xlink:href="#md315714d41" x="331.75293" y="404.22012" style="fill:#ff0000;stroke:#ff0000" id="use9567" width="100%" height="100%"/>
        <use xlink:href="#md315714d41" x="327.81915" y="421.81949" style="fill:#ff0000;stroke:#ff0000" id="use9569" width="100%" height="100%"/>
        <use xlink:href="#md315714d41" x="300.6207" y="442.99908" style="fill:#ff0000;stroke:#ff0000" id="use9571" width="100%" height="100%"/>
        <use xlink:href="#md315714d41" x="303.88101" y="431.7655" style="fill:#ff0000;stroke:#ff0000" id="use9573" width="100%" height="100%"/>
        <use xlink:href="#md315714d41" x="595.81555" y="395.04919" style="fill:#ff0000;stroke:#ff0000" id="use9575" width="100%" height="100%"/>
        <use xlink:href="#md315714d41" x="333.38177" y="433.91159" style="fill:#ff0000;stroke:#ff0000" id="use9577" width="100%" height="100%"/>
        <use xlink:href="#md315714d41" x="294.72595" y="424.18149" style="fill:#ff0000;stroke:#ff0000" id="use9579" width="100%" height="100%"/>
        <use xlink:href="#md315714d41" x="339.92184" y="488.29544" style="fill:#ff0000;stroke:#ff0000" id="use9581" width="100%" height="100%"/>
        <use xlink:href="#md315714d41" x="404.22949" y="490.60678" style="fill:#ff0000;stroke:#ff0000" id="use9583" width="100%" height="100%"/>
        <use xlink:href="#md315714d41" x="284.47333" y="441.20413" style="fill:#ff0000;stroke:#ff0000" id="use9585" width="100%" height="100%"/>
        <use xlink:href="#md315714d41" x="225.94882" y="425.81616" style="fill:#ff0000;stroke:#ff0000" id="use9587" width="100%" height="100%"/>
        <use xlink:href="#md315714d41" x="225.11047" y="424.55698" style="fill:#ff0000;stroke:#ff0000" id="use9589" width="100%" height="100%"/>
        <use xlink:href="#md315714d41" x="218.09164" y="420.52289" style="fill:#ff0000;stroke:#ff0000" id="use9591" width="100%" height="100%"/>
        <use xlink:href="#md315714d41" x="231.62947" y="442.19952" style="fill:#ff0000;stroke:#ff0000" id="use9593" width="100%" height="100%"/>
        <use xlink:href="#md315714d41" x="220.34578" y="415.99826" style="fill:#ff0000;stroke:#ff0000" id="use9595" width="100%" height="100%"/>
      </g>
    </g>
  </g>
  </svg>