<svg width="581" height="514" viewBox="0 0 581 514" fill="none" xmlns="http://www.w3.org/2000/svg">
<path d="M155.899 152.936L156.223 153.219L158.032 152.59L158.399 152.621L158.689 153.097L158.58 153.223L158.441 153.948L158.641 156.213L158.766 156.83L158.996 157.672L159.291 158.533L159.607 159.199L159.94 159.501L160.684 159.578L161.059 159.796L161.16 160.002L161.415 160.717L161.542 160.989L162.227 162.067L162.595 162.789L162.756 163.385L162.075 165.164L160.514 166.507L158.68 167.033L157.191 166.362L156.884 165.79L156.113 164.015L155.737 163.385L155.163 162.972L153.794 162.59L153.074 162.185L147.682 155.435L147.509 155.014L147.924 153.729L148.899 152.625L150.658 151.424L152.86 150.829L153.986 150.921L155.012 151.424L155.346 151.854L155.899 152.936Z" fill="white"/>
<path d="M284.839 209.086L284.692 209.464L284.133 209.352L282.071 208.262L281.546 207.699L281.803 206.777L282.566 205.978L283.001 204.864L282.271 203.016L281.385 201.889L281.299 201.224L282.03 200.671L282.471 200.581L285.536 200.634L286.162 201.28L286.147 203.016L286.054 203.174L285.735 203.482L285.66 203.602L285.585 204.789L285.583 205.674L285.499 206.394L285.176 207.122L284.771 207.576L284.692 207.699L284.725 208.022L284.812 208.543L284.839 209.086Z" fill="white"/>
<path d="M287.99 267.747L288.549 268.438L289.239 268.972L290.258 268.979L291.085 268.482L291.788 267.824L292.572 267.462L293.642 267.839L294.609 268.409L294.818 268.866L295.454 270.586L295.822 271.258L296.012 271.451L298.322 272.791L298.867 273.64L298.483 275.248L298.201 275.736L298.058 276.046L298.001 276.392L298.241 277.732L298.791 278.366L299.367 278.73L299.691 279.235L299.651 280.039L298.997 281.483L298.726 282.642L298.712 283.311L298.783 284.865L298.726 285.482L298.103 287.085L297.064 289.082L295.887 290.825L294.852 291.701L294.172 291.599L292.527 290.745L291.952 290.578L290.334 291.842L290.013 292.265L290.073 293.134L290.566 293.539L291.15 293.882L291.467 294.522L291.384 295.108L291.088 295.773L290.62 296.387L290.013 296.788L289.338 296.766L288.792 296.365L288.374 295.896L288.08 295.661L287.996 295.773L287.166 296.206L286.872 296.225L286.364 295.737L286.147 295.379L285.902 294.522L285.552 293.727L285.09 293.076L284.488 292.873L283.724 293.394L283.266 294.233L282.945 295.249L282.587 296.181L282.03 296.788L280.993 297.167L280.083 297.156L279.237 296.676L278.4 295.661L278.112 295.036L277.538 293.438L277.192 292.83L276.624 292.454L275.369 292.193L274.771 291.701L274.497 291.223L274.265 290.665L274.049 290.006L273.572 290.035L272.683 290.636L272.352 290.578L271.346 287.165L271.142 286.04L271.246 284.709L271.565 283.499L271.915 282.424L272.11 281.505L272.062 279.792L271.672 277.448L271.868 276.392L272.406 275.999L274.297 276.108L275.258 275.817L275.533 275.554L275.691 275.27L275.812 274.971L275.984 274.687L276.797 273.903L276.977 273.418L276.949 272.404L277.085 269.523L278.089 268.043L279.672 267.458L281.546 267.275L286.147 267.839L286.435 267.736L287.064 267.308L287.352 267.275L287.99 267.747Z" fill="white"/>
<path d="M248.972 284.763L248.612 285.384L248.207 285.903L247.917 286.606L247.852 287.498L248.083 288.339L247.917 288.876L247.731 289.028L246.95 289.441L245.496 291.136L244.896 291.578L244.774 291.701L244.659 292.406L244.625 294.493L244.532 295.661L244.331 296.626L244.092 297.355L243.893 297.806L243.804 297.915L244.031 298.907L244.762 300.56L244.774 301.302L244.367 302.016L243.835 302.102L243.048 302.074L241.867 302.42L241.013 303.061L239.209 305.236L238.33 305.589L236.476 305.851L235.575 306.359L235.316 306.733L234.867 307.718L234.61 308.042L234.269 308.106L233.513 307.923L233.16 308.042L231.729 310.295L230.725 311.2L229.526 310.851L228.976 309.35L228.786 307.272L228.423 305.574L227.354 305.236L226.626 305.797L226.43 306.855L226.502 308.034L226.636 309.077L226.626 309.731L225.802 311.203L225.008 311.885L224.292 312.043L223.721 311.975L223.353 311.77L222.268 310.291L221.081 309.055L220.821 308.602L220.626 307.718L220.342 305.463L220.093 304.667L219.823 304.35L219.269 304.404L218.641 304.105L218.121 303.623L217.749 303.061L217.433 302.42L216.634 303.464L216.225 305.178L215.695 306.779L214.529 307.488L212.221 307.621L210.904 307.322L210.173 306.359L210.44 304.923L211.462 303.666L212.748 302.766L213.804 302.42L214.255 302.629L214.58 303.021L214.878 303.259L215.257 302.982L215.626 302.052L214.96 300.603L215.015 299.041L215.221 298.738L216.465 297.915L218.553 294.772L220.025 293.061L221.955 291.353L225.043 289.76L226.626 289.441L229.046 290.187L230.006 289.977L230.496 288.311L230.462 287.977L230.38 287.593L230.359 287.143L230.496 286.606L230.892 286.193L232.596 285.144L233.402 284.908L233.93 285.053L234.422 285.315L234.947 285.373L235.575 284.908L236.326 283.369L237.183 279.239L237.757 277.532L237.968 277.281L238.473 277.106L238.721 276.96L240.387 274.669L240.898 274.118L241.407 273.856L244.635 272.995L246.738 272.893L248.588 273.834L249.61 276.392L249.852 279.235L249.57 279.887L248.687 280.687L248.4 281.505L248.437 282.235L248.987 283.096L249.127 283.775L248.972 284.763Z" fill="white"/>
<path d="M226.143 287.172L224.603 287.324L223.53 286.273L223.962 283.775L224.182 283.383L224.436 283.071L224.693 282.813L224.932 282.642L225.491 282.126L225.796 281.966L226.142 282.072L226.453 282.686L226.811 283.848L227.079 285.122L227.113 286.04L226.143 287.172Z" fill="white"/>
<path d="M324.127 283.775L324.13 285.344L323.557 286.2L322.662 286.824L321.711 287.738L321.472 288.253L321.002 289.608L320.743 290.006L319.581 290.397L318.35 290.303L317.346 289.919L316.869 289.441L316.826 288.06L317.123 286.527L317.6 285.166L318.077 284.342L318.402 284.24L320.26 284.342L323.034 283.663L323.647 283.775L323.759 283.663L323.875 283.405L323.994 283.332L324.127 283.775Z" fill="white"/>
<path d="M436.632 292.265L435.454 294.186L433.69 293.582L432.49 291.476L433.002 288.876L434.079 288.321L435.382 288.818L436.404 290.191L436.632 292.265Z" fill="white"/>
<path d="M256.091 372.267L255.66 372.319L255.05 371.994L254.441 371.367L254.018 370.54L253.966 369.577L254.151 369.135L254.48 368.925L255.66 368.487L256.379 367.996L256.831 367.834L257.352 367.936L258.563 369.64L258.801 370.124L258.69 370.842L258.42 371.017H257.98L257.352 371.216L256.091 372.267Z" fill="white"/>
<path d="M365.525 280.003L367.594 281.93L368.403 284.908L368.327 285.841L368.164 286.396L367.359 287.614L366.804 287.984L364.609 290.571L364.289 291.136L364.679 292.497L365.54 292.685L366.505 292.103L367.193 291.136L367.687 288.767L367.923 288.311L368.318 288.39L368.772 288.811L369.614 290.006L370.674 292.251L370.822 292.265L370.864 293.112L370.799 293.503L370.623 293.839L370.339 294.522L369.899 295.921L369.856 296.225L370.613 296.582L371.739 295.964L373.727 293.958L373.899 293.633L374.236 292.671L374.452 292.265L374.692 292.059L375.172 291.911L375.418 291.701L376.617 289.778L376.87 289.441L377.44 289.126L378.809 288.876L379.106 288.608L379.563 287.941L379.777 287.738L380.073 287.701L380.692 287.821L380.985 287.738L381.371 287.343L382.678 285.482L382.969 285.293L383.614 285.104L383.889 284.908L384.396 283.986L384.614 283.775L385.829 283.347L387.035 283.205L388.034 283.554L390.181 285.482L392.158 285.166L393.084 285.482L393.307 285.863L393.797 287.299L394.047 287.738L394.332 287.788L394.999 287.604L395.26 287.738L395.53 288.405L395.723 289.658L395.985 290.006L396.904 290.071L399.032 289.398L400.098 289.441L401.067 290.006L401.399 290.712L401.935 292.743L402.277 293.394L403.011 293.821L403.859 294.009L405.177 293.958L405.643 293.644L406.554 292.352L407.115 291.701L407.286 291.65L407.669 291.759L407.843 291.701L409.277 289.782L409.777 289.441L411.597 289.822L411.952 290.006L412.212 290.832L411.501 292.265L411.469 293.394L411.738 294.36L411.895 294.175L412.139 293.6L412.678 293.394L412.982 293.633L413.578 294.392L413.89 294.522L414.292 294.291L414.735 293.839L415.302 293.452L416.068 293.394L416.309 293.539L417.276 294.522L417.647 294.718L418.411 294.906L418.729 295.097L418.945 295.412L419.424 296.365L419.695 296.788L421.216 298.218L421.972 299.521L422.118 301.302L421.858 301.41L420.838 301.367L420.665 301.302L419.675 303.443L419.454 304.105L419.452 304.458L419.484 305.506L419.454 305.797L419.051 306.067L418.555 306.035L418.087 306.171L417.759 306.927L417.853 307.664L418.174 308.441L418.41 309.163L418.244 309.731L417.895 309.738L416.72 308.933L415.826 308.602L415.409 308.653L413.89 309.163L413.27 309.077L412.24 308.653L411.952 308.602L411.387 309.195L411.083 310.176L411.213 311.221L411.952 311.975L412.539 311.785L412.974 311.742L413.406 311.975L414.193 313.643L414.684 314.927L414.859 315.888L414.419 316.966L413.608 317.313L412.632 317.095L411.71 316.45L411.348 315.995L409.246 312.481L408.555 311.641L407.843 311.411L407.427 311.842L407.251 312.621L407.372 313.5L407.843 314.214L408.1 314.257L408.465 314.239L408.76 314.361L408.811 314.773L408.444 316.052L408.16 315.837L407.654 315.225L406.631 315.328L405.934 315.999L405.485 316.848L405.246 317.636L405.177 318.137L405.516 318.946L407.843 320.928L407.956 321.142L408.23 321.857L408.327 322.043L409.475 322.543L409.924 323.108L410.019 324.272L408.476 325.714L407.843 325.943L407.722 325.722L407.492 325.193L407.077 324.479L406.39 323.715L406.024 323.522L405.253 323.351L404.937 323.151L404.655 322.665L404.057 321.307L403.728 320.928L403.289 320.917L402.138 321.392L401.551 321.485L401.227 321.307L400.624 320.595L400.339 320.363L400.107 320.38L399.949 320.577L399.803 320.806L399.611 320.928L398.662 320.574L398.161 320.681L397.92 321.485L398.124 322.729L398.719 323.233L400.339 323.715L402.035 325.386L405.157 326.2L405.662 327.056L405.659 327.833L405.488 328.853L405.228 329.808L404.937 330.399L404.61 330.467L403.722 329.965L403.245 329.847L402.31 330.232L400.098 332.069L399.701 331.838L398.876 330.723L398.406 330.399L397.537 330.702L396.631 331.525L395.643 332.197L394.534 332.069L394.368 331.856L394.024 331.172L393.81 330.958L393.467 330.894L392.732 330.983L392.356 330.958L389.828 329.808L388.727 329.847L388.281 330.072L388.152 330.357L388.068 330.663L387.759 330.958L386.743 330.862L386.552 330.958L386.442 331.852L386.608 332.329L387.514 333.179L388.533 333.902L388.727 334.293L388.71 335.445L388.45 336.795L388.028 337.999L387.514 338.734L386.98 338.925L386.375 338.918L385.584 338.734L384.98 338.191L384.5 337.264L384.08 336.241L383.648 335.402L382.907 334.908L382.542 335.715L382.548 337.328L382.92 339.287L383.146 339.894L383.394 340.104L384.373 340.394L384.572 340.607L384.953 341.295L385.101 341.501L385.726 341.671L386.2 341.593L386.55 341.877L386.794 343.16L386.729 344.463L386.34 345.73L385.692 346.824L384.859 347.584L383.899 347.825L381.626 347.545L379.814 347.74L378.477 348.267L378.081 348.687L377.833 349.741L377.929 351.733L377.597 352.548L374.778 352.841L373.195 353.501L372.76 355.303L372.895 355.86L373.048 355.839L373.36 355.684L373.97 355.86L374.368 356.304L374.605 356.663L374.698 356.959L374.239 357.995L373.474 357.688L372.034 356.41L371.588 356.529L371.236 356.861L370.92 357.241L370.581 357.516L367.923 358.058L367.56 357.91L366.859 357.202L366.468 356.959L366.017 356.987L365.528 357.163L364.963 357.245L364.289 356.959L361.872 354.753L361.97 354.157L362.213 353.109L362.411 352.061L362.356 351.45L362.105 351.464L360.903 352.548L360.069 352.834L359.376 352.693L359.264 352.061L360.178 350.899L361.306 350.624L361.631 350.345L361.933 349.705L362.007 349.204L361.829 347.949L361.845 347.025L362.136 346.718L362.523 346.59L362.842 346.229L362.648 345.929L362.393 345.83L361.872 345.929L361.45 346.198L361.036 346.714L359.279 349.663L358.967 350.345L358.778 351.274L358.725 351.45L358.112 351.93L357.546 352.05L357.086 351.743L356.792 350.899L356.933 349.797L357.452 348.433L358.483 346.484L358.917 346.042L359.145 345.723L359.21 345.38L358.815 345.008L357.286 345.999L356.547 345.929L356.213 345.256L357.17 344.201L357.275 343.16L356.894 342.749L356.059 342.479L354.925 342.405L353.644 342.607L353.304 342.819L352.557 343.51L352.195 343.712L351.905 343.648L351.282 343.213L350.985 343.16L350.804 343.323L350.361 343.978L350.018 344.265L349.228 344.449L348.127 344.279L347.839 344.828L347.799 345.412L347.936 345.677L348.322 345.929L348.462 346.198L348.688 346.781L348.809 347.033L348.968 347.195L349.36 347.393L349.535 347.584L349.591 347.8L349.722 348.511L349.777 348.687L350.562 349.009L351.278 348.585L351.468 349.242L351.445 350.196L351.154 351.274L350.659 352.297L350.018 353.102L349.428 353.406L347.111 353.652L344.01 354.622L342.667 354.682L340.822 354.21L337.919 352.548L338.052 351.531L338.626 350.687L339.33 349.953L340.618 348.076L340.822 347.584L340.881 346.994L340.822 344.828L340.92 344.01L341.222 342.649L341.305 342.061L341.29 341.107L341.208 340.217L341.175 339.277L341.305 338.173L341.494 337.456L341.57 336.976L341.547 336.507L340.915 335.16L339.794 334.236L338.401 333.756L336.951 333.734L336.6 333.916L335.85 334.613L335.497 334.847L333.68 335.036L333.083 335.402L332.899 335.644L332.49 336.333L332.355 336.507L331.448 336.912L330.543 337.093L329.209 337.065L328.086 335.843L327.346 335.388L326.792 335.956L326.951 337.036L327.681 338.002L328.266 339.202L328 340.948L327.839 341.139L327.43 341.309L327.275 341.501L326.988 342.359L326.742 343.294L326.463 344.151L326.067 344.828L323.884 345.929L322.287 346.028L320.552 345.677L317.594 344.265L315.799 342.649L315.055 341.728L314.694 340.948L314.679 339.83L315.094 338.478L314.936 337.619L314.598 337.264L313.531 336.994L313 336.507L312.758 335.701L312.546 333.453L312.272 332.624L311.884 332.457L310.769 332.692L310.338 332.624L309.934 331.941L308.235 326.853L308.331 325.707L308.828 324.544L310.927 320.863L311.308 320.363L311.909 319.951L313.726 319.246L313.968 319.003L314.209 318.688L314.818 317.546L316.125 314.181L317.73 310.808L318.077 310.291L318.703 309.925L318.805 309.731L318.749 308.678L318.475 308.264L318.062 308.02L317.594 307.488L316.729 305.376L316.626 305.236L316.993 304.145L319.288 300.166L322.089 297.438L323.316 296.676L324.707 296.387L326.308 296.788L327.667 297.832L328 297.915L328.542 297.471L328.88 296.691L329.14 295.809L329.451 295.097L329.561 295.173L329.749 295.426L329.967 295.657L330.176 295.661L330.661 294.522L330.929 294.031L332.114 292.265L333.438 289.412L333.805 288.876L334.135 288.887L334.693 289.8L335.018 290.006L335.483 289.63L336.263 287.952L336.71 287.172L336.999 286.94L337.407 286.715L340.348 284.436L341.561 283.903L343.001 283.775L346.095 285.097L347.352 284.908L347.845 284.4L348.638 282.715L349.05 282.072L349.536 281.81L350.698 281.69L351.226 281.505L351.702 281.079L352.526 280.098L352.918 279.803L353.431 279.712L355.097 279.803L356.505 279.392L357.332 279.399L358.242 279.803L358.505 280.156L359.143 281.261L359.451 281.505L359.805 281.297L360.316 280.218L360.661 279.803L362.96 279.257L365.525 280.003ZM371.792 331.514L371.812 332.55L372.009 333.902L372.342 335.175L372.76 335.956L373.57 336.234L374.273 335.807L374.881 335.182L375.418 334.847L376.052 335.167L376.513 335.772L376.849 336.049L377.114 335.402L376.984 333.681L376.138 332.614L374.21 331.514L374.199 331.332L374.224 330.584L374.21 330.399L373.624 330.1L373.085 330.015L372.625 330.114L371.933 330.702L371.868 330.905L371.792 331.514Z" fill="white"/>
<path d="M261.662 383.572L261.681 385.418L261.264 385.589L260.937 386.121L260.57 386.842L260.013 387.583L259.79 387.666L259.279 387.534L259.046 387.583L258.939 387.778L258.642 388.501L258.56 388.668L258.214 388.563L257.345 387.802L256.871 387.583L256.411 387.701L255.468 388.449L254.934 388.668L254.162 388.55L253.349 388.136L251.335 386.372L251.084 386.024L250.816 385.404L250.375 384.143L250.267 383.447L250.338 382.683L250.71 381.815L251.095 381.962L251.527 382.464L252.029 382.683L252.863 382.244L254.692 380.504L254.943 380.623L255.51 381.362L255.902 381.596L256.199 381.529L256.834 381.104L257.113 381.052L257.383 381.229L257.993 381.899L258.321 382.14L259.116 382.283L260.586 382.234L261.226 382.683L261.662 383.572Z" fill="white"/>
<path d="M261.681 385.418L261.662 383.572L261.676 383.603L261.709 383.771L261.89 383.607L262.002 383.272L262.088 382.913L262.194 382.683L262.751 382.359L263.21 382.265L263.642 381.962L264.127 381.052L264.201 380.797L264.3 380.246L264.368 379.96L264.585 379.387L264.785 379.248L265.081 379.188L265.577 378.871L265.626 378.675L265.645 378.34L265.691 377.994L265.818 377.774L266.367 377.114L266.193 376.461L265.772 375.919L265.577 375.594L265.649 375.209L265.719 374.251L265.818 373.957L266.295 373.684L267.318 373.747L267.999 373.411L268.475 372.837L269.418 371.255L269.932 370.674L270.601 370.397L275.696 369.451L276.348 369.072L276.707 369.034L277.107 369.219L277.922 369.882L278.4 370.124L278.851 370.155L279.799 369.994L280.335 370.124L281.106 370.565L281.766 371.101L284.641 374.807L285.176 376.024V377.229L284.691 377.613L283.103 377.886L282.755 378.329L283.126 379.481L284.99 379.583L285.66 380.504L285.473 381.327L284.878 382.289L284.251 383.042L283.966 383.227L283.995 383.509L284.102 384.147L284.325 384.868L284.692 385.404L286.277 386.003L287.016 386.675L287.352 388.118L287.287 388.939L287.058 389.627L286.672 390.253L286.147 390.837L284.841 391.514L280.335 390.837L280.031 391.003L279.427 391.67L279.13 391.92L278.836 391.99L278.216 391.892L277.917 391.92L277.504 392.17L276.779 392.851L276.463 393.003L275.891 392.878L273.808 391.92L273.479 391.969L273.252 392.156L273.061 392.358L272.838 392.462L272.565 392.368L272.147 391.951L271.868 391.92L271.212 392.306L270.078 393.399L269.692 393.552L269.543 393.156L269.548 392.385L269.506 391.517L269.207 390.837L268.893 390.659L268.458 390.607L267.974 390.67L267.516 390.837L267.29 391.014L265.645 393.434L265.372 393.649L265.093 393.552L265.064 393.496L264.951 393.18L264.906 392.503L265.093 391.378L265.264 391.149L265.547 390.85L265.789 390.409L265.818 389.752L265.529 389.304L261.709 385.404L261.681 385.418Z" fill="white"/>
</svg>
