<svg width="509" height="451" viewBox="0 0 509 451" fill="none" xmlns="http://www.w3.org/2000/svg">
<path d="M0.849121 450.433V1H508.088V450.433H0.849121Z" stroke="black"/>
<path fill-rule="evenodd" clip-rule="evenodd" d="M508.088 310.859L505.943 311.359L482.119 309.832L485.316 326.027L485.764 332.89L483.997 338.284L490.255 349.066L497.608 354.652L504.998 358.121L508.088 360.388V310.859ZM508.088 300.33V1H410.4L406.577 7.29598L399.424 8.90418L369.871 1H345.637L343.427 2.06841L331.036 12.5508H333.461L336.111 15.1634L342.195 17.8043H336.497L322.899 15.7949L316.256 17.3737L311.03 20.617L308.119 24.778L302.857 39.2339L296.139 51.2436L286.957 61.7567L268.221 75.069L269.739 85.4548L266.765 91.2032L257.795 99.0366L269.266 101.437L271.456 98.0648L274.155 96.0065L277.029 94.9774L285.589 94.6343L291.66 96.0923L295.143 101.552L293.252 113.494L299.945 109.838L309.351 108.438L318.607 109.552L324.765 113.494L315.099 118.349L310.197 122.518L308.082 130.881L310.545 135.532L316.256 134.79L326.855 128.683L320.423 142.777L314.228 142.919L310.122 143.034L299.311 139.611L291.386 142.606L297.656 147.396L295.019 149.278L292.742 151.559L289.097 156.974L291.983 160.28L295.056 162.018L298.328 162.388L301.812 161.761L297.221 166.718L292.356 167.174L282.852 161.761L281.085 159.425L279.53 156.205L277.29 153.383L231.346 145.001L222.115 152.186L232.652 152.87L242.953 158.399L261.951 176.058L260.047 176.969L255.705 180.841H261.951V186.106L256.763 188.666L250.716 189.833L244.533 189.036L238.997 186.106L244.757 181.581L247.171 180.841L241.324 177.653L232.876 178.393L225.3 183.886L222.115 195.181L227.215 192.08L234.518 194.384L241.896 199.617L247.171 205.19V209.482L245.342 212.721L243.563 214.256L241.572 213.489L238.997 209.482L231.819 221.244L223.533 226.953L198.004 231.978L183.149 245.089L175.063 248.067L171.007 246.479L163.082 239.641L159.263 238.109L155.841 239.329L144.682 248.067L130.163 250.535L125.685 252.775L121.99 256.15L117.834 261.111L116.018 266.694L119.427 271.822L114.637 276.638L107.284 278.422L77.4508 276.893L70.0111 274.598L64.985 267.119H69.3642L65.2213 249.032L57.7443 232.148L49.471 219.625L38.834 212.182L29.5406 201.608L25.124 199.958L21.2922 202.631L18.0451 207.521L16.2163 213.403L16.5895 219.029L16.4153 225.476L16.913 240.067L16.5895 248.067L15.3952 253.74L10.6925 267.119L12.7826 280.206L18.0078 289.039L24.4771 294.049L30.3492 295.577L37.4157 290.737H40.526L41.8198 297.953L39.7298 300.245L26.2562 300.33L23.4818 305.902L17.336 331.224L12.596 338.284L16.067 343.873L19.3514 346.639L21.8894 350.025L23.2081 357.642L22.7354 365.481L20.8817 370.161L18.5054 374.614L16.5895 381.714L19.9735 383.827L24.6264 392.951L28.3463 395.062L30.7349 393.795L32.6757 391.008L34.2806 387.967L35.7486 386.023L42.529 383.32L72.1261 386.728L75.4105 386.023L78.8442 383.658L84.6915 377.742L94.4825 374.614L105.978 367.116L113.181 367.088L108.815 371.824L115.383 376.53L121.044 370.837L126.667 362.182L133.112 357.642L215.857 376.558L231.57 371.486L235.874 371.767L248.365 371.119L299.199 352.536L309.351 354.031L318.856 360.857L329.132 371.824L339.956 379.348L429.531 367.088L430.7 365.538L431.521 363.846L432.442 362.549L433.898 362.352L429.867 350.307L434.781 343.083L443.365 339.498L457.523 337.804L471.357 339.921L477.727 343.421L473.833 332.89L465.958 326.281L450.394 319.33V315.006L453.84 312.546L463.42 302.225L466.182 297.953L469.429 295.039L485.142 290.822L490.479 292.011L505.048 300.33H508.088ZM306.45 1H255.561L253.789 2.90147L250.726 1H243.68L240.627 2.9302L230.45 17.3737L218.245 28.9954L205.406 36.6533V41.9002L232.913 52.3897L247.395 54.3666L258.816 44.0501L263.145 38.5744L276.992 28.393L281.807 26.5282L284.718 26.3273L290.652 24.2328L293.252 22.1954L295.915 18.3209L297.37 14.1012L298.341 10.2251L299.535 7.29598L306.45 1ZM401.157 1L401.352 1.09168L401.513 1H401.157ZM280.04 140.467L280.687 143.547L284.22 146.741L287.106 150.989L284.245 153.069L281.11 149.82L279.169 147.938L278.062 144.973L276.332 142.891L273.919 140.552L276.619 137.785L280.04 140.467Z" fill="#43BBC2"/>
</svg>
