<svg xmlns:inkscape="http://www.inkscape.org/namespaces/inkscape" xmlns:sodipodi="http://sodipodi.sourceforge.net/DTD/sodipodi-0.dtd" xmlns="http://www.w3.org/2000/svg" xmlns:svg="http://www.w3.org/2000/svg" xmlns:rdf="http://www.w3.org/1999/02/22-rdf-syntax-ns#" xmlns:cc="http://creativecommons.org/ns#" xmlns:dc="http://purl.org/dc/elements/1.1/" width="224.521364pt" height="213.543322pt" viewBox="0 0 224.521364 213.543322" version="1.1" id="svg20287" sodipodi:docname="island.tar" inkscape:version="1.1.2 (b8e25be8, 2022-02-05)">
  <sodipodi:namedview id="namedview20289" pagecolor="#ffffff" bordercolor="#111111" borderopacity="1" inkscape:pageshadow="0" inkscape:pageopacity="0" inkscape:pagecheckerboard="1" inkscape:document-units="pt" showgrid="false" inkscape:zoom="2.3924501" inkscape:cx="105.12236" inkscape:cy="144.83061" inkscape:window-width="1680" inkscape:window-height="997" inkscape:window-x="0" inkscape:window-y="25" inkscape:window-maximized="1" inkscape:current-layer="layer3"/>
  <metadata id="metadata10518">
    <rdf:RDF>
      <cc:Work>
        <dc:type rdf:resource="http://purl.org/dc/dcmitype/StillImage"/>
        <dc:date>2022-02-11T20:02:33.691686</dc:date>
        <dc:format>image/svg+xml</dc:format>
        <dc:creator>
          <cc:Agent>
            <dc:title>Matplotlib v3.5.1, https://matplotlib.org/</dc:title>
          </cc:Agent>
        </dc:creator>
      </cc:Work>
    </rdf:RDF>
  </metadata>
  <defs id="defs10522">
    <style type="text/css" id="style10520">*{stroke-linejoin: round; stroke-linecap: butt}</style>
    <clipPath clipPathUnits="userSpaceOnUse" id="clipPath25044">
      <path d="M 0,213.54332 H 224.52136 V 0 H 0 Z" style="fill:none;stroke-width:0.999998" id="path25046"/>
    </clipPath>
    <clipPath clipPathUnits="userSpaceOnUse" id="clipPath25048">
      <path d="M 0,213.54332 H 224.52136 V 0 H 0 Z" style="fill:none;stroke-width:0.999998" id="path25050"/>
    </clipPath>
  </defs>
  <defs id="defs20285">
    <clipPath id="p87119608ef">
      <path d="M 0 213.543322  L 0 15.118125  L 224.521364 15.118125  L 224.521364 213.543322  L 0 213.543322  " id="path20282"/>
    </clipPath>
  </defs>
<g inkscape:groupmode="layer" id="layer2" inkscape:label="jok" style="display:inline">
    <g id="PathCollection_5" clip-path="url(#clipPath25044)">
      <path d="m 52.848197,68.320107 0.142929,0.125318 0.798758,-0.277751 0.162077,0.01355 0.127883,0.21001 -0.04787,0.05588 -0.06155,0.32 0.08822,1.000003 0.05539,0.272255 0.101212,0.371912 0.130619,0.380228 0.139509,0.293949 0.147032,0.133432 0.328257,0.03378 0.165496,0.09626 0.04445,0.09119 0.112839,0.315712 0.05608,0.119844 0.30227,0.475867 0.16276,0.318811 0.07112,0.263072 -0.300902,0.785453 -0.68934,0.592914 -0.8097,0.232358 -0.657197,-0.296349 -0.135406,-0.252637 -0.340567,-0.783561 -0.16618,-0.278178 -0.253031,-0.18212 -0.60454,-0.168658 -0.317999,-0.178807 -2.380545,-2.9801 -0.07659,-0.186115 0.183277,-0.567007 0.430837,-0.487702 0.776191,-0.530294 0.972461,-0.262705 0.497172,0.04068 0.452721,0.222024 0.147715,0.189785 z" clip-path="url(#p87119608ef)" style="fill:#ffffff" id="path19917"/>
      <path d="m 109.77545,93.110603 -0.065,0.167052 -0.24688,-0.04962 -0.91023,-0.481403 -0.23183,-0.248231 0.11352,-0.407227 0.33646,-0.352726 0.19217,-0.492026 -0.3221,-0.81558 -0.39117,-0.497615 -0.0383,-0.293703 0.32279,-0.243986 0.1949,-0.03984 1.35337,0.02324 0.27629,0.285478 -0.007,0.766425 -0.041,0.06965 -0.14088,0.135965 -0.0328,0.05306 -0.0335,0.523771 -6.8e-4,0.391002 -0.0369,0.317996 -0.14293,0.321211 -0.17849,0.200293 -0.0349,0.05462 0.0144,0.142326 0.0383,0.229999 z" clip-path="url(#p87119608ef)" style="fill:#ffffff" id="path19919"/>
      <path d="m 111.16644,119.00955 0.24688,0.30501 0.30432,0.23556 0.44998,0.003 0.36519,-0.21942 0.31048,-0.29048 0.34603,-0.1598 0.47256,0.16626 0.42673,0.25175 0.0923,0.20168 0.28107,0.75959 0.16208,0.29659 0.0841,0.0854 1.01964,0.59128 0.24072,0.37521 -0.1696,0.70982 -0.12446,0.21558 -0.0629,0.13673 -0.0253,0.15279 0.106,0.59167 0.24278,0.27964 0.25439,0.16068 0.14293,0.22331 -0.0178,0.35494 -0.28859,0.63731 -0.11968,0.51182 -0.006,0.29511 0.0315,0.68613 -0.0253,0.2724 -0.27491,0.70792 -0.45888,0.88184 -0.51974,0.76921 -0.45682,0.38679 -0.30022,-0.0447 -0.72627,-0.37722 -0.25371,-0.0735 -0.71465,0.55782 -0.14156,0.18694 0.0267,0.38337 0.21747,0.17886 0.25782,0.15168 0.1402,0.28256 -0.0369,0.25855 -0.13062,0.29358 -0.20653,0.27117 -0.26808,0.17702 -0.29816,-0.01 -0.24072,-0.17702 -0.18465,-0.20736 -0.12994,-0.1037 -0.0369,0.0495 -0.36656,0.19142 -0.12993,0.008 -0.22431,-0.21535 -0.0957,-0.15795 -0.10805,-0.37822 -0.15456,-0.35121 -0.20379,-0.28744 -0.26602,-0.0894 -0.33715,0.22998 -0.20243,0.37041 -0.14156,0.44848 -0.15797,0.4116 -0.24619,0.26794 -0.45751,0.16742 -0.40212,-0.005 -0.37339,-0.21208 -0.36929,-0.44821 -0.1272,-0.27604 -0.25371,-0.70558 -0.1525,-0.26831 -0.25099,-0.16613 -0.55393,-0.11503 -0.26397,-0.21731 -0.12105,-0.21096 -0.10258,-0.24617 -0.0951,-0.29101 -0.21064,0.0128 -0.39254,0.26543 -0.14634,-0.0256 -0.44383,-1.50712 -0.0903,-0.49644 0.0458,-0.58802 0.14088,-0.53383 0.15455,-0.47474 0.0862,-0.40594 -0.0212,-0.75614 -0.17233,-1.03475 0.0868,-0.46629 0.2373,-0.1737 0.835,0.0482 0.424,-0.12868 0.12173,-0.11583 0.0698,-0.12549 0.0533,-0.13195 0.0759,-0.12552 0.35903,-0.34608 0.0793,-0.21414 -0.0123,-0.44774 0.0602,-1.27178 0.44314,-0.6534 0.69892,-0.25825 0.82748,-0.0807 2.03109,0.24858 0.1272,-0.0452 0.27765,-0.18887 0.1272,-0.0145 z" clip-path="url(#p87119608ef)" style="fill:#ffffff" id="path19921"/>
      <path d="m 93.939797,126.52207 -0.158658,0.27402 -0.179173,0.22909 -0.127884,0.31072 -0.02872,0.39388 0.101896,0.37133 -0.07317,0.23681 -0.08206,0.0672 -0.34467,0.18236 -0.642152,0.74832 -0.264657,0.19499 -0.05403,0.0543 -0.05061,0.31157 -0.01505,0.92139 -0.04103,0.51544 -0.0889,0.42589 -0.105316,0.32209 -0.08822,0.19926 -0.03898,0.0478 0.09984,0.43823 0.322786,0.72946 0.0055,0.32793 -0.179857,0.3151 -0.234567,0.0382 -0.347405,-0.0127 -0.521792,0.15274 -0.376811,0.28315 -0.796707,0.96022 -0.387753,0.15572 -0.818591,0.11598 -0.398011,0.22397 -0.114206,0.16518 -0.198322,0.43504 -0.113522,0.14286 -0.150451,0.0286 -0.333728,-0.081 -0.155922,0.0524 -0.631894,0.99471 -0.443147,0.39953 -0.529314,-0.15377 -0.242773,-0.66289 -0.08412,-0.9173 -0.160025,-0.74967 -0.47187,-0.14936 -0.321418,0.24787 -0.08685,0.46697 0.03214,0.52073 0.05881,0.4602 -0.0041,0.2887 -0.363818,0.6501 -0.350824,0.30113 -0.315947,0.0697 -0.252348,-0.0301 -0.162077,-0.0903 -0.479391,-0.65311 -0.523843,-0.54563 -0.11489,-0.19993 -0.08617,-0.39043 -0.125148,-0.99578 -0.110102,-0.35121 -0.118994,-0.13988 -0.244824,0.0238 -0.276967,-0.13195 -0.22978,-0.21305 -0.164128,-0.24809 -0.139509,-0.28315 -0.352877,0.46127 -0.180541,0.75668 -0.233883,0.70691 -0.514953,0.3128 -1.018964,0.0587 -0.581288,-0.13177 -0.322786,-0.42559 0.117626,-0.63392 0.451353,-0.5548 0.567611,-0.3976 0.466398,-0.15272 0.199006,0.0923 0.143612,0.17338 0.131303,0.10497 0.167547,-0.12246 0.162761,-0.41044 -0.294063,-0.63984 0.02462,-0.68962 0.09095,-0.13383 0.549147,-0.36335 0.921854,-1.3876 0.649675,-0.75517 0.8521,-0.75411 1.363634,-0.70347 0.698913,-0.14075 1.068203,0.32946 0.423998,-0.0927 0.216103,-0.73588 -0.01505,-0.14723 -0.03624,-0.16967 -0.0089,-0.19851 0.06018,-0.23699 0.17507,-0.18257 0.752255,-0.46299 0.355612,-0.10416 0.233199,0.0641 0.21747,0.11537 0.231831,0.0256 0.276967,-0.2051 0.331676,-0.6797 0.378179,-1.82323 0.253716,-0.75364 0.09301,-0.11093 0.222941,-0.0772 0.109419,-0.0643 0.735842,-1.01183 0.225677,-0.24305 0.224308,-0.11591 1.425182,-0.38001 0.928693,-0.0451 0.816539,0.41545 0.451353,1.12959 0.106684,1.2553 -0.124464,0.2875 -0.389805,0.35324 -0.126516,0.36114 0.01641,0.32252 0.242773,0.38016 0.06155,0.29986 z" clip-path="url(#p87119608ef)" style="fill:#ffffff" id="path19923"/>
      <path d="m 83.860944,127.5857 -0.679765,0.0672 -0.473921,-0.46438 0.1908,-1.1025 0.09711,-0.17317 0.112154,-0.13792 0.113523,-0.11387 0.105315,-0.0754 0.246877,-0.2278 0.134722,-0.0706 0.152503,0.0465 0.137457,0.27112 0.157974,0.51317 0.118309,0.56259 0.01505,0.40533 z" clip-path="url(#p87119608ef)" style="fill:#ffffff" id="path19925"/>
      <path d="m 127.12109,126.08606 0.001,0.6924 -0.25303,0.37807 -0.39528,0.27545 -0.41989,0.40345 -0.10532,0.22727 -0.2079,0.59835 -0.1142,0.17592 -0.5129,0.1727 -0.54368,-0.0416 -0.44314,-0.1695 -0.21064,-0.21112 -0.0192,-0.60959 0.13131,-0.67721 0.21063,-0.60072 0.21063,-0.3638 0.14361,-0.0449 0.81996,0.0449 1.22481,-0.29979 0.27081,0.0497 0.0492,-0.0497 0.0513,-0.11385 0.0527,-0.0321 z" clip-path="url(#p87119608ef)" style="fill:#ffffff" id="path19927"/>
      <path d="m 176.79182,129.83437 -0.51974,0.84802 -0.77893,-0.26663 -0.53,-0.92973 0.22636,-1.14811 0.47529,-0.24482 0.57514,0.21922 0.45135,0.60621 z" clip-path="url(#p87119608ef)" style="fill:#ffffff" id="path19929"/>
      <path d="m 97.082856,165.15512 -0.190116,0.0232 -0.269444,-0.14375 -0.26876,-0.27672 -0.186696,-0.36494 -0.02325,-0.42541 0.08206,-0.19498 0.144981,-0.0928 0.521107,-0.19348 0.317315,-0.21674 0.19969,-0.0712 0.22978,0.0449 0.534785,0.75222 0.105315,0.21349 -0.04924,0.31707 -0.118993,0.0773 h -0.194219 l -0.27765,0.0881 z" clip-path="url(#p87119608ef)" style="fill:#ffffff" id="path19931"/>
      <path d="m 145.39816,124.42052 0.91364,0.85075 0.35698,1.31491 -0.0335,0.41177 -0.0718,0.24507 -0.35561,0.53798 -0.24483,0.16327 -0.96904,1.14214 -0.14156,0.24938 0.17233,0.60083 0.38024,0.0831 0.42604,-0.25721 0.30364,-0.42669 0.21816,-1.04587 0.10394,-0.20162 0.17439,0.0352 0.20037,0.18561 0.37203,0.52785 0.46776,0.99101 0.0657,0.006 0.0185,0.37379 -0.0287,0.17247 -0.078,0.1485 -0.12515,0.30171 -0.19422,0.61753 -0.0191,0.13399 0.33441,0.1579 0.49718,-0.27274 0.8774,-0.88571 0.0759,-0.14369 0.14908,-0.42482 0.0951,-0.17893 0.106,-0.0911 0.212,-0.0655 0.10873,-0.0927 0.52932,-0.84889 0.11147,-0.14875 0.25166,-0.13916 0.60454,-0.11039 0.1313,-0.1184 0.20175,-0.29446 0.0944,-0.0896 0.13062,-0.016 0.27355,0.0528 0.12925,-0.0368 0.17028,-0.17449 0.57718,-0.82159 0.12857,-0.0833 0.28449,-0.0833 0.12173,-0.0865 0.22362,-0.40713 0.0964,-0.093 0.53615,-0.1892 0.53274,-0.0626 0.44109,0.15395 0.94784,0.85109 0.87262,-0.1394 0.40895,0.1394 0.0985,0.16821 0.2161,0.63417 0.11079,0.1937 0.12583,0.0224 0.29406,-0.0816 0.11558,0.0592 0.11899,0.29448 0.0855,0.55353 0.11558,0.15353 0.40553,0.0288 0.93964,-0.29748 0.4705,0.0192 0.4281,0.2495 0.14635,0.31179 0.23662,0.89648 0.15113,0.28749 0.32415,0.18841 0.37408,0.083 0.58197,-0.0224 0.20585,-0.1389 0.40211,-0.57019 0.24756,-0.28761 0.0759,-0.0224 0.16892,0.0479 0.0766,-0.0256 0.63326,-0.84729 0.22089,-0.15035 0.80355,0.16794 0.1566,0.0816 0.11489,0.36455 -0.31389,0.63285 -0.0144,0.49836 0.11899,0.42628 0.0691,-0.0814 0.10805,-0.25386 0.23799,-0.091 0.13404,0.10539 0.26329,0.33526 0.13745,0.0575 0.17781,-0.10216 0.19558,-0.19955 0.2503,-0.17085 0.33783,-0.0256 0.10668,0.0639 0.42674,0.43424 0.16413,0.0862 0.33714,0.083 0.1402,0.0846 0.0957,0.13882 0.21131,0.42115 0.11968,0.18659 0.67156,0.63129 0.33373,0.57517 0.0643,0.78657 -0.11489,0.0478 -0.44998,-0.0191 -0.0766,-0.0286 -0.43699,0.94503 -0.0978,0.29256 -6.9e-4,0.15579 0.0144,0.46247 -0.0137,0.12869 -0.17781,0.11914 -0.21884,-0.0143 -0.20652,0.0604 -0.14498,0.33352 0.0417,0.32548 0.14156,0.34283 0.10395,0.31893 -0.0732,0.25063 -0.15387,0.003 -0.51906,-0.35535 -0.39459,-0.14598 -0.18396,0.0222 -0.67088,0.2253 -0.27354,-0.0381 -0.45478,-0.18723 -0.1272,-0.0222 -0.24961,0.2618 -0.13404,0.43301 0.0574,0.46137 0.3262,0.33282 0.25919,-0.084 0.19217,-0.019 0.1908,0.103 0.3474,0.73659 0.21679,0.56675 0.0773,0.42407 -0.19421,0.47609 -0.35835,0.15338 -0.43084,-0.0965 -0.4069,-0.28466 -0.16003,-0.2009 -0.928,-1.55146 -0.30501,-0.37079 -0.31458,-0.10143 -0.18328,0.19018 -0.078,0.34382 0.0533,0.38806 0.2079,0.31509 0.11352,0.019 0.1614,-0.008 0.12993,0.0538 0.0226,0.18203 -0.16208,0.56491 -0.12515,-0.0949 -0.22362,-0.27057 -0.45135,0.0459 -0.30775,0.29587 -0.19832,0.37486 -0.10531,0.34785 -0.0308,0.22131 0.14977,0.35714 1.02717,0.87498 0.0499,0.0947 0.12105,0.31567 0.0431,0.0821 0.50675,0.2209 0.19832,0.24924 0.0417,0.51408 -0.68114,0.63674 -0.2797,0.10083 -0.0533,-0.0977 -0.10121,-0.23322 -0.18328,-0.31523 -0.30364,-0.33741 -0.16139,-0.0852 -0.34057,-0.0757 -0.13951,-0.0883 -0.12446,-0.21453 -0.26397,-0.59966 -0.14498,-0.16734 -0.19422,-0.005 -0.50812,0.20995 -0.25918,0.041 -0.14293,-0.0789 -0.26603,-0.31417 -0.12583,-0.10264 -0.10258,0.008 -0.0697,0.0868 -0.0643,0.10105 -0.0848,0.0537 -0.41921,-0.1563 -0.22089,0.0474 -0.10668,0.35519 0.0903,0.54913 0.26261,0.22241 0.71532,0.21291 0.74884,0.73774 1.37799,0.35923 0.22294,0.378 -0.001,0.34324 -0.0752,0.45013 -0.11489,0.42163 -0.12857,0.26107 -0.14429,0.0299 -0.39186,-0.22174 -0.21063,-0.0519 -0.41306,0.16986 -0.97656,0.81118 -0.17507,-0.10215 -0.3645,-0.49202 -0.20722,-0.1431 -0.38365,0.13366 -0.40006,0.36315 -0.43631,0.29704 -0.48965,-0.0566 -0.0732,-0.0943 -0.15182,-0.30179 -0.0944,-0.0943 -0.15182,-0.0283 -0.32416,0.0393 -0.16618,-0.011 -1.11607,-0.50794 -0.48623,0.0173 -0.19695,0.0991 -0.0568,0.12581 -0.0369,0.13524 -0.13678,0.1305 -0.44861,-0.0424 -0.0841,0.0424 -0.0486,0.39454 0.0732,0.21057 0.40006,0.37548 0.44999,0.31881 0.0855,0.17272 -0.008,0.50856 -0.11489,0.59615 -0.18601,0.53155 -0.22705,0.32445 -0.23593,0.0846 -0.26671,-0.003 -0.34946,-0.0815 -0.26671,-0.2398 -0.212,-0.40919 -0.18532,-0.4517 -0.1908,-0.37029 -0.32689,-0.21816 -0.1614,0.35625 0.003,0.71212 0.16413,0.86521 0.0998,0.26789 0.10942,0.0924 0.43221,0.12842 0.0882,0.094 0.16823,0.30374 0.065,0.0908 0.27629,0.0751 0.20926,-0.0344 0.15456,0.12521 0.10736,0.56641 -0.0287,0.57549 -0.17165,0.55956 -0.28586,0.48273 -0.36792,0.33575 -0.424,0.10617 -1.00323,-0.12334 -0.80013,0.0859 -0.59018,0.23261 -0.17507,0.18574 -0.10942,0.46498 0.0424,0.87948 -0.14634,0.36 -1.24464,0.12932 -0.69892,0.29131 -0.19216,0.79563 0.0595,0.24588 0.0677,-0.009 0.13746,-0.0685 0.26945,0.0778 0.17575,0.19605 0.10463,0.15868 0.041,0.13065 -0.20242,0.45718 -0.33783,-0.13527 -0.636,-0.56457 -0.19695,0.0529 -0.15524,0.14622 -0.13951,0.16797 -0.14977,0.1213 -1.17352,0.23944 -0.16002,-0.0653 -0.30979,-0.31254 -0.17234,-0.10732 -0.199,0.0124 -0.21611,0.0778 -0.24961,0.0358 -0.29748,-0.12598 -1.06684,-0.97409 0.0431,-0.26313 0.10737,-0.46257 0.0875,-0.46278 -0.0246,-0.26966 -0.11079,0.006 -0.53068,0.47847 -0.36792,0.12621 -0.30637,-0.0623 -0.0492,-0.27894 0.40348,-0.51287 0.49786,-0.12163 0.14361,-0.1232 0.13336,-0.28233 0.0328,-0.22155 -0.0786,-0.55406 0.007,-0.40755 0.12857,-0.13588 0.17097,-0.0562 0.14088,-0.15934 -0.0855,-0.1328 -0.11284,-0.0437 -0.22978,0.0437 -0.18669,0.11874 -0.18259,0.22807 -0.77551,1.30188 -0.13814,0.30105 -0.0834,0.4101 -0.0233,0.0779 -0.27081,0.21199 -0.24961,0.053 -0.20311,-0.13559 -0.12993,-0.3726 0.0622,-0.4866 0.22909,-0.60232 0.45546,-0.86037 0.19148,-0.19528 0.10053,-0.14063 0.0287,-0.15158 -0.17438,-0.16411 -0.67498,0.43757 -0.3262,-0.0312 -0.14772,-0.29691 0.42263,-0.46585 0.0465,-0.45979 -0.16823,-0.18147 -0.3686,-0.11891 -0.5006,-0.0329 -0.56555,0.0892 -0.15046,0.0939 -0.32962,0.30503 -0.16003,0.0892 -0.12788,-0.0282 -0.27491,-0.19238 -0.13131,-0.0235 -0.08,0.072 -0.19559,0.28932 -0.15113,0.12666 -0.34877,0.0813 -0.48623,-0.0751 -0.1272,0.24232 -0.0178,0.2579 0.0609,0.1172 0.17028,0.11094 0.0615,0.11874 0.0999,0.25775 0.0533,0.11089 0.0704,0.0718 0.17302,0.0874 0.0773,0.0843 0.0246,0.0952 0.0581,0.31377 0.0239,0.078 0.34672,0.14201 0.31594,-0.18727 0.0841,0.29026 -0.0103,0.4212 -0.12856,0.47561 -0.21816,0.45201 -0.28312,0.35525 -0.26055,0.13397 -1.02307,0.10902 -1.36911,0.42823 -0.59291,0.0265 -0.81449,-0.20863 -1.28157,-0.73366 0.0588,-0.44885 0.25303,-0.37263 0.31116,-0.3244 0.56829,-0.82861 0.0903,-0.21702 0.026,-0.26078 -0.026,-0.95624 0.0431,-0.36115 0.13335,-0.60064 0.0369,-0.25975 -0.007,-0.42106 -0.0362,-0.39303 -0.0144,-0.41512 0.0574,-0.48738 0.0834,-0.31668 0.0335,-0.21169 -0.0103,-0.20703 -0.27901,-0.59466 -0.49513,-0.40814 -0.61479,-0.21197 -0.6401,-0.009 -0.15524,0.0801 -0.33099,0.30773 -0.15593,0.1036 -0.80217,0.0832 -0.26329,0.16165 -0.0814,0.1067 -0.18054,0.30437 -0.0595,0.0769 -0.40075,0.1788 -0.39938,0.08 -0.58881,-0.0126 -0.4958,-0.5396 -0.32689,-0.20085 -0.24483,0.25106 0.0704,0.47685 0.3221,0.42647 0.25851,0.52972 -0.11763,0.7706 -0.0711,0.0845 -0.18054,0.0752 -0.0684,0.0845 -0.12652,0.37874 -0.10873,0.41302 -0.1231,0.37846 -0.17507,0.29861 -0.96357,0.48604 -0.70506,0.0438 -0.76594,-0.15469 -1.30619,-0.62367 -0.7926,-0.71322 -0.32826,-0.40687 -0.15934,-0.34439 -0.007,-0.49331 0.18328,-0.59697 -0.0698,-0.37935 -0.14908,-0.1568 -0.47118,-0.11918 -0.23457,-0.21487 -0.10668,-0.35613 -0.0937,-0.99213 -0.12105,-0.36601 -0.17096,-0.0738 -0.49239,0.10369 -0.19012,-0.0299 -0.17849,-0.30169 -0.7502,-2.24653 0.0424,-0.50566 0.21952,-0.51377 0.92664,-1.6249 0.16824,-0.22106 0.26534,-0.18161 0.80217,-0.31118 0.10669,-0.10744 0.10668,-0.13905 0.26876,-0.5042 0.57719,-1.48556 0.70848,-1.48921 0.15319,-0.22832 0.27628,-0.16176 0.0451,-0.0856 -0.0246,-0.46482 -0.12105,-0.1825 -0.18259,-0.10793 -0.20653,-0.23493 -0.3816,-0.93231 -0.0458,-0.062 0.16207,-0.48159 1.0135,-1.75657 1.23643,-1.20454 0.54162,-0.33644 0.61412,-0.12758 0.70712,0.17702 0.59975,0.46075 0.14703,0.0367 0.23935,-0.19607 0.14909,-0.3444 0.11489,-0.38918 0.13746,-0.31432 0.0486,0.0335 0.0827,0.11169 0.0964,0.10212 0.0923,0.002 0.21405,-0.50267 0.11831,-0.2171 0.52316,-0.77937 0.5847,-1.25969 0.16208,-0.23676 0.14566,0.005 0.2462,0.4031 0.14361,0.0911 0.20516,-0.16632 0.34467,-0.74079 0.19695,-0.34416 0.12789,-0.10248 0.17985,-0.0993 1.29867,-1.00613 0.53547,-0.23564 0.636,-0.0561 1.36568,0.58345 0.5553,-0.0833 0.21747,-0.22438 0.35014,-0.74401 0.18191,-0.28395 0.21474,-0.11552 0.5129,-0.053 0.2332,-0.0818 0.20994,-0.18778 0.36382,-0.43347 0.17302,-0.13007 0.22636,-0.0401 0.73584,0.0401 0.62164,-0.18149 0.36519,0.003 0.40143,0.17828 0.11625,0.15577 0.28176,0.48802 0.13609,0.10753 0.15592,-0.0915 0.22568,-0.47678 0.1525,-0.18306 1.01486,-0.24092 z m 2.76693,22.74211 0.009,0.4573 0.0868,0.59687 0.14703,0.56201 0.18465,0.34522 0.35766,0.12237 0.31047,-0.18827 0.26808,-0.27618 0.2373,-0.14754 0.27971,0.14126 0.20379,0.26677 0.1484,0.12238 0.11694,-0.28557 -0.0574,-0.75981 -0.37339,-0.47123 -0.85141,-0.48558 -0.005,-0.0802 0.0109,-0.33016 -0.006,-0.0818 -0.25851,-0.1321 -0.23798,-0.0378 -0.20311,0.044 -0.30569,0.25947 -0.0287,0.0896 z" clip-path="url(#p87119608ef)" style="fill:#ffffff" id="path19933"/>
      <path d="m 99.54273,170.14639 0.0082,0.81501 -0.183961,0.0753 -0.144296,0.23515 -0.162077,0.31805 -0.246193,0.32718 -0.09848,0.0369 -0.225676,-0.0584 -0.10258,0.0215 -0.04719,0.086 -0.131303,0.31938 -0.03624,0.0737 -0.152503,-0.0461 -0.38365,-0.33626 -0.209264,-0.0967 -0.203109,0.0522 -0.416475,0.33013 -0.235935,0.0967 -0.340566,-0.0522 -0.359031,-0.1827 -0.889029,-0.77876 -0.110787,-0.15367 -0.118309,-0.27359 -0.194903,-0.5566 -0.04787,-0.30765 0.03146,-0.33697 0.164129,-0.38325 0.170283,0.0647 0.190799,0.22165 0.221574,0.0969 0.367921,-0.19392 0.807649,-0.76833 0.110786,0.0524 0.250296,0.32648 0.173019,0.10316 0.131302,-0.0293 0.280386,-0.18785 0.123097,-0.0231 0.118993,0.0785 0.269444,0.2956 0.14498,0.10622 0.350825,0.0631 0.648991,-0.0215 0.282437,0.19853 z" clip-path="url(#p87119608ef)" style="fill:#ffffff" id="path19935"/>
      <path d="m 99.550937,170.9614 -0.0082,-0.81501 0.0062,0.0138 0.01436,0.0738 0.08001,-0.0723 0.04924,-0.14769 0.0383,-0.15848 0.0465,-0.10157 0.246193,-0.14312 0.20243,-0.0416 0.19079,-0.13392 0.21405,-0.40185 0.0328,-0.11242 0.0438,-0.24337 0.0301,-0.12632 0.0957,-0.2527 0.0882,-0.0616 0.13062,-0.0262 0.21884,-0.14025 0.0219,-0.0863 0.008,-0.14799 0.0205,-0.15264 0.0561,-0.0971 0.24209,-0.29149 -0.0766,-0.28847 -0.18602,-0.23917 -0.0862,-0.14353 0.0321,-0.16979 0.0308,-0.42305 0.0438,-0.12973 0.21063,-0.12047 0.45135,0.0278 0.30091,-0.14829 0.20994,-0.25338 0.41648,-0.69865 0.22704,-0.2567 0.29543,-0.12219 2.24925,-0.4177 0.28791,-0.16712 0.15865,-0.017 0.17644,0.082 0.35972,0.29244 0.21131,0.10674 0.19901,0.0139 0.41853,-0.0712 0.23661,0.0572 0.34057,0.19489 0.29133,0.23661 1.26926,1.63627 0.23593,0.53715 v 0.53225 l -0.21405,0.16965 -0.70096,0.12028 -0.15387,0.19581 0.16412,0.50864 0.8227,0.0447 0.29611,0.40672 -0.0827,0.36345 -0.26261,0.42489 -0.27697,0.33241 -0.12583,0.0815 0.013,0.12462 0.0472,0.28148 0.0985,0.31832 0.16208,0.23675 0.69959,0.26437 0.32621,0.29656 0.1484,0.63741 -0.0287,0.36231 -0.10121,0.30387 -0.17028,0.27618 -0.23183,0.2577 -0.5765,0.29904 -1.98938,-0.29904 -0.13403,0.0736 -0.26671,0.29442 -0.13131,0.11039 -0.12993,0.0307 -0.27355,-0.0429 -0.13198,0.0123 -0.1826,0.11037 -0.32005,0.30041 -0.13951,0.0674 -0.25235,-0.0552 -0.9198,-0.42304 -0.14498,0.0215 -0.10053,0.0828 -0.0841,0.0889 -0.0985,0.046 -0.12036,-0.0414 -0.18464,-0.18395 -0.1231,-0.0138 -0.28996,0.17015 -0.50059,0.48273 -0.17029,0.0674 -0.0657,-0.17466 0.002,-0.34022 -0.0185,-0.38327 -0.13199,-0.30057 -0.13882,-0.0782 -0.19217,-0.023 -0.21337,0.0276 -0.20242,0.0736 -0.0999,0.0782 -0.72626,1.06841 -0.12037,0.095 -0.12309,-0.0429 -0.013,-0.0245 -0.0499,-0.13943 -0.0198,-0.29883 0.0828,-0.49671 0.0752,-0.10121 0.12515,-0.13189 0.10669,-0.19481 0.013,-0.28996 -0.12788,-0.19796 -1.686424,-1.72181 z" clip-path="url(#p87119608ef)" style="fill:#ffffff" id="path19937"/>
    </g>
  </g>
  </svg>